G04 Layer_Color=65535*
%FSLAX43Y43*%
%MOMM*%
G71*
G01*
G75*
%ADD13C,0.200*%
%ADD63C,0.150*%
%ADD64C,0.127*%
%ADD65C,0.254*%
%ADD66C,0.250*%
%ADD67C,0.100*%
%ADD68R,0.400X1.500*%
%ADD69R,10.200X15.000*%
%ADD70R,1.900X0.500*%
G36*
X56882Y52933D02*
X56911D01*
X56945Y52931D01*
X57014Y52927D01*
X57082Y52923D01*
X57116Y52918D01*
X57148Y52914D01*
X57177Y52910D01*
X57203Y52903D01*
X57205D01*
X57209Y52901D01*
X57216Y52899D01*
X57224Y52897D01*
X57248Y52889D01*
X57278Y52874D01*
X57309Y52855D01*
X57346Y52831D01*
X57380Y52801D01*
X57412Y52763D01*
Y52761D01*
X57416Y52759D01*
X57418Y52752D01*
X57424Y52744D01*
X57431Y52733D01*
X57437Y52720D01*
X57444Y52703D01*
X57450Y52686D01*
X57465Y52646D01*
X57478Y52597D01*
X57486Y52542D01*
X57490Y52478D01*
Y52476D01*
Y52469D01*
Y52461D01*
X57488Y52448D01*
Y52431D01*
X57486Y52414D01*
X57482Y52371D01*
X57473Y52327D01*
X57463Y52278D01*
X57446Y52231D01*
X57424Y52188D01*
Y52186D01*
X57422Y52184D01*
X57412Y52171D01*
X57397Y52152D01*
X57375Y52131D01*
X57350Y52105D01*
X57318Y52080D01*
X57282Y52056D01*
X57239Y52037D01*
X57237D01*
X57233Y52035D01*
X57226Y52033D01*
X57216Y52031D01*
X57201Y52027D01*
X57184Y52022D01*
X57163Y52018D01*
X57139Y52016D01*
X57109Y52012D01*
X57077Y52007D01*
X57041Y52003D01*
X57001Y51999D01*
X56956Y51997D01*
X56907Y51995D01*
X56854Y51992D01*
X56028D01*
Y52231D01*
X56867D01*
X56905Y52233D01*
X56943D01*
X56984Y52235D01*
X57018Y52237D01*
X57031D01*
X57043Y52239D01*
X57048D01*
X57058Y52244D01*
X57075Y52248D01*
X57097Y52254D01*
X57122Y52265D01*
X57146Y52278D01*
X57169Y52293D01*
X57190Y52314D01*
X57192Y52316D01*
X57199Y52325D01*
X57207Y52337D01*
X57216Y52356D01*
X57224Y52378D01*
X57233Y52405D01*
X57239Y52437D01*
X57241Y52471D01*
Y52476D01*
Y52486D01*
X57239Y52501D01*
X57237Y52520D01*
X57233Y52542D01*
X57226Y52563D01*
X57218Y52584D01*
X57205Y52605D01*
X57203Y52608D01*
X57199Y52614D01*
X57190Y52623D01*
X57180Y52633D01*
X57165Y52646D01*
X57148Y52657D01*
X57129Y52667D01*
X57105Y52676D01*
X57101D01*
X57092Y52680D01*
X57084D01*
X57073Y52682D01*
X57060Y52684D01*
X57046Y52686D01*
X57028Y52689D01*
X57007Y52691D01*
X56984Y52693D01*
X56958D01*
X56931Y52695D01*
X56899Y52697D01*
X56028D01*
Y52935D01*
X56854D01*
X56882Y52933D01*
D02*
G37*
G36*
X56271Y53691D02*
X57467D01*
Y53453D01*
X56271D01*
Y53101D01*
X56028D01*
Y54040D01*
X56271D01*
Y53691D01*
D02*
G37*
G36*
X12913Y52479D02*
X12932Y52477D01*
X12955Y52471D01*
X13007Y52455D01*
X13035Y52443D01*
X13066Y52430D01*
X13094Y52413D01*
X13124Y52393D01*
X13155Y52368D01*
X13185Y52338D01*
X13213Y52307D01*
X13241Y52269D01*
X13243Y52266D01*
X13246Y52257D01*
X13255Y52246D01*
X13263Y52227D01*
X13274Y52202D01*
X13285Y52174D01*
X13296Y52138D01*
X13310Y52096D01*
X13324Y52046D01*
X13335Y51994D01*
X13346Y51933D01*
X13357Y51863D01*
X13366Y51791D01*
X13374Y51708D01*
X13377Y51622D01*
X13379Y51524D01*
Y51522D01*
Y51519D01*
Y51511D01*
Y51502D01*
Y51475D01*
X13377Y51438D01*
Y51394D01*
X13371Y51347D01*
X13368Y51291D01*
X13363Y51233D01*
X13346Y51111D01*
X13321Y50986D01*
X13304Y50928D01*
X13288Y50875D01*
X13266Y50825D01*
X13241Y50780D01*
X13238Y50778D01*
X13235Y50772D01*
X13227Y50761D01*
X13216Y50747D01*
X13202Y50730D01*
X13185Y50714D01*
X13143Y50675D01*
X13091Y50636D01*
X13030Y50603D01*
X12996Y50589D01*
X12960Y50578D01*
X12921Y50572D01*
X12880Y50569D01*
X12869D01*
X12858Y50572D01*
X12844D01*
X12824Y50575D01*
X12802Y50581D01*
X12749Y50594D01*
X12721Y50606D01*
X12691Y50619D01*
X12663Y50636D01*
X12633Y50658D01*
X12602Y50681D01*
X12572Y50708D01*
X12544Y50742D01*
X12516Y50778D01*
X12513Y50780D01*
X12510Y50789D01*
X12505Y50800D01*
X12494Y50819D01*
X12486Y50844D01*
X12474Y50872D01*
X12461Y50908D01*
X12449Y50950D01*
X12436Y51000D01*
X12424Y51053D01*
X12411Y51114D01*
X12402Y51183D01*
X12394Y51258D01*
X12386Y51341D01*
X12383Y51430D01*
X12380Y51527D01*
Y51530D01*
Y51533D01*
Y51541D01*
Y51549D01*
Y51577D01*
X12383Y51613D01*
X12386Y51655D01*
X12388Y51705D01*
X12391Y51760D01*
X12397Y51819D01*
X12413Y51941D01*
X12438Y52063D01*
X12452Y52121D01*
X12472Y52174D01*
X12491Y52224D01*
X12516Y52269D01*
X12519Y52271D01*
X12522Y52277D01*
X12530Y52288D01*
X12541Y52302D01*
X12555Y52318D01*
X12572Y52335D01*
X12613Y52377D01*
X12666Y52416D01*
X12727Y52449D01*
X12760Y52463D01*
X12796Y52474D01*
X12835Y52479D01*
X12877Y52482D01*
X12899D01*
X12913Y52479D01*
D02*
G37*
G36*
X56807Y51807D02*
X56837Y51805D01*
X56873Y51801D01*
X56911Y51795D01*
X56954Y51788D01*
X56999Y51780D01*
X57043Y51769D01*
X57090Y51754D01*
X57137Y51737D01*
X57184Y51718D01*
X57229Y51694D01*
X57271Y51669D01*
X57312Y51639D01*
X57314Y51637D01*
X57320Y51633D01*
X57329Y51624D01*
X57339Y51611D01*
X57352Y51597D01*
X57369Y51580D01*
X57384Y51558D01*
X57401Y51533D01*
X57418Y51505D01*
X57433Y51475D01*
X57448Y51443D01*
X57463Y51407D01*
X57473Y51369D01*
X57482Y51326D01*
X57488Y51284D01*
X57490Y51237D01*
Y51235D01*
Y51226D01*
X57488Y51211D01*
Y51194D01*
X57484Y51173D01*
X57482Y51147D01*
X57475Y51120D01*
X57469Y51090D01*
X57458Y51058D01*
X57448Y51026D01*
X57433Y50992D01*
X57416Y50958D01*
X57395Y50926D01*
X57371Y50892D01*
X57346Y50862D01*
X57314Y50832D01*
X57312Y50830D01*
X57305Y50826D01*
X57292Y50818D01*
X57278Y50807D01*
X57256Y50794D01*
X57231Y50779D01*
X57201Y50764D01*
X57169Y50749D01*
X57131Y50732D01*
X57088Y50717D01*
X57043Y50703D01*
X56994Y50690D01*
X56941Y50679D01*
X56884Y50671D01*
X56822Y50666D01*
X56758Y50664D01*
X56733D01*
X56716Y50666D01*
X56694D01*
X56669Y50669D01*
X56639Y50671D01*
X56609Y50673D01*
X56541Y50683D01*
X56471Y50696D01*
X56401Y50713D01*
X56367Y50726D01*
X56335Y50739D01*
X56332D01*
X56328Y50743D01*
X56320Y50747D01*
X56307Y50754D01*
X56294Y50760D01*
X56277Y50769D01*
X56241Y50792D01*
X56200Y50822D01*
X56160Y50854D01*
X56122Y50894D01*
X56088Y50937D01*
Y50939D01*
X56083Y50943D01*
X56079Y50950D01*
X56075Y50958D01*
X56069Y50971D01*
X56062Y50986D01*
X56054Y51003D01*
X56045Y51020D01*
X56030Y51064D01*
X56017Y51116D01*
X56009Y51173D01*
X56005Y51237D01*
Y51239D01*
Y51248D01*
X56007Y51262D01*
Y51279D01*
X56011Y51301D01*
X56015Y51326D01*
X56022Y51354D01*
X56028Y51384D01*
X56039Y51416D01*
X56051Y51450D01*
X56069Y51484D01*
X56086Y51518D01*
X56109Y51552D01*
X56135Y51586D01*
X56164Y51618D01*
X56198Y51650D01*
X56200Y51652D01*
X56207Y51656D01*
X56218Y51665D01*
X56235Y51675D01*
X56254Y51686D01*
X56279Y51701D01*
X56307Y51716D01*
X56339Y51731D01*
X56377Y51746D01*
X56418Y51758D01*
X56462Y51773D01*
X56511Y51784D01*
X56564Y51795D01*
X56622Y51803D01*
X56684Y51807D01*
X56748Y51809D01*
X56782D01*
X56807Y51807D01*
D02*
G37*
G36*
X39182Y52933D02*
X39211D01*
X39245Y52931D01*
X39314Y52927D01*
X39382Y52923D01*
X39416Y52918D01*
X39448Y52914D01*
X39477Y52910D01*
X39503Y52903D01*
X39505D01*
X39509Y52901D01*
X39516Y52899D01*
X39524Y52897D01*
X39548Y52889D01*
X39578Y52874D01*
X39609Y52855D01*
X39646Y52831D01*
X39680Y52801D01*
X39712Y52763D01*
Y52761D01*
X39716Y52759D01*
X39718Y52752D01*
X39724Y52744D01*
X39731Y52733D01*
X39737Y52720D01*
X39744Y52703D01*
X39750Y52686D01*
X39765Y52646D01*
X39778Y52597D01*
X39786Y52542D01*
X39790Y52478D01*
Y52476D01*
Y52469D01*
Y52461D01*
X39788Y52448D01*
Y52431D01*
X39786Y52414D01*
X39782Y52371D01*
X39773Y52327D01*
X39763Y52278D01*
X39746Y52231D01*
X39724Y52188D01*
Y52186D01*
X39722Y52184D01*
X39712Y52171D01*
X39697Y52152D01*
X39675Y52131D01*
X39650Y52105D01*
X39618Y52080D01*
X39582Y52056D01*
X39539Y52037D01*
X39537D01*
X39533Y52035D01*
X39526Y52033D01*
X39516Y52031D01*
X39501Y52027D01*
X39484Y52022D01*
X39463Y52018D01*
X39439Y52016D01*
X39409Y52012D01*
X39377Y52007D01*
X39341Y52003D01*
X39301Y51999D01*
X39256Y51997D01*
X39207Y51995D01*
X39154Y51992D01*
X38328D01*
Y52231D01*
X39167D01*
X39205Y52233D01*
X39243D01*
X39284Y52235D01*
X39318Y52237D01*
X39331D01*
X39343Y52239D01*
X39348D01*
X39358Y52244D01*
X39375Y52248D01*
X39397Y52254D01*
X39422Y52265D01*
X39446Y52278D01*
X39469Y52293D01*
X39490Y52314D01*
X39492Y52316D01*
X39499Y52325D01*
X39507Y52337D01*
X39516Y52356D01*
X39524Y52378D01*
X39533Y52405D01*
X39539Y52437D01*
X39541Y52471D01*
Y52476D01*
Y52486D01*
X39539Y52501D01*
X39537Y52520D01*
X39533Y52542D01*
X39526Y52563D01*
X39518Y52584D01*
X39505Y52605D01*
X39503Y52608D01*
X39499Y52614D01*
X39490Y52623D01*
X39480Y52633D01*
X39465Y52646D01*
X39448Y52657D01*
X39429Y52667D01*
X39405Y52676D01*
X39401D01*
X39392Y52680D01*
X39384D01*
X39373Y52682D01*
X39360Y52684D01*
X39346Y52686D01*
X39328Y52689D01*
X39307Y52691D01*
X39284Y52693D01*
X39258D01*
X39231Y52695D01*
X39199Y52697D01*
X38328D01*
Y52935D01*
X39154D01*
X39182Y52933D01*
D02*
G37*
G36*
X38571Y53691D02*
X39767D01*
Y53453D01*
X38571D01*
Y53101D01*
X38328D01*
Y54040D01*
X38571D01*
Y53691D01*
D02*
G37*
G36*
X57084Y54123D02*
X56807D01*
Y54570D01*
X57084D01*
Y54123D01*
D02*
G37*
G36*
X39107Y51807D02*
X39137Y51805D01*
X39173Y51801D01*
X39211Y51795D01*
X39254Y51788D01*
X39299Y51780D01*
X39343Y51769D01*
X39390Y51754D01*
X39437Y51737D01*
X39484Y51718D01*
X39529Y51694D01*
X39571Y51669D01*
X39612Y51639D01*
X39614Y51637D01*
X39620Y51633D01*
X39629Y51624D01*
X39639Y51611D01*
X39652Y51597D01*
X39669Y51580D01*
X39684Y51558D01*
X39701Y51533D01*
X39718Y51505D01*
X39733Y51475D01*
X39748Y51443D01*
X39763Y51407D01*
X39773Y51369D01*
X39782Y51326D01*
X39788Y51284D01*
X39790Y51237D01*
Y51235D01*
Y51226D01*
X39788Y51211D01*
Y51194D01*
X39784Y51173D01*
X39782Y51147D01*
X39775Y51120D01*
X39769Y51090D01*
X39758Y51058D01*
X39748Y51026D01*
X39733Y50992D01*
X39716Y50958D01*
X39695Y50926D01*
X39671Y50892D01*
X39646Y50862D01*
X39614Y50832D01*
X39612Y50830D01*
X39605Y50826D01*
X39592Y50818D01*
X39578Y50807D01*
X39556Y50794D01*
X39531Y50779D01*
X39501Y50764D01*
X39469Y50749D01*
X39431Y50732D01*
X39388Y50717D01*
X39343Y50703D01*
X39294Y50690D01*
X39241Y50679D01*
X39184Y50671D01*
X39122Y50666D01*
X39058Y50664D01*
X39033D01*
X39016Y50666D01*
X38994D01*
X38969Y50669D01*
X38939Y50671D01*
X38909Y50673D01*
X38841Y50683D01*
X38771Y50696D01*
X38701Y50713D01*
X38667Y50726D01*
X38635Y50739D01*
X38632D01*
X38628Y50743D01*
X38620Y50747D01*
X38607Y50754D01*
X38594Y50760D01*
X38577Y50769D01*
X38541Y50792D01*
X38500Y50822D01*
X38460Y50854D01*
X38422Y50894D01*
X38388Y50937D01*
Y50939D01*
X38383Y50943D01*
X38379Y50950D01*
X38375Y50958D01*
X38369Y50971D01*
X38362Y50986D01*
X38354Y51003D01*
X38345Y51020D01*
X38330Y51064D01*
X38317Y51116D01*
X38309Y51173D01*
X38305Y51237D01*
Y51239D01*
Y51248D01*
X38307Y51262D01*
Y51279D01*
X38311Y51301D01*
X38315Y51326D01*
X38322Y51354D01*
X38328Y51384D01*
X38339Y51416D01*
X38351Y51450D01*
X38369Y51484D01*
X38386Y51518D01*
X38409Y51552D01*
X38435Y51586D01*
X38464Y51618D01*
X38498Y51650D01*
X38500Y51652D01*
X38507Y51656D01*
X38518Y51665D01*
X38535Y51675D01*
X38554Y51686D01*
X38579Y51701D01*
X38607Y51716D01*
X38639Y51731D01*
X38677Y51746D01*
X38718Y51758D01*
X38762Y51773D01*
X38811Y51784D01*
X38864Y51795D01*
X38922Y51803D01*
X38984Y51807D01*
X39048Y51809D01*
X39082D01*
X39107Y51807D01*
D02*
G37*
G36*
X1300Y27146D02*
X363D01*
Y27302D01*
X1300D01*
Y27146D01*
D02*
G37*
G36*
Y28793D02*
X363D01*
Y28948D01*
X1300D01*
Y28793D01*
D02*
G37*
G36*
X1049Y29681D02*
X1059Y29679D01*
X1071Y29678D01*
X1085Y29675D01*
X1099Y29672D01*
X1132Y29664D01*
X1167Y29650D01*
X1184Y29642D01*
X1200Y29631D01*
X1217Y29620D01*
X1233Y29606D01*
X1235Y29604D01*
X1238Y29602D01*
X1240Y29597D01*
X1246Y29592D01*
X1253Y29584D01*
X1260Y29574D01*
X1267Y29561D01*
X1274Y29549D01*
X1282Y29534D01*
X1289Y29516D01*
X1296Y29496D01*
X1303Y29475D01*
X1308Y29452D01*
X1311Y29427D01*
X1314Y29401D01*
X1315Y29371D01*
Y29370D01*
Y29369D01*
Y29365D01*
Y29359D01*
X1312Y29345D01*
X1310Y29327D01*
X1306Y29305D01*
X1299Y29280D01*
X1289Y29254D01*
X1275Y29226D01*
X1258Y29198D01*
X1236Y29170D01*
X1211Y29144D01*
X1196Y29132D01*
X1179Y29119D01*
X1161Y29108D01*
X1143Y29098D01*
X1122Y29089D01*
X1100Y29079D01*
X1075Y29072D01*
X1050Y29065D01*
X1023Y29061D01*
X994Y29057D01*
X975Y29208D01*
X977D01*
X984Y29209D01*
X992Y29211D01*
X1003Y29213D01*
X1017Y29218D01*
X1032Y29223D01*
X1049Y29230D01*
X1066Y29238D01*
X1082Y29248D01*
X1099Y29259D01*
X1114Y29273D01*
X1128Y29290D01*
X1139Y29308D01*
X1147Y29327D01*
X1154Y29351D01*
X1156Y29376D01*
Y29377D01*
Y29378D01*
Y29387D01*
X1154Y29399D01*
X1152Y29416D01*
X1147Y29432D01*
X1141Y29450D01*
X1132Y29469D01*
X1120Y29485D01*
X1118Y29487D01*
X1113Y29492D01*
X1104Y29499D01*
X1095Y29506D01*
X1081Y29514D01*
X1066Y29520D01*
X1048Y29525D01*
X1028Y29527D01*
X1023D01*
X1017Y29525D01*
X1009D01*
X992Y29520D01*
X982Y29517D01*
X974Y29512D01*
X973D01*
X970Y29509D01*
X962Y29500D01*
X956Y29495D01*
X949Y29488D01*
X944Y29478D01*
X938Y29469D01*
X937Y29467D01*
X935Y29463D01*
X931Y29453D01*
X926Y29441D01*
X923Y29432D01*
X920Y29423D01*
X916Y29412D01*
X912Y29398D01*
X906Y29384D01*
X901Y29367D01*
X895Y29349D01*
X890Y29330D01*
Y29328D01*
X888Y29326D01*
X887Y29320D01*
X884Y29313D01*
X881Y29305D01*
X878Y29297D01*
X870Y29274D01*
X860Y29251D01*
X849Y29226D01*
X837Y29204D01*
X824Y29184D01*
X823Y29183D01*
X817Y29177D01*
X810Y29169D01*
X799Y29158D01*
X787Y29147D01*
X772Y29134D01*
X754Y29122D01*
X733Y29111D01*
X730Y29109D01*
X723Y29107D01*
X711Y29102D01*
X695Y29098D01*
X677Y29093D01*
X657Y29089D01*
X633Y29086D01*
X609Y29084D01*
X597D01*
X582Y29086D01*
X564Y29089D01*
X543Y29093D01*
X519Y29100D01*
X496Y29108D01*
X472Y29119D01*
X471D01*
X469Y29120D01*
X462Y29126D01*
X451Y29133D01*
X437Y29144D01*
X422Y29158D01*
X407Y29175D01*
X392Y29193D01*
X379Y29215D01*
Y29216D01*
X378Y29218D01*
X374Y29226D01*
X369Y29240D01*
X363Y29258D01*
X357Y29280D01*
X353Y29305D01*
X349Y29335D01*
X347Y29367D01*
Y29369D01*
Y29373D01*
Y29380D01*
X349Y29389D01*
X350Y29401D01*
X351Y29414D01*
X353Y29428D01*
X357Y29445D01*
X365Y29478D01*
X379Y29514D01*
X387Y29531D01*
X397Y29549D01*
X408Y29564D01*
X422Y29579D01*
X424Y29581D01*
X425Y29582D01*
X430Y29586D01*
X436Y29592D01*
X443Y29597D01*
X453Y29604D01*
X464Y29611D01*
X476Y29618D01*
X490Y29625D01*
X505Y29634D01*
X523Y29640D01*
X541Y29646D01*
X562Y29652D01*
X583Y29656D01*
X607Y29660D01*
X632Y29661D01*
X640Y29506D01*
X637D01*
X633Y29505D01*
X627Y29503D01*
X615Y29500D01*
X598Y29496D01*
X582Y29489D01*
X564Y29482D01*
X548Y29473D01*
X534Y29460D01*
X533Y29459D01*
X530Y29455D01*
X525Y29446D01*
X519Y29435D01*
X514Y29421D01*
X508Y29405D01*
X505Y29385D01*
X504Y29363D01*
Y29360D01*
Y29353D01*
X505Y29341D01*
X507Y29327D01*
X511Y29312D01*
X515Y29297D01*
X522Y29280D01*
X530Y29266D01*
X532Y29265D01*
X534Y29260D01*
X540Y29255D01*
X548Y29249D01*
X558Y29244D01*
X569Y29238D01*
X582Y29234D01*
X595Y29233D01*
X601D01*
X608Y29234D01*
X618Y29237D01*
X627Y29240D01*
X637Y29245D01*
X648Y29254D01*
X658Y29263D01*
X659Y29265D01*
X662Y29270D01*
X668Y29279D01*
X675Y29292D01*
X679Y29302D01*
X684Y29312D01*
X688Y29323D01*
X694Y29337D01*
X700Y29351D01*
X705Y29367D01*
X711Y29385D01*
X716Y29405D01*
Y29406D01*
X718Y29410D01*
X719Y29416D01*
X722Y29424D01*
X726Y29434D01*
X729Y29445D01*
X738Y29470D01*
X749Y29498D01*
X761Y29525D01*
X774Y29552D01*
X781Y29564D01*
X788Y29574D01*
X790Y29577D01*
X795Y29582D01*
X802Y29592D01*
X813Y29604D01*
X827Y29617D01*
X844Y29631D01*
X863Y29643D01*
X884Y29654D01*
X887Y29656D01*
X895Y29659D01*
X908Y29663D01*
X924Y29668D01*
X945Y29674D01*
X970Y29678D01*
X998Y29681D01*
X1028Y29682D01*
X1039D01*
X1049Y29681D01*
D02*
G37*
G36*
X1149Y24287D02*
X1159Y24285D01*
X1171Y24284D01*
X1185Y24281D01*
X1199Y24279D01*
X1232Y24270D01*
X1267Y24256D01*
X1284Y24248D01*
X1300Y24237D01*
X1317Y24226D01*
X1333Y24212D01*
X1335Y24211D01*
X1338Y24208D01*
X1340Y24204D01*
X1346Y24198D01*
X1353Y24190D01*
X1360Y24180D01*
X1367Y24168D01*
X1374Y24155D01*
X1382Y24140D01*
X1389Y24122D01*
X1396Y24102D01*
X1403Y24082D01*
X1408Y24058D01*
X1411Y24033D01*
X1414Y24007D01*
X1415Y23978D01*
Y23976D01*
Y23975D01*
Y23971D01*
Y23965D01*
X1412Y23951D01*
X1410Y23933D01*
X1406Y23911D01*
X1399Y23886D01*
X1389Y23860D01*
X1375Y23832D01*
X1358Y23804D01*
X1336Y23776D01*
X1311Y23750D01*
X1296Y23738D01*
X1279Y23725D01*
X1261Y23714D01*
X1243Y23704D01*
X1222Y23695D01*
X1200Y23685D01*
X1175Y23678D01*
X1150Y23671D01*
X1123Y23667D01*
X1094Y23663D01*
X1075Y23814D01*
X1077D01*
X1084Y23815D01*
X1092Y23817D01*
X1103Y23819D01*
X1117Y23824D01*
X1132Y23829D01*
X1149Y23836D01*
X1166Y23844D01*
X1182Y23854D01*
X1199Y23865D01*
X1214Y23879D01*
X1228Y23896D01*
X1239Y23914D01*
X1247Y23933D01*
X1254Y23957D01*
X1256Y23982D01*
Y23983D01*
Y23985D01*
Y23993D01*
X1254Y24005D01*
X1252Y24022D01*
X1247Y24039D01*
X1241Y24057D01*
X1232Y24075D01*
X1220Y24091D01*
X1218Y24093D01*
X1213Y24098D01*
X1204Y24105D01*
X1195Y24112D01*
X1181Y24120D01*
X1166Y24126D01*
X1148Y24132D01*
X1128Y24133D01*
X1123D01*
X1117Y24132D01*
X1109D01*
X1092Y24126D01*
X1082Y24123D01*
X1074Y24118D01*
X1073D01*
X1070Y24115D01*
X1062Y24107D01*
X1056Y24101D01*
X1049Y24094D01*
X1044Y24084D01*
X1038Y24075D01*
X1037Y24073D01*
X1035Y24069D01*
X1031Y24059D01*
X1026Y24047D01*
X1023Y24039D01*
X1020Y24029D01*
X1016Y24018D01*
X1012Y24004D01*
X1006Y23990D01*
X1001Y23973D01*
X995Y23955D01*
X989Y23936D01*
Y23935D01*
X988Y23932D01*
X987Y23926D01*
X984Y23919D01*
X981Y23911D01*
X978Y23903D01*
X970Y23881D01*
X960Y23857D01*
X949Y23832D01*
X937Y23810D01*
X924Y23790D01*
X923Y23789D01*
X917Y23783D01*
X910Y23775D01*
X899Y23764D01*
X887Y23753D01*
X872Y23740D01*
X854Y23728D01*
X833Y23717D01*
X830Y23715D01*
X823Y23713D01*
X811Y23709D01*
X795Y23704D01*
X777Y23699D01*
X757Y23695D01*
X733Y23692D01*
X709Y23691D01*
X697D01*
X682Y23692D01*
X664Y23695D01*
X643Y23699D01*
X619Y23706D01*
X596Y23714D01*
X572Y23725D01*
X571D01*
X569Y23727D01*
X562Y23732D01*
X551Y23739D01*
X537Y23750D01*
X522Y23764D01*
X507Y23781D01*
X492Y23799D01*
X479Y23821D01*
Y23822D01*
X478Y23824D01*
X474Y23832D01*
X469Y23846D01*
X463Y23864D01*
X457Y23886D01*
X453Y23911D01*
X449Y23942D01*
X447Y23973D01*
Y23975D01*
Y23979D01*
Y23986D01*
X449Y23996D01*
X450Y24007D01*
X451Y24021D01*
X453Y24034D01*
X457Y24051D01*
X465Y24084D01*
X479Y24120D01*
X487Y24137D01*
X497Y24155D01*
X508Y24170D01*
X522Y24186D01*
X524Y24187D01*
X525Y24188D01*
X530Y24193D01*
X536Y24198D01*
X543Y24204D01*
X553Y24211D01*
X564Y24218D01*
X576Y24224D01*
X590Y24231D01*
X605Y24240D01*
X623Y24247D01*
X641Y24252D01*
X662Y24258D01*
X683Y24262D01*
X707Y24266D01*
X732Y24267D01*
X740Y24112D01*
X737D01*
X733Y24111D01*
X727Y24109D01*
X715Y24107D01*
X698Y24102D01*
X682Y24095D01*
X664Y24089D01*
X648Y24079D01*
X634Y24066D01*
X633Y24065D01*
X630Y24061D01*
X625Y24052D01*
X619Y24041D01*
X614Y24028D01*
X608Y24011D01*
X605Y23991D01*
X604Y23969D01*
Y23966D01*
Y23960D01*
X605Y23947D01*
X607Y23933D01*
X611Y23918D01*
X615Y23903D01*
X622Y23886D01*
X630Y23872D01*
X632Y23871D01*
X634Y23867D01*
X640Y23861D01*
X648Y23856D01*
X658Y23850D01*
X669Y23844D01*
X682Y23840D01*
X695Y23839D01*
X701D01*
X708Y23840D01*
X718Y23843D01*
X727Y23846D01*
X737Y23851D01*
X748Y23860D01*
X758Y23869D01*
X759Y23871D01*
X762Y23876D01*
X768Y23885D01*
X775Y23899D01*
X779Y23908D01*
X784Y23918D01*
X788Y23929D01*
X794Y23943D01*
X799Y23957D01*
X805Y23973D01*
X811Y23991D01*
X816Y24011D01*
Y24012D01*
X818Y24016D01*
X819Y24022D01*
X822Y24030D01*
X826Y24040D01*
X829Y24051D01*
X838Y24076D01*
X849Y24104D01*
X861Y24132D01*
X874Y24158D01*
X881Y24170D01*
X888Y24180D01*
X890Y24183D01*
X895Y24188D01*
X902Y24198D01*
X913Y24211D01*
X927Y24223D01*
X944Y24237D01*
X963Y24249D01*
X984Y24260D01*
X987Y24262D01*
X995Y24265D01*
X1008Y24269D01*
X1024Y24274D01*
X1045Y24280D01*
X1070Y24284D01*
X1098Y24287D01*
X1128Y24288D01*
X1139D01*
X1149Y24287D01*
D02*
G37*
G36*
X1300Y28500D02*
X561D01*
X1300Y28345D01*
Y28197D01*
X561Y28044D01*
X1300D01*
Y27900D01*
X363D01*
Y28132D01*
X1005Y28272D01*
X363Y28410D01*
Y28645D01*
X1300D01*
Y28500D01*
D02*
G37*
G36*
X870Y26312D02*
X890Y26310D01*
X913Y26307D01*
X938Y26303D01*
X966Y26299D01*
X995Y26293D01*
X1024Y26287D01*
X1055Y26277D01*
X1085Y26266D01*
X1116Y26253D01*
X1145Y26238D01*
X1172Y26221D01*
X1199Y26202D01*
X1200Y26201D01*
X1204Y26198D01*
X1210Y26192D01*
X1217Y26184D01*
X1225Y26174D01*
X1236Y26163D01*
X1246Y26149D01*
X1257Y26133D01*
X1268Y26115D01*
X1278Y26095D01*
X1288Y26074D01*
X1297Y26051D01*
X1304Y26026D01*
X1310Y25998D01*
X1314Y25970D01*
X1315Y25940D01*
Y25938D01*
Y25933D01*
X1314Y25923D01*
Y25912D01*
X1311Y25898D01*
X1310Y25882D01*
X1306Y25864D01*
X1301Y25844D01*
X1294Y25823D01*
X1288Y25803D01*
X1278Y25780D01*
X1267Y25758D01*
X1253Y25737D01*
X1238Y25715D01*
X1221Y25696D01*
X1200Y25676D01*
X1199Y25675D01*
X1195Y25672D01*
X1186Y25667D01*
X1177Y25660D01*
X1163Y25651D01*
X1146Y25642D01*
X1127Y25632D01*
X1106Y25622D01*
X1081Y25611D01*
X1053Y25601D01*
X1024Y25592D01*
X992Y25583D01*
X957Y25576D01*
X920Y25571D01*
X880Y25568D01*
X838Y25567D01*
X822D01*
X810Y25568D01*
X797D01*
X780Y25570D01*
X761Y25571D01*
X741Y25572D01*
X697Y25579D01*
X651Y25588D01*
X605Y25599D01*
X583Y25607D01*
X562Y25615D01*
X561D01*
X558Y25618D01*
X552Y25621D01*
X544Y25625D01*
X536Y25629D01*
X525Y25635D01*
X501Y25650D01*
X475Y25669D01*
X448Y25690D01*
X424Y25717D01*
X401Y25744D01*
Y25746D01*
X399Y25748D01*
X396Y25753D01*
X393Y25758D01*
X389Y25766D01*
X385Y25776D01*
X379Y25787D01*
X374Y25798D01*
X364Y25827D01*
X356Y25861D01*
X350Y25898D01*
X347Y25940D01*
Y25941D01*
Y25947D01*
X349Y25956D01*
Y25968D01*
X351Y25981D01*
X354Y25998D01*
X358Y26016D01*
X363Y26036D01*
X369Y26056D01*
X378Y26079D01*
X389Y26101D01*
X400Y26123D01*
X415Y26145D01*
X432Y26167D01*
X451Y26188D01*
X473Y26209D01*
X475Y26210D01*
X479Y26213D01*
X486Y26219D01*
X497Y26226D01*
X510Y26232D01*
X526Y26242D01*
X544Y26252D01*
X565Y26262D01*
X590Y26271D01*
X616Y26280D01*
X645Y26289D01*
X677Y26296D01*
X712Y26303D01*
X749Y26309D01*
X790Y26312D01*
X831Y26313D01*
X853D01*
X870Y26312D01*
D02*
G37*
G36*
X1049Y27019D02*
X1059Y27017D01*
X1071Y27016D01*
X1085Y27013D01*
X1099Y27010D01*
X1132Y27002D01*
X1167Y26988D01*
X1184Y26980D01*
X1200Y26969D01*
X1217Y26958D01*
X1233Y26944D01*
X1235Y26943D01*
X1238Y26940D01*
X1240Y26936D01*
X1246Y26930D01*
X1253Y26922D01*
X1260Y26912D01*
X1267Y26900D01*
X1274Y26887D01*
X1282Y26872D01*
X1289Y26854D01*
X1296Y26834D01*
X1303Y26814D01*
X1308Y26790D01*
X1311Y26765D01*
X1314Y26739D01*
X1315Y26710D01*
Y26708D01*
Y26707D01*
Y26703D01*
Y26697D01*
X1312Y26683D01*
X1310Y26665D01*
X1306Y26643D01*
X1299Y26618D01*
X1289Y26592D01*
X1275Y26564D01*
X1258Y26536D01*
X1236Y26508D01*
X1211Y26482D01*
X1196Y26470D01*
X1179Y26457D01*
X1161Y26446D01*
X1143Y26436D01*
X1122Y26427D01*
X1100Y26417D01*
X1075Y26410D01*
X1050Y26403D01*
X1023Y26399D01*
X994Y26395D01*
X975Y26546D01*
X977D01*
X984Y26547D01*
X992Y26549D01*
X1003Y26551D01*
X1017Y26556D01*
X1032Y26561D01*
X1049Y26568D01*
X1066Y26576D01*
X1082Y26586D01*
X1099Y26597D01*
X1114Y26611D01*
X1128Y26628D01*
X1139Y26646D01*
X1147Y26665D01*
X1154Y26689D01*
X1156Y26714D01*
Y26715D01*
Y26716D01*
Y26725D01*
X1154Y26737D01*
X1152Y26754D01*
X1147Y26771D01*
X1141Y26789D01*
X1132Y26807D01*
X1120Y26823D01*
X1118Y26825D01*
X1113Y26830D01*
X1104Y26837D01*
X1095Y26844D01*
X1081Y26852D01*
X1066Y26858D01*
X1048Y26863D01*
X1028Y26865D01*
X1023D01*
X1017Y26863D01*
X1009D01*
X992Y26858D01*
X982Y26855D01*
X974Y26850D01*
X973D01*
X970Y26847D01*
X962Y26839D01*
X956Y26833D01*
X949Y26826D01*
X944Y26816D01*
X938Y26807D01*
X937Y26805D01*
X935Y26801D01*
X931Y26791D01*
X926Y26779D01*
X923Y26771D01*
X920Y26761D01*
X916Y26750D01*
X912Y26736D01*
X906Y26722D01*
X901Y26705D01*
X895Y26687D01*
X890Y26668D01*
Y26667D01*
X888Y26664D01*
X887Y26658D01*
X884Y26651D01*
X881Y26643D01*
X878Y26635D01*
X870Y26612D01*
X860Y26589D01*
X849Y26564D01*
X837Y26542D01*
X824Y26522D01*
X823Y26521D01*
X817Y26515D01*
X810Y26507D01*
X799Y26496D01*
X787Y26485D01*
X772Y26472D01*
X754Y26460D01*
X733Y26449D01*
X730Y26447D01*
X723Y26445D01*
X711Y26440D01*
X695Y26436D01*
X677Y26431D01*
X657Y26427D01*
X633Y26424D01*
X609Y26422D01*
X597D01*
X582Y26424D01*
X564Y26427D01*
X543Y26431D01*
X519Y26438D01*
X496Y26446D01*
X472Y26457D01*
X471D01*
X469Y26459D01*
X462Y26464D01*
X451Y26471D01*
X437Y26482D01*
X422Y26496D01*
X407Y26513D01*
X392Y26531D01*
X379Y26553D01*
Y26554D01*
X378Y26556D01*
X374Y26564D01*
X369Y26578D01*
X363Y26596D01*
X357Y26618D01*
X353Y26643D01*
X349Y26673D01*
X347Y26705D01*
Y26707D01*
Y26711D01*
Y26718D01*
X349Y26728D01*
X350Y26739D01*
X351Y26753D01*
X353Y26766D01*
X357Y26783D01*
X365Y26816D01*
X379Y26852D01*
X387Y26869D01*
X397Y26887D01*
X408Y26902D01*
X422Y26918D01*
X424Y26919D01*
X425Y26920D01*
X430Y26924D01*
X436Y26930D01*
X443Y26936D01*
X453Y26943D01*
X464Y26949D01*
X476Y26956D01*
X490Y26963D01*
X505Y26972D01*
X523Y26979D01*
X541Y26984D01*
X562Y26990D01*
X583Y26994D01*
X607Y26998D01*
X632Y26999D01*
X640Y26844D01*
X637D01*
X633Y26843D01*
X627Y26841D01*
X615Y26839D01*
X598Y26834D01*
X582Y26827D01*
X564Y26820D01*
X548Y26811D01*
X534Y26798D01*
X533Y26797D01*
X530Y26793D01*
X525Y26784D01*
X519Y26773D01*
X514Y26759D01*
X508Y26743D01*
X505Y26723D01*
X504Y26701D01*
Y26698D01*
Y26691D01*
X505Y26679D01*
X507Y26665D01*
X511Y26650D01*
X515Y26635D01*
X522Y26618D01*
X530Y26604D01*
X532Y26603D01*
X534Y26599D01*
X540Y26593D01*
X548Y26587D01*
X558Y26582D01*
X569Y26576D01*
X582Y26572D01*
X595Y26571D01*
X601D01*
X608Y26572D01*
X618Y26575D01*
X627Y26578D01*
X637Y26583D01*
X648Y26592D01*
X658Y26601D01*
X659Y26603D01*
X662Y26608D01*
X668Y26617D01*
X675Y26630D01*
X679Y26640D01*
X684Y26650D01*
X688Y26661D01*
X694Y26675D01*
X700Y26689D01*
X705Y26705D01*
X711Y26723D01*
X716Y26743D01*
Y26744D01*
X718Y26748D01*
X719Y26754D01*
X722Y26762D01*
X726Y26772D01*
X729Y26783D01*
X738Y26808D01*
X749Y26836D01*
X761Y26863D01*
X774Y26890D01*
X781Y26902D01*
X788Y26912D01*
X790Y26915D01*
X795Y26920D01*
X802Y26930D01*
X813Y26943D01*
X827Y26955D01*
X844Y26969D01*
X863Y26981D01*
X884Y26992D01*
X887Y26994D01*
X895Y26997D01*
X908Y27001D01*
X924Y27006D01*
X945Y27012D01*
X970Y27016D01*
X998Y27019D01*
X1028Y27020D01*
X1039D01*
X1049Y27019D01*
D02*
G37*
G36*
X870Y30527D02*
X890Y30525D01*
X913Y30523D01*
X938Y30518D01*
X966Y30514D01*
X995Y30509D01*
X1024Y30502D01*
X1055Y30492D01*
X1085Y30481D01*
X1116Y30468D01*
X1145Y30453D01*
X1172Y30437D01*
X1199Y30417D01*
X1200Y30416D01*
X1204Y30413D01*
X1210Y30407D01*
X1217Y30399D01*
X1225Y30389D01*
X1236Y30378D01*
X1246Y30364D01*
X1257Y30348D01*
X1268Y30330D01*
X1278Y30310D01*
X1288Y30290D01*
X1297Y30266D01*
X1304Y30241D01*
X1310Y30213D01*
X1314Y30186D01*
X1315Y30155D01*
Y30154D01*
Y30148D01*
X1314Y30138D01*
Y30127D01*
X1311Y30113D01*
X1310Y30097D01*
X1306Y30079D01*
X1301Y30059D01*
X1294Y30039D01*
X1288Y30018D01*
X1278Y29996D01*
X1267Y29973D01*
X1253Y29953D01*
X1238Y29930D01*
X1221Y29911D01*
X1200Y29892D01*
X1199Y29890D01*
X1195Y29887D01*
X1186Y29882D01*
X1177Y29875D01*
X1163Y29867D01*
X1146Y29857D01*
X1127Y29847D01*
X1106Y29837D01*
X1081Y29826D01*
X1053Y29817D01*
X1024Y29807D01*
X992Y29799D01*
X957Y29792D01*
X920Y29786D01*
X880Y29783D01*
X838Y29782D01*
X822D01*
X810Y29783D01*
X797D01*
X780Y29785D01*
X761Y29786D01*
X741Y29787D01*
X697Y29794D01*
X651Y29803D01*
X605Y29814D01*
X583Y29822D01*
X562Y29830D01*
X561D01*
X558Y29833D01*
X552Y29836D01*
X544Y29840D01*
X536Y29844D01*
X525Y29850D01*
X501Y29865D01*
X475Y29885D01*
X448Y29905D01*
X424Y29932D01*
X401Y29959D01*
Y29961D01*
X399Y29964D01*
X396Y29968D01*
X393Y29973D01*
X389Y29982D01*
X385Y29991D01*
X379Y30002D01*
X374Y30014D01*
X364Y30043D01*
X356Y30076D01*
X350Y30113D01*
X347Y30155D01*
Y30156D01*
Y30162D01*
X349Y30172D01*
Y30183D01*
X351Y30197D01*
X354Y30213D01*
X358Y30231D01*
X363Y30251D01*
X369Y30271D01*
X378Y30294D01*
X389Y30316D01*
X400Y30338D01*
X415Y30360D01*
X432Y30382D01*
X451Y30403D01*
X473Y30424D01*
X475Y30425D01*
X479Y30428D01*
X486Y30434D01*
X497Y30441D01*
X510Y30448D01*
X526Y30457D01*
X544Y30467D01*
X565Y30477D01*
X590Y30486D01*
X616Y30495D01*
X645Y30504D01*
X677Y30511D01*
X712Y30518D01*
X749Y30524D01*
X790Y30527D01*
X831Y30528D01*
X853D01*
X870Y30527D01*
D02*
G37*
G36*
X1300Y25301D02*
X561D01*
X1300Y25145D01*
Y24997D01*
X561Y24844D01*
X1300D01*
Y24700D01*
X363D01*
Y24932D01*
X1005Y25072D01*
X363Y25210D01*
Y25445D01*
X1300D01*
Y25301D01*
D02*
G37*
G36*
X89168Y32316D02*
X88961Y32203D01*
X88959D01*
X88955Y32200D01*
X88950Y32197D01*
X88942Y32193D01*
X88934Y32187D01*
X88924Y32182D01*
X88902Y32169D01*
X88878Y32155D01*
X88854Y32141D01*
X88844Y32135D01*
X88835Y32128D01*
X88827Y32122D01*
X88821Y32118D01*
X88820Y32117D01*
X88817Y32114D01*
X88811Y32110D01*
X88806Y32104D01*
X88793Y32090D01*
X88786Y32082D01*
X88782Y32072D01*
Y32070D01*
X88780Y32067D01*
X88778Y32062D01*
X88776Y32053D01*
X88773Y32042D01*
X88772Y32028D01*
X88770Y32013D01*
Y31993D01*
Y31962D01*
X89168D01*
Y31804D01*
X88215D01*
Y32137D01*
Y32138D01*
Y32142D01*
Y32149D01*
Y32158D01*
X88216Y32168D01*
Y32180D01*
X88218Y32207D01*
X88222Y32237D01*
X88226Y32266D01*
X88233Y32294D01*
X88238Y32307D01*
X88242Y32318D01*
X88243Y32321D01*
X88246Y32328D01*
X88253Y32338D01*
X88263Y32351D01*
X88274Y32365D01*
X88290Y32379D01*
X88308Y32395D01*
X88331Y32409D01*
X88333Y32410D01*
X88342Y32414D01*
X88356Y32420D01*
X88373Y32427D01*
X88396Y32433D01*
X88422Y32438D01*
X88450Y32442D01*
X88483Y32444D01*
X88494D01*
X88501Y32442D01*
X88511D01*
X88522Y32441D01*
X88548Y32437D01*
X88576Y32431D01*
X88606Y32421D01*
X88635Y32407D01*
X88663Y32389D01*
X88665D01*
X88666Y32386D01*
X88675Y32379D01*
X88686Y32366D01*
X88699Y32349D01*
X88714Y32328D01*
X88728Y32301D01*
X88739Y32272D01*
X88748Y32237D01*
X88749Y32239D01*
X88755Y32245D01*
X88762Y32255D01*
X88772Y32266D01*
X88783Y32279D01*
X88797Y32293D01*
X88813Y32307D01*
X88828Y32320D01*
X88830Y32321D01*
X88837Y32325D01*
X88848Y32334D01*
X88864Y32344D01*
X88885Y32356D01*
X88897Y32364D01*
X88911Y32372D01*
X88927Y32380D01*
X88944Y32390D01*
X88964Y32400D01*
X88983Y32410D01*
X89168Y32506D01*
Y32316D01*
D02*
G37*
G36*
X89015Y25593D02*
X89022Y25586D01*
X89033Y25575D01*
X89047Y25558D01*
X89064Y25537D01*
X89081Y25513D01*
X89099Y25483D01*
X89116Y25449D01*
Y25448D01*
X89118Y25445D01*
X89120Y25439D01*
X89123Y25434D01*
X89126Y25424D01*
X89129Y25414D01*
X89137Y25390D01*
X89144Y25362D01*
X89151Y25329D01*
X89157Y25296D01*
X89158Y25260D01*
Y25259D01*
Y25255D01*
Y25249D01*
X89157Y25241D01*
Y25231D01*
X89156Y25220D01*
X89154Y25205D01*
X89151Y25191D01*
X89144Y25160D01*
X89134Y25125D01*
X89120Y25090D01*
X89102Y25056D01*
X89101Y25055D01*
X89099Y25052D01*
X89096Y25048D01*
X89091Y25042D01*
X89078Y25025D01*
X89060Y25005D01*
X89036Y24983D01*
X89006Y24959D01*
X88972Y24936D01*
X88933Y24915D01*
X88932D01*
X88927Y24912D01*
X88922Y24911D01*
X88913Y24907D01*
X88902Y24904D01*
X88889Y24900D01*
X88874Y24894D01*
X88857Y24890D01*
X88838Y24885D01*
X88817Y24880D01*
X88796Y24876D01*
X88772Y24873D01*
X88721Y24867D01*
X88666Y24864D01*
X88651D01*
X88640Y24866D01*
X88627D01*
X88610Y24867D01*
X88593Y24869D01*
X88573Y24871D01*
X88531Y24877D01*
X88486Y24887D01*
X88441Y24900D01*
X88397Y24916D01*
X88396D01*
X88392Y24919D01*
X88386Y24922D01*
X88379Y24926D01*
X88369Y24931D01*
X88359Y24938D01*
X88335Y24953D01*
X88307Y24973D01*
X88280Y24995D01*
X88253Y25022D01*
X88231Y25052D01*
Y25053D01*
X88228Y25056D01*
X88225Y25060D01*
X88222Y25067D01*
X88218Y25074D01*
X88213Y25084D01*
X88208Y25095D01*
X88203Y25108D01*
X88193Y25138D01*
X88183Y25172D01*
X88177Y25210D01*
X88174Y25252D01*
Y25253D01*
Y25258D01*
Y25266D01*
X88176Y25276D01*
X88177Y25287D01*
X88179Y25301D01*
X88180Y25317D01*
X88183Y25332D01*
X88191Y25369D01*
X88204Y25406D01*
X88213Y25424D01*
X88222Y25442D01*
X88234Y25461D01*
X88246Y25476D01*
X88248Y25478D01*
X88249Y25480D01*
X88253Y25485D01*
X88259Y25490D01*
X88268Y25496D01*
X88276Y25504D01*
X88287Y25513D01*
X88300Y25521D01*
X88314Y25531D01*
X88330Y25540D01*
X88346Y25549D01*
X88365Y25558D01*
X88386Y25566D01*
X88407Y25575D01*
X88431Y25580D01*
X88456Y25586D01*
X88492Y25430D01*
X88490D01*
X88489Y25428D01*
X88479Y25425D01*
X88466Y25421D01*
X88449Y25414D01*
X88432Y25406D01*
X88413Y25394D01*
X88394Y25380D01*
X88379Y25365D01*
X88377Y25363D01*
X88373Y25356D01*
X88366Y25346D01*
X88359Y25334D01*
X88352Y25317D01*
X88345Y25298D01*
X88341Y25277D01*
X88339Y25253D01*
Y25252D01*
Y25249D01*
Y25243D01*
X88341Y25236D01*
X88342Y25228D01*
X88344Y25218D01*
X88349Y25196D01*
X88359Y25169D01*
X88373Y25142D01*
X88382Y25128D01*
X88392Y25115D01*
X88404Y25103D01*
X88418Y25090D01*
X88420D01*
X88423Y25087D01*
X88427Y25084D01*
X88432Y25080D01*
X88441Y25076D01*
X88451Y25070D01*
X88463Y25064D01*
X88478Y25059D01*
X88493Y25053D01*
X88510Y25048D01*
X88530Y25042D01*
X88551Y25038D01*
X88575Y25033D01*
X88600Y25031D01*
X88627Y25029D01*
X88657Y25028D01*
X88674D01*
X88685Y25029D01*
X88699D01*
X88716Y25032D01*
X88734Y25033D01*
X88752Y25036D01*
X88795Y25045D01*
X88838Y25056D01*
X88881Y25073D01*
X88899Y25083D01*
X88917Y25094D01*
X88919Y25095D01*
X88920Y25097D01*
X88929Y25105D01*
X88941Y25118D01*
X88955Y25135D01*
X88970Y25158D01*
X88982Y25186D01*
X88991Y25217D01*
X88992Y25234D01*
X88994Y25252D01*
Y25253D01*
Y25260D01*
X88992Y25269D01*
X88991Y25280D01*
X88988Y25294D01*
X88985Y25311D01*
X88979Y25328D01*
X88972Y25346D01*
X88971Y25349D01*
X88968Y25355D01*
X88964Y25365D01*
X88957Y25377D01*
X88948Y25390D01*
X88939Y25406D01*
X88927Y25421D01*
X88913Y25437D01*
X88793D01*
Y25256D01*
X88633D01*
Y25596D01*
X89012D01*
X89015Y25593D01*
D02*
G37*
G36*
X89168Y30803D02*
Y30635D01*
X88456Y30479D01*
X89168Y30324D01*
Y30152D01*
X88215Y29967D01*
Y30128D01*
X88871Y30245D01*
X88215Y30387D01*
Y30575D01*
X88882Y30713D01*
X88215Y30833D01*
Y30992D01*
X89168Y30803D01*
D02*
G37*
G36*
Y31075D02*
X88215D01*
Y31656D01*
X88376D01*
Y31233D01*
X88587D01*
Y31626D01*
X88748D01*
Y31233D01*
X89007D01*
Y31670D01*
X89168D01*
Y31075D01*
D02*
G37*
G36*
X89143Y19675D02*
X88392D01*
X89143Y19517D01*
Y19366D01*
X88392Y19211D01*
X89143D01*
Y19064D01*
X88190D01*
Y19300D01*
X88843Y19442D01*
X88190Y19583D01*
Y19821D01*
X89143D01*
Y19675D01*
D02*
G37*
G36*
X88351Y20312D02*
X89143D01*
Y20154D01*
X88351D01*
Y19921D01*
X88190D01*
Y20543D01*
X88351D01*
Y20312D01*
D02*
G37*
G36*
X89143Y26206D02*
X88523Y25892D01*
X89143D01*
Y25745D01*
X88190D01*
Y25898D01*
X88827Y26219D01*
X88190D01*
Y26366D01*
X89143D01*
Y26206D01*
D02*
G37*
G36*
X88707Y27183D02*
X88720D01*
X88734Y27182D01*
X88750D01*
X88783Y27178D01*
X88820Y27173D01*
X88857Y27166D01*
X88892Y27156D01*
X88893D01*
X88896Y27155D01*
X88900Y27154D01*
X88908Y27151D01*
X88924Y27145D01*
X88944Y27137D01*
X88968Y27127D01*
X88992Y27114D01*
X89016Y27100D01*
X89037Y27085D01*
X89040Y27083D01*
X89046Y27078D01*
X89056Y27068D01*
X89067Y27056D01*
X89080Y27041D01*
X89092Y27024D01*
X89105Y27004D01*
X89116Y26982D01*
X89118Y26979D01*
X89120Y26970D01*
X89125Y26958D01*
X89129Y26939D01*
X89134Y26917D01*
X89139Y26890D01*
X89142Y26859D01*
X89143Y26825D01*
Y26529D01*
X88190D01*
Y26817D01*
Y26818D01*
Y26821D01*
Y26827D01*
Y26835D01*
X88191Y26844D01*
Y26853D01*
X88193Y26877D01*
X88196Y26904D01*
X88201Y26931D01*
X88207Y26958D01*
X88215Y26980D01*
X88217Y26983D01*
X88220Y26990D01*
X88227Y27000D01*
X88235Y27014D01*
X88246Y27030D01*
X88260Y27048D01*
X88277Y27065D01*
X88297Y27083D01*
X88300Y27086D01*
X88307Y27092D01*
X88320Y27100D01*
X88338Y27110D01*
X88359Y27123D01*
X88385Y27135D01*
X88414Y27147D01*
X88448Y27158D01*
X88449D01*
X88452Y27159D01*
X88458Y27161D01*
X88465Y27162D01*
X88473Y27164D01*
X88485Y27166D01*
X88497Y27169D01*
X88511Y27172D01*
X88527Y27173D01*
X88544Y27176D01*
X88562Y27179D01*
X88583Y27180D01*
X88627Y27183D01*
X88676Y27185D01*
X88697D01*
X88707Y27183D01*
D02*
G37*
G36*
X88731Y29919D02*
X88751Y29918D01*
X88775Y29915D01*
X88800Y29911D01*
X88828Y29906D01*
X88858Y29901D01*
X88887Y29894D01*
X88919Y29884D01*
X88950Y29873D01*
X88981Y29860D01*
X89010Y29844D01*
X89038Y29827D01*
X89065Y29808D01*
X89067Y29806D01*
X89071Y29804D01*
X89076Y29798D01*
X89083Y29789D01*
X89092Y29780D01*
X89103Y29768D01*
X89113Y29754D01*
X89124Y29737D01*
X89136Y29719D01*
X89145Y29699D01*
X89155Y29678D01*
X89165Y29654D01*
X89172Y29629D01*
X89178Y29601D01*
X89182Y29572D01*
X89184Y29541D01*
Y29540D01*
Y29534D01*
X89182Y29524D01*
Y29513D01*
X89179Y29499D01*
X89178Y29482D01*
X89174Y29464D01*
X89169Y29444D01*
X89162Y29423D01*
X89155Y29402D01*
X89145Y29379D01*
X89134Y29357D01*
X89120Y29335D01*
X89105Y29313D01*
X89088Y29293D01*
X89067Y29273D01*
X89065Y29272D01*
X89061Y29269D01*
X89052Y29264D01*
X89043Y29257D01*
X89028Y29248D01*
X89012Y29238D01*
X88992Y29228D01*
X88971Y29218D01*
X88945Y29207D01*
X88917Y29197D01*
X88887Y29187D01*
X88855Y29179D01*
X88820Y29172D01*
X88782Y29166D01*
X88741Y29164D01*
X88699Y29162D01*
X88682D01*
X88670Y29164D01*
X88656D01*
X88639Y29165D01*
X88620Y29166D01*
X88600Y29168D01*
X88555Y29175D01*
X88508Y29183D01*
X88462Y29195D01*
X88439Y29203D01*
X88418Y29211D01*
X88417D01*
X88414Y29214D01*
X88408Y29217D01*
X88400Y29221D01*
X88391Y29226D01*
X88380Y29231D01*
X88356Y29247D01*
X88329Y29266D01*
X88302Y29288D01*
X88277Y29314D01*
X88255Y29343D01*
Y29344D01*
X88252Y29347D01*
X88249Y29351D01*
X88246Y29357D01*
X88242Y29365D01*
X88238Y29375D01*
X88232Y29386D01*
X88226Y29398D01*
X88216Y29427D01*
X88208Y29461D01*
X88202Y29499D01*
X88200Y29541D01*
Y29543D01*
Y29548D01*
X88201Y29558D01*
Y29569D01*
X88204Y29584D01*
X88207Y29601D01*
X88211Y29619D01*
X88215Y29639D01*
X88222Y29660D01*
X88231Y29682D01*
X88242Y29705D01*
X88253Y29727D01*
X88269Y29750D01*
X88286Y29772D01*
X88305Y29794D01*
X88328Y29815D01*
X88329Y29816D01*
X88333Y29819D01*
X88341Y29825D01*
X88352Y29832D01*
X88365Y29839D01*
X88381Y29849D01*
X88400Y29858D01*
X88421Y29868D01*
X88446Y29878D01*
X88473Y29887D01*
X88503Y29897D01*
X88535Y29904D01*
X88570Y29911D01*
X88608Y29916D01*
X88649Y29919D01*
X88692Y29921D01*
X88714D01*
X88731Y29919D01*
D02*
G37*
G36*
X57567Y4086D02*
X56345Y3467D01*
X57567D01*
Y3178D01*
X55690D01*
Y3478D01*
X56945Y4111D01*
X55690D01*
Y4399D01*
X57567D01*
Y4086D01*
D02*
G37*
G36*
X57067Y4633D02*
X56706D01*
Y5216D01*
X57067D01*
Y4633D01*
D02*
G37*
G36*
X39186Y54655D02*
X39560D01*
Y54449D01*
X39186D01*
Y54140D01*
X38928D01*
Y54449D01*
X38554D01*
Y54655D01*
X38928D01*
Y54966D01*
X39186D01*
Y54655D01*
D02*
G37*
G36*
X57567Y2564D02*
X55690D01*
Y2875D01*
X57567D01*
Y2564D01*
D02*
G37*
G36*
X39209Y5027D02*
X39698D01*
Y4757D01*
X39209D01*
Y4355D01*
X38873D01*
Y4757D01*
X38385D01*
Y5027D01*
X38873D01*
Y5432D01*
X39209D01*
Y5027D01*
D02*
G37*
G36*
X88535Y29062D02*
X88546D01*
X88570Y29059D01*
X88597Y29054D01*
X88627Y29046D01*
X88655Y29037D01*
X88683Y29024D01*
X88685D01*
X88686Y29023D01*
X88694Y29017D01*
X88707Y29008D01*
X88721Y28997D01*
X88737Y28983D01*
X88754Y28966D01*
X88768Y28946D01*
X88780Y28925D01*
X88782Y28922D01*
X88783Y28920D01*
X88785Y28914D01*
X88787Y28907D01*
X88789Y28900D01*
X88792Y28890D01*
X88794Y28879D01*
X88797Y28866D01*
X88800Y28851D01*
X88802Y28835D01*
X88804Y28817D01*
X88806Y28797D01*
X88807Y28774D01*
X88809Y28750D01*
Y28725D01*
Y28622D01*
X89168D01*
Y28464D01*
X88215D01*
Y28717D01*
Y28718D01*
Y28722D01*
Y28731D01*
Y28739D01*
Y28750D01*
Y28765D01*
X88216Y28793D01*
X88218Y28825D01*
X88221Y28855D01*
X88222Y28869D01*
X88225Y28882D01*
X88226Y28893D01*
X88229Y28903D01*
Y28904D01*
X88231Y28906D01*
X88233Y28914D01*
X88240Y28927D01*
X88249Y28944D01*
X88262Y28961D01*
X88279Y28980D01*
X88298Y28999D01*
X88324Y29017D01*
X88325D01*
X88326Y29018D01*
X88331Y29021D01*
X88336Y29024D01*
X88343Y29028D01*
X88352Y29031D01*
X88362Y29035D01*
X88374Y29041D01*
X88401Y29049D01*
X88432Y29056D01*
X88469Y29062D01*
X88510Y29063D01*
X88527D01*
X88535Y29062D01*
D02*
G37*
G36*
X39967Y2264D02*
X38090D01*
Y2575D01*
X39967D01*
Y2264D01*
D02*
G37*
G36*
Y3786D02*
X38745Y3167D01*
X39967D01*
Y2878D01*
X38090D01*
Y3178D01*
X39345Y3811D01*
X38090D01*
Y4099D01*
X39967D01*
Y3786D01*
D02*
G37*
G36*
X28000Y27390D02*
X27994D01*
X27987Y27392D01*
X27978D01*
X27967Y27394D01*
X27954Y27398D01*
X27922Y27403D01*
X27887Y27410D01*
X27846Y27423D01*
X27804Y27438D01*
X27761Y27457D01*
X27759D01*
X27756Y27460D01*
X27750Y27462D01*
X27741Y27468D01*
X27730Y27475D01*
X27715Y27483D01*
X27700Y27494D01*
X27682Y27507D01*
X27661Y27520D01*
X27639Y27536D01*
X27615Y27553D01*
X27587Y27573D01*
X27559Y27596D01*
X27530Y27622D01*
X27496Y27648D01*
X27463Y27677D01*
X27461Y27679D01*
X27456Y27683D01*
X27448Y27690D01*
X27439Y27698D01*
X27428Y27709D01*
X27413Y27720D01*
X27382Y27746D01*
X27348Y27773D01*
X27317Y27799D01*
X27287Y27822D01*
X27274Y27831D01*
X27263Y27838D01*
X27259Y27840D01*
X27250Y27846D01*
X27235Y27853D01*
X27215Y27860D01*
X27193Y27868D01*
X27167Y27875D01*
X27139Y27881D01*
X27111Y27883D01*
X27098D01*
X27083Y27881D01*
X27065Y27879D01*
X27045Y27873D01*
X27024Y27868D01*
X27004Y27859D01*
X26987Y27846D01*
X26985Y27844D01*
X26980Y27838D01*
X26974Y27831D01*
X26965Y27820D01*
X26958Y27807D01*
X26952Y27790D01*
X26946Y27770D01*
X26945Y27749D01*
Y27747D01*
Y27744D01*
X26946Y27736D01*
X26948Y27729D01*
X26956Y27707D01*
X26961Y27696D01*
X26969Y27683D01*
X26980Y27670D01*
X26993Y27657D01*
X27008Y27646D01*
X27028Y27635D01*
X27050Y27625D01*
X27076Y27618D01*
X27106Y27612D01*
X27141Y27609D01*
X27115Y27412D01*
X27113D01*
X27106Y27414D01*
X27096D01*
X27083Y27416D01*
X27069Y27420D01*
X27050Y27422D01*
X27030Y27427D01*
X27008Y27433D01*
X26963Y27446D01*
X26917Y27464D01*
X26872Y27488D01*
X26854Y27501D01*
X26835Y27518D01*
X26833Y27520D01*
X26832Y27522D01*
X26826Y27527D01*
X26821Y27535D01*
X26815Y27544D01*
X26806Y27553D01*
X26789Y27581D01*
X26772Y27614D01*
X26759Y27655D01*
X26748Y27701D01*
X26746Y27727D01*
X26745Y27753D01*
Y27755D01*
Y27760D01*
Y27768D01*
X26746Y27779D01*
X26748Y27794D01*
X26750Y27809D01*
X26758Y27846D01*
X26771Y27885D01*
X26778Y27905D01*
X26789Y27925D01*
X26802Y27946D01*
X26815Y27964D01*
X26832Y27981D01*
X26850Y27997D01*
X26852Y27999D01*
X26856Y28001D01*
X26861Y28005D01*
X26869Y28010D01*
X26878Y28016D01*
X26891Y28023D01*
X26920Y28040D01*
X26956Y28055D01*
X26996Y28068D01*
X27041Y28077D01*
X27065Y28081D01*
X27104D01*
X27119Y28079D01*
X27139D01*
X27161Y28075D01*
X27187Y28072D01*
X27213Y28066D01*
X27241Y28059D01*
X27245D01*
X27254Y28055D01*
X27267Y28049D01*
X27285Y28044D01*
X27307Y28035D01*
X27332Y28023D01*
X27357Y28009D01*
X27385Y27994D01*
X27389Y27992D01*
X27398Y27986D01*
X27415Y27975D01*
X27435Y27960D01*
X27463Y27940D01*
X27495Y27914D01*
X27532Y27885D01*
X27572Y27849D01*
X27574Y27847D01*
X27576Y27846D01*
X27582Y27840D01*
X27589Y27835D01*
X27607Y27818D01*
X27630Y27799D01*
X27654Y27779D01*
X27676Y27759D01*
X27696Y27742D01*
X27713Y27729D01*
X27715Y27727D01*
X27719Y27725D01*
X27726Y27720D01*
X27733Y27714D01*
X27754Y27701D01*
X27778Y27688D01*
Y28081D01*
X28000D01*
Y27390D01*
D02*
G37*
G36*
Y28255D02*
X27759D01*
Y28451D01*
X28000D01*
Y28255D01*
D02*
G37*
G36*
X15600Y50600D02*
X15303D01*
Y51958D01*
X15300Y51955D01*
X15295Y51949D01*
X15286Y51941D01*
X15273Y51927D01*
X15259Y51913D01*
X15239Y51894D01*
X15217Y51874D01*
X15192Y51855D01*
X15137Y51810D01*
X15073Y51763D01*
X14998Y51722D01*
X14920Y51686D01*
Y52013D01*
X14923D01*
X14926Y52016D01*
X14942Y52021D01*
X14964Y52035D01*
X14998Y52052D01*
X15037Y52077D01*
X15078Y52107D01*
X15125Y52144D01*
X15175Y52188D01*
X15178Y52191D01*
X15181Y52194D01*
X15198Y52210D01*
X15220Y52238D01*
X15248Y52274D01*
X15278Y52316D01*
X15309Y52366D01*
X15336Y52421D01*
X15359Y52482D01*
X15600D01*
Y50600D01*
D02*
G37*
G36*
X28000Y27040D02*
Y26862D01*
X27093Y26564D01*
Y26772D01*
X27557Y26911D01*
X27711Y26951D01*
X27557Y26994D01*
X27093Y27136D01*
Y27338D01*
X28000Y27040D01*
D02*
G37*
G36*
Y30914D02*
X27095D01*
X27096Y30912D01*
X27100Y30908D01*
X27106Y30903D01*
X27115Y30893D01*
X27124Y30884D01*
X27137Y30871D01*
X27150Y30856D01*
X27163Y30840D01*
X27193Y30803D01*
X27224Y30760D01*
X27252Y30710D01*
X27276Y30658D01*
X27058D01*
Y30660D01*
X27056Y30662D01*
X27052Y30673D01*
X27043Y30688D01*
X27032Y30710D01*
X27015Y30736D01*
X26995Y30764D01*
X26970Y30795D01*
X26941Y30829D01*
X26939Y30831D01*
X26937Y30832D01*
X26926Y30843D01*
X26908Y30858D01*
X26883Y30877D01*
X26856Y30897D01*
X26822Y30918D01*
X26785Y30936D01*
X26745Y30951D01*
Y31112D01*
X28000D01*
Y30914D01*
D02*
G37*
G36*
Y31445D02*
X27759D01*
Y31642D01*
X28000D01*
Y31445D01*
D02*
G37*
G36*
X27441Y29277D02*
X27470D01*
X27502Y29273D01*
X27539Y29271D01*
X27578Y29268D01*
X27659Y29257D01*
X27743Y29240D01*
X27782Y29229D01*
X27817Y29218D01*
X27850Y29203D01*
X27880Y29186D01*
X27882Y29184D01*
X27885Y29183D01*
X27893Y29177D01*
X27902Y29170D01*
X27913Y29160D01*
X27924Y29149D01*
X27950Y29121D01*
X27976Y29086D01*
X27998Y29046D01*
X28007Y29023D01*
X28015Y28999D01*
X28019Y28973D01*
X28020Y28946D01*
Y28944D01*
Y28938D01*
X28019Y28931D01*
Y28921D01*
X28017Y28908D01*
X28013Y28894D01*
X28004Y28858D01*
X27996Y28840D01*
X27987Y28820D01*
X27976Y28801D01*
X27961Y28781D01*
X27946Y28760D01*
X27928Y28740D01*
X27906Y28721D01*
X27882Y28703D01*
X27880Y28701D01*
X27874Y28699D01*
X27867Y28696D01*
X27854Y28688D01*
X27837Y28683D01*
X27819Y28675D01*
X27794Y28666D01*
X27767Y28659D01*
X27733Y28649D01*
X27698Y28642D01*
X27657Y28633D01*
X27611Y28627D01*
X27561Y28621D01*
X27506Y28616D01*
X27446Y28614D01*
X27382Y28612D01*
X27348D01*
X27324Y28614D01*
X27296Y28616D01*
X27263Y28618D01*
X27226Y28620D01*
X27187Y28623D01*
X27106Y28634D01*
X27024Y28651D01*
X26985Y28660D01*
X26950Y28673D01*
X26917Y28686D01*
X26887Y28703D01*
X26885Y28705D01*
X26882Y28707D01*
X26874Y28712D01*
X26865Y28720D01*
X26854Y28729D01*
X26843Y28740D01*
X26815Y28768D01*
X26789Y28803D01*
X26767Y28844D01*
X26758Y28866D01*
X26750Y28890D01*
X26746Y28916D01*
X26745Y28944D01*
Y28946D01*
Y28951D01*
Y28958D01*
X26746Y28968D01*
X26748Y28981D01*
X26752Y28996D01*
X26763Y29031D01*
X26771Y29049D01*
X26780Y29070D01*
X26791Y29088D01*
X26804Y29108D01*
X26821Y29129D01*
X26841Y29149D01*
X26861Y29168D01*
X26887Y29186D01*
X26889Y29188D01*
X26895Y29190D01*
X26902Y29195D01*
X26915Y29201D01*
X26932Y29208D01*
X26950Y29216D01*
X26974Y29223D01*
X27002Y29233D01*
X27035Y29242D01*
X27070Y29249D01*
X27111Y29257D01*
X27158Y29264D01*
X27206Y29270D01*
X27261Y29275D01*
X27319Y29277D01*
X27383Y29279D01*
X27417D01*
X27441Y29277D01*
D02*
G37*
G36*
Y30473D02*
X27470D01*
X27502Y30469D01*
X27539Y30468D01*
X27578Y30464D01*
X27659Y30453D01*
X27743Y30436D01*
X27782Y30425D01*
X27817Y30414D01*
X27850Y30399D01*
X27880Y30382D01*
X27882Y30381D01*
X27885Y30379D01*
X27893Y30373D01*
X27902Y30366D01*
X27913Y30356D01*
X27924Y30345D01*
X27950Y30318D01*
X27976Y30282D01*
X27998Y30242D01*
X28007Y30219D01*
X28015Y30195D01*
X28019Y30169D01*
X28020Y30142D01*
Y30140D01*
Y30134D01*
X28019Y30127D01*
Y30118D01*
X28017Y30105D01*
X28013Y30090D01*
X28004Y30055D01*
X27996Y30036D01*
X27987Y30016D01*
X27976Y29997D01*
X27961Y29977D01*
X27946Y29957D01*
X27928Y29936D01*
X27906Y29918D01*
X27882Y29899D01*
X27880Y29897D01*
X27874Y29895D01*
X27867Y29892D01*
X27854Y29884D01*
X27837Y29879D01*
X27819Y29871D01*
X27794Y29862D01*
X27767Y29855D01*
X27733Y29845D01*
X27698Y29838D01*
X27657Y29829D01*
X27611Y29823D01*
X27561Y29818D01*
X27506Y29812D01*
X27446Y29810D01*
X27382Y29808D01*
X27348D01*
X27324Y29810D01*
X27296Y29812D01*
X27263Y29814D01*
X27226Y29816D01*
X27187Y29819D01*
X27106Y29831D01*
X27024Y29847D01*
X26985Y29857D01*
X26950Y29869D01*
X26917Y29882D01*
X26887Y29899D01*
X26885Y29901D01*
X26882Y29903D01*
X26874Y29908D01*
X26865Y29916D01*
X26854Y29925D01*
X26843Y29936D01*
X26815Y29964D01*
X26789Y29999D01*
X26767Y30040D01*
X26758Y30062D01*
X26750Y30086D01*
X26746Y30112D01*
X26745Y30140D01*
Y30142D01*
Y30147D01*
Y30155D01*
X26746Y30164D01*
X26748Y30177D01*
X26752Y30192D01*
X26763Y30227D01*
X26771Y30245D01*
X26780Y30266D01*
X26791Y30284D01*
X26804Y30305D01*
X26821Y30325D01*
X26841Y30345D01*
X26861Y30364D01*
X26887Y30382D01*
X26889Y30384D01*
X26895Y30386D01*
X26902Y30392D01*
X26915Y30397D01*
X26932Y30405D01*
X26950Y30412D01*
X26974Y30419D01*
X27002Y30429D01*
X27035Y30438D01*
X27070Y30445D01*
X27111Y30453D01*
X27158Y30460D01*
X27206Y30466D01*
X27261Y30471D01*
X27319Y30473D01*
X27383Y30475D01*
X27417D01*
X27441Y30473D01*
D02*
G37*
G36*
X18043Y52479D02*
X18065Y52477D01*
X18087Y52474D01*
X18143Y52463D01*
X18201Y52443D01*
X18232Y52432D01*
X18262Y52416D01*
X18293Y52396D01*
X18321Y52377D01*
X18346Y52352D01*
X18371Y52324D01*
X18373Y52321D01*
X18376Y52316D01*
X18382Y52307D01*
X18390Y52296D01*
X18398Y52282D01*
X18409Y52263D01*
X18434Y52219D01*
X18457Y52166D01*
X18476Y52105D01*
X18490Y52038D01*
X18496Y52002D01*
Y51963D01*
Y51958D01*
Y51944D01*
X18493Y51921D01*
Y51891D01*
X18487Y51858D01*
X18482Y51819D01*
X18473Y51780D01*
X18462Y51738D01*
Y51733D01*
X18457Y51719D01*
X18448Y51699D01*
X18440Y51672D01*
X18426Y51638D01*
X18409Y51602D01*
X18387Y51563D01*
X18365Y51522D01*
X18362Y51516D01*
X18354Y51502D01*
X18337Y51477D01*
X18315Y51447D01*
X18285Y51405D01*
X18246Y51358D01*
X18201Y51302D01*
X18149Y51241D01*
X18146Y51239D01*
X18143Y51236D01*
X18135Y51227D01*
X18126Y51216D01*
X18101Y51189D01*
X18074Y51155D01*
X18043Y51119D01*
X18012Y51086D01*
X17987Y51055D01*
X17968Y51030D01*
X17965Y51028D01*
X17962Y51022D01*
X17954Y51011D01*
X17946Y51000D01*
X17926Y50969D01*
X17907Y50933D01*
X18496D01*
Y50600D01*
X17460D01*
Y50603D01*
Y50608D01*
X17463Y50619D01*
Y50633D01*
X17466Y50650D01*
X17471Y50669D01*
X17479Y50717D01*
X17491Y50769D01*
X17510Y50830D01*
X17532Y50894D01*
X17560Y50958D01*
Y50961D01*
X17566Y50966D01*
X17568Y50975D01*
X17577Y50989D01*
X17588Y51005D01*
X17599Y51028D01*
X17615Y51050D01*
X17635Y51078D01*
X17654Y51108D01*
X17679Y51141D01*
X17704Y51177D01*
X17735Y51219D01*
X17768Y51261D01*
X17807Y51305D01*
X17846Y51355D01*
X17890Y51405D01*
X17893Y51408D01*
X17899Y51416D01*
X17910Y51427D01*
X17921Y51441D01*
X17938Y51458D01*
X17954Y51480D01*
X17993Y51527D01*
X18035Y51577D01*
X18074Y51624D01*
X18107Y51669D01*
X18121Y51688D01*
X18132Y51705D01*
X18135Y51710D01*
X18143Y51724D01*
X18154Y51747D01*
X18165Y51777D01*
X18176Y51810D01*
X18187Y51849D01*
X18196Y51891D01*
X18198Y51933D01*
Y51935D01*
Y51938D01*
Y51952D01*
X18196Y51974D01*
X18193Y52002D01*
X18185Y52033D01*
X18176Y52063D01*
X18162Y52094D01*
X18143Y52119D01*
X18140Y52121D01*
X18132Y52130D01*
X18121Y52138D01*
X18104Y52152D01*
X18085Y52163D01*
X18060Y52171D01*
X18029Y52180D01*
X17999Y52182D01*
X17990D01*
X17979Y52180D01*
X17968Y52177D01*
X17935Y52166D01*
X17918Y52157D01*
X17899Y52146D01*
X17879Y52130D01*
X17860Y52110D01*
X17843Y52088D01*
X17826Y52058D01*
X17813Y52024D01*
X17801Y51985D01*
X17793Y51941D01*
X17788Y51888D01*
X17493Y51927D01*
Y51930D01*
X17496Y51941D01*
Y51955D01*
X17499Y51974D01*
X17504Y51996D01*
X17507Y52024D01*
X17516Y52055D01*
X17524Y52088D01*
X17543Y52155D01*
X17571Y52224D01*
X17607Y52291D01*
X17627Y52318D01*
X17652Y52346D01*
X17654Y52349D01*
X17657Y52352D01*
X17665Y52360D01*
X17677Y52368D01*
X17690Y52377D01*
X17704Y52391D01*
X17746Y52416D01*
X17796Y52441D01*
X17857Y52460D01*
X17926Y52477D01*
X17965Y52479D01*
X18004Y52482D01*
X18026D01*
X18043Y52479D01*
D02*
G37*
G36*
X7635Y9200D02*
X7321D01*
X6702Y10422D01*
Y9200D01*
X6414D01*
Y11077D01*
X6713D01*
X7346Y9822D01*
Y11077D01*
X7635D01*
Y9200D01*
D02*
G37*
G36*
X31168Y52188D02*
Y52185D01*
X31162Y52182D01*
X31157Y52171D01*
X31146Y52160D01*
X31134Y52144D01*
X31121Y52127D01*
X31107Y52105D01*
X31090Y52080D01*
X31071Y52049D01*
X31051Y52019D01*
X31032Y51983D01*
X31010Y51946D01*
X30987Y51905D01*
X30962Y51860D01*
X30940Y51813D01*
X30915Y51763D01*
Y51760D01*
X30910Y51752D01*
X30904Y51735D01*
X30893Y51716D01*
X30885Y51691D01*
X30871Y51661D01*
X30857Y51624D01*
X30843Y51586D01*
X30826Y51544D01*
X30810Y51499D01*
X30796Y51450D01*
X30779Y51397D01*
X30746Y51289D01*
X30718Y51172D01*
Y51169D01*
X30715Y51158D01*
X30712Y51141D01*
X30707Y51119D01*
X30701Y51091D01*
X30696Y51058D01*
X30690Y51022D01*
X30685Y50983D01*
X30676Y50939D01*
X30671Y50894D01*
X30660Y50797D01*
X30651Y50697D01*
X30649Y50600D01*
X30365D01*
Y50606D01*
Y50617D01*
X30368Y50639D01*
Y50669D01*
X30371Y50705D01*
X30374Y50747D01*
X30379Y50797D01*
X30385Y50850D01*
X30393Y50908D01*
X30402Y50969D01*
X30413Y51036D01*
X30424Y51105D01*
X30454Y51250D01*
X30496Y51397D01*
X30499Y51402D01*
X30501Y51413D01*
X30510Y51436D01*
X30518Y51463D01*
X30532Y51499D01*
X30546Y51541D01*
X30565Y51586D01*
X30585Y51638D01*
X30607Y51691D01*
X30632Y51749D01*
X30690Y51869D01*
X30754Y51996D01*
X30829Y52119D01*
X30160D01*
Y52452D01*
X31168D01*
Y52188D01*
D02*
G37*
G36*
X6111Y9200D02*
X5800D01*
Y11077D01*
X6111D01*
Y9200D01*
D02*
G37*
G36*
X9015Y10760D02*
X8271D01*
Y10313D01*
X8915D01*
Y9997D01*
X8271D01*
Y9200D01*
X7960D01*
Y11077D01*
X9015D01*
Y10760D01*
D02*
G37*
G36*
X23456Y51294D02*
X23648D01*
Y50978D01*
X23456D01*
Y50600D01*
X23170D01*
Y50978D01*
X22540D01*
Y51291D01*
X23206Y52482D01*
X23456D01*
Y51294D01*
D02*
G37*
G36*
X20533Y52479D02*
X20550Y52477D01*
X20569Y52474D01*
X20619Y52463D01*
X20672Y52446D01*
X20727Y52418D01*
X20755Y52402D01*
X20783Y52382D01*
X20808Y52360D01*
X20833Y52332D01*
X20836Y52330D01*
X20838Y52327D01*
X20844Y52318D01*
X20852Y52307D01*
X20861Y52293D01*
X20872Y52277D01*
X20897Y52235D01*
X20919Y52185D01*
X20938Y52130D01*
X20952Y52069D01*
X20958Y52035D01*
Y52002D01*
Y51996D01*
Y51983D01*
X20955Y51958D01*
X20949Y51930D01*
X20944Y51894D01*
X20933Y51858D01*
X20919Y51819D01*
X20899Y51780D01*
X20897Y51774D01*
X20888Y51763D01*
X20877Y51747D01*
X20858Y51722D01*
X20836Y51697D01*
X20805Y51666D01*
X20772Y51636D01*
X20733Y51608D01*
X20736D01*
X20738Y51605D01*
X20755Y51599D01*
X20777Y51591D01*
X20808Y51577D01*
X20841Y51555D01*
X20875Y51530D01*
X20908Y51497D01*
X20941Y51455D01*
X20944Y51450D01*
X20955Y51433D01*
X20969Y51408D01*
X20983Y51375D01*
X20999Y51333D01*
X21011Y51283D01*
X21022Y51225D01*
X21024Y51161D01*
Y51158D01*
Y51150D01*
Y51136D01*
X21022Y51119D01*
X21019Y51097D01*
X21016Y51072D01*
X21011Y51044D01*
X21005Y51011D01*
X20986Y50944D01*
X20958Y50875D01*
X20941Y50839D01*
X20922Y50803D01*
X20897Y50769D01*
X20869Y50736D01*
X20866Y50733D01*
X20863Y50728D01*
X20852Y50719D01*
X20841Y50711D01*
X20827Y50697D01*
X20811Y50683D01*
X20766Y50653D01*
X20713Y50622D01*
X20652Y50594D01*
X20616Y50586D01*
X20580Y50578D01*
X20544Y50572D01*
X20505Y50569D01*
X20486D01*
X20472Y50572D01*
X20455Y50575D01*
X20433Y50578D01*
X20386Y50586D01*
X20333Y50603D01*
X20275Y50631D01*
X20244Y50644D01*
X20217Y50664D01*
X20189Y50686D01*
X20161Y50711D01*
X20158Y50714D01*
X20155Y50717D01*
X20147Y50725D01*
X20139Y50736D01*
X20128Y50753D01*
X20117Y50769D01*
X20103Y50789D01*
X20089Y50814D01*
X20075Y50839D01*
X20061Y50869D01*
X20047Y50900D01*
X20033Y50936D01*
X20014Y51011D01*
X20000Y51100D01*
X20286Y51141D01*
Y51139D01*
Y51136D01*
X20289Y51119D01*
X20292Y51097D01*
X20300Y51066D01*
X20308Y51033D01*
X20322Y51000D01*
X20339Y50966D01*
X20358Y50939D01*
X20361Y50936D01*
X20369Y50928D01*
X20383Y50916D01*
X20400Y50905D01*
X20419Y50891D01*
X20444Y50880D01*
X20472Y50872D01*
X20503Y50869D01*
X20519D01*
X20536Y50875D01*
X20555Y50880D01*
X20580Y50889D01*
X20608Y50903D01*
X20633Y50922D01*
X20658Y50950D01*
X20661Y50953D01*
X20669Y50966D01*
X20677Y50983D01*
X20691Y51011D01*
X20702Y51041D01*
X20711Y51083D01*
X20719Y51127D01*
X20722Y51180D01*
Y51183D01*
Y51186D01*
Y51202D01*
X20719Y51227D01*
X20713Y51258D01*
X20708Y51291D01*
X20697Y51327D01*
X20680Y51363D01*
X20661Y51394D01*
X20658Y51397D01*
X20650Y51408D01*
X20636Y51419D01*
X20619Y51436D01*
X20597Y51450D01*
X20572Y51463D01*
X20544Y51472D01*
X20514Y51475D01*
X20491D01*
X20478Y51472D01*
X20458Y51469D01*
X20433Y51463D01*
X20408Y51455D01*
X20380Y51447D01*
X20411Y51741D01*
X20430D01*
X20453Y51744D01*
X20478Y51747D01*
X20508Y51755D01*
X20539Y51763D01*
X20566Y51780D01*
X20594Y51799D01*
X20597Y51802D01*
X20605Y51810D01*
X20616Y51827D01*
X20627Y51847D01*
X20639Y51872D01*
X20650Y51902D01*
X20658Y51938D01*
X20661Y51980D01*
Y51985D01*
Y51996D01*
X20658Y52013D01*
X20655Y52035D01*
X20650Y52058D01*
X20639Y52083D01*
X20627Y52107D01*
X20611Y52130D01*
X20608Y52132D01*
X20602Y52138D01*
X20591Y52146D01*
X20577Y52157D01*
X20561Y52169D01*
X20539Y52177D01*
X20514Y52182D01*
X20486Y52185D01*
X20475D01*
X20458Y52182D01*
X20441Y52177D01*
X20422Y52169D01*
X20400Y52157D01*
X20378Y52144D01*
X20355Y52121D01*
X20353Y52119D01*
X20347Y52110D01*
X20339Y52094D01*
X20328Y52074D01*
X20316Y52049D01*
X20305Y52016D01*
X20297Y51980D01*
X20292Y51935D01*
X20019Y51991D01*
Y51994D01*
X20022Y52002D01*
X20025Y52016D01*
X20028Y52033D01*
X20033Y52055D01*
X20039Y52077D01*
X20056Y52132D01*
X20078Y52194D01*
X20105Y52255D01*
X20142Y52313D01*
X20161Y52341D01*
X20183Y52363D01*
X20186Y52366D01*
X20189Y52368D01*
X20205Y52382D01*
X20233Y52402D01*
X20269Y52424D01*
X20314Y52443D01*
X20369Y52463D01*
X20430Y52477D01*
X20464Y52482D01*
X20516D01*
X20533Y52479D01*
D02*
G37*
G36*
X28209D02*
X28242Y52477D01*
X28281Y52468D01*
X28328Y52455D01*
X28375Y52432D01*
X28425Y52405D01*
X28470Y52366D01*
X28475Y52360D01*
X28489Y52343D01*
X28508Y52316D01*
X28533Y52280D01*
X28558Y52230D01*
X28583Y52169D01*
X28603Y52099D01*
X28619Y52016D01*
X28333Y51977D01*
Y51980D01*
Y51985D01*
X28331Y51996D01*
X28328Y52010D01*
X28320Y52044D01*
X28303Y52083D01*
X28284Y52119D01*
X28253Y52152D01*
X28234Y52166D01*
X28214Y52177D01*
X28189Y52182D01*
X28164Y52185D01*
X28161D01*
X28147Y52182D01*
X28131Y52180D01*
X28109Y52171D01*
X28084Y52160D01*
X28059Y52141D01*
X28031Y52116D01*
X28006Y52080D01*
X28003Y52074D01*
X28000Y52069D01*
X27995Y52058D01*
X27992Y52046D01*
X27984Y52030D01*
X27978Y52010D01*
X27973Y51988D01*
X27964Y51960D01*
X27959Y51930D01*
X27950Y51894D01*
X27945Y51855D01*
X27939Y51813D01*
X27934Y51766D01*
X27928Y51713D01*
X27925Y51655D01*
X27928Y51658D01*
X27937Y51669D01*
X27948Y51683D01*
X27961Y51699D01*
X27981Y51719D01*
X28000Y51738D01*
X28023Y51758D01*
X28048Y51774D01*
X28050Y51777D01*
X28059Y51780D01*
X28075Y51788D01*
X28092Y51797D01*
X28114Y51802D01*
X28142Y51810D01*
X28170Y51813D01*
X28200Y51816D01*
X28217D01*
X28231Y51813D01*
X28247Y51810D01*
X28264Y51808D01*
X28309Y51794D01*
X28356Y51774D01*
X28383Y51760D01*
X28408Y51744D01*
X28436Y51724D01*
X28461Y51702D01*
X28489Y51677D01*
X28514Y51647D01*
X28517Y51644D01*
X28520Y51638D01*
X28528Y51630D01*
X28536Y51616D01*
X28544Y51599D01*
X28558Y51580D01*
X28569Y51555D01*
X28583Y51527D01*
X28594Y51497D01*
X28608Y51463D01*
X28619Y51427D01*
X28628Y51388D01*
X28639Y51344D01*
X28644Y51300D01*
X28647Y51250D01*
X28650Y51200D01*
Y51197D01*
Y51186D01*
Y51172D01*
X28647Y51152D01*
X28644Y51127D01*
X28642Y51097D01*
X28639Y51066D01*
X28633Y51030D01*
X28614Y50958D01*
X28589Y50880D01*
X28572Y50842D01*
X28553Y50805D01*
X28531Y50769D01*
X28506Y50736D01*
X28503Y50733D01*
X28500Y50728D01*
X28492Y50719D01*
X28481Y50711D01*
X28467Y50697D01*
X28450Y50683D01*
X28408Y50653D01*
X28358Y50622D01*
X28297Y50594D01*
X28264Y50586D01*
X28228Y50578D01*
X28192Y50572D01*
X28153Y50569D01*
X28142D01*
X28131Y50572D01*
X28114D01*
X28095Y50575D01*
X28073Y50581D01*
X28020Y50597D01*
X27989Y50608D01*
X27959Y50622D01*
X27925Y50639D01*
X27895Y50661D01*
X27862Y50686D01*
X27831Y50714D01*
X27800Y50747D01*
X27770Y50786D01*
X27767Y50789D01*
X27764Y50797D01*
X27756Y50811D01*
X27748Y50828D01*
X27737Y50853D01*
X27723Y50883D01*
X27709Y50916D01*
X27695Y50958D01*
X27681Y51005D01*
X27667Y51061D01*
X27656Y51119D01*
X27642Y51186D01*
X27634Y51258D01*
X27626Y51336D01*
X27623Y51422D01*
X27620Y51513D01*
Y51516D01*
Y51519D01*
Y51536D01*
Y51563D01*
X27623Y51597D01*
X27626Y51641D01*
X27628Y51688D01*
X27634Y51741D01*
X27639Y51799D01*
X27659Y51921D01*
X27687Y52044D01*
X27703Y52102D01*
X27726Y52157D01*
X27748Y52210D01*
X27775Y52255D01*
X27778Y52257D01*
X27784Y52266D01*
X27792Y52277D01*
X27803Y52291D01*
X27820Y52307D01*
X27839Y52327D01*
X27862Y52346D01*
X27887Y52368D01*
X27914Y52391D01*
X27945Y52410D01*
X28014Y52446D01*
X28053Y52460D01*
X28092Y52474D01*
X28136Y52479D01*
X28181Y52482D01*
X28197D01*
X28209Y52479D01*
D02*
G37*
G36*
X26043Y52116D02*
X25488D01*
X25438Y51794D01*
X25444Y51797D01*
X25455Y51805D01*
X25474Y51813D01*
X25502Y51827D01*
X25533Y51838D01*
X25566Y51847D01*
X25602Y51855D01*
X25641Y51858D01*
X25657D01*
X25671Y51855D01*
X25688Y51852D01*
X25705Y51849D01*
X25749Y51841D01*
X25796Y51822D01*
X25849Y51797D01*
X25877Y51780D01*
X25902Y51760D01*
X25927Y51738D01*
X25952Y51713D01*
X25955Y51710D01*
X25960Y51705D01*
X25966Y51694D01*
X25977Y51680D01*
X25988Y51661D01*
X26002Y51638D01*
X26018Y51613D01*
X26032Y51586D01*
X26046Y51552D01*
X26063Y51516D01*
X26077Y51475D01*
X26088Y51433D01*
X26099Y51386D01*
X26107Y51338D01*
X26110Y51286D01*
X26113Y51230D01*
Y51227D01*
Y51219D01*
Y51205D01*
X26110Y51189D01*
Y51166D01*
X26104Y51141D01*
X26102Y51114D01*
X26096Y51080D01*
X26079Y51011D01*
X26054Y50933D01*
X26038Y50894D01*
X26021Y50855D01*
X25999Y50814D01*
X25974Y50775D01*
X25971Y50772D01*
X25968Y50767D01*
X25960Y50755D01*
X25949Y50742D01*
X25935Y50728D01*
X25918Y50711D01*
X25896Y50692D01*
X25874Y50672D01*
X25849Y50653D01*
X25818Y50633D01*
X25788Y50617D01*
X25752Y50603D01*
X25716Y50589D01*
X25674Y50578D01*
X25632Y50572D01*
X25585Y50569D01*
X25566D01*
X25552Y50572D01*
X25535D01*
X25513Y50578D01*
X25466Y50586D01*
X25413Y50603D01*
X25355Y50625D01*
X25299Y50658D01*
X25272Y50681D01*
X25244Y50703D01*
X25241Y50705D01*
X25238Y50708D01*
X25230Y50717D01*
X25222Y50728D01*
X25210Y50742D01*
X25199Y50758D01*
X25185Y50778D01*
X25172Y50800D01*
X25158Y50825D01*
X25144Y50855D01*
X25130Y50886D01*
X25116Y50919D01*
X25105Y50955D01*
X25094Y50997D01*
X25080Y51083D01*
X25374Y51122D01*
Y51116D01*
X25377Y51102D01*
X25383Y51078D01*
X25388Y51050D01*
X25396Y51019D01*
X25410Y50989D01*
X25427Y50955D01*
X25449Y50928D01*
X25452Y50925D01*
X25460Y50916D01*
X25474Y50905D01*
X25491Y50894D01*
X25510Y50880D01*
X25535Y50869D01*
X25560Y50861D01*
X25588Y50858D01*
X25591D01*
X25605Y50861D01*
X25621Y50864D01*
X25641Y50869D01*
X25666Y50880D01*
X25694Y50897D01*
X25719Y50916D01*
X25744Y50947D01*
X25746Y50953D01*
X25755Y50964D01*
X25766Y50986D01*
X25777Y51014D01*
X25788Y51053D01*
X25799Y51100D01*
X25807Y51158D01*
X25810Y51222D01*
Y51225D01*
Y51230D01*
Y51239D01*
Y51252D01*
X25807Y51283D01*
X25802Y51322D01*
X25794Y51363D01*
X25782Y51408D01*
X25766Y51447D01*
X25744Y51483D01*
X25741Y51486D01*
X25732Y51497D01*
X25719Y51511D01*
X25699Y51527D01*
X25677Y51541D01*
X25646Y51555D01*
X25616Y51566D01*
X25580Y51569D01*
X25574D01*
X25558Y51566D01*
X25535Y51561D01*
X25505Y51552D01*
X25469Y51536D01*
X25430Y51511D01*
X25410Y51497D01*
X25391Y51477D01*
X25372Y51458D01*
X25352Y51433D01*
X25113Y51475D01*
X25263Y52452D01*
X26043D01*
Y52116D01*
D02*
G37*
G36*
X33666Y44754D02*
X33689Y44752D01*
X33716Y44749D01*
X33744Y44746D01*
X33777Y44738D01*
X33844Y44721D01*
X33916Y44693D01*
X33949Y44677D01*
X33986Y44657D01*
X34016Y44635D01*
X34047Y44607D01*
X34049Y44605D01*
X34052Y44602D01*
X34061Y44591D01*
X34072Y44580D01*
X34083Y44566D01*
X34097Y44546D01*
X34110Y44524D01*
X34124Y44499D01*
X34138Y44471D01*
X34155Y44441D01*
X34169Y44405D01*
X34180Y44369D01*
X34191Y44327D01*
X34199Y44285D01*
X34208Y44238D01*
X34210Y44188D01*
X33900Y44171D01*
Y44174D01*
Y44177D01*
X33897Y44185D01*
X33894Y44196D01*
X33888Y44221D01*
X33880Y44255D01*
X33866Y44288D01*
X33852Y44324D01*
X33833Y44355D01*
X33808Y44382D01*
X33805Y44385D01*
X33797Y44391D01*
X33780Y44402D01*
X33758Y44413D01*
X33730Y44424D01*
X33697Y44435D01*
X33658Y44441D01*
X33614Y44444D01*
X33594D01*
X33569Y44441D01*
X33541Y44438D01*
X33511Y44430D01*
X33480Y44421D01*
X33447Y44407D01*
X33419Y44391D01*
X33416Y44388D01*
X33408Y44382D01*
X33397Y44371D01*
X33386Y44355D01*
X33375Y44335D01*
X33364Y44313D01*
X33355Y44288D01*
X33353Y44260D01*
Y44258D01*
Y44249D01*
X33355Y44235D01*
X33361Y44216D01*
X33366Y44196D01*
X33378Y44177D01*
X33394Y44155D01*
X33414Y44135D01*
X33416Y44133D01*
X33428Y44127D01*
X33444Y44116D01*
X33472Y44102D01*
X33491Y44094D01*
X33511Y44083D01*
X33533Y44074D01*
X33561Y44063D01*
X33589Y44052D01*
X33622Y44041D01*
X33658Y44030D01*
X33697Y44019D01*
X33700D01*
X33708Y44016D01*
X33719Y44013D01*
X33736Y44008D01*
X33755Y43999D01*
X33777Y43994D01*
X33827Y43974D01*
X33883Y43952D01*
X33938Y43930D01*
X33991Y43902D01*
X34016Y43888D01*
X34036Y43874D01*
X34041Y43872D01*
X34052Y43861D01*
X34072Y43847D01*
X34097Y43824D01*
X34122Y43797D01*
X34149Y43763D01*
X34174Y43725D01*
X34197Y43683D01*
X34199Y43677D01*
X34205Y43661D01*
X34213Y43636D01*
X34224Y43602D01*
X34235Y43561D01*
X34244Y43511D01*
X34249Y43455D01*
X34252Y43394D01*
Y43391D01*
Y43383D01*
Y43372D01*
X34249Y43353D01*
X34247Y43333D01*
X34244Y43308D01*
X34238Y43280D01*
X34233Y43253D01*
X34216Y43186D01*
X34188Y43117D01*
X34172Y43083D01*
X34149Y43050D01*
X34127Y43017D01*
X34099Y42983D01*
X34097Y42980D01*
X34091Y42975D01*
X34083Y42969D01*
X34072Y42958D01*
X34055Y42944D01*
X34036Y42931D01*
X34011Y42917D01*
X33986Y42903D01*
X33955Y42886D01*
X33919Y42872D01*
X33880Y42858D01*
X33838Y42844D01*
X33791Y42833D01*
X33741Y42828D01*
X33689Y42822D01*
X33630Y42819D01*
X33605D01*
X33577Y42825D01*
X33541Y42831D01*
X33497Y42839D01*
X33447Y42853D01*
X33394Y42872D01*
X33339Y42900D01*
X33283Y42933D01*
X33228Y42978D01*
X33175Y43028D01*
X33150Y43058D01*
X33125Y43092D01*
X33103Y43128D01*
X33083Y43164D01*
X33064Y43205D01*
X33044Y43250D01*
X33031Y43300D01*
X33017Y43350D01*
X33008Y43405D01*
X33000Y43464D01*
X33303Y43500D01*
Y43497D01*
X33305Y43483D01*
X33308Y43466D01*
X33314Y43444D01*
X33322Y43416D01*
X33333Y43386D01*
X33347Y43353D01*
X33364Y43319D01*
X33383Y43286D01*
X33405Y43253D01*
X33433Y43222D01*
X33466Y43194D01*
X33502Y43172D01*
X33541Y43155D01*
X33589Y43141D01*
X33639Y43139D01*
X33661D01*
X33686Y43141D01*
X33719Y43147D01*
X33752Y43155D01*
X33788Y43169D01*
X33825Y43186D01*
X33858Y43211D01*
X33861Y43214D01*
X33872Y43225D01*
X33886Y43241D01*
X33900Y43261D01*
X33916Y43289D01*
X33927Y43319D01*
X33938Y43355D01*
X33941Y43394D01*
Y43397D01*
Y43405D01*
X33938Y43416D01*
Y43433D01*
X33927Y43466D01*
X33922Y43486D01*
X33911Y43502D01*
Y43505D01*
X33905Y43511D01*
X33888Y43527D01*
X33877Y43539D01*
X33863Y43552D01*
X33844Y43563D01*
X33825Y43575D01*
X33822Y43577D01*
X33813Y43580D01*
X33794Y43588D01*
X33769Y43600D01*
X33752Y43605D01*
X33733Y43611D01*
X33711Y43619D01*
X33683Y43627D01*
X33655Y43638D01*
X33622Y43650D01*
X33586Y43661D01*
X33547Y43672D01*
X33544D01*
X33539Y43675D01*
X33527Y43677D01*
X33514Y43683D01*
X33497Y43688D01*
X33480Y43694D01*
X33436Y43711D01*
X33389Y43730D01*
X33339Y43752D01*
X33294Y43777D01*
X33255Y43802D01*
X33253Y43805D01*
X33242Y43816D01*
X33225Y43830D01*
X33203Y43852D01*
X33180Y43877D01*
X33155Y43908D01*
X33130Y43944D01*
X33108Y43985D01*
X33105Y43991D01*
X33100Y44005D01*
X33092Y44030D01*
X33083Y44060D01*
X33072Y44097D01*
X33064Y44138D01*
X33058Y44185D01*
X33056Y44233D01*
Y44235D01*
Y44238D01*
Y44246D01*
Y44258D01*
X33058Y44288D01*
X33064Y44324D01*
X33072Y44366D01*
X33086Y44413D01*
X33103Y44460D01*
X33125Y44507D01*
Y44510D01*
X33128Y44513D01*
X33139Y44527D01*
X33153Y44549D01*
X33175Y44577D01*
X33203Y44607D01*
X33236Y44638D01*
X33272Y44668D01*
X33316Y44693D01*
X33319D01*
X33322Y44696D01*
X33339Y44705D01*
X33366Y44713D01*
X33403Y44727D01*
X33447Y44738D01*
X33497Y44746D01*
X33558Y44754D01*
X33622Y44757D01*
X33647D01*
X33666Y44754D01*
D02*
G37*
G36*
X33937Y46570D02*
X34751D01*
Y46121D01*
X33937D01*
Y45450D01*
X33377D01*
Y46121D01*
X32562D01*
Y46570D01*
X33377D01*
Y47246D01*
X33937D01*
Y46570D01*
D02*
G37*
G36*
X25509Y33719D02*
X25530D01*
X25577Y33711D01*
X25631Y33703D01*
X25691Y33691D01*
X25753Y33672D01*
X25812Y33646D01*
X25815D01*
X25820Y33644D01*
X25828Y33639D01*
X25838Y33634D01*
X25867Y33615D01*
X25900Y33595D01*
X25939Y33566D01*
X25981Y33533D01*
X26017Y33494D01*
X26051Y33450D01*
Y33447D01*
X26053Y33444D01*
X26064Y33429D01*
X26074Y33403D01*
X26090Y33372D01*
X26103Y33330D01*
X26116Y33286D01*
X26126Y33237D01*
X26128Y33183D01*
Y33180D01*
Y33172D01*
Y33159D01*
X26126Y33144D01*
X26123Y33126D01*
X26118Y33102D01*
X26113Y33077D01*
X26105Y33048D01*
X26084Y32988D01*
X26071Y32957D01*
X26053Y32924D01*
X26033Y32893D01*
X26009Y32859D01*
X25983Y32828D01*
X25952Y32799D01*
X25950Y32797D01*
X25945Y32792D01*
X25934Y32786D01*
X25919Y32776D01*
X25900Y32763D01*
X25880Y32750D01*
X25854Y32737D01*
X25823Y32724D01*
X25789Y32709D01*
X25753Y32696D01*
X25711Y32683D01*
X25665Y32670D01*
X25618Y32659D01*
X25564Y32654D01*
X25509Y32649D01*
X25450Y32646D01*
X25419D01*
X25400Y32649D01*
X25382Y32652D01*
X25338Y32657D01*
X25284Y32665D01*
X25227Y32678D01*
X25170Y32696D01*
X25110Y32719D01*
X25108D01*
X25103Y32722D01*
X25095Y32727D01*
X25084Y32732D01*
X25058Y32750D01*
X25025Y32771D01*
X24986Y32799D01*
X24950Y32833D01*
X24911Y32872D01*
X24880Y32913D01*
Y32916D01*
X24877Y32918D01*
X24867Y32934D01*
X24854Y32960D01*
X24841Y32991D01*
X24825Y33032D01*
X24815Y33077D01*
X24805Y33128D01*
X24802Y33183D01*
Y33185D01*
Y33193D01*
Y33206D01*
X24805Y33224D01*
X24807Y33245D01*
X24812Y33271D01*
X24818Y33297D01*
X24825Y33325D01*
X24836Y33356D01*
X24851Y33390D01*
X24867Y33421D01*
X24885Y33455D01*
X24908Y33488D01*
X24934Y33520D01*
X24965Y33548D01*
X24999Y33577D01*
X25001Y33579D01*
X25007Y33582D01*
X25020Y33590D01*
X25033Y33600D01*
X25053Y33610D01*
X25074Y33623D01*
X25100Y33636D01*
X25131Y33649D01*
X25162Y33662D01*
X25198Y33675D01*
X25235Y33688D01*
X25276Y33698D01*
X25364Y33716D01*
X25411Y33719D01*
X25460Y33722D01*
X25494D01*
X25509Y33719D01*
D02*
G37*
G36*
X26082Y34432D02*
X26087Y34421D01*
X26095Y34400D01*
X26103Y34375D01*
X26113Y34341D01*
X26121Y34305D01*
X26126Y34263D01*
X26128Y34219D01*
Y34214D01*
Y34201D01*
X26126Y34183D01*
X26123Y34157D01*
X26116Y34131D01*
X26108Y34102D01*
X26095Y34074D01*
X26079Y34048D01*
X26077Y34045D01*
X26069Y34038D01*
X26059Y34027D01*
X26043Y34014D01*
X26022Y34001D01*
X25996Y33986D01*
X25968Y33976D01*
X25934Y33965D01*
X25932D01*
X25919Y33963D01*
X25900Y33960D01*
X25872Y33957D01*
X25854Y33955D01*
X25833D01*
X25812Y33952D01*
X25755D01*
X25724Y33950D01*
X25097D01*
Y33823D01*
X24830D01*
Y33950D01*
X24579D01*
X24382Y34227D01*
X24830D01*
Y34413D01*
X25097D01*
Y34227D01*
X25696D01*
X25730Y34229D01*
X25761D01*
X25787Y34232D01*
X25794Y34235D01*
X25805D01*
X25810Y34237D01*
X25825Y34250D01*
X25833Y34258D01*
X25841Y34271D01*
X25846Y34284D01*
X25849Y34302D01*
Y34305D01*
Y34310D01*
X25846Y34318D01*
X25844Y34330D01*
X25841Y34346D01*
X25836Y34364D01*
X25828Y34385D01*
X25818Y34411D01*
X26079Y34437D01*
X26082Y34432D01*
D02*
G37*
G36*
X1400Y22426D02*
X960Y22217D01*
X1117Y22091D01*
X1400D01*
Y21935D01*
X463D01*
Y22091D01*
X881D01*
X463Y22405D01*
Y22615D01*
X826Y22326D01*
X1400Y22629D01*
Y22426D01*
D02*
G37*
G36*
X1118Y23568D02*
X1127Y23566D01*
X1138Y23563D01*
X1150Y23559D01*
X1166Y23555D01*
X1182Y23549D01*
X1200Y23542D01*
X1238Y23525D01*
X1277Y23505D01*
X1313Y23481D01*
X1328Y23467D01*
X1343Y23452D01*
X1345Y23451D01*
X1346Y23448D01*
X1350Y23444D01*
X1354Y23437D01*
X1360Y23430D01*
X1365Y23420D01*
X1372Y23409D01*
X1379Y23396D01*
X1386Y23383D01*
X1393Y23367D01*
X1404Y23333D01*
X1412Y23294D01*
X1414Y23273D01*
X1415Y23251D01*
Y23249D01*
Y23244D01*
X1414Y23237D01*
Y23226D01*
X1411Y23213D01*
X1410Y23198D01*
X1406Y23182D01*
X1401Y23163D01*
X1394Y23144D01*
X1388Y23125D01*
X1378Y23105D01*
X1367Y23084D01*
X1353Y23064D01*
X1338Y23044D01*
X1321Y23025D01*
X1300Y23007D01*
X1299Y23005D01*
X1295Y23003D01*
X1286Y22997D01*
X1275Y22990D01*
X1263Y22982D01*
X1246Y22973D01*
X1227Y22964D01*
X1204Y22954D01*
X1181Y22943D01*
X1153Y22933D01*
X1124Y22925D01*
X1092Y22917D01*
X1057Y22910D01*
X1020Y22904D01*
X981Y22901D01*
X940Y22900D01*
X928D01*
X916Y22901D01*
X901D01*
X880Y22903D01*
X856Y22906D01*
X831Y22910D01*
X804Y22914D01*
X773Y22919D01*
X743Y22926D01*
X712Y22935D01*
X680Y22946D01*
X650Y22958D01*
X621Y22972D01*
X591Y22989D01*
X565Y23008D01*
X564Y23010D01*
X560Y23012D01*
X554Y23018D01*
X547Y23025D01*
X537Y23035D01*
X528Y23046D01*
X517Y23059D01*
X505Y23075D01*
X496Y23091D01*
X485Y23111D01*
X475Y23132D01*
X465Y23154D01*
X458Y23179D01*
X453Y23204D01*
X449Y23231D01*
X447Y23261D01*
Y23262D01*
Y23266D01*
Y23273D01*
X449Y23283D01*
X450Y23294D01*
X451Y23306D01*
X454Y23320D01*
X458Y23335D01*
X469Y23370D01*
X476Y23388D01*
X485Y23406D01*
X496Y23424D01*
X508Y23442D01*
X522Y23460D01*
X537Y23477D01*
Y23478D01*
X540Y23480D01*
X544Y23482D01*
X548Y23487D01*
X555Y23492D01*
X564Y23498D01*
X573Y23505D01*
X585Y23512D01*
X597Y23519D01*
X609Y23527D01*
X625Y23534D01*
X641Y23542D01*
X661Y23549D01*
X680Y23556D01*
X701Y23563D01*
X723Y23568D01*
X768Y23415D01*
X766D01*
X765Y23413D01*
X761D01*
X755Y23412D01*
X741Y23408D01*
X725Y23402D01*
X705Y23394D01*
X686Y23383D01*
X668Y23370D01*
X651Y23355D01*
X650Y23354D01*
X644Y23348D01*
X637Y23338D01*
X630Y23326D01*
X622Y23310D01*
X616Y23294D01*
X611Y23274D01*
X609Y23252D01*
Y23251D01*
Y23248D01*
Y23244D01*
X611Y23238D01*
X614Y23223D01*
X619Y23204D01*
X628Y23182D01*
X641Y23158D01*
X650Y23147D01*
X659Y23136D01*
X671Y23125D01*
X684Y23114D01*
X686D01*
X687Y23111D01*
X693Y23109D01*
X698Y23105D01*
X707Y23101D01*
X716Y23097D01*
X729Y23093D01*
X743Y23087D01*
X758Y23082D01*
X776Y23078D01*
X797Y23073D01*
X819Y23069D01*
X842Y23066D01*
X869Y23064D01*
X898Y23061D01*
X945D01*
X958Y23062D01*
X971D01*
X988Y23064D01*
X1006Y23065D01*
X1026Y23068D01*
X1067Y23073D01*
X1109Y23083D01*
X1128Y23089D01*
X1148Y23096D01*
X1164Y23104D01*
X1179Y23112D01*
X1181D01*
X1182Y23115D01*
X1191Y23122D01*
X1203Y23133D01*
X1216Y23150D01*
X1229Y23169D01*
X1242Y23191D01*
X1250Y23219D01*
X1252Y23233D01*
X1253Y23248D01*
Y23249D01*
Y23251D01*
X1252Y23258D01*
X1250Y23270D01*
X1247Y23284D01*
X1242Y23301D01*
X1234Y23319D01*
X1221Y23337D01*
X1206Y23354D01*
X1203Y23355D01*
X1196Y23360D01*
X1185Y23369D01*
X1168Y23378D01*
X1148Y23390D01*
X1121Y23399D01*
X1091Y23410D01*
X1053Y23419D01*
X1112Y23570D01*
X1113D01*
X1118Y23568D01*
D02*
G37*
G36*
X1149Y21024D02*
X1159Y21023D01*
X1171Y21021D01*
X1185Y21019D01*
X1199Y21016D01*
X1232Y21007D01*
X1267Y20994D01*
X1284Y20985D01*
X1300Y20974D01*
X1317Y20963D01*
X1333Y20949D01*
X1335Y20948D01*
X1338Y20945D01*
X1340Y20941D01*
X1346Y20935D01*
X1353Y20927D01*
X1360Y20917D01*
X1367Y20905D01*
X1374Y20892D01*
X1382Y20877D01*
X1389Y20859D01*
X1396Y20840D01*
X1403Y20819D01*
X1408Y20795D01*
X1411Y20770D01*
X1414Y20744D01*
X1415Y20715D01*
Y20713D01*
Y20712D01*
Y20708D01*
Y20702D01*
X1412Y20688D01*
X1410Y20670D01*
X1406Y20648D01*
X1399Y20623D01*
X1389Y20597D01*
X1375Y20569D01*
X1358Y20541D01*
X1336Y20514D01*
X1311Y20487D01*
X1296Y20475D01*
X1279Y20462D01*
X1261Y20451D01*
X1243Y20442D01*
X1222Y20432D01*
X1200Y20422D01*
X1175Y20415D01*
X1150Y20408D01*
X1123Y20404D01*
X1094Y20400D01*
X1075Y20551D01*
X1077D01*
X1084Y20553D01*
X1092Y20554D01*
X1103Y20557D01*
X1117Y20561D01*
X1132Y20566D01*
X1149Y20573D01*
X1166Y20582D01*
X1182Y20591D01*
X1199Y20602D01*
X1214Y20616D01*
X1228Y20633D01*
X1239Y20651D01*
X1247Y20670D01*
X1254Y20694D01*
X1256Y20719D01*
Y20720D01*
Y20722D01*
Y20730D01*
X1254Y20743D01*
X1252Y20759D01*
X1247Y20776D01*
X1241Y20794D01*
X1232Y20812D01*
X1220Y20829D01*
X1218Y20830D01*
X1213Y20835D01*
X1204Y20842D01*
X1195Y20849D01*
X1181Y20858D01*
X1166Y20863D01*
X1148Y20869D01*
X1128Y20870D01*
X1123D01*
X1117Y20869D01*
X1109D01*
X1092Y20863D01*
X1082Y20860D01*
X1074Y20855D01*
X1073D01*
X1070Y20852D01*
X1062Y20844D01*
X1056Y20838D01*
X1049Y20831D01*
X1044Y20822D01*
X1038Y20812D01*
X1037Y20810D01*
X1035Y20806D01*
X1031Y20797D01*
X1026Y20784D01*
X1023Y20776D01*
X1020Y20766D01*
X1016Y20755D01*
X1012Y20741D01*
X1006Y20727D01*
X1001Y20711D01*
X995Y20693D01*
X989Y20673D01*
Y20672D01*
X988Y20669D01*
X987Y20663D01*
X984Y20657D01*
X981Y20648D01*
X978Y20640D01*
X970Y20618D01*
X960Y20594D01*
X949Y20569D01*
X937Y20547D01*
X924Y20528D01*
X923Y20526D01*
X917Y20521D01*
X910Y20512D01*
X899Y20501D01*
X887Y20490D01*
X872Y20478D01*
X854Y20465D01*
X833Y20454D01*
X830Y20453D01*
X823Y20450D01*
X811Y20446D01*
X795Y20442D01*
X777Y20436D01*
X757Y20432D01*
X733Y20429D01*
X709Y20428D01*
X697D01*
X682Y20429D01*
X664Y20432D01*
X643Y20436D01*
X619Y20443D01*
X596Y20451D01*
X572Y20462D01*
X571D01*
X569Y20464D01*
X562Y20469D01*
X551Y20476D01*
X537Y20487D01*
X522Y20501D01*
X507Y20518D01*
X492Y20536D01*
X479Y20558D01*
Y20559D01*
X478Y20561D01*
X474Y20569D01*
X469Y20583D01*
X463Y20601D01*
X457Y20623D01*
X453Y20648D01*
X449Y20679D01*
X447Y20711D01*
Y20712D01*
Y20716D01*
Y20723D01*
X449Y20733D01*
X450Y20744D01*
X451Y20758D01*
X453Y20772D01*
X457Y20788D01*
X465Y20822D01*
X479Y20858D01*
X487Y20874D01*
X497Y20892D01*
X508Y20908D01*
X522Y20923D01*
X524Y20924D01*
X525Y20926D01*
X530Y20930D01*
X536Y20935D01*
X543Y20941D01*
X553Y20948D01*
X564Y20955D01*
X576Y20962D01*
X590Y20969D01*
X605Y20977D01*
X623Y20984D01*
X641Y20989D01*
X662Y20995D01*
X683Y20999D01*
X707Y21003D01*
X732Y21005D01*
X740Y20849D01*
X737D01*
X733Y20848D01*
X727Y20847D01*
X715Y20844D01*
X698Y20840D01*
X682Y20833D01*
X664Y20826D01*
X648Y20816D01*
X634Y20804D01*
X633Y20802D01*
X630Y20798D01*
X625Y20790D01*
X619Y20779D01*
X614Y20765D01*
X608Y20748D01*
X605Y20729D01*
X604Y20706D01*
Y20704D01*
Y20697D01*
X605Y20684D01*
X607Y20670D01*
X611Y20655D01*
X615Y20640D01*
X622Y20623D01*
X630Y20609D01*
X632Y20608D01*
X634Y20604D01*
X640Y20598D01*
X648Y20593D01*
X658Y20587D01*
X669Y20582D01*
X682Y20578D01*
X695Y20576D01*
X701D01*
X708Y20578D01*
X718Y20580D01*
X727Y20583D01*
X737Y20589D01*
X748Y20597D01*
X758Y20607D01*
X759Y20608D01*
X762Y20614D01*
X768Y20622D01*
X775Y20636D01*
X779Y20645D01*
X784Y20655D01*
X788Y20666D01*
X794Y20680D01*
X799Y20694D01*
X805Y20711D01*
X811Y20729D01*
X816Y20748D01*
Y20749D01*
X818Y20754D01*
X819Y20759D01*
X822Y20768D01*
X826Y20777D01*
X829Y20788D01*
X838Y20813D01*
X849Y20841D01*
X861Y20869D01*
X874Y20895D01*
X881Y20908D01*
X888Y20917D01*
X890Y20920D01*
X895Y20926D01*
X902Y20935D01*
X913Y20948D01*
X927Y20960D01*
X944Y20974D01*
X963Y20987D01*
X984Y20998D01*
X987Y20999D01*
X995Y21002D01*
X1008Y21006D01*
X1024Y21012D01*
X1045Y21017D01*
X1070Y21021D01*
X1098Y21024D01*
X1128Y21025D01*
X1139D01*
X1149Y21024D01*
D02*
G37*
G36*
X1118Y21798D02*
X1127Y21795D01*
X1138Y21792D01*
X1150Y21788D01*
X1166Y21784D01*
X1182Y21779D01*
X1200Y21772D01*
X1238Y21755D01*
X1277Y21734D01*
X1313Y21711D01*
X1328Y21697D01*
X1343Y21681D01*
X1345Y21680D01*
X1346Y21677D01*
X1350Y21673D01*
X1354Y21666D01*
X1360Y21659D01*
X1365Y21650D01*
X1372Y21638D01*
X1379Y21626D01*
X1386Y21612D01*
X1393Y21597D01*
X1404Y21562D01*
X1412Y21523D01*
X1414Y21503D01*
X1415Y21480D01*
Y21479D01*
Y21473D01*
X1414Y21466D01*
Y21455D01*
X1411Y21443D01*
X1410Y21428D01*
X1406Y21411D01*
X1401Y21393D01*
X1394Y21374D01*
X1388Y21354D01*
X1378Y21335D01*
X1367Y21314D01*
X1353Y21293D01*
X1338Y21274D01*
X1321Y21254D01*
X1300Y21236D01*
X1299Y21235D01*
X1295Y21232D01*
X1286Y21227D01*
X1275Y21220D01*
X1263Y21211D01*
X1246Y21203D01*
X1227Y21193D01*
X1204Y21184D01*
X1181Y21172D01*
X1153Y21163D01*
X1124Y21154D01*
X1092Y21146D01*
X1057Y21139D01*
X1020Y21134D01*
X981Y21131D01*
X940Y21129D01*
X928D01*
X916Y21131D01*
X901D01*
X880Y21132D01*
X856Y21135D01*
X831Y21139D01*
X804Y21143D01*
X773Y21149D01*
X743Y21156D01*
X712Y21164D01*
X680Y21175D01*
X650Y21188D01*
X621Y21202D01*
X591Y21218D01*
X565Y21238D01*
X564Y21239D01*
X560Y21242D01*
X554Y21247D01*
X547Y21254D01*
X537Y21264D01*
X528Y21275D01*
X517Y21289D01*
X505Y21304D01*
X496Y21321D01*
X485Y21340D01*
X475Y21361D01*
X465Y21383D01*
X458Y21408D01*
X453Y21433D01*
X449Y21461D01*
X447Y21490D01*
Y21491D01*
Y21496D01*
Y21503D01*
X449Y21512D01*
X450Y21523D01*
X451Y21536D01*
X454Y21550D01*
X458Y21565D01*
X469Y21600D01*
X476Y21618D01*
X485Y21636D01*
X496Y21654D01*
X508Y21672D01*
X522Y21690D01*
X537Y21706D01*
Y21708D01*
X540Y21709D01*
X544Y21712D01*
X548Y21716D01*
X555Y21722D01*
X564Y21727D01*
X573Y21734D01*
X585Y21741D01*
X597Y21748D01*
X609Y21756D01*
X625Y21763D01*
X641Y21772D01*
X661Y21779D01*
X680Y21785D01*
X701Y21792D01*
X723Y21798D01*
X768Y21644D01*
X766D01*
X765Y21643D01*
X761D01*
X755Y21641D01*
X741Y21637D01*
X725Y21632D01*
X705Y21623D01*
X686Y21612D01*
X668Y21600D01*
X651Y21584D01*
X650Y21583D01*
X644Y21577D01*
X637Y21568D01*
X630Y21555D01*
X622Y21540D01*
X616Y21523D01*
X611Y21504D01*
X609Y21482D01*
Y21480D01*
Y21478D01*
Y21473D01*
X611Y21468D01*
X614Y21453D01*
X619Y21433D01*
X628Y21411D01*
X641Y21387D01*
X650Y21376D01*
X659Y21365D01*
X671Y21354D01*
X684Y21343D01*
X686D01*
X687Y21340D01*
X693Y21339D01*
X698Y21335D01*
X707Y21331D01*
X716Y21326D01*
X729Y21322D01*
X743Y21317D01*
X758Y21311D01*
X776Y21307D01*
X797Y21303D01*
X819Y21299D01*
X842Y21296D01*
X869Y21293D01*
X898Y21290D01*
X945D01*
X958Y21292D01*
X971D01*
X988Y21293D01*
X1006Y21295D01*
X1026Y21297D01*
X1067Y21303D01*
X1109Y21313D01*
X1128Y21318D01*
X1148Y21325D01*
X1164Y21333D01*
X1179Y21342D01*
X1181D01*
X1182Y21344D01*
X1191Y21351D01*
X1203Y21362D01*
X1216Y21379D01*
X1229Y21399D01*
X1242Y21421D01*
X1250Y21448D01*
X1252Y21462D01*
X1253Y21478D01*
Y21479D01*
Y21480D01*
X1252Y21487D01*
X1250Y21500D01*
X1247Y21514D01*
X1242Y21530D01*
X1234Y21548D01*
X1221Y21566D01*
X1206Y21583D01*
X1203Y21584D01*
X1196Y21590D01*
X1185Y21598D01*
X1168Y21608D01*
X1148Y21619D01*
X1121Y21629D01*
X1091Y21640D01*
X1053Y21648D01*
X1112Y21799D01*
X1113D01*
X1118Y21798D01*
D02*
G37*
G36*
X25512Y32488D02*
X25540Y32486D01*
X25571Y32483D01*
X25605Y32481D01*
X25641Y32475D01*
X25722Y32460D01*
X25805Y32437D01*
X25844Y32421D01*
X25885Y32403D01*
X25921Y32382D01*
X25955Y32359D01*
X25958Y32356D01*
X25963Y32354D01*
X25970Y32346D01*
X25981Y32336D01*
X26009Y32310D01*
X26040Y32273D01*
X26074Y32227D01*
X26100Y32178D01*
X26113Y32149D01*
X26121Y32118D01*
X26126Y32087D01*
X26128Y32056D01*
Y32051D01*
Y32040D01*
X26126Y32022D01*
X26121Y31999D01*
X26116Y31973D01*
X26105Y31942D01*
X26092Y31911D01*
X26074Y31877D01*
X26071Y31874D01*
X26064Y31864D01*
X26051Y31846D01*
X26033Y31828D01*
X26012Y31804D01*
X25983Y31779D01*
X25952Y31755D01*
X25916Y31732D01*
X26100D01*
Y31475D01*
X24349D01*
Y31753D01*
X24981D01*
X24976Y31755D01*
X24965Y31763D01*
X24950Y31776D01*
X24932Y31794D01*
X24911Y31815D01*
X24888Y31838D01*
X24867Y31861D01*
X24849Y31890D01*
X24846Y31893D01*
X24841Y31903D01*
X24833Y31918D01*
X24825Y31939D01*
X24818Y31962D01*
X24810Y31991D01*
X24805Y32022D01*
X24802Y32053D01*
Y32056D01*
Y32061D01*
Y32071D01*
X24805Y32084D01*
X24807Y32100D01*
X24810Y32118D01*
X24823Y32162D01*
X24843Y32211D01*
X24856Y32235D01*
X24872Y32263D01*
X24893Y32289D01*
X24916Y32315D01*
X24942Y32341D01*
X24970Y32364D01*
X24973Y32367D01*
X24978Y32369D01*
X24989Y32377D01*
X25001Y32385D01*
X25020Y32393D01*
X25040Y32406D01*
X25064Y32416D01*
X25095Y32429D01*
X25126Y32439D01*
X25162Y32452D01*
X25204Y32463D01*
X25248Y32470D01*
X25294Y32481D01*
X25346Y32486D01*
X25400Y32488D01*
X25460Y32491D01*
X25491D01*
X25512Y32488D01*
D02*
G37*
G36*
X28000Y33373D02*
X27994D01*
X27987Y33375D01*
X27978D01*
X27967Y33377D01*
X27954Y33380D01*
X27922Y33386D01*
X27887Y33393D01*
X27846Y33406D01*
X27804Y33421D01*
X27761Y33439D01*
X27759D01*
X27756Y33443D01*
X27750Y33445D01*
X27741Y33451D01*
X27730Y33458D01*
X27715Y33465D01*
X27700Y33477D01*
X27682Y33489D01*
X27661Y33502D01*
X27639Y33519D01*
X27615Y33536D01*
X27587Y33556D01*
X27559Y33578D01*
X27530Y33604D01*
X27496Y33630D01*
X27463Y33660D01*
X27461Y33662D01*
X27456Y33665D01*
X27448Y33673D01*
X27439Y33680D01*
X27428Y33691D01*
X27413Y33702D01*
X27382Y33728D01*
X27348Y33756D01*
X27317Y33782D01*
X27287Y33804D01*
X27274Y33814D01*
X27263Y33821D01*
X27259Y33823D01*
X27250Y33828D01*
X27235Y33836D01*
X27215Y33843D01*
X27193Y33851D01*
X27167Y33858D01*
X27139Y33864D01*
X27111Y33865D01*
X27098D01*
X27083Y33864D01*
X27065Y33862D01*
X27045Y33856D01*
X27024Y33851D01*
X27004Y33841D01*
X26987Y33828D01*
X26985Y33826D01*
X26980Y33821D01*
X26974Y33814D01*
X26965Y33802D01*
X26958Y33789D01*
X26952Y33773D01*
X26946Y33752D01*
X26945Y33732D01*
Y33730D01*
Y33727D01*
X26946Y33719D01*
X26948Y33712D01*
X26956Y33689D01*
X26961Y33678D01*
X26969Y33665D01*
X26980Y33652D01*
X26993Y33639D01*
X27008Y33628D01*
X27028Y33617D01*
X27050Y33608D01*
X27076Y33601D01*
X27106Y33595D01*
X27141Y33591D01*
X27115Y33395D01*
X27113D01*
X27106Y33397D01*
X27096D01*
X27083Y33399D01*
X27069Y33402D01*
X27050Y33404D01*
X27030Y33410D01*
X27008Y33415D01*
X26963Y33428D01*
X26917Y33447D01*
X26872Y33471D01*
X26854Y33484D01*
X26835Y33501D01*
X26833Y33502D01*
X26832Y33504D01*
X26826Y33510D01*
X26821Y33517D01*
X26815Y33527D01*
X26806Y33536D01*
X26789Y33564D01*
X26772Y33597D01*
X26759Y33638D01*
X26748Y33684D01*
X26746Y33710D01*
X26745Y33736D01*
Y33738D01*
Y33743D01*
Y33751D01*
X26746Y33762D01*
X26748Y33777D01*
X26750Y33791D01*
X26758Y33828D01*
X26771Y33867D01*
X26778Y33888D01*
X26789Y33908D01*
X26802Y33928D01*
X26815Y33947D01*
X26832Y33964D01*
X26850Y33980D01*
X26852Y33982D01*
X26856Y33984D01*
X26861Y33988D01*
X26869Y33993D01*
X26878Y33999D01*
X26891Y34006D01*
X26920Y34023D01*
X26956Y34038D01*
X26996Y34051D01*
X27041Y34060D01*
X27065Y34064D01*
X27104D01*
X27119Y34062D01*
X27139D01*
X27161Y34058D01*
X27187Y34054D01*
X27213Y34049D01*
X27241Y34041D01*
X27245D01*
X27254Y34038D01*
X27267Y34032D01*
X27285Y34026D01*
X27307Y34017D01*
X27332Y34006D01*
X27357Y33991D01*
X27385Y33976D01*
X27389Y33975D01*
X27398Y33969D01*
X27415Y33958D01*
X27435Y33943D01*
X27463Y33923D01*
X27495Y33897D01*
X27532Y33867D01*
X27572Y33832D01*
X27574Y33830D01*
X27576Y33828D01*
X27582Y33823D01*
X27589Y33817D01*
X27607Y33801D01*
X27630Y33782D01*
X27654Y33762D01*
X27676Y33741D01*
X27696Y33725D01*
X27713Y33712D01*
X27715Y33710D01*
X27719Y33708D01*
X27726Y33702D01*
X27733Y33697D01*
X27754Y33684D01*
X27778Y33671D01*
Y34064D01*
X28000D01*
Y33373D01*
D02*
G37*
G36*
X27441Y34862D02*
X27470D01*
X27502Y34858D01*
X27539Y34856D01*
X27578Y34852D01*
X27659Y34841D01*
X27743Y34825D01*
X27782Y34813D01*
X27817Y34802D01*
X27850Y34788D01*
X27880Y34771D01*
X27882Y34769D01*
X27885Y34767D01*
X27893Y34762D01*
X27902Y34754D01*
X27913Y34745D01*
X27924Y34734D01*
X27950Y34706D01*
X27976Y34671D01*
X27998Y34630D01*
X28007Y34608D01*
X28015Y34584D01*
X28019Y34558D01*
X28020Y34530D01*
Y34528D01*
Y34523D01*
X28019Y34515D01*
Y34506D01*
X28017Y34493D01*
X28013Y34478D01*
X28004Y34443D01*
X27996Y34425D01*
X27987Y34404D01*
X27976Y34386D01*
X27961Y34365D01*
X27946Y34345D01*
X27928Y34325D01*
X27906Y34306D01*
X27882Y34288D01*
X27880Y34286D01*
X27874Y34284D01*
X27867Y34280D01*
X27854Y34273D01*
X27837Y34267D01*
X27819Y34260D01*
X27794Y34251D01*
X27767Y34243D01*
X27733Y34234D01*
X27698Y34226D01*
X27657Y34217D01*
X27611Y34212D01*
X27561Y34206D01*
X27506Y34201D01*
X27446Y34199D01*
X27382Y34197D01*
X27348D01*
X27324Y34199D01*
X27296Y34201D01*
X27263Y34202D01*
X27226Y34204D01*
X27187Y34208D01*
X27106Y34219D01*
X27024Y34236D01*
X26985Y34245D01*
X26950Y34258D01*
X26917Y34271D01*
X26887Y34288D01*
X26885Y34289D01*
X26882Y34291D01*
X26874Y34297D01*
X26865Y34304D01*
X26854Y34313D01*
X26843Y34325D01*
X26815Y34352D01*
X26789Y34388D01*
X26767Y34428D01*
X26758Y34451D01*
X26750Y34475D01*
X26746Y34500D01*
X26745Y34528D01*
Y34530D01*
Y34536D01*
Y34543D01*
X26746Y34552D01*
X26748Y34565D01*
X26752Y34580D01*
X26763Y34615D01*
X26771Y34634D01*
X26780Y34654D01*
X26791Y34673D01*
X26804Y34693D01*
X26821Y34713D01*
X26841Y34734D01*
X26861Y34752D01*
X26887Y34771D01*
X26889Y34773D01*
X26895Y34775D01*
X26902Y34780D01*
X26915Y34786D01*
X26932Y34793D01*
X26950Y34800D01*
X26974Y34808D01*
X27002Y34817D01*
X27035Y34826D01*
X27070Y34834D01*
X27111Y34841D01*
X27158Y34849D01*
X27206Y34854D01*
X27261Y34860D01*
X27319Y34862D01*
X27383Y34863D01*
X27417D01*
X27441Y34862D01*
D02*
G37*
G36*
X28000Y31777D02*
X27994D01*
X27987Y31779D01*
X27978D01*
X27967Y31780D01*
X27954Y31784D01*
X27922Y31790D01*
X27887Y31797D01*
X27846Y31810D01*
X27804Y31825D01*
X27761Y31843D01*
X27759D01*
X27756Y31847D01*
X27750Y31849D01*
X27741Y31854D01*
X27730Y31862D01*
X27715Y31869D01*
X27700Y31880D01*
X27682Y31893D01*
X27661Y31906D01*
X27639Y31923D01*
X27615Y31940D01*
X27587Y31960D01*
X27559Y31982D01*
X27530Y32008D01*
X27496Y32034D01*
X27463Y32064D01*
X27461Y32066D01*
X27456Y32069D01*
X27448Y32077D01*
X27439Y32084D01*
X27428Y32095D01*
X27413Y32106D01*
X27382Y32132D01*
X27348Y32160D01*
X27317Y32186D01*
X27287Y32208D01*
X27274Y32217D01*
X27263Y32225D01*
X27259Y32227D01*
X27250Y32232D01*
X27235Y32240D01*
X27215Y32247D01*
X27193Y32254D01*
X27167Y32262D01*
X27139Y32267D01*
X27111Y32269D01*
X27098D01*
X27083Y32267D01*
X27065Y32266D01*
X27045Y32260D01*
X27024Y32254D01*
X27004Y32245D01*
X26987Y32232D01*
X26985Y32230D01*
X26980Y32225D01*
X26974Y32217D01*
X26965Y32206D01*
X26958Y32193D01*
X26952Y32177D01*
X26946Y32156D01*
X26945Y32136D01*
Y32134D01*
Y32130D01*
X26946Y32123D01*
X26948Y32116D01*
X26956Y32093D01*
X26961Y32082D01*
X26969Y32069D01*
X26980Y32056D01*
X26993Y32043D01*
X27008Y32032D01*
X27028Y32021D01*
X27050Y32012D01*
X27076Y32004D01*
X27106Y31999D01*
X27141Y31995D01*
X27115Y31799D01*
X27113D01*
X27106Y31801D01*
X27096D01*
X27083Y31803D01*
X27069Y31806D01*
X27050Y31808D01*
X27030Y31814D01*
X27008Y31819D01*
X26963Y31832D01*
X26917Y31851D01*
X26872Y31875D01*
X26854Y31888D01*
X26835Y31904D01*
X26833Y31906D01*
X26832Y31908D01*
X26826Y31914D01*
X26821Y31921D01*
X26815Y31930D01*
X26806Y31940D01*
X26789Y31967D01*
X26772Y32001D01*
X26759Y32042D01*
X26748Y32088D01*
X26746Y32114D01*
X26745Y32140D01*
Y32141D01*
Y32147D01*
Y32154D01*
X26746Y32166D01*
X26748Y32180D01*
X26750Y32195D01*
X26758Y32232D01*
X26771Y32271D01*
X26778Y32291D01*
X26789Y32312D01*
X26802Y32332D01*
X26815Y32351D01*
X26832Y32367D01*
X26850Y32384D01*
X26852Y32386D01*
X26856Y32388D01*
X26861Y32391D01*
X26869Y32397D01*
X26878Y32403D01*
X26891Y32410D01*
X26920Y32427D01*
X26956Y32441D01*
X26996Y32454D01*
X27041Y32464D01*
X27065Y32467D01*
X27104D01*
X27119Y32466D01*
X27139D01*
X27161Y32462D01*
X27187Y32458D01*
X27213Y32453D01*
X27241Y32445D01*
X27245D01*
X27254Y32441D01*
X27267Y32436D01*
X27285Y32430D01*
X27307Y32421D01*
X27332Y32410D01*
X27357Y32395D01*
X27385Y32380D01*
X27389Y32379D01*
X27398Y32373D01*
X27415Y32362D01*
X27435Y32347D01*
X27463Y32327D01*
X27495Y32301D01*
X27532Y32271D01*
X27572Y32236D01*
X27574Y32234D01*
X27576Y32232D01*
X27582Y32227D01*
X27589Y32221D01*
X27607Y32204D01*
X27630Y32186D01*
X27654Y32166D01*
X27676Y32145D01*
X27696Y32129D01*
X27713Y32116D01*
X27715Y32114D01*
X27719Y32112D01*
X27726Y32106D01*
X27733Y32101D01*
X27754Y32088D01*
X27778Y32075D01*
Y32467D01*
X28000D01*
Y31777D01*
D02*
G37*
G36*
X27441Y33265D02*
X27470D01*
X27502Y33262D01*
X27539Y33260D01*
X27578Y33256D01*
X27659Y33245D01*
X27743Y33228D01*
X27782Y33217D01*
X27817Y33206D01*
X27850Y33191D01*
X27880Y33175D01*
X27882Y33173D01*
X27885Y33171D01*
X27893Y33165D01*
X27902Y33158D01*
X27913Y33149D01*
X27924Y33138D01*
X27950Y33110D01*
X27976Y33075D01*
X27998Y33034D01*
X28007Y33012D01*
X28015Y32988D01*
X28019Y32962D01*
X28020Y32934D01*
Y32932D01*
Y32927D01*
X28019Y32919D01*
Y32910D01*
X28017Y32897D01*
X28013Y32882D01*
X28004Y32847D01*
X27996Y32828D01*
X27987Y32808D01*
X27976Y32790D01*
X27961Y32769D01*
X27946Y32749D01*
X27928Y32728D01*
X27906Y32710D01*
X27882Y32691D01*
X27880Y32690D01*
X27874Y32688D01*
X27867Y32684D01*
X27854Y32677D01*
X27837Y32671D01*
X27819Y32664D01*
X27794Y32654D01*
X27767Y32647D01*
X27733Y32638D01*
X27698Y32630D01*
X27657Y32621D01*
X27611Y32616D01*
X27561Y32610D01*
X27506Y32604D01*
X27446Y32603D01*
X27382Y32601D01*
X27348D01*
X27324Y32603D01*
X27296Y32604D01*
X27263Y32606D01*
X27226Y32608D01*
X27187Y32612D01*
X27106Y32623D01*
X27024Y32640D01*
X26985Y32649D01*
X26950Y32662D01*
X26917Y32675D01*
X26887Y32691D01*
X26885Y32693D01*
X26882Y32695D01*
X26874Y32701D01*
X26865Y32708D01*
X26854Y32717D01*
X26843Y32728D01*
X26815Y32756D01*
X26789Y32791D01*
X26767Y32832D01*
X26758Y32854D01*
X26750Y32878D01*
X26746Y32904D01*
X26745Y32932D01*
Y32934D01*
Y32940D01*
Y32947D01*
X26746Y32956D01*
X26748Y32969D01*
X26752Y32984D01*
X26763Y33019D01*
X26771Y33038D01*
X26780Y33058D01*
X26791Y33077D01*
X26804Y33097D01*
X26821Y33117D01*
X26841Y33138D01*
X26861Y33156D01*
X26887Y33175D01*
X26889Y33177D01*
X26895Y33178D01*
X26902Y33184D01*
X26915Y33190D01*
X26932Y33197D01*
X26950Y33204D01*
X26974Y33212D01*
X27002Y33221D01*
X27035Y33230D01*
X27070Y33238D01*
X27111Y33245D01*
X27158Y33252D01*
X27206Y33258D01*
X27261Y33264D01*
X27319Y33265D01*
X27383Y33267D01*
X27417D01*
X27441Y33265D01*
D02*
G37*
G36*
X25160Y30056D02*
X25157Y30053D01*
X25152Y30045D01*
X25141Y30032D01*
X25131Y30014D01*
X25121Y29996D01*
X25110Y29973D01*
X25105Y29952D01*
X25103Y29929D01*
Y29926D01*
Y29918D01*
X25105Y29908D01*
X25108Y29895D01*
X25113Y29879D01*
X25121Y29861D01*
X25131Y29846D01*
X25147Y29828D01*
X25149Y29825D01*
X25154Y29820D01*
X25165Y29812D01*
X25180Y29804D01*
X25201Y29794D01*
X25229Y29784D01*
X25261Y29773D01*
X25299Y29765D01*
X25305D01*
X25312Y29763D01*
X25320D01*
X25333Y29760D01*
X25351D01*
X25369Y29758D01*
X25393D01*
X25419Y29755D01*
X25447Y29753D01*
X25481D01*
X25520Y29750D01*
X25561D01*
X25605Y29747D01*
X26100D01*
Y29470D01*
X24830D01*
Y29727D01*
X25009D01*
X25007Y29729D01*
X24991Y29737D01*
X24970Y29750D01*
X24942Y29765D01*
X24916Y29784D01*
X24888Y29804D01*
X24862Y29822D01*
X24843Y29843D01*
X24841Y29846D01*
X24836Y29854D01*
X24830Y29864D01*
X24823Y29877D01*
X24815Y29895D01*
X24807Y29916D01*
X24805Y29939D01*
X24802Y29962D01*
Y29968D01*
Y29978D01*
X24805Y29996D01*
X24810Y30019D01*
X24818Y30048D01*
X24830Y30079D01*
X24846Y30110D01*
X24867Y30144D01*
X25160Y30056D01*
D02*
G37*
G36*
X25509Y31268D02*
X25530D01*
X25577Y31260D01*
X25631Y31253D01*
X25691Y31240D01*
X25753Y31222D01*
X25812Y31196D01*
X25815D01*
X25820Y31193D01*
X25828Y31188D01*
X25838Y31183D01*
X25867Y31165D01*
X25900Y31144D01*
X25939Y31115D01*
X25981Y31082D01*
X26017Y31043D01*
X26051Y30999D01*
Y30996D01*
X26053Y30994D01*
X26064Y30978D01*
X26074Y30952D01*
X26090Y30921D01*
X26103Y30880D01*
X26116Y30835D01*
X26126Y30786D01*
X26128Y30732D01*
Y30729D01*
Y30721D01*
Y30709D01*
X26126Y30693D01*
X26123Y30675D01*
X26118Y30652D01*
X26113Y30626D01*
X26105Y30597D01*
X26084Y30538D01*
X26071Y30506D01*
X26053Y30473D01*
X26033Y30442D01*
X26009Y30408D01*
X25983Y30377D01*
X25952Y30348D01*
X25950Y30346D01*
X25945Y30341D01*
X25934Y30335D01*
X25919Y30325D01*
X25900Y30312D01*
X25880Y30299D01*
X25854Y30286D01*
X25823Y30273D01*
X25789Y30258D01*
X25753Y30245D01*
X25711Y30232D01*
X25665Y30219D01*
X25618Y30209D01*
X25564Y30203D01*
X25509Y30198D01*
X25450Y30196D01*
X25419D01*
X25400Y30198D01*
X25382Y30201D01*
X25338Y30206D01*
X25284Y30214D01*
X25227Y30227D01*
X25170Y30245D01*
X25110Y30268D01*
X25108D01*
X25103Y30271D01*
X25095Y30276D01*
X25084Y30281D01*
X25058Y30299D01*
X25025Y30320D01*
X24986Y30348D01*
X24950Y30382D01*
X24911Y30421D01*
X24880Y30462D01*
Y30465D01*
X24877Y30468D01*
X24867Y30483D01*
X24854Y30509D01*
X24841Y30540D01*
X24825Y30582D01*
X24815Y30626D01*
X24805Y30677D01*
X24802Y30732D01*
Y30734D01*
Y30742D01*
Y30755D01*
X24805Y30773D01*
X24807Y30794D01*
X24812Y30820D01*
X24818Y30846D01*
X24825Y30874D01*
X24836Y30905D01*
X24851Y30939D01*
X24867Y30970D01*
X24885Y31004D01*
X24908Y31038D01*
X24934Y31069D01*
X24965Y31097D01*
X24999Y31126D01*
X25001Y31128D01*
X25007Y31131D01*
X25020Y31139D01*
X25033Y31149D01*
X25053Y31159D01*
X25074Y31172D01*
X25100Y31185D01*
X25131Y31198D01*
X25162Y31211D01*
X25198Y31224D01*
X25235Y31237D01*
X25276Y31247D01*
X25364Y31266D01*
X25411Y31268D01*
X25460Y31271D01*
X25494D01*
X25509Y31268D01*
D02*
G37*
G36*
X26100Y27794D02*
X25704Y27670D01*
Y27089D01*
X26100Y26973D01*
Y26664D01*
X24349Y27221D01*
Y27530D01*
X26100Y28107D01*
Y27794D01*
D02*
G37*
G36*
X26038Y29208D02*
X26064D01*
X26092Y29206D01*
X26121D01*
X26185Y29198D01*
X26250Y29190D01*
X26312Y29177D01*
X26341Y29170D01*
X26364Y29159D01*
X26367D01*
X26369Y29157D01*
X26385Y29149D01*
X26406Y29139D01*
X26434Y29120D01*
X26465Y29100D01*
X26496Y29074D01*
X26525Y29040D01*
X26551Y29004D01*
X26553Y28999D01*
X26561Y28986D01*
X26572Y28962D01*
X26582Y28929D01*
X26595Y28887D01*
X26605Y28838D01*
X26613Y28781D01*
X26616Y28716D01*
Y28714D01*
Y28708D01*
Y28701D01*
Y28688D01*
X26613Y28675D01*
Y28657D01*
X26610Y28618D01*
X26605Y28574D01*
X26595Y28527D01*
X26584Y28483D01*
X26569Y28442D01*
X26566Y28436D01*
X26561Y28423D01*
X26551Y28405D01*
X26535Y28382D01*
X26517Y28359D01*
X26494Y28330D01*
X26465Y28307D01*
X26434Y28284D01*
X26429Y28281D01*
X26419Y28276D01*
X26401Y28268D01*
X26375Y28258D01*
X26344Y28247D01*
X26307Y28240D01*
X26268Y28234D01*
X26227Y28232D01*
X26185D01*
X26232Y28548D01*
X26235D01*
X26242Y28550D01*
X26255D01*
X26268Y28556D01*
X26302Y28569D01*
X26315Y28576D01*
X26328Y28589D01*
Y28592D01*
X26333Y28597D01*
X26338Y28605D01*
X26344Y28618D01*
X26349Y28633D01*
X26354Y28654D01*
X26356Y28677D01*
X26359Y28703D01*
Y28708D01*
Y28719D01*
X26356Y28734D01*
X26354Y28755D01*
X26351Y28778D01*
X26346Y28804D01*
X26338Y28828D01*
X26328Y28851D01*
Y28854D01*
X26323Y28859D01*
X26310Y28874D01*
X26302Y28882D01*
X26289Y28892D01*
X26274Y28903D01*
X26255Y28911D01*
X26253D01*
X26245Y28913D01*
X26232Y28918D01*
X26214Y28923D01*
X26191Y28926D01*
X26160Y28931D01*
X26123Y28934D01*
X25893D01*
X25898Y28931D01*
X25911Y28923D01*
X25929Y28911D01*
X25950Y28892D01*
X25976Y28872D01*
X26002Y28848D01*
X26027Y28822D01*
X26048Y28794D01*
X26051Y28791D01*
X26056Y28781D01*
X26064Y28765D01*
X26074Y28742D01*
X26084Y28716D01*
X26092Y28688D01*
X26097Y28657D01*
X26100Y28620D01*
Y28618D01*
Y28613D01*
Y28605D01*
X26097Y28592D01*
X26095Y28576D01*
X26092Y28561D01*
X26079Y28519D01*
X26061Y28475D01*
X26048Y28449D01*
X26035Y28426D01*
X26017Y28400D01*
X25996Y28377D01*
X25973Y28353D01*
X25945Y28330D01*
X25942Y28328D01*
X25937Y28325D01*
X25926Y28317D01*
X25911Y28309D01*
X25893Y28299D01*
X25872Y28289D01*
X25846Y28276D01*
X25818Y28263D01*
X25784Y28250D01*
X25748Y28237D01*
X25709Y28227D01*
X25665Y28216D01*
X25618Y28208D01*
X25569Y28201D01*
X25517Y28198D01*
X25460Y28195D01*
X25429D01*
X25406Y28198D01*
X25380Y28201D01*
X25349Y28203D01*
X25312Y28206D01*
X25276Y28211D01*
X25196Y28227D01*
X25115Y28250D01*
X25074Y28263D01*
X25038Y28281D01*
X25001Y28299D01*
X24968Y28322D01*
X24965Y28325D01*
X24960Y28328D01*
X24952Y28335D01*
X24942Y28346D01*
X24916Y28374D01*
X24885Y28410D01*
X24854Y28455D01*
X24828Y28509D01*
X24818Y28537D01*
X24810Y28569D01*
X24805Y28600D01*
X24802Y28633D01*
Y28638D01*
Y28649D01*
X24805Y28667D01*
X24807Y28690D01*
X24815Y28719D01*
X24823Y28747D01*
X24836Y28778D01*
X24854Y28809D01*
X24856Y28812D01*
X24864Y28822D01*
X24875Y28838D01*
X24893Y28859D01*
X24913Y28879D01*
X24942Y28903D01*
X24973Y28929D01*
X25009Y28952D01*
X24830D01*
Y29211D01*
X26014D01*
X26038Y29208D01*
D02*
G37*
G36*
X89143Y21156D02*
X88936Y21044D01*
X88934D01*
X88930Y21041D01*
X88924Y21038D01*
X88917Y21034D01*
X88909Y21028D01*
X88899Y21022D01*
X88877Y21010D01*
X88853Y20996D01*
X88829Y20981D01*
X88819Y20976D01*
X88810Y20969D01*
X88802Y20963D01*
X88796Y20959D01*
X88795Y20958D01*
X88792Y20955D01*
X88786Y20950D01*
X88781Y20945D01*
X88768Y20931D01*
X88761Y20922D01*
X88757Y20912D01*
Y20911D01*
X88755Y20908D01*
X88752Y20903D01*
X88751Y20894D01*
X88748Y20883D01*
X88747Y20869D01*
X88745Y20853D01*
Y20833D01*
Y20802D01*
X89143D01*
Y20645D01*
X88190D01*
Y20977D01*
Y20979D01*
Y20983D01*
Y20990D01*
Y20998D01*
X88191Y21008D01*
Y21021D01*
X88193Y21048D01*
X88197Y21077D01*
X88201Y21107D01*
X88208Y21135D01*
X88213Y21148D01*
X88217Y21159D01*
X88218Y21162D01*
X88221Y21169D01*
X88228Y21179D01*
X88238Y21192D01*
X88249Y21206D01*
X88265Y21220D01*
X88283Y21235D01*
X88306Y21249D01*
X88308Y21251D01*
X88317Y21255D01*
X88331Y21261D01*
X88348Y21268D01*
X88370Y21273D01*
X88397Y21279D01*
X88425Y21283D01*
X88458Y21285D01*
X88469D01*
X88476Y21283D01*
X88486D01*
X88497Y21282D01*
X88523Y21278D01*
X88551Y21272D01*
X88580Y21262D01*
X88610Y21248D01*
X88638Y21230D01*
X88640D01*
X88641Y21227D01*
X88650Y21220D01*
X88661Y21207D01*
X88674Y21190D01*
X88689Y21169D01*
X88703Y21142D01*
X88714Y21113D01*
X88723Y21077D01*
X88724Y21080D01*
X88730Y21086D01*
X88737Y21096D01*
X88747Y21107D01*
X88758Y21120D01*
X88772Y21134D01*
X88788Y21148D01*
X88803Y21161D01*
X88805Y21162D01*
X88812Y21166D01*
X88823Y21175D01*
X88838Y21184D01*
X88860Y21197D01*
X88872Y21204D01*
X88886Y21213D01*
X88902Y21221D01*
X88919Y21231D01*
X88939Y21241D01*
X88958Y21251D01*
X89143Y21347D01*
Y21156D01*
D02*
G37*
G36*
X10857Y5896D02*
X11127Y5400D01*
X10939D01*
X10764Y5724D01*
X10589Y5400D01*
X10400D01*
X10671Y5896D01*
X10425Y6353D01*
X10609D01*
X10764Y6067D01*
X10919Y6353D01*
X11102D01*
X10857Y5896D01*
D02*
G37*
G36*
X11322Y14352D02*
X11332D01*
X11356Y14350D01*
X11383Y14347D01*
X11410Y14342D01*
X11436Y14336D01*
X11459Y14328D01*
X11462Y14326D01*
X11469Y14323D01*
X11479Y14316D01*
X11493Y14308D01*
X11508Y14297D01*
X11527Y14282D01*
X11543Y14266D01*
X11562Y14246D01*
X11565Y14243D01*
X11570Y14236D01*
X11579Y14223D01*
X11589Y14205D01*
X11601Y14184D01*
X11614Y14158D01*
X11625Y14129D01*
X11636Y14095D01*
Y14094D01*
X11638Y14091D01*
X11639Y14085D01*
X11641Y14078D01*
X11642Y14070D01*
X11645Y14058D01*
X11648Y14046D01*
X11651Y14032D01*
X11652Y14016D01*
X11655Y13999D01*
X11658Y13981D01*
X11659Y13960D01*
X11662Y13916D01*
X11663Y13867D01*
Y13865D01*
Y13861D01*
Y13854D01*
Y13845D01*
X11662Y13836D01*
Y13823D01*
X11660Y13809D01*
Y13793D01*
X11656Y13759D01*
X11652Y13723D01*
X11645Y13686D01*
X11635Y13651D01*
Y13650D01*
X11634Y13647D01*
X11632Y13642D01*
X11629Y13635D01*
X11624Y13618D01*
X11615Y13599D01*
X11605Y13575D01*
X11593Y13551D01*
X11579Y13527D01*
X11563Y13506D01*
X11562Y13503D01*
X11556Y13497D01*
X11546Y13487D01*
X11535Y13476D01*
X11519Y13463D01*
X11503Y13451D01*
X11483Y13438D01*
X11460Y13427D01*
X11457Y13425D01*
X11449Y13423D01*
X11436Y13418D01*
X11418Y13414D01*
X11395Y13408D01*
X11369Y13404D01*
X11338Y13401D01*
X11304Y13400D01*
X11008D01*
Y14353D01*
X11314D01*
X11322Y14352D01*
D02*
G37*
G36*
X942Y32072D02*
X1431D01*
Y31803D01*
X942D01*
Y31400D01*
X606D01*
Y31803D01*
X118D01*
Y32072D01*
X606D01*
Y32477D01*
X942D01*
Y32072D01*
D02*
G37*
G36*
X11440Y6354D02*
X11449Y6353D01*
X11459Y6352D01*
X11484Y6346D01*
X11511Y6337D01*
X11539Y6323D01*
X11553Y6315D01*
X11567Y6305D01*
X11580Y6294D01*
X11593Y6280D01*
X11594Y6278D01*
X11595Y6277D01*
X11598Y6273D01*
X11602Y6267D01*
X11607Y6260D01*
X11612Y6251D01*
X11625Y6230D01*
X11636Y6205D01*
X11646Y6177D01*
X11653Y6146D01*
X11656Y6129D01*
Y6112D01*
Y6109D01*
Y6102D01*
X11655Y6089D01*
X11652Y6075D01*
X11649Y6057D01*
X11643Y6039D01*
X11636Y6019D01*
X11626Y5999D01*
X11625Y5996D01*
X11621Y5991D01*
X11615Y5982D01*
X11605Y5970D01*
X11594Y5957D01*
X11579Y5941D01*
X11562Y5926D01*
X11542Y5912D01*
X11543D01*
X11545Y5910D01*
X11553Y5907D01*
X11564Y5903D01*
X11580Y5896D01*
X11597Y5885D01*
X11614Y5872D01*
X11631Y5855D01*
X11648Y5834D01*
X11649Y5831D01*
X11655Y5823D01*
X11662Y5810D01*
X11669Y5793D01*
X11677Y5772D01*
X11683Y5747D01*
X11688Y5717D01*
X11690Y5685D01*
Y5683D01*
Y5679D01*
Y5672D01*
X11688Y5664D01*
X11687Y5652D01*
X11686Y5640D01*
X11683Y5626D01*
X11680Y5609D01*
X11670Y5575D01*
X11656Y5540D01*
X11648Y5521D01*
X11638Y5503D01*
X11625Y5486D01*
X11611Y5469D01*
X11610Y5468D01*
X11608Y5465D01*
X11602Y5461D01*
X11597Y5456D01*
X11590Y5449D01*
X11581Y5442D01*
X11559Y5427D01*
X11532Y5411D01*
X11501Y5397D01*
X11483Y5393D01*
X11464Y5389D01*
X11446Y5386D01*
X11426Y5384D01*
X11416D01*
X11409Y5386D01*
X11401Y5387D01*
X11390Y5389D01*
X11366Y5393D01*
X11339Y5401D01*
X11309Y5416D01*
X11294Y5423D01*
X11280Y5432D01*
X11266Y5444D01*
X11251Y5456D01*
X11250Y5458D01*
X11249Y5459D01*
X11244Y5463D01*
X11240Y5469D01*
X11235Y5478D01*
X11229Y5486D01*
X11222Y5496D01*
X11215Y5509D01*
X11208Y5521D01*
X11201Y5537D01*
X11194Y5552D01*
X11187Y5571D01*
X11177Y5609D01*
X11170Y5654D01*
X11315Y5675D01*
Y5673D01*
Y5672D01*
X11316Y5664D01*
X11318Y5652D01*
X11322Y5637D01*
X11326Y5620D01*
X11333Y5603D01*
X11342Y5586D01*
X11352Y5572D01*
X11353Y5571D01*
X11357Y5566D01*
X11364Y5561D01*
X11373Y5555D01*
X11383Y5548D01*
X11395Y5542D01*
X11409Y5538D01*
X11425Y5537D01*
X11433D01*
X11442Y5540D01*
X11452Y5542D01*
X11464Y5547D01*
X11478Y5554D01*
X11491Y5564D01*
X11504Y5578D01*
X11505Y5579D01*
X11509Y5586D01*
X11514Y5595D01*
X11521Y5609D01*
X11526Y5624D01*
X11531Y5645D01*
X11535Y5668D01*
X11536Y5695D01*
Y5696D01*
Y5697D01*
Y5706D01*
X11535Y5719D01*
X11532Y5734D01*
X11529Y5751D01*
X11524Y5769D01*
X11515Y5788D01*
X11505Y5803D01*
X11504Y5805D01*
X11500Y5810D01*
X11493Y5816D01*
X11484Y5824D01*
X11473Y5831D01*
X11460Y5838D01*
X11446Y5843D01*
X11430Y5844D01*
X11419D01*
X11412Y5843D01*
X11402Y5841D01*
X11390Y5838D01*
X11377Y5834D01*
X11363Y5830D01*
X11378Y5979D01*
X11388D01*
X11399Y5981D01*
X11412Y5982D01*
X11428Y5986D01*
X11443Y5991D01*
X11457Y5999D01*
X11471Y6009D01*
X11473Y6010D01*
X11477Y6015D01*
X11483Y6023D01*
X11488Y6033D01*
X11494Y6046D01*
X11500Y6061D01*
X11504Y6079D01*
X11505Y6101D01*
Y6103D01*
Y6109D01*
X11504Y6118D01*
X11502Y6129D01*
X11500Y6140D01*
X11494Y6153D01*
X11488Y6165D01*
X11480Y6177D01*
X11478Y6178D01*
X11476Y6181D01*
X11470Y6185D01*
X11463Y6191D01*
X11454Y6196D01*
X11443Y6201D01*
X11430Y6204D01*
X11416Y6205D01*
X11411D01*
X11402Y6204D01*
X11394Y6201D01*
X11384Y6196D01*
X11373Y6191D01*
X11361Y6184D01*
X11350Y6173D01*
X11349Y6171D01*
X11346Y6167D01*
X11342Y6158D01*
X11336Y6149D01*
X11330Y6136D01*
X11325Y6119D01*
X11321Y6101D01*
X11318Y6078D01*
X11180Y6106D01*
Y6108D01*
X11181Y6112D01*
X11182Y6119D01*
X11184Y6127D01*
X11187Y6139D01*
X11189Y6150D01*
X11198Y6178D01*
X11209Y6209D01*
X11223Y6240D01*
X11242Y6270D01*
X11251Y6284D01*
X11263Y6295D01*
X11264Y6297D01*
X11266Y6298D01*
X11274Y6305D01*
X11288Y6315D01*
X11306Y6326D01*
X11329Y6336D01*
X11357Y6346D01*
X11388Y6353D01*
X11405Y6356D01*
X11432D01*
X11440Y6354D01*
D02*
G37*
G36*
X80133Y44174D02*
X79809Y43999D01*
X80133Y43825D01*
Y43636D01*
X79637Y43906D01*
X79180Y43661D01*
Y43844D01*
X79466Y43999D01*
X79180Y44154D01*
Y44338D01*
X79637Y44092D01*
X80133Y44363D01*
Y44174D01*
D02*
G37*
G36*
Y44645D02*
X79444D01*
X79445Y44644D01*
X79448Y44641D01*
X79452Y44637D01*
X79459Y44630D01*
X79466Y44623D01*
X79476Y44613D01*
X79486Y44601D01*
X79496Y44589D01*
X79518Y44560D01*
X79542Y44528D01*
X79564Y44490D01*
X79582Y44451D01*
X79416D01*
Y44452D01*
X79414Y44453D01*
X79411Y44462D01*
X79404Y44473D01*
X79396Y44490D01*
X79383Y44510D01*
X79368Y44531D01*
X79349Y44555D01*
X79327Y44580D01*
X79325Y44582D01*
X79324Y44583D01*
X79315Y44591D01*
X79301Y44603D01*
X79283Y44617D01*
X79262Y44632D01*
X79236Y44648D01*
X79208Y44662D01*
X79177Y44673D01*
Y44796D01*
X80133D01*
Y44645D01*
D02*
G37*
G36*
X12020Y14354D02*
X12030Y14353D01*
X12042Y14350D01*
X12069Y14342D01*
X12085Y14336D01*
X12100Y14329D01*
X12116Y14319D01*
X12133Y14309D01*
X12150Y14297D01*
X12165Y14281D01*
X12181Y14264D01*
X12196Y14244D01*
X12198Y14243D01*
X12199Y14239D01*
X12203Y14233D01*
X12209Y14223D01*
X12214Y14211D01*
X12220Y14195D01*
X12227Y14178D01*
X12236Y14157D01*
X12243Y14133D01*
X12250Y14105D01*
X12255Y14075D01*
X12261Y14041D01*
X12267Y14005D01*
X12271Y13965D01*
X12272Y13922D01*
X12274Y13875D01*
Y13874D01*
Y13872D01*
Y13864D01*
Y13850D01*
X12272Y13833D01*
X12271Y13810D01*
X12269Y13786D01*
X12267Y13759D01*
X12264Y13730D01*
X12254Y13668D01*
X12248Y13637D01*
X12240Y13606D01*
X12230Y13576D01*
X12220Y13548D01*
X12207Y13521D01*
X12193Y13499D01*
X12192Y13497D01*
X12189Y13494D01*
X12185Y13489D01*
X12179Y13480D01*
X12171Y13472D01*
X12161Y13462D01*
X12150Y13452D01*
X12137Y13442D01*
X12123Y13431D01*
X12107Y13421D01*
X12072Y13403D01*
X12052Y13396D01*
X12031Y13390D01*
X12010Y13386D01*
X11986Y13384D01*
X11978D01*
X11972Y13386D01*
X11955Y13387D01*
X11934Y13392D01*
X11911Y13399D01*
X11887Y13408D01*
X11862Y13423D01*
X11839Y13442D01*
X11837Y13445D01*
X11830Y13454D01*
X11820Y13468D01*
X11814Y13476D01*
X11808Y13486D01*
X11803Y13499D01*
X11796Y13511D01*
X11790Y13525D01*
X11785Y13542D01*
X11779Y13559D01*
X11773Y13579D01*
X11769Y13599D01*
X11766Y13621D01*
X11911Y13641D01*
Y13640D01*
Y13637D01*
X11913Y13631D01*
X11914Y13624D01*
X11918Y13607D01*
X11925Y13589D01*
X11937Y13569D01*
X11951Y13552D01*
X11961Y13545D01*
X11971Y13540D01*
X11983Y13537D01*
X11996Y13535D01*
X11999D01*
X12004Y13537D01*
X12013Y13538D01*
X12024Y13542D01*
X12037Y13548D01*
X12051Y13558D01*
X12064Y13571D01*
X12076Y13587D01*
X12078Y13590D01*
X12079Y13593D01*
X12082Y13599D01*
X12085Y13604D01*
X12088Y13613D01*
X12090Y13623D01*
X12093Y13634D01*
X12097Y13648D01*
X12100Y13664D01*
X12104Y13681D01*
X12107Y13700D01*
X12112Y13723D01*
X12114Y13747D01*
X12117Y13774D01*
X12119Y13802D01*
X12117Y13800D01*
X12114Y13795D01*
X12107Y13788D01*
X12100Y13779D01*
X12090Y13769D01*
X12081Y13761D01*
X12068Y13751D01*
X12055Y13743D01*
X12054Y13741D01*
X12050Y13740D01*
X12041Y13737D01*
X12033Y13733D01*
X12020Y13728D01*
X12007Y13726D01*
X11992Y13724D01*
X11976Y13723D01*
X11968D01*
X11961Y13724D01*
X11954Y13726D01*
X11945Y13727D01*
X11923Y13734D01*
X11899Y13744D01*
X11886Y13751D01*
X11872Y13758D01*
X11859Y13768D01*
X11845Y13779D01*
X11831Y13792D01*
X11818Y13807D01*
X11817Y13809D01*
X11816Y13812D01*
X11813Y13816D01*
X11808Y13823D01*
X11803Y13831D01*
X11797Y13841D01*
X11792Y13854D01*
X11785Y13868D01*
X11779Y13882D01*
X11772Y13899D01*
X11766Y13919D01*
X11762Y13939D01*
X11756Y13960D01*
X11753Y13982D01*
X11752Y14008D01*
X11751Y14033D01*
Y14034D01*
Y14040D01*
Y14047D01*
X11752Y14058D01*
X11753Y14070D01*
X11755Y14085D01*
X11756Y14101D01*
X11759Y14119D01*
X11768Y14156D01*
X11782Y14195D01*
X11789Y14215D01*
X11799Y14233D01*
X11810Y14251D01*
X11823Y14268D01*
X11824Y14270D01*
X11825Y14273D01*
X11830Y14277D01*
X11835Y14282D01*
X11842Y14288D01*
X11851Y14297D01*
X11872Y14312D01*
X11897Y14328D01*
X11928Y14342D01*
X11945Y14347D01*
X11962Y14352D01*
X11980Y14354D01*
X12000Y14356D01*
X12011D01*
X12020Y14354D01*
D02*
G37*
G36*
X10650Y13400D02*
X10478D01*
X10200Y14353D01*
X10371D01*
X10568Y13647D01*
X10758Y14353D01*
X10927D01*
X10650Y13400D01*
D02*
G37*
G36*
X7292Y48672D02*
X7781D01*
Y48403D01*
X7292D01*
Y48000D01*
X6956D01*
Y48403D01*
X6468D01*
Y48672D01*
X6956D01*
Y49077D01*
X7292D01*
Y48672D01*
D02*
G37*
G36*
X7398Y45850D02*
X7410Y45848D01*
X7425Y45846D01*
X7442Y45843D01*
X7458Y45840D01*
X7498Y45830D01*
X7540Y45813D01*
X7560Y45803D01*
X7580Y45790D01*
X7600Y45776D01*
X7620Y45760D01*
X7622Y45758D01*
X7625Y45755D01*
X7628Y45750D01*
X7635Y45743D01*
X7643Y45733D01*
X7652Y45722D01*
X7660Y45707D01*
X7668Y45692D01*
X7678Y45673D01*
X7687Y45652D01*
X7695Y45628D01*
X7703Y45603D01*
X7710Y45575D01*
X7713Y45545D01*
X7717Y45513D01*
X7718Y45478D01*
Y45477D01*
Y45475D01*
Y45470D01*
Y45463D01*
X7715Y45447D01*
X7712Y45425D01*
X7707Y45398D01*
X7698Y45368D01*
X7687Y45337D01*
X7670Y45303D01*
X7650Y45270D01*
X7623Y45237D01*
X7593Y45205D01*
X7575Y45190D01*
X7555Y45175D01*
X7533Y45162D01*
X7512Y45150D01*
X7487Y45138D01*
X7460Y45127D01*
X7430Y45118D01*
X7400Y45110D01*
X7367Y45105D01*
X7332Y45100D01*
X7310Y45282D01*
X7312D01*
X7320Y45283D01*
X7330Y45285D01*
X7343Y45288D01*
X7360Y45293D01*
X7378Y45300D01*
X7398Y45308D01*
X7418Y45318D01*
X7438Y45330D01*
X7458Y45343D01*
X7477Y45360D01*
X7493Y45380D01*
X7507Y45402D01*
X7517Y45425D01*
X7525Y45453D01*
X7527Y45483D01*
Y45485D01*
Y45487D01*
Y45497D01*
X7525Y45512D01*
X7522Y45532D01*
X7517Y45552D01*
X7508Y45573D01*
X7498Y45595D01*
X7483Y45615D01*
X7482Y45617D01*
X7475Y45623D01*
X7465Y45632D01*
X7453Y45640D01*
X7437Y45650D01*
X7418Y45657D01*
X7397Y45663D01*
X7373Y45665D01*
X7367D01*
X7360Y45663D01*
X7350D01*
X7330Y45657D01*
X7318Y45653D01*
X7308Y45647D01*
X7307D01*
X7303Y45643D01*
X7293Y45633D01*
X7287Y45627D01*
X7278Y45618D01*
X7272Y45607D01*
X7265Y45595D01*
X7263Y45593D01*
X7262Y45588D01*
X7257Y45577D01*
X7250Y45562D01*
X7247Y45552D01*
X7243Y45540D01*
X7238Y45527D01*
X7233Y45510D01*
X7227Y45493D01*
X7220Y45473D01*
X7213Y45452D01*
X7207Y45428D01*
Y45427D01*
X7205Y45423D01*
X7203Y45417D01*
X7200Y45408D01*
X7197Y45398D01*
X7193Y45388D01*
X7183Y45362D01*
X7172Y45333D01*
X7158Y45303D01*
X7143Y45277D01*
X7128Y45253D01*
X7127Y45252D01*
X7120Y45245D01*
X7112Y45235D01*
X7098Y45222D01*
X7083Y45208D01*
X7065Y45193D01*
X7043Y45178D01*
X7019Y45165D01*
X7015Y45163D01*
X7007Y45160D01*
X6992Y45155D01*
X6974Y45150D01*
X6952Y45143D01*
X6927Y45138D01*
X6899Y45135D01*
X6870Y45133D01*
X6855D01*
X6837Y45135D01*
X6815Y45138D01*
X6790Y45143D01*
X6762Y45152D01*
X6734Y45162D01*
X6705Y45175D01*
X6704D01*
X6702Y45177D01*
X6694Y45183D01*
X6680Y45192D01*
X6664Y45205D01*
X6645Y45222D01*
X6627Y45242D01*
X6609Y45263D01*
X6594Y45290D01*
Y45292D01*
X6592Y45293D01*
X6587Y45303D01*
X6582Y45320D01*
X6574Y45342D01*
X6567Y45368D01*
X6562Y45398D01*
X6557Y45435D01*
X6555Y45473D01*
Y45475D01*
Y45480D01*
Y45488D01*
X6557Y45500D01*
X6559Y45513D01*
X6560Y45530D01*
X6562Y45547D01*
X6567Y45567D01*
X6577Y45607D01*
X6594Y45650D01*
X6604Y45670D01*
X6615Y45692D01*
X6629Y45710D01*
X6645Y45728D01*
X6647Y45730D01*
X6649Y45732D01*
X6655Y45736D01*
X6662Y45743D01*
X6670Y45750D01*
X6682Y45758D01*
X6695Y45766D01*
X6710Y45775D01*
X6727Y45783D01*
X6745Y45793D01*
X6767Y45801D01*
X6789Y45808D01*
X6814Y45815D01*
X6839Y45820D01*
X6867Y45825D01*
X6897Y45826D01*
X6907Y45640D01*
X6904D01*
X6899Y45638D01*
X6892Y45637D01*
X6877Y45633D01*
X6857Y45628D01*
X6837Y45620D01*
X6815Y45612D01*
X6797Y45600D01*
X6780Y45585D01*
X6779Y45583D01*
X6775Y45578D01*
X6769Y45568D01*
X6762Y45555D01*
X6755Y45538D01*
X6749Y45518D01*
X6745Y45495D01*
X6744Y45468D01*
Y45465D01*
Y45457D01*
X6745Y45442D01*
X6747Y45425D01*
X6752Y45407D01*
X6757Y45388D01*
X6765Y45368D01*
X6775Y45352D01*
X6777Y45350D01*
X6780Y45345D01*
X6787Y45338D01*
X6797Y45332D01*
X6809Y45325D01*
X6822Y45318D01*
X6837Y45313D01*
X6854Y45312D01*
X6860D01*
X6869Y45313D01*
X6880Y45317D01*
X6892Y45320D01*
X6904Y45327D01*
X6917Y45337D01*
X6929Y45348D01*
X6930Y45350D01*
X6934Y45357D01*
X6940Y45367D01*
X6949Y45383D01*
X6954Y45395D01*
X6960Y45407D01*
X6965Y45420D01*
X6972Y45437D01*
X6979Y45453D01*
X6985Y45473D01*
X6992Y45495D01*
X6999Y45518D01*
Y45520D01*
X7000Y45525D01*
X7002Y45532D01*
X7005Y45542D01*
X7010Y45553D01*
X7014Y45567D01*
X7025Y45597D01*
X7038Y45630D01*
X7052Y45663D01*
X7068Y45695D01*
X7077Y45710D01*
X7085Y45722D01*
X7087Y45725D01*
X7093Y45732D01*
X7102Y45743D01*
X7115Y45758D01*
X7132Y45773D01*
X7152Y45790D01*
X7175Y45805D01*
X7200Y45818D01*
X7203Y45820D01*
X7213Y45823D01*
X7228Y45828D01*
X7248Y45835D01*
X7273Y45841D01*
X7303Y45846D01*
X7337Y45850D01*
X7373Y45851D01*
X7387D01*
X7398Y45850D01*
D02*
G37*
G36*
X7362Y46780D02*
X7372Y46776D01*
X7385Y46773D01*
X7400Y46768D01*
X7418Y46763D01*
X7438Y46756D01*
X7460Y46748D01*
X7505Y46728D01*
X7552Y46703D01*
X7595Y46675D01*
X7613Y46658D01*
X7632Y46640D01*
X7633Y46638D01*
X7635Y46635D01*
X7640Y46630D01*
X7645Y46621D01*
X7652Y46613D01*
X7658Y46601D01*
X7667Y46588D01*
X7675Y46573D01*
X7683Y46556D01*
X7692Y46538D01*
X7705Y46496D01*
X7715Y46450D01*
X7717Y46425D01*
X7718Y46398D01*
Y46396D01*
Y46390D01*
X7717Y46381D01*
Y46368D01*
X7713Y46353D01*
X7712Y46335D01*
X7707Y46315D01*
X7702Y46293D01*
X7693Y46270D01*
X7685Y46246D01*
X7673Y46223D01*
X7660Y46198D01*
X7643Y46173D01*
X7625Y46150D01*
X7605Y46126D01*
X7580Y46105D01*
X7578Y46103D01*
X7573Y46100D01*
X7563Y46093D01*
X7550Y46085D01*
X7535Y46075D01*
X7515Y46065D01*
X7492Y46053D01*
X7465Y46041D01*
X7437Y46028D01*
X7403Y46016D01*
X7368Y46006D01*
X7330Y45996D01*
X7288Y45988D01*
X7243Y45981D01*
X7197Y45978D01*
X7147Y45976D01*
X7133D01*
X7118Y45978D01*
X7100D01*
X7075Y45980D01*
X7047Y45983D01*
X7017Y45988D01*
X6984Y45993D01*
X6947Y46000D01*
X6910Y46008D01*
X6874Y46018D01*
X6835Y46031D01*
X6799Y46046D01*
X6764Y46063D01*
X6729Y46083D01*
X6697Y46106D01*
X6695Y46108D01*
X6690Y46111D01*
X6684Y46118D01*
X6675Y46126D01*
X6664Y46138D01*
X6652Y46151D01*
X6639Y46168D01*
X6625Y46186D01*
X6614Y46206D01*
X6600Y46230D01*
X6589Y46255D01*
X6577Y46281D01*
X6569Y46311D01*
X6562Y46341D01*
X6557Y46375D01*
X6555Y46410D01*
Y46411D01*
Y46416D01*
Y46425D01*
X6557Y46436D01*
X6559Y46450D01*
X6560Y46465D01*
X6564Y46481D01*
X6569Y46500D01*
X6582Y46541D01*
X6590Y46563D01*
X6600Y46585D01*
X6614Y46606D01*
X6629Y46628D01*
X6645Y46650D01*
X6664Y46670D01*
Y46671D01*
X6667Y46673D01*
X6672Y46676D01*
X6677Y46681D01*
X6685Y46688D01*
X6695Y46695D01*
X6707Y46703D01*
X6720Y46711D01*
X6735Y46720D01*
X6750Y46730D01*
X6769Y46738D01*
X6789Y46748D01*
X6812Y46756D01*
X6835Y46765D01*
X6860Y46773D01*
X6887Y46780D01*
X6940Y46595D01*
X6939D01*
X6937Y46593D01*
X6932D01*
X6925Y46591D01*
X6909Y46586D01*
X6889Y46580D01*
X6865Y46570D01*
X6842Y46556D01*
X6820Y46541D01*
X6800Y46523D01*
X6799Y46521D01*
X6792Y46515D01*
X6784Y46503D01*
X6775Y46488D01*
X6765Y46470D01*
X6759Y46450D01*
X6752Y46426D01*
X6750Y46400D01*
Y46398D01*
Y46395D01*
Y46390D01*
X6752Y46383D01*
X6755Y46365D01*
X6762Y46341D01*
X6772Y46315D01*
X6789Y46286D01*
X6799Y46273D01*
X6810Y46260D01*
X6824Y46246D01*
X6840Y46233D01*
X6842D01*
X6844Y46230D01*
X6850Y46228D01*
X6857Y46223D01*
X6867Y46218D01*
X6879Y46213D01*
X6894Y46208D01*
X6910Y46201D01*
X6929Y46195D01*
X6950Y46190D01*
X6975Y46185D01*
X7002Y46180D01*
X7030Y46176D01*
X7062Y46173D01*
X7097Y46170D01*
X7153D01*
X7168Y46171D01*
X7185D01*
X7205Y46173D01*
X7227Y46175D01*
X7250Y46178D01*
X7300Y46185D01*
X7350Y46196D01*
X7373Y46203D01*
X7397Y46211D01*
X7417Y46221D01*
X7435Y46231D01*
X7437D01*
X7438Y46235D01*
X7448Y46243D01*
X7463Y46256D01*
X7478Y46276D01*
X7495Y46300D01*
X7510Y46326D01*
X7520Y46360D01*
X7522Y46376D01*
X7523Y46395D01*
Y46396D01*
Y46398D01*
X7522Y46406D01*
X7520Y46421D01*
X7517Y46438D01*
X7510Y46458D01*
X7500Y46480D01*
X7485Y46501D01*
X7467Y46521D01*
X7463Y46523D01*
X7455Y46530D01*
X7442Y46540D01*
X7422Y46551D01*
X7397Y46565D01*
X7365Y46576D01*
X7328Y46590D01*
X7283Y46600D01*
X7353Y46781D01*
X7355D01*
X7362Y46780D01*
D02*
G37*
G36*
X89292Y36286D02*
X89226D01*
Y36910D01*
X89292D01*
Y36286D01*
D02*
G37*
G36*
X88867Y37635D02*
X88876D01*
X88886Y37633D01*
X88910Y37631D01*
X88938Y37624D01*
X88968Y37615D01*
X88998Y37602D01*
X89026Y37586D01*
X89027D01*
X89029Y37583D01*
X89037Y37577D01*
X89050Y37566D01*
X89064Y37552D01*
X89079Y37535D01*
X89094Y37514D01*
X89106Y37491D01*
X89115Y37467D01*
Y37464D01*
X89116Y37462D01*
Y37457D01*
X89118Y37450D01*
Y37443D01*
X89119Y37433D01*
X89120Y37422D01*
X89122Y37408D01*
Y37392D01*
X89123Y37374D01*
X89125Y37353D01*
Y37330D01*
X89126Y37305D01*
Y37277D01*
Y37246D01*
Y36981D01*
X88173D01*
Y37294D01*
Y37295D01*
Y37299D01*
Y37306D01*
Y37315D01*
Y37325D01*
X88174Y37337D01*
X88176Y37364D01*
X88179Y37394D01*
X88183Y37423D01*
X88189Y37452D01*
X88193Y37463D01*
X88197Y37474D01*
X88198Y37477D01*
X88201Y37483D01*
X88208Y37493D01*
X88217Y37505D01*
X88228Y37518D01*
X88242Y37533D01*
X88259Y37548D01*
X88280Y37562D01*
X88283Y37563D01*
X88290Y37567D01*
X88303Y37573D01*
X88318Y37580D01*
X88338Y37587D01*
X88361Y37593D01*
X88386Y37597D01*
X88413Y37598D01*
X88424D01*
X88438Y37597D01*
X88454Y37594D01*
X88473Y37591D01*
X88494Y37586D01*
X88517Y37577D01*
X88538Y37567D01*
X88541Y37566D01*
X88547Y37562D01*
X88556Y37555D01*
X88569Y37546D01*
X88582Y37533D01*
X88596Y37521D01*
X88609Y37505D01*
X88620Y37487D01*
Y37488D01*
X88621Y37490D01*
X88624Y37498D01*
X88631Y37511D01*
X88640Y37528D01*
X88651Y37545D01*
X88665Y37563D01*
X88683Y37581D01*
X88704Y37597D01*
X88707Y37598D01*
X88714Y37602D01*
X88727Y37610D01*
X88745Y37617D01*
X88767Y37624D01*
X88790Y37631D01*
X88819Y37635D01*
X88850Y37636D01*
X88860D01*
X88867Y37635D01*
D02*
G37*
G36*
X7185Y43881D02*
X7200D01*
X7217Y43880D01*
X7235D01*
X7275Y43875D01*
X7318Y43870D01*
X7362Y43861D01*
X7403Y43850D01*
X7405D01*
X7408Y43848D01*
X7413Y43846D01*
X7422Y43843D01*
X7442Y43836D01*
X7465Y43826D01*
X7493Y43815D01*
X7522Y43800D01*
X7550Y43783D01*
X7575Y43765D01*
X7578Y43763D01*
X7585Y43756D01*
X7597Y43745D01*
X7610Y43731D01*
X7625Y43713D01*
X7640Y43693D01*
X7655Y43670D01*
X7668Y43643D01*
X7670Y43640D01*
X7673Y43630D01*
X7678Y43615D01*
X7683Y43593D01*
X7690Y43566D01*
X7695Y43535D01*
X7698Y43498D01*
X7700Y43458D01*
Y43108D01*
X6574D01*
Y43448D01*
Y43450D01*
Y43453D01*
Y43460D01*
Y43470D01*
X6575Y43480D01*
Y43491D01*
X6577Y43520D01*
X6580Y43551D01*
X6587Y43583D01*
X6594Y43615D01*
X6604Y43641D01*
X6605Y43645D01*
X6609Y43653D01*
X6617Y43665D01*
X6627Y43681D01*
X6640Y43700D01*
X6657Y43721D01*
X6677Y43741D01*
X6700Y43763D01*
X6704Y43766D01*
X6712Y43773D01*
X6727Y43783D01*
X6749Y43795D01*
X6774Y43810D01*
X6804Y43825D01*
X6839Y43838D01*
X6879Y43851D01*
X6880D01*
X6884Y43853D01*
X6890Y43855D01*
X6899Y43856D01*
X6909Y43858D01*
X6922Y43861D01*
X6937Y43865D01*
X6954Y43868D01*
X6972Y43870D01*
X6992Y43873D01*
X7014Y43876D01*
X7038Y43878D01*
X7090Y43881D01*
X7148Y43883D01*
X7173D01*
X7185Y43881D01*
D02*
G37*
G36*
X7700Y44673D02*
X7445Y44593D01*
Y44219D01*
X7700Y44145D01*
Y43946D01*
X6574Y44304D01*
Y44503D01*
X7700Y44874D01*
Y44673D01*
D02*
G37*
G36*
Y46945D02*
X6582D01*
Y47131D01*
X7510D01*
Y47594D01*
X7700D01*
Y46945D01*
D02*
G37*
G36*
X7398Y42950D02*
X7410Y42948D01*
X7425Y42946D01*
X7442Y42943D01*
X7458Y42940D01*
X7498Y42930D01*
X7540Y42913D01*
X7560Y42903D01*
X7580Y42890D01*
X7600Y42876D01*
X7620Y42860D01*
X7622Y42858D01*
X7625Y42855D01*
X7628Y42850D01*
X7635Y42843D01*
X7643Y42833D01*
X7652Y42822D01*
X7660Y42807D01*
X7668Y42792D01*
X7678Y42773D01*
X7687Y42752D01*
X7695Y42728D01*
X7703Y42703D01*
X7710Y42675D01*
X7713Y42645D01*
X7717Y42613D01*
X7718Y42578D01*
Y42577D01*
Y42575D01*
Y42570D01*
Y42563D01*
X7715Y42547D01*
X7712Y42525D01*
X7707Y42498D01*
X7698Y42468D01*
X7687Y42437D01*
X7670Y42403D01*
X7650Y42370D01*
X7623Y42337D01*
X7593Y42305D01*
X7575Y42290D01*
X7555Y42275D01*
X7533Y42262D01*
X7512Y42250D01*
X7487Y42238D01*
X7460Y42227D01*
X7430Y42218D01*
X7400Y42210D01*
X7367Y42205D01*
X7332Y42200D01*
X7310Y42382D01*
X7312D01*
X7320Y42383D01*
X7330Y42385D01*
X7343Y42388D01*
X7360Y42393D01*
X7378Y42400D01*
X7398Y42408D01*
X7418Y42418D01*
X7438Y42430D01*
X7458Y42443D01*
X7477Y42460D01*
X7493Y42480D01*
X7507Y42502D01*
X7517Y42525D01*
X7525Y42553D01*
X7527Y42583D01*
Y42585D01*
Y42587D01*
Y42597D01*
X7525Y42612D01*
X7522Y42632D01*
X7517Y42652D01*
X7508Y42673D01*
X7498Y42695D01*
X7483Y42715D01*
X7482Y42717D01*
X7475Y42723D01*
X7465Y42732D01*
X7453Y42740D01*
X7437Y42750D01*
X7418Y42757D01*
X7397Y42763D01*
X7373Y42765D01*
X7367D01*
X7360Y42763D01*
X7350D01*
X7330Y42757D01*
X7318Y42753D01*
X7308Y42747D01*
X7307D01*
X7303Y42743D01*
X7293Y42733D01*
X7287Y42727D01*
X7278Y42718D01*
X7272Y42707D01*
X7265Y42695D01*
X7263Y42693D01*
X7262Y42688D01*
X7257Y42677D01*
X7250Y42662D01*
X7247Y42652D01*
X7243Y42640D01*
X7238Y42627D01*
X7233Y42610D01*
X7227Y42593D01*
X7220Y42573D01*
X7213Y42552D01*
X7207Y42528D01*
Y42527D01*
X7205Y42523D01*
X7203Y42517D01*
X7200Y42508D01*
X7197Y42498D01*
X7193Y42488D01*
X7183Y42462D01*
X7172Y42433D01*
X7158Y42403D01*
X7143Y42377D01*
X7128Y42353D01*
X7127Y42352D01*
X7120Y42345D01*
X7112Y42335D01*
X7098Y42322D01*
X7083Y42308D01*
X7065Y42293D01*
X7043Y42278D01*
X7019Y42265D01*
X7015Y42263D01*
X7007Y42260D01*
X6992Y42255D01*
X6974Y42250D01*
X6952Y42243D01*
X6927Y42238D01*
X6899Y42235D01*
X6870Y42233D01*
X6855D01*
X6837Y42235D01*
X6815Y42238D01*
X6790Y42243D01*
X6762Y42252D01*
X6734Y42262D01*
X6705Y42275D01*
X6704D01*
X6702Y42277D01*
X6694Y42283D01*
X6680Y42292D01*
X6664Y42305D01*
X6645Y42322D01*
X6627Y42342D01*
X6609Y42363D01*
X6594Y42390D01*
Y42392D01*
X6592Y42393D01*
X6587Y42403D01*
X6582Y42420D01*
X6574Y42442D01*
X6567Y42468D01*
X6562Y42498D01*
X6557Y42535D01*
X6555Y42573D01*
Y42575D01*
Y42580D01*
Y42588D01*
X6557Y42600D01*
X6559Y42613D01*
X6560Y42630D01*
X6562Y42647D01*
X6567Y42667D01*
X6577Y42707D01*
X6594Y42750D01*
X6604Y42770D01*
X6615Y42792D01*
X6629Y42810D01*
X6645Y42828D01*
X6647Y42830D01*
X6649Y42832D01*
X6655Y42836D01*
X6662Y42843D01*
X6670Y42850D01*
X6682Y42858D01*
X6695Y42867D01*
X6710Y42875D01*
X6727Y42883D01*
X6745Y42893D01*
X6767Y42901D01*
X6789Y42908D01*
X6814Y42915D01*
X6839Y42920D01*
X6867Y42925D01*
X6897Y42926D01*
X6907Y42740D01*
X6904D01*
X6899Y42738D01*
X6892Y42737D01*
X6877Y42733D01*
X6857Y42728D01*
X6837Y42720D01*
X6815Y42712D01*
X6797Y42700D01*
X6780Y42685D01*
X6779Y42683D01*
X6775Y42678D01*
X6769Y42668D01*
X6762Y42655D01*
X6755Y42638D01*
X6749Y42618D01*
X6745Y42595D01*
X6744Y42568D01*
Y42565D01*
Y42557D01*
X6745Y42542D01*
X6747Y42525D01*
X6752Y42507D01*
X6757Y42488D01*
X6765Y42468D01*
X6775Y42452D01*
X6777Y42450D01*
X6780Y42445D01*
X6787Y42438D01*
X6797Y42432D01*
X6809Y42425D01*
X6822Y42418D01*
X6837Y42413D01*
X6854Y42412D01*
X6860D01*
X6869Y42413D01*
X6880Y42417D01*
X6892Y42420D01*
X6904Y42427D01*
X6917Y42437D01*
X6929Y42448D01*
X6930Y42450D01*
X6934Y42457D01*
X6940Y42467D01*
X6949Y42483D01*
X6954Y42495D01*
X6960Y42507D01*
X6965Y42520D01*
X6972Y42537D01*
X6979Y42553D01*
X6985Y42573D01*
X6992Y42595D01*
X6999Y42618D01*
Y42620D01*
X7000Y42625D01*
X7002Y42632D01*
X7005Y42642D01*
X7010Y42653D01*
X7014Y42667D01*
X7025Y42697D01*
X7038Y42730D01*
X7052Y42763D01*
X7068Y42795D01*
X7077Y42810D01*
X7085Y42822D01*
X7087Y42825D01*
X7093Y42832D01*
X7102Y42843D01*
X7115Y42858D01*
X7132Y42873D01*
X7152Y42890D01*
X7175Y42905D01*
X7200Y42918D01*
X7203Y42920D01*
X7213Y42923D01*
X7228Y42928D01*
X7248Y42935D01*
X7273Y42941D01*
X7303Y42946D01*
X7337Y42950D01*
X7373Y42951D01*
X7387D01*
X7398Y42950D01*
D02*
G37*
G36*
X31257Y41496D02*
X31527Y41000D01*
X31338D01*
X31164Y41324D01*
X30989Y41000D01*
X30800D01*
X31071Y41496D01*
X30825Y41953D01*
X31009D01*
X31164Y41667D01*
X31319Y41953D01*
X31502D01*
X31257Y41496D01*
D02*
G37*
G36*
X24927Y11139D02*
X24498Y10496D01*
X24944D01*
Y10336D01*
X24308D01*
Y10509D01*
X24720Y11128D01*
X24355D01*
Y11289D01*
X24927D01*
Y11139D01*
D02*
G37*
G36*
X3034Y20337D02*
X3045D01*
X3058Y20334D01*
X3072Y20333D01*
X3089Y20330D01*
X3124Y20321D01*
X3164Y20309D01*
X3184Y20300D01*
X3203Y20292D01*
X3224Y20280D01*
X3244Y20268D01*
X3246Y20266D01*
X3248Y20265D01*
X3254Y20261D01*
X3261Y20255D01*
X3268Y20248D01*
X3277Y20240D01*
X3287Y20228D01*
X3296Y20217D01*
X3306Y20204D01*
X3316Y20189D01*
X3325Y20173D01*
X3332Y20155D01*
X3339Y20137D01*
X3344Y20116D01*
X3347Y20094D01*
X3349Y20070D01*
Y20069D01*
Y20066D01*
Y20061D01*
X3347Y20054D01*
Y20045D01*
X3344Y20034D01*
X3340Y20010D01*
X3332Y19983D01*
X3320Y19953D01*
X3303Y19925D01*
X3292Y19911D01*
X3281Y19897D01*
X3279Y19896D01*
X3278Y19894D01*
X3274Y19890D01*
X3268Y19886D01*
X3261Y19880D01*
X3253Y19874D01*
X3243Y19867D01*
X3232Y19860D01*
X3219Y19853D01*
X3203Y19846D01*
X3188Y19839D01*
X3171Y19832D01*
X3153Y19827D01*
X3131Y19821D01*
X3088Y19814D01*
X3068Y19963D01*
X3071D01*
X3078Y19965D01*
X3091Y19968D01*
X3105Y19970D01*
X3120Y19975D01*
X3136Y19982D01*
X3153Y19990D01*
X3167Y20001D01*
X3168Y20003D01*
X3172Y20007D01*
X3178Y20014D01*
X3184Y20022D01*
X3191Y20032D01*
X3196Y20045D01*
X3201Y20058D01*
X3202Y20072D01*
Y20073D01*
X3201Y20080D01*
X3199Y20089D01*
X3196Y20099D01*
X3191Y20111D01*
X3182Y20125D01*
X3172Y20138D01*
X3157Y20151D01*
X3154Y20152D01*
X3148Y20156D01*
X3137Y20162D01*
X3123Y20168D01*
X3103Y20173D01*
X3079Y20179D01*
X3050Y20183D01*
X3017Y20185D01*
X3002D01*
X2986Y20183D01*
X2967Y20180D01*
X2945Y20176D01*
X2923Y20171D01*
X2903Y20162D01*
X2885Y20151D01*
X2883Y20149D01*
X2878Y20145D01*
X2871Y20138D01*
X2862Y20128D01*
X2855Y20117D01*
X2848Y20101D01*
X2842Y20086D01*
X2841Y20068D01*
Y20065D01*
X2842Y20056D01*
X2845Y20045D01*
X2850Y20030D01*
X2858Y20011D01*
X2871Y19991D01*
X2878Y19982D01*
X2888Y19972D01*
X2897Y19962D01*
X2910Y19952D01*
X2889Y19831D01*
X2393Y19907D01*
Y20303D01*
X2563D01*
Y20021D01*
X2727Y19996D01*
X2725Y19999D01*
X2721Y20004D01*
X2717Y20014D01*
X2710Y20028D01*
X2704Y20044D01*
X2700Y20061D01*
X2696Y20079D01*
X2694Y20099D01*
Y20100D01*
Y20103D01*
Y20107D01*
X2696Y20114D01*
X2697Y20123D01*
X2699Y20131D01*
X2703Y20154D01*
X2713Y20178D01*
X2725Y20204D01*
X2734Y20218D01*
X2744Y20231D01*
X2755Y20244D01*
X2768Y20257D01*
X2769Y20258D01*
X2772Y20261D01*
X2778Y20264D01*
X2785Y20269D01*
X2795Y20275D01*
X2806Y20282D01*
X2819Y20290D01*
X2833Y20297D01*
X2850Y20304D01*
X2868Y20313D01*
X2889Y20320D01*
X2910Y20326D01*
X2934Y20331D01*
X2958Y20335D01*
X2985Y20337D01*
X3013Y20338D01*
X3026D01*
X3034Y20337D01*
D02*
G37*
G36*
X32087Y41806D02*
Y41805D01*
X32084Y41804D01*
X32081Y41798D01*
X32076Y41792D01*
X32070Y41784D01*
X32063Y41775D01*
X32056Y41764D01*
X32048Y41751D01*
X32038Y41736D01*
X32028Y41720D01*
X32018Y41702D01*
X32007Y41684D01*
X31995Y41663D01*
X31983Y41640D01*
X31971Y41616D01*
X31959Y41591D01*
Y41589D01*
X31956Y41585D01*
X31953Y41577D01*
X31948Y41567D01*
X31943Y41554D01*
X31936Y41539D01*
X31929Y41520D01*
X31922Y41500D01*
X31914Y41479D01*
X31905Y41457D01*
X31898Y41431D01*
X31890Y41405D01*
X31873Y41350D01*
X31859Y41290D01*
Y41289D01*
X31857Y41283D01*
X31856Y41275D01*
X31853Y41264D01*
X31850Y41250D01*
X31847Y41233D01*
X31845Y41214D01*
X31842Y41195D01*
X31838Y41172D01*
X31835Y41149D01*
X31829Y41100D01*
X31825Y41049D01*
X31823Y41000D01*
X31680D01*
Y41003D01*
Y41008D01*
X31681Y41020D01*
Y41035D01*
X31682Y41054D01*
X31684Y41075D01*
X31687Y41100D01*
X31690Y41127D01*
X31694Y41156D01*
X31698Y41187D01*
X31704Y41221D01*
X31709Y41257D01*
X31725Y41330D01*
X31746Y41405D01*
X31747Y41407D01*
X31749Y41413D01*
X31753Y41424D01*
X31757Y41438D01*
X31764Y41457D01*
X31771Y41478D01*
X31781Y41500D01*
X31791Y41527D01*
X31802Y41554D01*
X31815Y41584D01*
X31845Y41644D01*
X31877Y41709D01*
X31915Y41771D01*
X31575D01*
Y41940D01*
X32087D01*
Y41806D01*
D02*
G37*
G36*
X15610Y14300D02*
X15459D01*
Y14989D01*
X15458Y14988D01*
X15455Y14985D01*
X15451Y14981D01*
X15444Y14974D01*
X15437Y14967D01*
X15427Y14957D01*
X15416Y14947D01*
X15403Y14937D01*
X15375Y14915D01*
X15342Y14891D01*
X15304Y14870D01*
X15265Y14851D01*
Y15018D01*
X15266D01*
X15268Y15019D01*
X15276Y15022D01*
X15287Y15029D01*
X15304Y15037D01*
X15324Y15050D01*
X15345Y15065D01*
X15369Y15084D01*
X15394Y15106D01*
X15396Y15108D01*
X15397Y15109D01*
X15406Y15118D01*
X15417Y15132D01*
X15431Y15150D01*
X15447Y15171D01*
X15462Y15197D01*
X15476Y15225D01*
X15488Y15256D01*
X15610D01*
Y14300D01*
D02*
G37*
G36*
X14907Y14796D02*
X15177Y14300D01*
X14988D01*
X14814Y14624D01*
X14639Y14300D01*
X14450D01*
X14721Y14796D01*
X14475Y15253D01*
X14659D01*
X14814Y14967D01*
X14969Y15253D01*
X15152D01*
X14907Y14796D01*
D02*
G37*
G36*
X25395Y10336D02*
X25244D01*
Y11025D01*
X25243Y11024D01*
X25240Y11021D01*
X25236Y11017D01*
X25229Y11010D01*
X25222Y11002D01*
X25212Y10993D01*
X25200Y10983D01*
X25188Y10973D01*
X25160Y10950D01*
X25127Y10926D01*
X25089Y10905D01*
X25050Y10887D01*
Y11053D01*
X25051D01*
X25052Y11055D01*
X25061Y11057D01*
X25072Y11065D01*
X25089Y11073D01*
X25109Y11086D01*
X25130Y11101D01*
X25154Y11120D01*
X25179Y11142D01*
X25181Y11143D01*
X25182Y11145D01*
X25191Y11153D01*
X25202Y11167D01*
X25216Y11186D01*
X25231Y11207D01*
X25247Y11232D01*
X25261Y11260D01*
X25272Y11291D01*
X25395D01*
Y10336D01*
D02*
G37*
G36*
X16104Y15254D02*
X16113Y15253D01*
X16125Y15250D01*
X16152Y15242D01*
X16166Y15236D01*
X16181Y15229D01*
X16195Y15221D01*
X16211Y15211D01*
X16226Y15198D01*
X16242Y15182D01*
X16256Y15167D01*
X16270Y15147D01*
X16271Y15146D01*
X16273Y15142D01*
X16277Y15136D01*
X16281Y15126D01*
X16287Y15113D01*
X16292Y15099D01*
X16298Y15081D01*
X16305Y15060D01*
X16312Y15034D01*
X16318Y15008D01*
X16323Y14977D01*
X16329Y14941D01*
X16333Y14905D01*
X16338Y14862D01*
X16339Y14819D01*
X16340Y14769D01*
Y14768D01*
Y14767D01*
Y14762D01*
Y14758D01*
Y14744D01*
X16339Y14726D01*
Y14703D01*
X16336Y14679D01*
X16335Y14651D01*
X16332Y14621D01*
X16323Y14559D01*
X16311Y14496D01*
X16302Y14466D01*
X16294Y14440D01*
X16283Y14414D01*
X16270Y14392D01*
X16269Y14390D01*
X16267Y14387D01*
X16263Y14382D01*
X16257Y14375D01*
X16250Y14366D01*
X16242Y14358D01*
X16221Y14338D01*
X16194Y14318D01*
X16163Y14301D01*
X16146Y14294D01*
X16128Y14289D01*
X16108Y14286D01*
X16087Y14284D01*
X16081D01*
X16075Y14286D01*
X16068D01*
X16058Y14287D01*
X16047Y14290D01*
X16020Y14297D01*
X16006Y14303D01*
X15991Y14310D01*
X15977Y14318D01*
X15961Y14330D01*
X15946Y14341D01*
X15930Y14355D01*
X15916Y14372D01*
X15902Y14390D01*
X15901Y14392D01*
X15899Y14396D01*
X15896Y14401D01*
X15891Y14411D01*
X15886Y14424D01*
X15881Y14438D01*
X15874Y14456D01*
X15868Y14478D01*
X15861Y14503D01*
X15855Y14530D01*
X15848Y14561D01*
X15844Y14596D01*
X15840Y14634D01*
X15836Y14676D01*
X15834Y14722D01*
X15833Y14771D01*
Y14772D01*
Y14774D01*
Y14778D01*
Y14782D01*
Y14796D01*
X15834Y14815D01*
X15836Y14836D01*
X15837Y14861D01*
X15839Y14889D01*
X15841Y14919D01*
X15850Y14981D01*
X15863Y15043D01*
X15870Y15073D01*
X15879Y15099D01*
X15889Y15125D01*
X15902Y15147D01*
X15903Y15149D01*
X15905Y15151D01*
X15909Y15157D01*
X15915Y15164D01*
X15922Y15173D01*
X15930Y15181D01*
X15951Y15202D01*
X15978Y15222D01*
X16009Y15239D01*
X16026Y15246D01*
X16044Y15252D01*
X16064Y15254D01*
X16085Y15256D01*
X16097D01*
X16104Y15254D01*
D02*
G37*
G36*
X3333Y19574D02*
X3009Y19399D01*
X3333Y19225D01*
Y19036D01*
X2837Y19306D01*
X2380Y19061D01*
Y19244D01*
X2666Y19399D01*
X2380Y19554D01*
Y19738D01*
X2837Y19492D01*
X3333Y19763D01*
Y19574D01*
D02*
G37*
G36*
X73814Y42079D02*
X73822Y42077D01*
X73834Y42074D01*
X73846Y42070D01*
X73862Y42065D01*
X73879Y42060D01*
X73897Y42053D01*
X73935Y42036D01*
X73975Y42015D01*
X74011Y41991D01*
X74027Y41977D01*
X74042Y41961D01*
X74044Y41960D01*
X74045Y41957D01*
X74049Y41953D01*
X74053Y41946D01*
X74059Y41939D01*
X74065Y41929D01*
X74072Y41917D01*
X74079Y41905D01*
X74086Y41891D01*
X74093Y41875D01*
X74104Y41840D01*
X74113Y41800D01*
X74114Y41779D01*
X74116Y41757D01*
Y41755D01*
Y41750D01*
X74114Y41743D01*
Y41731D01*
X74111Y41719D01*
X74110Y41703D01*
X74106Y41686D01*
X74101Y41668D01*
X74094Y41648D01*
X74087Y41628D01*
X74077Y41609D01*
X74066Y41587D01*
X74052Y41566D01*
X74037Y41547D01*
X74020Y41527D01*
X73998Y41509D01*
X73997Y41507D01*
X73993Y41504D01*
X73984Y41499D01*
X73973Y41492D01*
X73960Y41483D01*
X73944Y41475D01*
X73924Y41465D01*
X73901Y41455D01*
X73877Y41444D01*
X73849Y41434D01*
X73819Y41425D01*
X73787Y41417D01*
X73752Y41410D01*
X73714Y41404D01*
X73674Y41401D01*
X73632Y41400D01*
X73621D01*
X73608Y41401D01*
X73593D01*
X73571Y41403D01*
X73547Y41406D01*
X73522Y41410D01*
X73494Y41414D01*
X73463Y41420D01*
X73432Y41427D01*
X73401Y41435D01*
X73368Y41447D01*
X73337Y41459D01*
X73308Y41473D01*
X73278Y41490D01*
X73251Y41510D01*
X73250Y41511D01*
X73246Y41514D01*
X73240Y41520D01*
X73233Y41527D01*
X73223Y41537D01*
X73213Y41548D01*
X73202Y41562D01*
X73191Y41578D01*
X73181Y41595D01*
X73170Y41614D01*
X73160Y41635D01*
X73150Y41658D01*
X73143Y41683D01*
X73137Y41709D01*
X73133Y41737D01*
X73132Y41767D01*
Y41768D01*
Y41772D01*
Y41779D01*
X73133Y41789D01*
X73134Y41800D01*
X73136Y41813D01*
X73139Y41827D01*
X73143Y41843D01*
X73154Y41878D01*
X73161Y41896D01*
X73170Y41915D01*
X73181Y41933D01*
X73194Y41951D01*
X73208Y41970D01*
X73223Y41986D01*
Y41988D01*
X73226Y41989D01*
X73230Y41992D01*
X73234Y41996D01*
X73241Y42002D01*
X73250Y42008D01*
X73260Y42015D01*
X73271Y42022D01*
X73284Y42029D01*
X73296Y42037D01*
X73312Y42044D01*
X73329Y42053D01*
X73349Y42060D01*
X73368Y42067D01*
X73390Y42074D01*
X73412Y42079D01*
X73457Y41923D01*
X73456D01*
X73454Y41922D01*
X73450D01*
X73444Y41920D01*
X73430Y41916D01*
X73413Y41910D01*
X73394Y41902D01*
X73374Y41891D01*
X73356Y41878D01*
X73339Y41862D01*
X73337Y41861D01*
X73332Y41855D01*
X73325Y41845D01*
X73318Y41833D01*
X73309Y41817D01*
X73304Y41800D01*
X73298Y41781D01*
X73296Y41758D01*
Y41757D01*
Y41754D01*
Y41750D01*
X73298Y41744D01*
X73301Y41728D01*
X73306Y41709D01*
X73315Y41686D01*
X73329Y41662D01*
X73337Y41651D01*
X73347Y41640D01*
X73358Y41628D01*
X73373Y41617D01*
X73374D01*
X73375Y41614D01*
X73381Y41613D01*
X73387Y41609D01*
X73395Y41604D01*
X73405Y41600D01*
X73418Y41596D01*
X73432Y41590D01*
X73447Y41585D01*
X73466Y41580D01*
X73487Y41576D01*
X73509Y41572D01*
X73533Y41569D01*
X73560Y41566D01*
X73590Y41564D01*
X73638D01*
X73650Y41565D01*
X73664D01*
X73681Y41566D01*
X73700Y41568D01*
X73719Y41571D01*
X73762Y41576D01*
X73804Y41586D01*
X73824Y41592D01*
X73843Y41599D01*
X73860Y41607D01*
X73876Y41616D01*
X73877D01*
X73879Y41618D01*
X73887Y41626D01*
X73900Y41637D01*
X73913Y41654D01*
X73927Y41673D01*
X73939Y41696D01*
X73948Y41724D01*
X73949Y41738D01*
X73951Y41754D01*
Y41755D01*
Y41757D01*
X73949Y41764D01*
X73948Y41776D01*
X73945Y41790D01*
X73939Y41807D01*
X73931Y41826D01*
X73918Y41844D01*
X73903Y41861D01*
X73900Y41862D01*
X73893Y41868D01*
X73882Y41876D01*
X73865Y41886D01*
X73843Y41898D01*
X73817Y41907D01*
X73786Y41919D01*
X73748Y41927D01*
X73807Y42081D01*
X73808D01*
X73814Y42079D01*
D02*
G37*
G36*
X74100Y42163D02*
X74096D01*
X74090Y42164D01*
X74083D01*
X74075Y42165D01*
X74065Y42168D01*
X74041Y42173D01*
X74014Y42178D01*
X73983Y42188D01*
X73951Y42199D01*
X73918Y42213D01*
X73917D01*
X73914Y42216D01*
X73910Y42218D01*
X73903Y42222D01*
X73894Y42227D01*
X73883Y42233D01*
X73872Y42242D01*
X73858Y42251D01*
X73842Y42261D01*
X73825Y42274D01*
X73807Y42287D01*
X73786Y42302D01*
X73764Y42319D01*
X73742Y42339D01*
X73717Y42359D01*
X73691Y42381D01*
X73690Y42383D01*
X73686Y42385D01*
X73680Y42391D01*
X73673Y42397D01*
X73664Y42405D01*
X73653Y42414D01*
X73629Y42433D01*
X73604Y42454D01*
X73580Y42474D01*
X73557Y42491D01*
X73547Y42498D01*
X73539Y42504D01*
X73536Y42505D01*
X73529Y42509D01*
X73518Y42515D01*
X73502Y42521D01*
X73485Y42526D01*
X73466Y42532D01*
X73444Y42536D01*
X73423Y42538D01*
X73413D01*
X73402Y42536D01*
X73388Y42535D01*
X73373Y42531D01*
X73357Y42526D01*
X73342Y42519D01*
X73329Y42509D01*
X73327Y42508D01*
X73323Y42504D01*
X73319Y42498D01*
X73312Y42490D01*
X73306Y42480D01*
X73302Y42467D01*
X73298Y42452D01*
X73296Y42436D01*
Y42435D01*
Y42432D01*
X73298Y42426D01*
X73299Y42421D01*
X73305Y42404D01*
X73309Y42395D01*
X73315Y42385D01*
X73323Y42376D01*
X73333Y42366D01*
X73344Y42357D01*
X73360Y42349D01*
X73377Y42342D01*
X73397Y42336D01*
X73419Y42332D01*
X73446Y42329D01*
X73426Y42180D01*
X73425D01*
X73419Y42181D01*
X73412D01*
X73402Y42182D01*
X73391Y42185D01*
X73377Y42187D01*
X73361Y42191D01*
X73344Y42195D01*
X73311Y42205D01*
X73275Y42219D01*
X73241Y42237D01*
X73227Y42247D01*
X73213Y42260D01*
X73212Y42261D01*
X73210Y42263D01*
X73206Y42267D01*
X73202Y42273D01*
X73198Y42280D01*
X73191Y42287D01*
X73178Y42308D01*
X73165Y42333D01*
X73156Y42364D01*
X73147Y42399D01*
X73146Y42419D01*
X73144Y42439D01*
Y42440D01*
Y42445D01*
Y42450D01*
X73146Y42459D01*
X73147Y42470D01*
X73148Y42481D01*
X73154Y42509D01*
X73164Y42539D01*
X73170Y42555D01*
X73178Y42570D01*
X73188Y42586D01*
X73198Y42600D01*
X73210Y42612D01*
X73225Y42625D01*
X73226Y42626D01*
X73229Y42628D01*
X73233Y42631D01*
X73239Y42635D01*
X73246Y42639D01*
X73256Y42645D01*
X73278Y42657D01*
X73305Y42669D01*
X73336Y42679D01*
X73370Y42686D01*
X73388Y42688D01*
X73418D01*
X73429Y42687D01*
X73444D01*
X73461Y42684D01*
X73481Y42681D01*
X73501Y42677D01*
X73522Y42672D01*
X73525D01*
X73532Y42669D01*
X73542Y42665D01*
X73556Y42660D01*
X73573Y42653D01*
X73591Y42645D01*
X73611Y42633D01*
X73632Y42622D01*
X73635Y42621D01*
X73642Y42617D01*
X73655Y42608D01*
X73670Y42597D01*
X73691Y42581D01*
X73715Y42562D01*
X73743Y42539D01*
X73774Y42512D01*
X73776Y42511D01*
X73777Y42509D01*
X73781Y42505D01*
X73787Y42501D01*
X73801Y42488D01*
X73818Y42474D01*
X73836Y42459D01*
X73853Y42443D01*
X73869Y42430D01*
X73882Y42421D01*
X73883Y42419D01*
X73886Y42418D01*
X73891Y42414D01*
X73897Y42409D01*
X73913Y42399D01*
X73931Y42390D01*
Y42688D01*
X74100D01*
Y42163D01*
D02*
G37*
G36*
X73814Y26779D02*
X73822Y26777D01*
X73834Y26774D01*
X73846Y26770D01*
X73862Y26765D01*
X73879Y26760D01*
X73897Y26753D01*
X73935Y26736D01*
X73975Y26715D01*
X74011Y26691D01*
X74027Y26677D01*
X74042Y26661D01*
X74044Y26660D01*
X74045Y26657D01*
X74049Y26653D01*
X74053Y26646D01*
X74059Y26639D01*
X74065Y26629D01*
X74072Y26617D01*
X74079Y26605D01*
X74086Y26591D01*
X74093Y26575D01*
X74104Y26540D01*
X74113Y26500D01*
X74114Y26479D01*
X74116Y26457D01*
Y26455D01*
Y26450D01*
X74114Y26443D01*
Y26431D01*
X74111Y26419D01*
X74110Y26403D01*
X74106Y26386D01*
X74101Y26368D01*
X74094Y26348D01*
X74087Y26328D01*
X74077Y26309D01*
X74066Y26287D01*
X74052Y26266D01*
X74037Y26247D01*
X74020Y26227D01*
X73998Y26209D01*
X73997Y26207D01*
X73993Y26204D01*
X73984Y26199D01*
X73973Y26192D01*
X73960Y26183D01*
X73944Y26175D01*
X73924Y26165D01*
X73901Y26155D01*
X73877Y26144D01*
X73849Y26134D01*
X73819Y26125D01*
X73787Y26117D01*
X73752Y26110D01*
X73714Y26104D01*
X73674Y26101D01*
X73632Y26100D01*
X73621D01*
X73608Y26101D01*
X73593D01*
X73571Y26103D01*
X73547Y26106D01*
X73522Y26110D01*
X73494Y26114D01*
X73463Y26120D01*
X73432Y26127D01*
X73401Y26135D01*
X73368Y26147D01*
X73337Y26159D01*
X73308Y26173D01*
X73278Y26190D01*
X73251Y26210D01*
X73250Y26211D01*
X73246Y26214D01*
X73240Y26220D01*
X73233Y26227D01*
X73223Y26237D01*
X73213Y26248D01*
X73202Y26262D01*
X73191Y26278D01*
X73181Y26295D01*
X73170Y26314D01*
X73160Y26335D01*
X73150Y26358D01*
X73143Y26383D01*
X73137Y26409D01*
X73133Y26437D01*
X73132Y26467D01*
Y26468D01*
Y26472D01*
Y26479D01*
X73133Y26489D01*
X73134Y26500D01*
X73136Y26513D01*
X73139Y26527D01*
X73143Y26543D01*
X73154Y26578D01*
X73161Y26596D01*
X73170Y26615D01*
X73181Y26633D01*
X73194Y26651D01*
X73208Y26670D01*
X73223Y26686D01*
Y26688D01*
X73226Y26689D01*
X73230Y26692D01*
X73234Y26696D01*
X73241Y26702D01*
X73250Y26708D01*
X73260Y26715D01*
X73271Y26722D01*
X73284Y26729D01*
X73296Y26737D01*
X73312Y26744D01*
X73329Y26753D01*
X73349Y26760D01*
X73368Y26767D01*
X73390Y26774D01*
X73412Y26779D01*
X73457Y26623D01*
X73456D01*
X73454Y26622D01*
X73450D01*
X73444Y26620D01*
X73430Y26616D01*
X73413Y26610D01*
X73394Y26602D01*
X73374Y26591D01*
X73356Y26578D01*
X73339Y26562D01*
X73337Y26561D01*
X73332Y26555D01*
X73325Y26545D01*
X73318Y26533D01*
X73309Y26517D01*
X73304Y26500D01*
X73298Y26481D01*
X73296Y26458D01*
Y26457D01*
Y26454D01*
Y26450D01*
X73298Y26444D01*
X73301Y26428D01*
X73306Y26409D01*
X73315Y26386D01*
X73329Y26362D01*
X73337Y26351D01*
X73347Y26340D01*
X73358Y26328D01*
X73373Y26317D01*
X73374D01*
X73375Y26314D01*
X73381Y26313D01*
X73387Y26309D01*
X73395Y26304D01*
X73405Y26300D01*
X73418Y26296D01*
X73432Y26290D01*
X73447Y26285D01*
X73466Y26280D01*
X73487Y26276D01*
X73509Y26272D01*
X73533Y26269D01*
X73560Y26266D01*
X73590Y26264D01*
X73638D01*
X73650Y26265D01*
X73664D01*
X73681Y26266D01*
X73700Y26268D01*
X73719Y26271D01*
X73762Y26276D01*
X73804Y26286D01*
X73824Y26292D01*
X73843Y26299D01*
X73860Y26307D01*
X73876Y26316D01*
X73877D01*
X73879Y26319D01*
X73887Y26326D01*
X73900Y26337D01*
X73913Y26354D01*
X73927Y26373D01*
X73939Y26396D01*
X73948Y26424D01*
X73949Y26438D01*
X73951Y26454D01*
Y26455D01*
Y26457D01*
X73949Y26464D01*
X73948Y26476D01*
X73945Y26490D01*
X73939Y26507D01*
X73931Y26526D01*
X73918Y26544D01*
X73903Y26561D01*
X73900Y26562D01*
X73893Y26568D01*
X73882Y26576D01*
X73865Y26586D01*
X73843Y26598D01*
X73817Y26607D01*
X73786Y26619D01*
X73748Y26627D01*
X73807Y26781D01*
X73808D01*
X73814Y26779D01*
D02*
G37*
G36*
X74100Y27116D02*
X73411D01*
X73412Y27115D01*
X73415Y27112D01*
X73419Y27108D01*
X73426Y27101D01*
X73433Y27094D01*
X73443Y27084D01*
X73453Y27073D01*
X73463Y27060D01*
X73485Y27032D01*
X73509Y26999D01*
X73530Y26961D01*
X73549Y26922D01*
X73382D01*
Y26923D01*
X73381Y26925D01*
X73378Y26933D01*
X73371Y26944D01*
X73363Y26961D01*
X73350Y26981D01*
X73335Y27002D01*
X73316Y27026D01*
X73294Y27052D01*
X73292Y27053D01*
X73291Y27054D01*
X73282Y27063D01*
X73268Y27074D01*
X73250Y27088D01*
X73229Y27104D01*
X73203Y27119D01*
X73175Y27133D01*
X73144Y27145D01*
Y27267D01*
X74100D01*
Y27116D01*
D02*
G37*
G36*
X9650Y52889D02*
X9326Y52714D01*
X9650Y52539D01*
Y52350D01*
X9154Y52621D01*
X8697Y52375D01*
Y52559D01*
X8983Y52714D01*
X8697Y52869D01*
Y53052D01*
X9154Y52807D01*
X9650Y53077D01*
Y52889D01*
D02*
G37*
G36*
X9458Y53564D02*
X9650D01*
Y53419D01*
X9458D01*
Y53099D01*
X9299D01*
X8694Y53437D01*
Y53564D01*
X9298D01*
Y53661D01*
X9458D01*
Y53564D01*
D02*
G37*
G36*
X59712Y6723D02*
X59732D01*
X59755Y6722D01*
X59800Y6719D01*
X59845Y6716D01*
X59867Y6713D01*
X59889Y6710D01*
X59908Y6708D01*
X59925Y6703D01*
X59927D01*
X59929Y6702D01*
X59934Y6701D01*
X59939Y6699D01*
X59955Y6693D01*
X59975Y6684D01*
X59996Y6671D01*
X60020Y6655D01*
X60042Y6636D01*
X60063Y6610D01*
Y6609D01*
X60066Y6607D01*
X60068Y6603D01*
X60072Y6598D01*
X60076Y6591D01*
X60080Y6582D01*
X60084Y6571D01*
X60089Y6560D01*
X60099Y6533D01*
X60107Y6500D01*
X60113Y6464D01*
X60116Y6421D01*
Y6420D01*
Y6416D01*
Y6410D01*
X60114Y6402D01*
Y6390D01*
X60113Y6379D01*
X60110Y6351D01*
X60104Y6321D01*
X60097Y6289D01*
X60086Y6258D01*
X60072Y6230D01*
Y6228D01*
X60070Y6227D01*
X60063Y6218D01*
X60053Y6206D01*
X60039Y6192D01*
X60022Y6175D01*
X60001Y6158D01*
X59977Y6142D01*
X59949Y6130D01*
X59948D01*
X59945Y6128D01*
X59941Y6127D01*
X59934Y6125D01*
X59924Y6123D01*
X59913Y6120D01*
X59898Y6117D01*
X59883Y6116D01*
X59863Y6113D01*
X59842Y6110D01*
X59818Y6107D01*
X59791Y6104D01*
X59762Y6103D01*
X59729Y6101D01*
X59694Y6100D01*
X59147D01*
Y6258D01*
X59702D01*
X59728Y6259D01*
X59753D01*
X59780Y6261D01*
X59803Y6262D01*
X59811D01*
X59819Y6264D01*
X59822D01*
X59829Y6266D01*
X59841Y6269D01*
X59855Y6273D01*
X59872Y6280D01*
X59887Y6289D01*
X59903Y6299D01*
X59917Y6313D01*
X59918Y6314D01*
X59922Y6320D01*
X59928Y6328D01*
X59934Y6341D01*
X59939Y6355D01*
X59945Y6373D01*
X59949Y6395D01*
X59951Y6417D01*
Y6420D01*
Y6427D01*
X59949Y6437D01*
X59948Y6450D01*
X59945Y6464D01*
X59941Y6478D01*
X59935Y6492D01*
X59927Y6506D01*
X59925Y6507D01*
X59922Y6512D01*
X59917Y6517D01*
X59910Y6524D01*
X59900Y6533D01*
X59889Y6540D01*
X59876Y6547D01*
X59860Y6553D01*
X59858D01*
X59852Y6555D01*
X59846D01*
X59839Y6557D01*
X59831Y6558D01*
X59821Y6560D01*
X59810Y6561D01*
X59796Y6562D01*
X59780Y6564D01*
X59763D01*
X59745Y6565D01*
X59724Y6567D01*
X59147D01*
Y6725D01*
X59694D01*
X59712Y6723D01*
D02*
G37*
G36*
X60100Y7091D02*
X59411D01*
X59412Y7090D01*
X59415Y7087D01*
X59419Y7083D01*
X59426Y7076D01*
X59433Y7068D01*
X59443Y7059D01*
X59453Y7047D01*
X59463Y7035D01*
X59485Y7006D01*
X59509Y6974D01*
X59530Y6936D01*
X59549Y6896D01*
X59382D01*
Y6898D01*
X59381Y6899D01*
X59378Y6908D01*
X59371Y6919D01*
X59363Y6936D01*
X59350Y6956D01*
X59335Y6977D01*
X59316Y7001D01*
X59294Y7026D01*
X59292Y7028D01*
X59291Y7029D01*
X59282Y7037D01*
X59268Y7049D01*
X59250Y7063D01*
X59229Y7078D01*
X59203Y7094D01*
X59175Y7108D01*
X59144Y7119D01*
Y7242D01*
X60100D01*
Y7091D01*
D02*
G37*
G36*
X89309Y41551D02*
X89243D01*
Y42176D01*
X89309D01*
Y41551D01*
D02*
G37*
G36*
X89143Y40979D02*
X89139D01*
X89133Y40980D01*
X89126D01*
X89118Y40982D01*
X89108Y40985D01*
X89084Y40989D01*
X89057Y40995D01*
X89026Y41004D01*
X88994Y41016D01*
X88961Y41030D01*
X88960D01*
X88957Y41033D01*
X88953Y41034D01*
X88946Y41038D01*
X88937Y41044D01*
X88926Y41049D01*
X88915Y41058D01*
X88900Y41068D01*
X88885Y41078D01*
X88868Y41090D01*
X88850Y41103D01*
X88829Y41119D01*
X88807Y41136D01*
X88785Y41155D01*
X88760Y41175D01*
X88734Y41198D01*
X88733Y41199D01*
X88729Y41202D01*
X88723Y41207D01*
X88716Y41213D01*
X88707Y41221D01*
X88696Y41230D01*
X88672Y41250D01*
X88647Y41271D01*
X88623Y41291D01*
X88600Y41307D01*
X88590Y41315D01*
X88582Y41320D01*
X88579Y41322D01*
X88572Y41326D01*
X88561Y41331D01*
X88545Y41337D01*
X88528Y41343D01*
X88509Y41348D01*
X88487Y41353D01*
X88466Y41354D01*
X88456D01*
X88445Y41353D01*
X88431Y41351D01*
X88416Y41347D01*
X88400Y41343D01*
X88385Y41336D01*
X88372Y41326D01*
X88370Y41324D01*
X88366Y41320D01*
X88362Y41315D01*
X88355Y41306D01*
X88349Y41296D01*
X88345Y41284D01*
X88341Y41268D01*
X88339Y41252D01*
Y41251D01*
Y41248D01*
X88341Y41243D01*
X88342Y41237D01*
X88348Y41220D01*
X88352Y41212D01*
X88358Y41202D01*
X88366Y41192D01*
X88376Y41182D01*
X88387Y41174D01*
X88403Y41165D01*
X88420Y41158D01*
X88440Y41152D01*
X88462Y41148D01*
X88489Y41145D01*
X88469Y40996D01*
X88468D01*
X88462Y40997D01*
X88455D01*
X88445Y40999D01*
X88434Y41002D01*
X88420Y41003D01*
X88404Y41007D01*
X88387Y41011D01*
X88354Y41021D01*
X88318Y41035D01*
X88284Y41054D01*
X88270Y41064D01*
X88256Y41076D01*
X88255Y41078D01*
X88253Y41079D01*
X88249Y41083D01*
X88245Y41089D01*
X88241Y41096D01*
X88234Y41103D01*
X88221Y41124D01*
X88208Y41150D01*
X88198Y41181D01*
X88190Y41216D01*
X88189Y41236D01*
X88187Y41255D01*
Y41257D01*
Y41261D01*
Y41267D01*
X88189Y41275D01*
X88190Y41286D01*
X88191Y41298D01*
X88197Y41326D01*
X88207Y41355D01*
X88213Y41371D01*
X88221Y41386D01*
X88231Y41402D01*
X88241Y41416D01*
X88253Y41429D01*
X88268Y41441D01*
X88269Y41443D01*
X88272Y41444D01*
X88276Y41447D01*
X88282Y41451D01*
X88289Y41456D01*
X88299Y41461D01*
X88321Y41474D01*
X88348Y41485D01*
X88379Y41495D01*
X88413Y41502D01*
X88431Y41505D01*
X88461D01*
X88472Y41503D01*
X88487D01*
X88504Y41501D01*
X88524Y41498D01*
X88544Y41494D01*
X88565Y41488D01*
X88568D01*
X88575Y41485D01*
X88585Y41481D01*
X88599Y41477D01*
X88616Y41470D01*
X88634Y41461D01*
X88654Y41450D01*
X88675Y41439D01*
X88678Y41437D01*
X88685Y41433D01*
X88697Y41424D01*
X88713Y41413D01*
X88734Y41398D01*
X88758Y41378D01*
X88786Y41355D01*
X88817Y41329D01*
X88819Y41327D01*
X88820Y41326D01*
X88824Y41322D01*
X88830Y41317D01*
X88844Y41305D01*
X88861Y41291D01*
X88879Y41275D01*
X88896Y41260D01*
X88912Y41247D01*
X88924Y41237D01*
X88926Y41236D01*
X88929Y41234D01*
X88934Y41230D01*
X88940Y41226D01*
X88955Y41216D01*
X88974Y41206D01*
Y41505D01*
X89143D01*
Y40979D01*
D02*
G37*
G36*
Y40756D02*
X88936Y40644D01*
X88934D01*
X88930Y40641D01*
X88924Y40638D01*
X88917Y40634D01*
X88909Y40628D01*
X88899Y40622D01*
X88877Y40610D01*
X88853Y40596D01*
X88829Y40581D01*
X88819Y40576D01*
X88810Y40569D01*
X88802Y40563D01*
X88796Y40559D01*
X88795Y40558D01*
X88792Y40555D01*
X88786Y40550D01*
X88781Y40545D01*
X88768Y40531D01*
X88761Y40522D01*
X88757Y40512D01*
Y40511D01*
X88755Y40508D01*
X88752Y40503D01*
X88751Y40494D01*
X88748Y40483D01*
X88747Y40469D01*
X88745Y40453D01*
Y40433D01*
Y40402D01*
X89143D01*
Y40245D01*
X88190D01*
Y40577D01*
Y40579D01*
Y40583D01*
Y40590D01*
Y40598D01*
X88191Y40608D01*
Y40621D01*
X88193Y40648D01*
X88197Y40677D01*
X88201Y40707D01*
X88208Y40735D01*
X88213Y40748D01*
X88217Y40759D01*
X88218Y40762D01*
X88221Y40769D01*
X88228Y40779D01*
X88238Y40792D01*
X88249Y40806D01*
X88265Y40820D01*
X88283Y40835D01*
X88306Y40849D01*
X88308Y40851D01*
X88317Y40855D01*
X88331Y40861D01*
X88348Y40868D01*
X88370Y40873D01*
X88397Y40879D01*
X88425Y40883D01*
X88458Y40885D01*
X88469D01*
X88476Y40883D01*
X88486D01*
X88497Y40882D01*
X88523Y40878D01*
X88551Y40872D01*
X88580Y40862D01*
X88610Y40848D01*
X88638Y40830D01*
X88640D01*
X88641Y40827D01*
X88650Y40820D01*
X88661Y40807D01*
X88674Y40790D01*
X88689Y40769D01*
X88703Y40742D01*
X88714Y40713D01*
X88723Y40677D01*
X88724Y40680D01*
X88730Y40686D01*
X88737Y40696D01*
X88747Y40707D01*
X88758Y40720D01*
X88772Y40734D01*
X88788Y40748D01*
X88803Y40761D01*
X88805Y40762D01*
X88812Y40766D01*
X88823Y40775D01*
X88838Y40784D01*
X88860Y40797D01*
X88872Y40804D01*
X88886Y40813D01*
X88902Y40821D01*
X88919Y40831D01*
X88939Y40841D01*
X88958Y40851D01*
X89143Y40947D01*
Y40756D01*
D02*
G37*
G36*
X89126Y13509D02*
X88375D01*
X89126Y13351D01*
Y13200D01*
X88375Y13045D01*
X89126D01*
Y12899D01*
X88173D01*
Y13134D01*
X88826Y13277D01*
X88173Y13418D01*
Y13656D01*
X89126D01*
Y13509D01*
D02*
G37*
G36*
X89143Y42782D02*
X88927Y42714D01*
Y42399D01*
X89143Y42335D01*
Y42167D01*
X88190Y42470D01*
Y42638D01*
X89143Y42953D01*
Y42782D01*
D02*
G37*
G36*
X88334Y14146D02*
X89126D01*
Y13988D01*
X88334D01*
Y13756D01*
X88173D01*
Y14378D01*
X88334D01*
Y14146D01*
D02*
G37*
G36*
X89143Y39275D02*
X88392D01*
X89143Y39117D01*
Y38966D01*
X88392Y38811D01*
X89143D01*
Y38664D01*
X88190D01*
Y38900D01*
X88843Y39042D01*
X88190Y39183D01*
Y39421D01*
X89143D01*
Y39275D01*
D02*
G37*
G36*
X88867Y17135D02*
X88876D01*
X88886Y17133D01*
X88910Y17131D01*
X88938Y17124D01*
X88968Y17115D01*
X88998Y17102D01*
X89026Y17086D01*
X89027D01*
X89029Y17083D01*
X89037Y17077D01*
X89050Y17066D01*
X89064Y17052D01*
X89079Y17035D01*
X89094Y17014D01*
X89106Y16991D01*
X89115Y16967D01*
Y16964D01*
X89116Y16962D01*
Y16957D01*
X89118Y16950D01*
Y16943D01*
X89119Y16933D01*
X89120Y16922D01*
X89122Y16908D01*
Y16892D01*
X89123Y16874D01*
X89125Y16853D01*
Y16830D01*
X89126Y16805D01*
Y16777D01*
Y16746D01*
Y16481D01*
X88173D01*
Y16794D01*
Y16795D01*
Y16799D01*
Y16806D01*
Y16815D01*
Y16825D01*
X88174Y16837D01*
X88176Y16864D01*
X88179Y16894D01*
X88183Y16923D01*
X88189Y16952D01*
X88193Y16963D01*
X88197Y16974D01*
X88198Y16977D01*
X88201Y16983D01*
X88208Y16993D01*
X88217Y17005D01*
X88228Y17018D01*
X88242Y17033D01*
X88259Y17048D01*
X88280Y17062D01*
X88283Y17063D01*
X88290Y17067D01*
X88303Y17073D01*
X88318Y17080D01*
X88338Y17087D01*
X88361Y17093D01*
X88386Y17097D01*
X88413Y17098D01*
X88424D01*
X88438Y17097D01*
X88454Y17094D01*
X88473Y17091D01*
X88494Y17086D01*
X88517Y17077D01*
X88538Y17067D01*
X88541Y17066D01*
X88547Y17062D01*
X88556Y17055D01*
X88569Y17046D01*
X88582Y17033D01*
X88596Y17021D01*
X88609Y17005D01*
X88620Y16987D01*
Y16988D01*
X88621Y16990D01*
X88624Y16998D01*
X88631Y17011D01*
X88640Y17028D01*
X88651Y17045D01*
X88665Y17063D01*
X88683Y17081D01*
X88704Y17097D01*
X88707Y17098D01*
X88714Y17102D01*
X88727Y17110D01*
X88745Y17117D01*
X88767Y17124D01*
X88790Y17131D01*
X88819Y17135D01*
X88850Y17136D01*
X88860D01*
X88867Y17135D01*
D02*
G37*
G36*
X89292Y15786D02*
X89226D01*
Y16410D01*
X89292D01*
Y15786D01*
D02*
G37*
G36*
X89126Y14991D02*
X88919Y14878D01*
X88917D01*
X88913Y14875D01*
X88907Y14872D01*
X88900Y14868D01*
X88892Y14862D01*
X88882Y14857D01*
X88860Y14844D01*
X88836Y14830D01*
X88812Y14816D01*
X88802Y14810D01*
X88793Y14803D01*
X88785Y14798D01*
X88779Y14793D01*
X88778Y14792D01*
X88775Y14789D01*
X88769Y14785D01*
X88764Y14779D01*
X88751Y14765D01*
X88744Y14757D01*
X88740Y14747D01*
Y14745D01*
X88738Y14743D01*
X88736Y14737D01*
X88734Y14729D01*
X88731Y14717D01*
X88730Y14703D01*
X88728Y14688D01*
Y14668D01*
Y14637D01*
X89126D01*
Y14479D01*
X88173D01*
Y14812D01*
Y14813D01*
Y14817D01*
Y14824D01*
Y14833D01*
X88174Y14843D01*
Y14855D01*
X88176Y14882D01*
X88180Y14912D01*
X88184Y14941D01*
X88191Y14970D01*
X88196Y14982D01*
X88200Y14994D01*
X88201Y14996D01*
X88204Y15003D01*
X88211Y15013D01*
X88221Y15026D01*
X88232Y15040D01*
X88248Y15054D01*
X88266Y15070D01*
X88289Y15084D01*
X88291Y15085D01*
X88300Y15089D01*
X88314Y15095D01*
X88331Y15102D01*
X88353Y15108D01*
X88380Y15113D01*
X88408Y15118D01*
X88441Y15119D01*
X88452D01*
X88459Y15118D01*
X88469D01*
X88480Y15116D01*
X88506Y15112D01*
X88534Y15106D01*
X88564Y15096D01*
X88593Y15082D01*
X88621Y15064D01*
X88623D01*
X88624Y15061D01*
X88633Y15054D01*
X88644Y15042D01*
X88657Y15025D01*
X88672Y15003D01*
X88686Y14977D01*
X88697Y14947D01*
X88706Y14912D01*
X88707Y14915D01*
X88713Y14920D01*
X88720Y14930D01*
X88730Y14941D01*
X88741Y14954D01*
X88755Y14968D01*
X88771Y14982D01*
X88786Y14995D01*
X88788Y14996D01*
X88795Y15001D01*
X88806Y15009D01*
X88822Y15019D01*
X88843Y15032D01*
X88855Y15039D01*
X88869Y15047D01*
X88885Y15056D01*
X88902Y15065D01*
X88922Y15075D01*
X88941Y15085D01*
X89126Y15181D01*
Y14991D01*
D02*
G37*
G36*
X88351Y39912D02*
X89143D01*
Y39754D01*
X88351D01*
Y39521D01*
X88190D01*
Y40143D01*
X88351D01*
Y39912D01*
D02*
G37*
G36*
X89126Y15467D02*
X88437D01*
X88438Y15466D01*
X88441Y15463D01*
X88445Y15459D01*
X88452Y15452D01*
X88459Y15445D01*
X88469Y15435D01*
X88479Y15424D01*
X88489Y15411D01*
X88511Y15383D01*
X88535Y15350D01*
X88556Y15312D01*
X88575Y15273D01*
X88408D01*
Y15274D01*
X88407Y15276D01*
X88404Y15284D01*
X88397Y15295D01*
X88389Y15312D01*
X88376Y15332D01*
X88361Y15353D01*
X88342Y15377D01*
X88320Y15402D01*
X88318Y15404D01*
X88317Y15405D01*
X88308Y15414D01*
X88294Y15425D01*
X88276Y15439D01*
X88255Y15455D01*
X88229Y15470D01*
X88201Y15484D01*
X88170Y15495D01*
Y15618D01*
X89126D01*
Y15467D01*
D02*
G37*
G36*
X89309Y21951D02*
X89243D01*
Y22576D01*
X89309D01*
Y21951D01*
D02*
G37*
G36*
X89126Y35491D02*
X88919Y35378D01*
X88917D01*
X88913Y35375D01*
X88907Y35372D01*
X88900Y35368D01*
X88892Y35362D01*
X88882Y35357D01*
X88860Y35344D01*
X88836Y35330D01*
X88812Y35316D01*
X88802Y35310D01*
X88793Y35303D01*
X88785Y35298D01*
X88779Y35293D01*
X88778Y35292D01*
X88775Y35289D01*
X88769Y35285D01*
X88764Y35279D01*
X88751Y35265D01*
X88744Y35257D01*
X88740Y35247D01*
Y35245D01*
X88738Y35243D01*
X88736Y35237D01*
X88734Y35229D01*
X88731Y35217D01*
X88730Y35203D01*
X88728Y35188D01*
Y35168D01*
Y35137D01*
X89126D01*
Y34979D01*
X88173D01*
Y35312D01*
Y35313D01*
Y35317D01*
Y35324D01*
Y35333D01*
X88174Y35343D01*
Y35355D01*
X88176Y35382D01*
X88180Y35412D01*
X88184Y35441D01*
X88191Y35470D01*
X88196Y35482D01*
X88200Y35494D01*
X88201Y35496D01*
X88204Y35503D01*
X88211Y35513D01*
X88221Y35526D01*
X88232Y35540D01*
X88248Y35554D01*
X88266Y35570D01*
X88289Y35584D01*
X88291Y35585D01*
X88300Y35589D01*
X88314Y35595D01*
X88331Y35602D01*
X88353Y35608D01*
X88380Y35613D01*
X88408Y35618D01*
X88441Y35619D01*
X88452D01*
X88459Y35618D01*
X88469D01*
X88480Y35616D01*
X88506Y35612D01*
X88534Y35606D01*
X88564Y35596D01*
X88593Y35582D01*
X88621Y35564D01*
X88623D01*
X88624Y35561D01*
X88633Y35554D01*
X88644Y35542D01*
X88657Y35525D01*
X88672Y35503D01*
X88686Y35477D01*
X88697Y35447D01*
X88706Y35412D01*
X88707Y35415D01*
X88713Y35420D01*
X88720Y35430D01*
X88730Y35441D01*
X88741Y35454D01*
X88755Y35468D01*
X88771Y35482D01*
X88786Y35495D01*
X88788Y35496D01*
X88795Y35501D01*
X88806Y35509D01*
X88822Y35519D01*
X88843Y35532D01*
X88855Y35539D01*
X88869Y35547D01*
X88885Y35556D01*
X88902Y35565D01*
X88922Y35575D01*
X88941Y35585D01*
X89126Y35681D01*
Y35491D01*
D02*
G37*
G36*
Y35713D02*
X89122D01*
X89116Y35715D01*
X89109D01*
X89101Y35716D01*
X89091Y35719D01*
X89067Y35723D01*
X89040Y35729D01*
X89009Y35739D01*
X88977Y35750D01*
X88944Y35764D01*
X88943D01*
X88940Y35767D01*
X88936Y35768D01*
X88929Y35773D01*
X88920Y35778D01*
X88909Y35784D01*
X88898Y35792D01*
X88884Y35802D01*
X88868Y35812D01*
X88851Y35825D01*
X88833Y35838D01*
X88812Y35853D01*
X88790Y35870D01*
X88768Y35890D01*
X88743Y35909D01*
X88717Y35932D01*
X88716Y35933D01*
X88712Y35936D01*
X88706Y35942D01*
X88699Y35947D01*
X88690Y35956D01*
X88679Y35964D01*
X88655Y35984D01*
X88630Y36005D01*
X88606Y36025D01*
X88583Y36042D01*
X88573Y36049D01*
X88565Y36055D01*
X88562Y36056D01*
X88555Y36060D01*
X88544Y36066D01*
X88528Y36072D01*
X88511Y36077D01*
X88492Y36083D01*
X88470Y36087D01*
X88449Y36088D01*
X88439D01*
X88428Y36087D01*
X88414Y36086D01*
X88399Y36081D01*
X88383Y36077D01*
X88368Y36070D01*
X88355Y36060D01*
X88353Y36059D01*
X88349Y36055D01*
X88345Y36049D01*
X88338Y36041D01*
X88332Y36031D01*
X88328Y36018D01*
X88324Y36002D01*
X88322Y35987D01*
Y35986D01*
Y35983D01*
X88324Y35977D01*
X88325Y35971D01*
X88331Y35955D01*
X88335Y35946D01*
X88341Y35936D01*
X88349Y35926D01*
X88359Y35916D01*
X88370Y35908D01*
X88386Y35900D01*
X88403Y35893D01*
X88423Y35887D01*
X88445Y35883D01*
X88472Y35880D01*
X88452Y35730D01*
X88451D01*
X88445Y35732D01*
X88438D01*
X88428Y35733D01*
X88417Y35736D01*
X88403Y35737D01*
X88387Y35742D01*
X88370Y35746D01*
X88337Y35756D01*
X88301Y35770D01*
X88267Y35788D01*
X88253Y35798D01*
X88239Y35811D01*
X88238Y35812D01*
X88236Y35814D01*
X88232Y35818D01*
X88228Y35823D01*
X88224Y35831D01*
X88217Y35838D01*
X88204Y35859D01*
X88191Y35884D01*
X88181Y35915D01*
X88173Y35950D01*
X88172Y35970D01*
X88170Y35990D01*
Y35991D01*
Y35995D01*
Y36001D01*
X88172Y36010D01*
X88173Y36021D01*
X88174Y36032D01*
X88180Y36060D01*
X88190Y36090D01*
X88196Y36105D01*
X88204Y36121D01*
X88214Y36136D01*
X88224Y36151D01*
X88236Y36163D01*
X88251Y36176D01*
X88252Y36177D01*
X88255Y36179D01*
X88259Y36182D01*
X88265Y36186D01*
X88272Y36190D01*
X88282Y36196D01*
X88304Y36208D01*
X88331Y36220D01*
X88362Y36229D01*
X88396Y36236D01*
X88414Y36239D01*
X88444D01*
X88455Y36238D01*
X88470D01*
X88487Y36235D01*
X88507Y36232D01*
X88527Y36228D01*
X88548Y36222D01*
X88551D01*
X88558Y36220D01*
X88568Y36215D01*
X88582Y36211D01*
X88599Y36204D01*
X88617Y36196D01*
X88637Y36184D01*
X88658Y36173D01*
X88661Y36172D01*
X88668Y36167D01*
X88681Y36159D01*
X88696Y36148D01*
X88717Y36132D01*
X88741Y36112D01*
X88769Y36090D01*
X88800Y36063D01*
X88802Y36062D01*
X88803Y36060D01*
X88807Y36056D01*
X88813Y36052D01*
X88827Y36039D01*
X88844Y36025D01*
X88862Y36010D01*
X88879Y35994D01*
X88895Y35981D01*
X88907Y35971D01*
X88909Y35970D01*
X88912Y35969D01*
X88917Y35964D01*
X88923Y35960D01*
X88938Y35950D01*
X88957Y35940D01*
Y36239D01*
X89126D01*
Y35713D01*
D02*
G37*
G36*
X89143Y21633D02*
X88454D01*
X88455Y21631D01*
X88458Y21629D01*
X88462Y21624D01*
X88469Y21617D01*
X88476Y21610D01*
X88486Y21600D01*
X88496Y21589D01*
X88506Y21576D01*
X88528Y21548D01*
X88552Y21516D01*
X88573Y21478D01*
X88592Y21438D01*
X88425D01*
Y21440D01*
X88424Y21441D01*
X88421Y21449D01*
X88414Y21461D01*
X88406Y21478D01*
X88393Y21497D01*
X88377Y21519D01*
X88359Y21543D01*
X88337Y21568D01*
X88335Y21569D01*
X88334Y21571D01*
X88325Y21579D01*
X88311Y21590D01*
X88293Y21605D01*
X88272Y21620D01*
X88246Y21636D01*
X88218Y21650D01*
X88187Y21661D01*
Y21784D01*
X89143D01*
Y21633D01*
D02*
G37*
G36*
Y23182D02*
X88927Y23114D01*
Y22799D01*
X89143Y22735D01*
Y22567D01*
X88190Y22870D01*
Y23038D01*
X89143Y23353D01*
Y23182D01*
D02*
G37*
G36*
X88334Y34646D02*
X89126D01*
Y34488D01*
X88334D01*
Y34256D01*
X88173D01*
Y34878D01*
X88334D01*
Y34646D01*
D02*
G37*
G36*
X89126Y34009D02*
X88375D01*
X89126Y33851D01*
Y33700D01*
X88375Y33545D01*
X89126D01*
Y33399D01*
X88173D01*
Y33634D01*
X88826Y33777D01*
X88173Y33918D01*
Y34156D01*
X89126D01*
Y34009D01*
D02*
G37*
%LPC*%
G36*
X12880Y52182D02*
X12877D01*
X12866Y52180D01*
X12849Y52177D01*
X12830Y52169D01*
X12808Y52155D01*
X12783Y52132D01*
X12760Y52105D01*
X12741Y52066D01*
X12738Y52060D01*
X12735Y52052D01*
X12733Y52041D01*
X12730Y52027D01*
X12724Y52008D01*
X12721Y51983D01*
X12716Y51955D01*
X12710Y51921D01*
X12708Y51883D01*
X12702Y51838D01*
X12699Y51788D01*
X12696Y51733D01*
X12694Y51672D01*
X12691Y51602D01*
Y51524D01*
Y51519D01*
Y51505D01*
Y51486D01*
Y51455D01*
X12694Y51422D01*
Y51383D01*
X12696Y51341D01*
Y51297D01*
X12702Y51205D01*
X12708Y51158D01*
X12713Y51116D01*
X12719Y51075D01*
X12724Y51039D01*
X12733Y51008D01*
X12741Y50983D01*
X12744Y50978D01*
X12749Y50966D01*
X12760Y50947D01*
X12777Y50928D01*
X12796Y50905D01*
X12821Y50886D01*
X12849Y50875D01*
X12880Y50869D01*
X12882D01*
X12894Y50872D01*
X12910Y50875D01*
X12930Y50883D01*
X12952Y50897D01*
X12974Y50916D01*
X12996Y50944D01*
X13016Y50983D01*
Y50986D01*
X13019Y50989D01*
X13021Y50997D01*
X13024Y51008D01*
X13027Y51022D01*
X13032Y51041D01*
X13038Y51066D01*
X13044Y51094D01*
X13046Y51127D01*
X13052Y51166D01*
X13057Y51211D01*
X13060Y51261D01*
X13063Y51316D01*
X13066Y51377D01*
X13069Y51447D01*
Y51524D01*
Y51530D01*
Y51544D01*
Y51566D01*
Y51594D01*
X13066Y51627D01*
Y51666D01*
X13063Y51708D01*
Y51752D01*
X13055Y51844D01*
X13052Y51891D01*
X13046Y51933D01*
X13041Y51974D01*
X13032Y52010D01*
X13024Y52041D01*
X13016Y52066D01*
X13013Y52071D01*
X13007Y52085D01*
X12996Y52102D01*
X12980Y52124D01*
X12960Y52146D01*
X12938Y52163D01*
X12910Y52177D01*
X12880Y52182D01*
D02*
G37*
G36*
X56790Y51563D02*
X56720D01*
X56703Y51560D01*
X56682D01*
X56658Y51558D01*
X56633Y51554D01*
X56603Y51552D01*
X56543Y51541D01*
X56484Y51524D01*
X56424Y51501D01*
X56398Y51488D01*
X56375Y51471D01*
X56373D01*
X56371Y51467D01*
X56364Y51462D01*
X56356Y51454D01*
X56337Y51435D01*
X56313Y51409D01*
X56292Y51375D01*
X56273Y51335D01*
X56264Y51311D01*
X56258Y51288D01*
X56256Y51262D01*
X56254Y51237D01*
Y51235D01*
Y51230D01*
Y51222D01*
X56256Y51213D01*
X56258Y51201D01*
X56260Y51186D01*
X56269Y51154D01*
X56284Y51116D01*
X56292Y51096D01*
X56305Y51077D01*
X56320Y51056D01*
X56335Y51037D01*
X56354Y51018D01*
X56375Y51001D01*
X56377D01*
X56381Y50996D01*
X56388Y50992D01*
X56398Y50986D01*
X56411Y50979D01*
X56426Y50973D01*
X56445Y50964D01*
X56467Y50956D01*
X56492Y50947D01*
X56520Y50939D01*
X56550Y50932D01*
X56584Y50926D01*
X56620Y50920D01*
X56660Y50915D01*
X56703Y50913D01*
X56748Y50911D01*
X56771D01*
X56788Y50913D01*
X56809D01*
X56833Y50915D01*
X56858Y50920D01*
X56886Y50924D01*
X56945Y50935D01*
X57007Y50952D01*
X57067Y50975D01*
X57092Y50988D01*
X57118Y51005D01*
X57120Y51007D01*
X57122Y51009D01*
X57129Y51015D01*
X57137Y51022D01*
X57156Y51041D01*
X57180Y51069D01*
X57203Y51103D01*
X57222Y51143D01*
X57231Y51164D01*
X57235Y51188D01*
X57239Y51211D01*
X57241Y51237D01*
Y51239D01*
Y51243D01*
Y51250D01*
X57239Y51260D01*
X57237Y51273D01*
X57235Y51286D01*
X57226Y51318D01*
X57212Y51356D01*
X57201Y51375D01*
X57190Y51394D01*
X57175Y51414D01*
X57160Y51433D01*
X57141Y51452D01*
X57120Y51469D01*
X57118Y51471D01*
X57114Y51473D01*
X57107Y51477D01*
X57097Y51484D01*
X57084Y51490D01*
X57067Y51499D01*
X57048Y51507D01*
X57026Y51516D01*
X57001Y51524D01*
X56973Y51533D01*
X56943Y51541D01*
X56909Y51548D01*
X56871Y51554D01*
X56833Y51558D01*
X56790Y51563D01*
D02*
G37*
G36*
X39090D02*
X39020D01*
X39003Y51560D01*
X38982D01*
X38958Y51558D01*
X38933Y51554D01*
X38903Y51552D01*
X38843Y51541D01*
X38784Y51524D01*
X38724Y51501D01*
X38698Y51488D01*
X38675Y51471D01*
X38673D01*
X38671Y51467D01*
X38664Y51462D01*
X38656Y51454D01*
X38637Y51435D01*
X38613Y51409D01*
X38592Y51375D01*
X38573Y51335D01*
X38564Y51311D01*
X38558Y51288D01*
X38556Y51262D01*
X38554Y51237D01*
Y51235D01*
Y51230D01*
Y51222D01*
X38556Y51213D01*
X38558Y51201D01*
X38560Y51186D01*
X38569Y51154D01*
X38583Y51116D01*
X38592Y51096D01*
X38605Y51077D01*
X38620Y51056D01*
X38635Y51037D01*
X38654Y51018D01*
X38675Y51001D01*
X38677D01*
X38681Y50996D01*
X38688Y50992D01*
X38698Y50986D01*
X38711Y50979D01*
X38726Y50973D01*
X38745Y50964D01*
X38767Y50956D01*
X38792Y50947D01*
X38820Y50939D01*
X38850Y50932D01*
X38884Y50926D01*
X38920Y50920D01*
X38960Y50915D01*
X39003Y50913D01*
X39048Y50911D01*
X39071D01*
X39088Y50913D01*
X39109D01*
X39133Y50915D01*
X39158Y50920D01*
X39186Y50924D01*
X39245Y50935D01*
X39307Y50952D01*
X39367Y50975D01*
X39392Y50988D01*
X39418Y51005D01*
X39420Y51007D01*
X39422Y51009D01*
X39429Y51015D01*
X39437Y51022D01*
X39456Y51041D01*
X39480Y51069D01*
X39503Y51103D01*
X39522Y51143D01*
X39531Y51164D01*
X39535Y51188D01*
X39539Y51211D01*
X39541Y51237D01*
Y51239D01*
Y51243D01*
Y51250D01*
X39539Y51260D01*
X39537Y51273D01*
X39535Y51286D01*
X39526Y51318D01*
X39512Y51356D01*
X39501Y51375D01*
X39490Y51394D01*
X39475Y51414D01*
X39460Y51433D01*
X39441Y51452D01*
X39420Y51469D01*
X39418Y51471D01*
X39414Y51473D01*
X39407Y51477D01*
X39397Y51484D01*
X39384Y51490D01*
X39367Y51499D01*
X39348Y51507D01*
X39326Y51516D01*
X39301Y51524D01*
X39273Y51533D01*
X39243Y51541D01*
X39209Y51548D01*
X39171Y51554D01*
X39133Y51558D01*
X39090Y51563D01*
D02*
G37*
G36*
X859Y26152D02*
X813D01*
X802Y26151D01*
X788D01*
X773Y26149D01*
X756Y26146D01*
X737Y26145D01*
X698Y26138D01*
X659Y26127D01*
X620Y26112D01*
X604Y26103D01*
X589Y26092D01*
X587D01*
X586Y26090D01*
X582Y26087D01*
X576Y26081D01*
X564Y26069D01*
X548Y26052D01*
X534Y26030D01*
X522Y26004D01*
X516Y25988D01*
X512Y25973D01*
X511Y25956D01*
X510Y25940D01*
Y25938D01*
Y25936D01*
Y25930D01*
X511Y25925D01*
X512Y25916D01*
X514Y25907D01*
X519Y25886D01*
X529Y25861D01*
X534Y25848D01*
X543Y25836D01*
X552Y25822D01*
X562Y25809D01*
X575Y25797D01*
X589Y25786D01*
X590D01*
X593Y25783D01*
X597Y25780D01*
X604Y25776D01*
X612Y25772D01*
X622Y25768D01*
X634Y25762D01*
X648Y25757D01*
X665Y25751D01*
X683Y25746D01*
X702Y25742D01*
X724Y25737D01*
X748Y25733D01*
X774Y25730D01*
X802Y25729D01*
X831Y25728D01*
X846D01*
X858Y25729D01*
X871D01*
X887Y25730D01*
X903Y25733D01*
X921Y25736D01*
X960Y25743D01*
X1000Y25754D01*
X1039Y25769D01*
X1056Y25778D01*
X1073Y25789D01*
X1074Y25790D01*
X1075Y25791D01*
X1079Y25796D01*
X1085Y25800D01*
X1098Y25812D01*
X1113Y25830D01*
X1128Y25852D01*
X1141Y25879D01*
X1146Y25893D01*
X1149Y25908D01*
X1152Y25923D01*
X1153Y25940D01*
Y25941D01*
Y25944D01*
Y25948D01*
X1152Y25955D01*
X1150Y25963D01*
X1149Y25972D01*
X1143Y25993D01*
X1134Y26017D01*
X1127Y26030D01*
X1120Y26042D01*
X1110Y26055D01*
X1100Y26067D01*
X1088Y26080D01*
X1074Y26091D01*
X1073Y26092D01*
X1070Y26094D01*
X1066Y26097D01*
X1059Y26101D01*
X1050Y26105D01*
X1039Y26110D01*
X1027Y26116D01*
X1013Y26122D01*
X996Y26127D01*
X978Y26133D01*
X959Y26138D01*
X937Y26142D01*
X912Y26146D01*
X887Y26149D01*
X859Y26152D01*
D02*
G37*
G36*
Y30367D02*
X813D01*
X802Y30366D01*
X788D01*
X773Y30364D01*
X756Y30362D01*
X737Y30360D01*
X698Y30353D01*
X659Y30342D01*
X620Y30327D01*
X604Y30319D01*
X589Y30308D01*
X587D01*
X586Y30305D01*
X582Y30302D01*
X576Y30296D01*
X564Y30284D01*
X548Y30267D01*
X534Y30245D01*
X522Y30219D01*
X516Y30204D01*
X512Y30188D01*
X511Y30172D01*
X510Y30155D01*
Y30154D01*
Y30151D01*
Y30145D01*
X511Y30140D01*
X512Y30131D01*
X514Y30122D01*
X519Y30101D01*
X529Y30076D01*
X534Y30063D01*
X543Y30051D01*
X552Y30037D01*
X562Y30025D01*
X575Y30012D01*
X589Y30001D01*
X590D01*
X593Y29998D01*
X597Y29996D01*
X604Y29991D01*
X612Y29987D01*
X622Y29983D01*
X634Y29977D01*
X648Y29972D01*
X665Y29966D01*
X683Y29961D01*
X702Y29957D01*
X724Y29953D01*
X748Y29948D01*
X774Y29946D01*
X802Y29944D01*
X831Y29943D01*
X846D01*
X858Y29944D01*
X871D01*
X887Y29946D01*
X903Y29948D01*
X921Y29951D01*
X960Y29958D01*
X1000Y29969D01*
X1039Y29984D01*
X1056Y29993D01*
X1073Y30004D01*
X1074Y30005D01*
X1075Y30007D01*
X1079Y30011D01*
X1085Y30015D01*
X1098Y30027D01*
X1113Y30045D01*
X1128Y30068D01*
X1141Y30094D01*
X1146Y30108D01*
X1149Y30123D01*
X1152Y30138D01*
X1153Y30155D01*
Y30156D01*
Y30159D01*
Y30163D01*
X1152Y30170D01*
X1150Y30179D01*
X1149Y30187D01*
X1143Y30208D01*
X1134Y30233D01*
X1127Y30245D01*
X1120Y30258D01*
X1110Y30270D01*
X1100Y30283D01*
X1088Y30295D01*
X1074Y30306D01*
X1073Y30308D01*
X1070Y30309D01*
X1066Y30312D01*
X1059Y30316D01*
X1050Y30320D01*
X1039Y30326D01*
X1027Y30331D01*
X1013Y30337D01*
X996Y30342D01*
X978Y30348D01*
X959Y30353D01*
X937Y30357D01*
X912Y30362D01*
X887Y30364D01*
X859Y30367D01*
D02*
G37*
G36*
X88496Y32280D02*
X88489D01*
X88480Y32279D01*
X88469Y32278D01*
X88445Y32273D01*
X88434Y32268D01*
X88422Y32262D01*
X88421Y32261D01*
X88418Y32259D01*
X88412Y32255D01*
X88407Y32249D01*
X88401Y32242D01*
X88394Y32234D01*
X88388Y32224D01*
X88384Y32213D01*
Y32211D01*
X88383Y32207D01*
X88381Y32200D01*
X88380Y32189D01*
X88379Y32180D01*
Y32172D01*
X88377Y32161D01*
Y32149D01*
Y32135D01*
X88376Y32120D01*
Y32103D01*
Y32084D01*
Y31962D01*
X88618D01*
Y32077D01*
Y32079D01*
Y32082D01*
Y32087D01*
Y32094D01*
Y32103D01*
Y32113D01*
X88617Y32135D01*
Y32158D01*
X88614Y32180D01*
X88613Y32200D01*
X88611Y32207D01*
X88610Y32214D01*
Y32216D01*
X88608Y32220D01*
X88606Y32224D01*
X88601Y32231D01*
X88596Y32239D01*
X88590Y32247D01*
X88582Y32255D01*
X88572Y32262D01*
X88570Y32263D01*
X88566Y32265D01*
X88560Y32268D01*
X88551Y32272D01*
X88541Y32275D01*
X88527Y32278D01*
X88513Y32279D01*
X88496Y32280D01*
D02*
G37*
G36*
X88706Y27021D02*
X88643D01*
X88633Y27020D01*
X88609D01*
X88582Y27017D01*
X88555Y27014D01*
X88527Y27011D01*
X88503Y27006D01*
X88500D01*
X88493Y27003D01*
X88482Y27000D01*
X88468Y26994D01*
X88452Y26989D01*
X88435Y26980D01*
X88420Y26972D01*
X88406Y26961D01*
X88404Y26959D01*
X88400Y26955D01*
X88394Y26948D01*
X88386Y26939D01*
X88379Y26928D01*
X88370Y26915D01*
X88365Y26901D01*
X88359Y26886D01*
Y26884D01*
X88358Y26879D01*
X88356Y26870D01*
X88355Y26858D01*
X88354Y26839D01*
X88352Y26818D01*
X88351Y26790D01*
Y26774D01*
Y26758D01*
Y26687D01*
X88982D01*
Y26804D01*
Y26805D01*
Y26807D01*
Y26811D01*
Y26817D01*
X88981Y26829D01*
Y26846D01*
X88979Y26865D01*
X88977Y26883D01*
X88972Y26900D01*
X88968Y26914D01*
X88967Y26915D01*
X88965Y26920D01*
X88963Y26925D01*
X88957Y26934D01*
X88944Y26952D01*
X88926Y26969D01*
X88924Y26970D01*
X88920Y26973D01*
X88913Y26977D01*
X88903Y26982D01*
X88891Y26987D01*
X88875Y26994D01*
X88855Y27000D01*
X88834Y27006D01*
X88833D01*
X88831Y27007D01*
X88823Y27008D01*
X88809Y27011D01*
X88791Y27014D01*
X88767Y27017D01*
X88738Y27018D01*
X88706Y27021D01*
D02*
G37*
G36*
X88720Y29757D02*
X88673D01*
X88662Y29756D01*
X88648D01*
X88632Y29754D01*
X88615Y29751D01*
X88596Y29750D01*
X88556Y29743D01*
X88517Y29732D01*
X88477Y29716D01*
X88460Y29708D01*
X88445Y29696D01*
X88443D01*
X88442Y29694D01*
X88438Y29691D01*
X88432Y29685D01*
X88419Y29672D01*
X88404Y29655D01*
X88390Y29633D01*
X88377Y29606D01*
X88372Y29591D01*
X88367Y29575D01*
X88366Y29558D01*
X88365Y29541D01*
Y29540D01*
Y29537D01*
Y29531D01*
X88366Y29526D01*
X88367Y29517D01*
X88369Y29507D01*
X88374Y29486D01*
X88384Y29461D01*
X88390Y29448D01*
X88398Y29436D01*
X88408Y29421D01*
X88418Y29409D01*
X88431Y29396D01*
X88445Y29385D01*
X88446D01*
X88449Y29382D01*
X88453Y29379D01*
X88460Y29375D01*
X88469Y29371D01*
X88479Y29367D01*
X88491Y29361D01*
X88505Y29355D01*
X88522Y29350D01*
X88541Y29344D01*
X88560Y29340D01*
X88583Y29335D01*
X88607Y29331D01*
X88634Y29328D01*
X88662Y29327D01*
X88692Y29326D01*
X88707D01*
X88718Y29327D01*
X88732D01*
X88748Y29328D01*
X88765Y29331D01*
X88783Y29334D01*
X88823Y29341D01*
X88864Y29352D01*
X88903Y29368D01*
X88920Y29376D01*
X88937Y29388D01*
X88938Y29389D01*
X88940Y29390D01*
X88944Y29395D01*
X88950Y29399D01*
X88962Y29412D01*
X88978Y29430D01*
X88993Y29452D01*
X89006Y29479D01*
X89012Y29493D01*
X89014Y29509D01*
X89017Y29524D01*
X89019Y29541D01*
Y29543D01*
Y29546D01*
Y29550D01*
X89017Y29557D01*
X89016Y29565D01*
X89014Y29574D01*
X89009Y29595D01*
X88999Y29620D01*
X88992Y29633D01*
X88985Y29646D01*
X88975Y29658D01*
X88965Y29671D01*
X88952Y29684D01*
X88938Y29695D01*
X88937Y29696D01*
X88934Y29698D01*
X88930Y29701D01*
X88923Y29705D01*
X88914Y29709D01*
X88903Y29715D01*
X88890Y29720D01*
X88876Y29726D01*
X88859Y29732D01*
X88841Y29737D01*
X88821Y29743D01*
X88799Y29747D01*
X88773Y29751D01*
X88748Y29754D01*
X88720Y29757D01*
D02*
G37*
G36*
X88513Y28900D02*
X88504D01*
X88496Y28898D01*
X88484Y28897D01*
X88472Y28894D01*
X88459Y28891D01*
X88445Y28886D01*
X88432Y28879D01*
X88431Y28877D01*
X88427Y28875D01*
X88421Y28870D01*
X88414Y28865D01*
X88407Y28856D01*
X88398Y28848D01*
X88393Y28838D01*
X88387Y28827D01*
Y28825D01*
X88386Y28821D01*
X88383Y28812D01*
X88381Y28800D01*
X88379Y28783D01*
X88377Y28760D01*
Y28746D01*
X88376Y28732D01*
Y28717D01*
Y28698D01*
Y28622D01*
X88648D01*
Y28708D01*
Y28710D01*
Y28712D01*
Y28717D01*
Y28722D01*
Y28738D01*
X88646Y28756D01*
X88645Y28776D01*
X88644Y28796D01*
X88641Y28812D01*
X88637Y28827D01*
Y28828D01*
X88634Y28832D01*
X88631Y28838D01*
X88627Y28845D01*
X88620Y28853D01*
X88613Y28862D01*
X88603Y28870D01*
X88591Y28879D01*
X88590Y28880D01*
X88586Y28882D01*
X88579Y28886D01*
X88569Y28890D01*
X88558Y28893D01*
X88545Y28897D01*
X88529Y28898D01*
X88513Y28900D01*
D02*
G37*
G36*
X27435Y29071D02*
X27337D01*
X27315Y29070D01*
X27289D01*
X27261Y29068D01*
X27232D01*
X27170Y29062D01*
X27139Y29060D01*
X27111Y29057D01*
X27083Y29053D01*
X27059Y29047D01*
X27039Y29042D01*
X27022Y29036D01*
X27019Y29034D01*
X27009Y29031D01*
X26998Y29023D01*
X26983Y29012D01*
X26969Y28999D01*
X26958Y28984D01*
X26948Y28966D01*
X26945Y28946D01*
Y28944D01*
X26946Y28936D01*
X26948Y28925D01*
X26954Y28912D01*
X26963Y28897D01*
X26978Y28881D01*
X26996Y28866D01*
X27022Y28853D01*
X27026Y28851D01*
X27032Y28849D01*
X27039Y28847D01*
X27048Y28846D01*
X27061Y28842D01*
X27078Y28840D01*
X27096Y28836D01*
X27119Y28833D01*
X27145Y28831D01*
X27174Y28827D01*
X27208Y28825D01*
X27245Y28823D01*
X27285Y28821D01*
X27332Y28820D01*
X27430D01*
X27452Y28821D01*
X27478D01*
X27506Y28823D01*
X27535D01*
X27596Y28827D01*
X27628Y28831D01*
X27656Y28834D01*
X27683Y28838D01*
X27707Y28842D01*
X27728Y28847D01*
X27744Y28853D01*
X27748Y28855D01*
X27756Y28858D01*
X27769Y28866D01*
X27782Y28877D01*
X27796Y28890D01*
X27809Y28907D01*
X27817Y28925D01*
X27820Y28946D01*
Y28947D01*
X27819Y28955D01*
X27817Y28966D01*
X27811Y28979D01*
X27802Y28994D01*
X27789Y29008D01*
X27770Y29023D01*
X27744Y29036D01*
X27743D01*
X27741Y29038D01*
X27735Y29040D01*
X27728Y29042D01*
X27719Y29044D01*
X27706Y29047D01*
X27689Y29051D01*
X27670Y29055D01*
X27648Y29057D01*
X27622Y29060D01*
X27593Y29064D01*
X27559Y29066D01*
X27522Y29068D01*
X27482Y29070D01*
X27435Y29071D01*
D02*
G37*
G36*
Y30268D02*
X27337D01*
X27315Y30266D01*
X27289D01*
X27261Y30264D01*
X27232D01*
X27170Y30258D01*
X27139Y30257D01*
X27111Y30253D01*
X27083Y30249D01*
X27059Y30244D01*
X27039Y30238D01*
X27022Y30232D01*
X27019Y30231D01*
X27009Y30227D01*
X26998Y30219D01*
X26983Y30208D01*
X26969Y30195D01*
X26958Y30181D01*
X26948Y30162D01*
X26945Y30142D01*
Y30140D01*
X26946Y30132D01*
X26948Y30121D01*
X26954Y30108D01*
X26963Y30094D01*
X26978Y30077D01*
X26996Y30062D01*
X27022Y30049D01*
X27026Y30047D01*
X27032Y30045D01*
X27039Y30044D01*
X27048Y30042D01*
X27061Y30038D01*
X27078Y30036D01*
X27096Y30032D01*
X27119Y30029D01*
X27145Y30027D01*
X27174Y30023D01*
X27208Y30021D01*
X27245Y30019D01*
X27285Y30018D01*
X27332Y30016D01*
X27430D01*
X27452Y30018D01*
X27478D01*
X27506Y30019D01*
X27535D01*
X27596Y30023D01*
X27628Y30027D01*
X27656Y30031D01*
X27683Y30034D01*
X27707Y30038D01*
X27728Y30044D01*
X27744Y30049D01*
X27748Y30051D01*
X27756Y30055D01*
X27769Y30062D01*
X27782Y30073D01*
X27796Y30086D01*
X27809Y30103D01*
X27817Y30121D01*
X27820Y30142D01*
Y30144D01*
X27819Y30151D01*
X27817Y30162D01*
X27811Y30175D01*
X27802Y30190D01*
X27789Y30205D01*
X27770Y30219D01*
X27744Y30232D01*
X27743D01*
X27741Y30234D01*
X27735Y30236D01*
X27728Y30238D01*
X27719Y30240D01*
X27706Y30244D01*
X27689Y30247D01*
X27670Y30251D01*
X27648Y30253D01*
X27622Y30257D01*
X27593Y30260D01*
X27559Y30262D01*
X27522Y30264D01*
X27482Y30266D01*
X27435Y30268D01*
D02*
G37*
G36*
X23170Y51933D02*
X22815Y51294D01*
X23170D01*
Y51933D01*
D02*
G37*
G36*
X28156Y51549D02*
X28142D01*
X28125Y51547D01*
X28106Y51538D01*
X28084Y51530D01*
X28059Y51516D01*
X28034Y51497D01*
X28011Y51469D01*
X28009Y51466D01*
X28003Y51455D01*
X27992Y51436D01*
X27984Y51408D01*
X27973Y51375D01*
X27961Y51336D01*
X27956Y51286D01*
X27953Y51230D01*
Y51227D01*
Y51222D01*
Y51214D01*
Y51202D01*
X27956Y51169D01*
X27961Y51130D01*
X27970Y51089D01*
X27981Y51044D01*
X27995Y51000D01*
X28017Y50961D01*
X28020Y50958D01*
X28028Y50947D01*
X28042Y50933D01*
X28061Y50916D01*
X28084Y50897D01*
X28109Y50883D01*
X28139Y50872D01*
X28170Y50869D01*
X28184D01*
X28197Y50872D01*
X28217Y50878D01*
X28239Y50889D01*
X28261Y50900D01*
X28284Y50919D01*
X28306Y50944D01*
X28309Y50947D01*
X28314Y50958D01*
X28322Y50978D01*
X28333Y51005D01*
X28345Y51041D01*
X28353Y51086D01*
X28358Y51139D01*
X28361Y51200D01*
Y51202D01*
Y51208D01*
Y51216D01*
Y51230D01*
X28358Y51261D01*
X28353Y51300D01*
X28347Y51344D01*
X28336Y51388D01*
X28320Y51427D01*
X28300Y51463D01*
X28297Y51466D01*
X28289Y51477D01*
X28278Y51491D01*
X28261Y51508D01*
X28239Y51522D01*
X28214Y51536D01*
X28186Y51547D01*
X28156Y51549D01*
D02*
G37*
G36*
X25465Y33439D02*
X25434D01*
X25419Y33437D01*
X25400Y33434D01*
X25359Y33429D01*
X25312Y33421D01*
X25263Y33406D01*
X25219Y33387D01*
X25178Y33362D01*
X25172Y33359D01*
X25162Y33349D01*
X25147Y33333D01*
X25126Y33312D01*
X25108Y33284D01*
X25092Y33255D01*
X25082Y33219D01*
X25077Y33183D01*
Y33178D01*
X25079Y33165D01*
X25082Y33146D01*
X25090Y33121D01*
X25100Y33092D01*
X25118Y33061D01*
X25144Y33030D01*
X25178Y33001D01*
X25183Y32999D01*
X25196Y32991D01*
X25219Y32978D01*
X25250Y32965D01*
X25292Y32952D01*
X25341Y32939D01*
X25398Y32931D01*
X25465Y32929D01*
X25496D01*
X25514Y32931D01*
X25533Y32934D01*
X25574Y32939D01*
X25623Y32947D01*
X25670Y32960D01*
X25717Y32978D01*
X25758Y33004D01*
X25763Y33007D01*
X25774Y33017D01*
X25789Y33032D01*
X25805Y33056D01*
X25823Y33082D01*
X25838Y33113D01*
X25849Y33146D01*
X25854Y33185D01*
Y33191D01*
X25851Y33203D01*
X25849Y33222D01*
X25841Y33248D01*
X25831Y33273D01*
X25812Y33305D01*
X25789Y33336D01*
X25755Y33364D01*
X25750Y33367D01*
X25737Y33377D01*
X25714Y33387D01*
X25683Y33403D01*
X25641Y33416D01*
X25592Y33429D01*
X25533Y33437D01*
X25465Y33439D01*
D02*
G37*
G36*
X25470Y32209D02*
X25434D01*
X25416Y32206D01*
X25395D01*
X25349Y32201D01*
X25299Y32193D01*
X25245Y32180D01*
X25198Y32165D01*
X25175Y32154D01*
X25157Y32141D01*
X25152Y32139D01*
X25141Y32131D01*
X25126Y32115D01*
X25108Y32097D01*
X25090Y32074D01*
X25074Y32045D01*
X25064Y32014D01*
X25058Y31978D01*
Y31973D01*
X25061Y31962D01*
X25064Y31944D01*
X25071Y31921D01*
X25082Y31895D01*
X25100Y31869D01*
X25123Y31841D01*
X25154Y31815D01*
X25160Y31812D01*
X25172Y31804D01*
X25193Y31794D01*
X25224Y31784D01*
X25266Y31771D01*
X25315Y31760D01*
X25372Y31753D01*
X25439Y31750D01*
X25465D01*
X25496Y31753D01*
X25533D01*
X25571Y31758D01*
X25613Y31763D01*
X25654Y31768D01*
X25691Y31779D01*
X25693Y31781D01*
X25704Y31784D01*
X25719Y31791D01*
X25740Y31802D01*
X25761Y31815D01*
X25781Y31828D01*
X25802Y31846D01*
X25820Y31867D01*
X25823Y31869D01*
X25828Y31877D01*
X25833Y31890D01*
X25841Y31905D01*
X25851Y31924D01*
X25856Y31944D01*
X25862Y31965D01*
X25864Y31988D01*
Y31994D01*
X25862Y32004D01*
X25859Y32019D01*
X25851Y32043D01*
X25841Y32066D01*
X25825Y32092D01*
X25802Y32118D01*
X25771Y32144D01*
X25766Y32146D01*
X25753Y32154D01*
X25730Y32165D01*
X25698Y32178D01*
X25654Y32188D01*
X25603Y32198D01*
X25543Y32206D01*
X25470Y32209D01*
D02*
G37*
G36*
X27435Y34656D02*
X27337D01*
X27315Y34654D01*
X27289D01*
X27261Y34652D01*
X27232D01*
X27170Y34647D01*
X27139Y34645D01*
X27111Y34641D01*
X27083Y34638D01*
X27059Y34632D01*
X27039Y34626D01*
X27022Y34621D01*
X27019Y34619D01*
X27009Y34615D01*
X26998Y34608D01*
X26983Y34597D01*
X26969Y34584D01*
X26958Y34569D01*
X26948Y34550D01*
X26945Y34530D01*
Y34528D01*
X26946Y34521D01*
X26948Y34510D01*
X26954Y34497D01*
X26963Y34482D01*
X26978Y34465D01*
X26996Y34451D01*
X27022Y34438D01*
X27026Y34436D01*
X27032Y34434D01*
X27039Y34432D01*
X27048Y34430D01*
X27061Y34426D01*
X27078Y34425D01*
X27096Y34421D01*
X27119Y34417D01*
X27145Y34415D01*
X27174Y34412D01*
X27208Y34410D01*
X27245Y34408D01*
X27285Y34406D01*
X27332Y34404D01*
X27430D01*
X27452Y34406D01*
X27478D01*
X27506Y34408D01*
X27535D01*
X27596Y34412D01*
X27628Y34415D01*
X27656Y34419D01*
X27683Y34423D01*
X27707Y34426D01*
X27728Y34432D01*
X27744Y34438D01*
X27748Y34439D01*
X27756Y34443D01*
X27769Y34451D01*
X27782Y34462D01*
X27796Y34475D01*
X27809Y34491D01*
X27817Y34510D01*
X27820Y34530D01*
Y34532D01*
X27819Y34539D01*
X27817Y34550D01*
X27811Y34563D01*
X27802Y34578D01*
X27789Y34593D01*
X27770Y34608D01*
X27744Y34621D01*
X27743D01*
X27741Y34623D01*
X27735Y34625D01*
X27728Y34626D01*
X27719Y34628D01*
X27706Y34632D01*
X27689Y34636D01*
X27670Y34639D01*
X27648Y34641D01*
X27622Y34645D01*
X27593Y34649D01*
X27559Y34650D01*
X27522Y34652D01*
X27482Y34654D01*
X27435Y34656D01*
D02*
G37*
G36*
Y33060D02*
X27337D01*
X27315Y33058D01*
X27289D01*
X27261Y33056D01*
X27232D01*
X27170Y33051D01*
X27139Y33049D01*
X27111Y33045D01*
X27083Y33041D01*
X27059Y33036D01*
X27039Y33030D01*
X27022Y33025D01*
X27019Y33023D01*
X27009Y33019D01*
X26998Y33012D01*
X26983Y33001D01*
X26969Y32988D01*
X26958Y32973D01*
X26948Y32954D01*
X26945Y32934D01*
Y32932D01*
X26946Y32925D01*
X26948Y32914D01*
X26954Y32901D01*
X26963Y32886D01*
X26978Y32869D01*
X26996Y32854D01*
X27022Y32841D01*
X27026Y32840D01*
X27032Y32838D01*
X27039Y32836D01*
X27048Y32834D01*
X27061Y32830D01*
X27078Y32828D01*
X27096Y32825D01*
X27119Y32821D01*
X27145Y32819D01*
X27174Y32815D01*
X27208Y32814D01*
X27245Y32812D01*
X27285Y32810D01*
X27332Y32808D01*
X27430D01*
X27452Y32810D01*
X27478D01*
X27506Y32812D01*
X27535D01*
X27596Y32815D01*
X27628Y32819D01*
X27656Y32823D01*
X27683Y32827D01*
X27707Y32830D01*
X27728Y32836D01*
X27744Y32841D01*
X27748Y32843D01*
X27756Y32847D01*
X27769Y32854D01*
X27782Y32865D01*
X27796Y32878D01*
X27809Y32895D01*
X27817Y32914D01*
X27820Y32934D01*
Y32936D01*
X27819Y32943D01*
X27817Y32954D01*
X27811Y32967D01*
X27802Y32982D01*
X27789Y32997D01*
X27770Y33012D01*
X27744Y33025D01*
X27743D01*
X27741Y33027D01*
X27735Y33028D01*
X27728Y33030D01*
X27719Y33032D01*
X27706Y33036D01*
X27689Y33040D01*
X27670Y33043D01*
X27648Y33045D01*
X27622Y33049D01*
X27593Y33053D01*
X27559Y33054D01*
X27522Y33056D01*
X27482Y33058D01*
X27435Y33060D01*
D02*
G37*
G36*
X25465Y30988D02*
X25434D01*
X25419Y30986D01*
X25400Y30983D01*
X25359Y30978D01*
X25312Y30970D01*
X25263Y30955D01*
X25219Y30937D01*
X25178Y30911D01*
X25172Y30908D01*
X25162Y30898D01*
X25147Y30882D01*
X25126Y30861D01*
X25108Y30833D01*
X25092Y30804D01*
X25082Y30768D01*
X25077Y30732D01*
Y30727D01*
X25079Y30714D01*
X25082Y30696D01*
X25090Y30670D01*
X25100Y30641D01*
X25118Y30610D01*
X25144Y30579D01*
X25178Y30550D01*
X25183Y30548D01*
X25196Y30540D01*
X25219Y30527D01*
X25250Y30514D01*
X25292Y30501D01*
X25341Y30488D01*
X25398Y30481D01*
X25465Y30478D01*
X25496D01*
X25514Y30481D01*
X25533Y30483D01*
X25574Y30488D01*
X25623Y30496D01*
X25670Y30509D01*
X25717Y30527D01*
X25758Y30553D01*
X25763Y30556D01*
X25774Y30566D01*
X25789Y30582D01*
X25805Y30605D01*
X25823Y30631D01*
X25838Y30662D01*
X25849Y30696D01*
X25854Y30734D01*
Y30740D01*
X25851Y30753D01*
X25849Y30771D01*
X25841Y30797D01*
X25831Y30823D01*
X25812Y30854D01*
X25789Y30885D01*
X25755Y30913D01*
X25750Y30916D01*
X25737Y30926D01*
X25714Y30937D01*
X25683Y30952D01*
X25641Y30965D01*
X25592Y30978D01*
X25533Y30986D01*
X25465Y30988D01*
D02*
G37*
G36*
X25408Y27574D02*
X24758Y27374D01*
X25408Y27180D01*
Y27574D01*
D02*
G37*
G36*
X25447Y28936D02*
X25416D01*
X25398Y28934D01*
X25380D01*
X25336Y28929D01*
X25289Y28921D01*
X25240Y28908D01*
X25193Y28892D01*
X25154Y28869D01*
X25149Y28866D01*
X25139Y28856D01*
X25123Y28843D01*
X25105Y28822D01*
X25090Y28799D01*
X25074Y28771D01*
X25064Y28740D01*
X25058Y28703D01*
Y28698D01*
X25061Y28688D01*
X25064Y28670D01*
X25069Y28646D01*
X25082Y28623D01*
X25097Y28594D01*
X25121Y28569D01*
X25152Y28543D01*
X25157Y28540D01*
X25170Y28532D01*
X25191Y28522D01*
X25222Y28512D01*
X25263Y28499D01*
X25312Y28488D01*
X25372Y28480D01*
X25439Y28478D01*
X25473D01*
X25489Y28480D01*
X25509D01*
X25551Y28486D01*
X25600Y28493D01*
X25649Y28506D01*
X25696Y28522D01*
X25735Y28543D01*
X25737Y28545D01*
X25748Y28553D01*
X25763Y28569D01*
X25779Y28587D01*
X25797Y28610D01*
X25810Y28636D01*
X25820Y28664D01*
X25825Y28698D01*
Y28703D01*
X25823Y28714D01*
X25820Y28732D01*
X25812Y28755D01*
X25802Y28784D01*
X25787Y28809D01*
X25763Y28838D01*
X25732Y28866D01*
X25727Y28869D01*
X25714Y28877D01*
X25693Y28890D01*
X25662Y28903D01*
X25621Y28913D01*
X25571Y28926D01*
X25514Y28934D01*
X25447Y28936D01*
D02*
G37*
G36*
X88471Y21121D02*
X88463D01*
X88455Y21120D01*
X88444Y21118D01*
X88420Y21114D01*
X88409Y21108D01*
X88397Y21103D01*
X88396Y21101D01*
X88393Y21100D01*
X88387Y21096D01*
X88382Y21090D01*
X88376Y21083D01*
X88369Y21075D01*
X88363Y21065D01*
X88359Y21053D01*
Y21052D01*
X88358Y21048D01*
X88356Y21041D01*
X88355Y21029D01*
X88354Y21021D01*
Y21013D01*
X88352Y21001D01*
Y20990D01*
Y20976D01*
X88351Y20960D01*
Y20943D01*
Y20925D01*
Y20802D01*
X88593D01*
Y20918D01*
Y20919D01*
Y20922D01*
Y20928D01*
Y20935D01*
Y20943D01*
Y20953D01*
X88592Y20976D01*
Y20998D01*
X88589Y21021D01*
X88588Y21041D01*
X88586Y21048D01*
X88585Y21055D01*
Y21056D01*
X88583Y21060D01*
X88580Y21065D01*
X88576Y21072D01*
X88571Y21080D01*
X88565Y21087D01*
X88557Y21096D01*
X88547Y21103D01*
X88545Y21104D01*
X88541Y21106D01*
X88535Y21108D01*
X88526Y21113D01*
X88516Y21115D01*
X88502Y21118D01*
X88487Y21120D01*
X88471Y21121D01*
D02*
G37*
G36*
X11269Y14192D02*
X11166D01*
Y13561D01*
X11295D01*
X11308Y13562D01*
X11325D01*
X11343Y13564D01*
X11362Y13566D01*
X11379Y13571D01*
X11393Y13575D01*
X11394Y13576D01*
X11398Y13578D01*
X11404Y13580D01*
X11412Y13586D01*
X11431Y13599D01*
X11448Y13617D01*
X11449Y13618D01*
X11452Y13623D01*
X11456Y13630D01*
X11460Y13640D01*
X11466Y13652D01*
X11473Y13668D01*
X11479Y13688D01*
X11484Y13709D01*
Y13710D01*
X11486Y13712D01*
X11487Y13720D01*
X11490Y13734D01*
X11493Y13752D01*
X11496Y13776D01*
X11497Y13805D01*
X11500Y13837D01*
Y13874D01*
Y13875D01*
Y13878D01*
Y13884D01*
Y13891D01*
Y13900D01*
X11498Y13910D01*
Y13934D01*
X11496Y13961D01*
X11493Y13988D01*
X11490Y14016D01*
X11484Y14040D01*
Y14041D01*
Y14043D01*
X11481Y14050D01*
X11479Y14061D01*
X11473Y14075D01*
X11467Y14091D01*
X11459Y14108D01*
X11450Y14123D01*
X11439Y14137D01*
X11438Y14139D01*
X11433Y14143D01*
X11426Y14149D01*
X11418Y14157D01*
X11407Y14164D01*
X11394Y14173D01*
X11380Y14178D01*
X11364Y14184D01*
X11363D01*
X11357Y14185D01*
X11349Y14187D01*
X11336Y14188D01*
X11318Y14189D01*
X11297Y14191D01*
X11269Y14192D01*
D02*
G37*
G36*
X11995Y14204D02*
X11988D01*
X11979Y14202D01*
X11971Y14199D01*
X11959Y14194D01*
X11947Y14187D01*
X11935Y14177D01*
X11924Y14164D01*
X11923Y14163D01*
X11920Y14157D01*
X11916Y14147D01*
X11911Y14133D01*
X11906Y14115D01*
X11902Y14092D01*
X11899Y14065D01*
X11897Y14033D01*
Y14032D01*
Y14029D01*
Y14024D01*
Y14017D01*
X11899Y14002D01*
X11902Y13982D01*
X11904Y13960D01*
X11910Y13939D01*
X11917Y13917D01*
X11927Y13899D01*
X11928Y13898D01*
X11933Y13892D01*
X11940Y13886D01*
X11948Y13878D01*
X11959Y13871D01*
X11972Y13864D01*
X11986Y13858D01*
X12002Y13857D01*
X12009D01*
X12017Y13860D01*
X12027Y13862D01*
X12038Y13867D01*
X12051Y13874D01*
X12062Y13884D01*
X12075Y13896D01*
X12076Y13898D01*
X12079Y13903D01*
X12085Y13913D01*
X12090Y13927D01*
X12096Y13944D01*
X12102Y13965D01*
X12104Y13991D01*
X12106Y14019D01*
Y14020D01*
Y14023D01*
Y14027D01*
Y14033D01*
X12104Y14050D01*
X12102Y14070D01*
X12097Y14091D01*
X12090Y14115D01*
X12082Y14136D01*
X12071Y14156D01*
X12069Y14157D01*
X12065Y14163D01*
X12058Y14171D01*
X12048Y14180D01*
X12037Y14188D01*
X12024Y14196D01*
X12010Y14202D01*
X11995Y14204D01*
D02*
G37*
G36*
X88439Y37445D02*
X88432D01*
X88425Y37443D01*
X88416Y37442D01*
X88394Y37436D01*
X88383Y37432D01*
X88373Y37425D01*
X88372Y37423D01*
X88369Y37422D01*
X88365Y37418D01*
X88359Y37412D01*
X88348Y37398D01*
X88342Y37390D01*
X88339Y37380D01*
Y37378D01*
X88338Y37374D01*
X88337Y37366D01*
Y37359D01*
X88335Y37352D01*
Y37343D01*
Y37332D01*
X88334Y37319D01*
Y37305D01*
X88332Y37290D01*
Y37271D01*
Y37251D01*
Y37229D01*
Y37139D01*
X88551D01*
Y37242D01*
Y37243D01*
Y37246D01*
Y37250D01*
Y37257D01*
Y37273D01*
Y37292D01*
X88549Y37312D01*
Y37330D01*
Y37347D01*
X88548Y37353D01*
Y37359D01*
Y37360D01*
X88547Y37366D01*
X88545Y37373D01*
X88542Y37381D01*
X88538Y37391D01*
X88533Y37401D01*
X88524Y37412D01*
X88516Y37421D01*
X88514Y37422D01*
X88510Y37425D01*
X88504Y37428D01*
X88496Y37433D01*
X88485Y37438D01*
X88472Y37440D01*
X88456Y37443D01*
X88439Y37445D01*
D02*
G37*
G36*
X88841Y37473D02*
X88833D01*
X88824Y37471D01*
X88814Y37470D01*
X88802Y37467D01*
X88789Y37464D01*
X88776Y37459D01*
X88765Y37452D01*
X88764Y37450D01*
X88759Y37447D01*
X88755Y37443D01*
X88748Y37438D01*
X88741Y37431D01*
X88734Y37422D01*
X88728Y37411D01*
X88723Y37399D01*
Y37398D01*
X88721Y37392D01*
X88719Y37384D01*
X88716Y37371D01*
X88714Y37353D01*
X88712Y37329D01*
Y37316D01*
X88710Y37301D01*
Y37284D01*
Y37266D01*
Y37139D01*
X88965D01*
Y37284D01*
Y37285D01*
Y37288D01*
Y37292D01*
Y37299D01*
Y37316D01*
X88964Y37335D01*
X88962Y37356D01*
X88961Y37376D01*
X88958Y37394D01*
X88957Y37401D01*
X88955Y37407D01*
Y37408D01*
X88954Y37411D01*
X88951Y37416D01*
X88947Y37423D01*
X88941Y37431D01*
X88934Y37438D01*
X88926Y37446D01*
X88916Y37453D01*
X88915Y37454D01*
X88910Y37456D01*
X88905Y37459D01*
X88895Y37463D01*
X88885Y37467D01*
X88872Y37470D01*
X88857Y37471D01*
X88841Y37473D01*
D02*
G37*
G36*
X7183Y43690D02*
X7108D01*
X7097Y43688D01*
X7068D01*
X7037Y43685D01*
X7005Y43681D01*
X6972Y43678D01*
X6944Y43671D01*
X6940D01*
X6932Y43668D01*
X6919Y43665D01*
X6902Y43658D01*
X6884Y43651D01*
X6864Y43641D01*
X6845Y43631D01*
X6829Y43618D01*
X6827Y43616D01*
X6822Y43611D01*
X6815Y43603D01*
X6805Y43593D01*
X6797Y43580D01*
X6787Y43565D01*
X6780Y43548D01*
X6774Y43530D01*
Y43528D01*
X6772Y43521D01*
X6770Y43511D01*
X6769Y43496D01*
X6767Y43475D01*
X6765Y43450D01*
X6764Y43416D01*
Y43398D01*
Y43378D01*
Y43295D01*
X7510D01*
Y43433D01*
Y43435D01*
Y43436D01*
Y43441D01*
Y43448D01*
X7508Y43463D01*
Y43483D01*
X7507Y43505D01*
X7503Y43526D01*
X7498Y43546D01*
X7493Y43563D01*
X7492Y43565D01*
X7490Y43570D01*
X7487Y43576D01*
X7480Y43586D01*
X7465Y43608D01*
X7443Y43628D01*
X7442Y43630D01*
X7437Y43633D01*
X7428Y43638D01*
X7417Y43643D01*
X7402Y43650D01*
X7383Y43658D01*
X7360Y43665D01*
X7335Y43671D01*
X7333D01*
X7332Y43673D01*
X7322Y43675D01*
X7305Y43678D01*
X7283Y43681D01*
X7255Y43685D01*
X7222Y43686D01*
X7183Y43690D01*
D02*
G37*
G36*
X7255Y44531D02*
X6837Y44403D01*
X7255Y44278D01*
Y44531D01*
D02*
G37*
G36*
X16087Y15104D02*
X16085D01*
X16080Y15102D01*
X16071Y15101D01*
X16061Y15096D01*
X16050Y15089D01*
X16037Y15078D01*
X16026Y15064D01*
X16016Y15044D01*
X16015Y15042D01*
X16013Y15037D01*
X16012Y15032D01*
X16011Y15025D01*
X16008Y15015D01*
X16006Y15002D01*
X16003Y14988D01*
X16001Y14971D01*
X15999Y14951D01*
X15996Y14929D01*
X15995Y14903D01*
X15994Y14875D01*
X15992Y14844D01*
X15991Y14809D01*
Y14769D01*
Y14767D01*
Y14760D01*
Y14750D01*
Y14734D01*
X15992Y14717D01*
Y14698D01*
X15994Y14676D01*
Y14654D01*
X15996Y14607D01*
X15999Y14583D01*
X16002Y14562D01*
X16005Y14541D01*
X16008Y14523D01*
X16012Y14507D01*
X16016Y14495D01*
X16018Y14492D01*
X16020Y14486D01*
X16026Y14476D01*
X16035Y14466D01*
X16044Y14455D01*
X16057Y14445D01*
X16071Y14440D01*
X16087Y14437D01*
X16088D01*
X16094Y14438D01*
X16102Y14440D01*
X16112Y14444D01*
X16123Y14451D01*
X16135Y14461D01*
X16146Y14475D01*
X16156Y14495D01*
Y14496D01*
X16157Y14497D01*
X16159Y14502D01*
X16160Y14507D01*
X16161Y14514D01*
X16164Y14524D01*
X16167Y14537D01*
X16170Y14551D01*
X16171Y14568D01*
X16174Y14588D01*
X16177Y14610D01*
X16178Y14636D01*
X16180Y14664D01*
X16181Y14695D01*
X16183Y14730D01*
Y14769D01*
Y14772D01*
Y14779D01*
Y14791D01*
Y14805D01*
X16181Y14822D01*
Y14841D01*
X16180Y14862D01*
Y14885D01*
X16175Y14932D01*
X16174Y14956D01*
X16171Y14977D01*
X16168Y14998D01*
X16164Y15016D01*
X16160Y15032D01*
X16156Y15044D01*
X16154Y15047D01*
X16152Y15054D01*
X16146Y15063D01*
X16137Y15074D01*
X16128Y15085D01*
X16116Y15094D01*
X16102Y15101D01*
X16087Y15104D01*
D02*
G37*
G36*
X9298Y53419D02*
X8973D01*
X9298Y53238D01*
Y53419D01*
D02*
G37*
G36*
X88471Y40721D02*
X88463D01*
X88455Y40720D01*
X88444Y40718D01*
X88420Y40714D01*
X88409Y40708D01*
X88397Y40703D01*
X88396Y40701D01*
X88393Y40700D01*
X88387Y40696D01*
X88382Y40690D01*
X88376Y40683D01*
X88369Y40675D01*
X88363Y40665D01*
X88359Y40653D01*
Y40652D01*
X88358Y40648D01*
X88356Y40641D01*
X88355Y40629D01*
X88354Y40621D01*
Y40612D01*
X88352Y40601D01*
Y40590D01*
Y40576D01*
X88351Y40560D01*
Y40543D01*
Y40525D01*
Y40402D01*
X88593D01*
Y40518D01*
Y40519D01*
Y40522D01*
Y40528D01*
Y40535D01*
Y40543D01*
Y40553D01*
X88592Y40576D01*
Y40598D01*
X88589Y40621D01*
X88588Y40641D01*
X88586Y40648D01*
X88585Y40655D01*
Y40656D01*
X88583Y40660D01*
X88580Y40665D01*
X88576Y40672D01*
X88571Y40680D01*
X88565Y40687D01*
X88557Y40696D01*
X88547Y40703D01*
X88545Y40704D01*
X88541Y40706D01*
X88535Y40708D01*
X88526Y40713D01*
X88516Y40715D01*
X88502Y40718D01*
X88487Y40720D01*
X88471Y40721D01*
D02*
G37*
G36*
X88767Y42662D02*
X88413Y42554D01*
X88767Y42448D01*
Y42662D01*
D02*
G37*
G36*
X88439Y16945D02*
X88432D01*
X88425Y16943D01*
X88416Y16942D01*
X88394Y16936D01*
X88383Y16932D01*
X88373Y16925D01*
X88372Y16923D01*
X88369Y16922D01*
X88365Y16918D01*
X88359Y16912D01*
X88348Y16898D01*
X88342Y16890D01*
X88339Y16880D01*
Y16878D01*
X88338Y16874D01*
X88337Y16866D01*
Y16859D01*
X88335Y16852D01*
Y16843D01*
Y16832D01*
X88334Y16819D01*
Y16805D01*
X88332Y16790D01*
Y16771D01*
Y16751D01*
Y16729D01*
Y16639D01*
X88551D01*
Y16742D01*
Y16743D01*
Y16746D01*
Y16750D01*
Y16757D01*
Y16773D01*
Y16792D01*
X88549Y16812D01*
Y16830D01*
Y16847D01*
X88548Y16853D01*
Y16859D01*
Y16860D01*
X88547Y16866D01*
X88545Y16873D01*
X88542Y16881D01*
X88538Y16891D01*
X88533Y16901D01*
X88524Y16912D01*
X88516Y16921D01*
X88514Y16922D01*
X88510Y16925D01*
X88504Y16928D01*
X88496Y16933D01*
X88485Y16938D01*
X88472Y16940D01*
X88456Y16943D01*
X88439Y16945D01*
D02*
G37*
G36*
X88841Y16973D02*
X88833D01*
X88824Y16971D01*
X88814Y16970D01*
X88802Y16967D01*
X88789Y16964D01*
X88776Y16959D01*
X88765Y16952D01*
X88764Y16950D01*
X88759Y16947D01*
X88755Y16943D01*
X88748Y16938D01*
X88741Y16931D01*
X88734Y16922D01*
X88728Y16911D01*
X88723Y16899D01*
Y16898D01*
X88721Y16892D01*
X88719Y16884D01*
X88716Y16871D01*
X88714Y16853D01*
X88712Y16829D01*
Y16816D01*
X88710Y16801D01*
Y16784D01*
Y16766D01*
Y16639D01*
X88965D01*
Y16784D01*
Y16785D01*
Y16788D01*
Y16792D01*
Y16799D01*
Y16816D01*
X88964Y16835D01*
X88962Y16856D01*
X88961Y16876D01*
X88958Y16894D01*
X88957Y16901D01*
X88955Y16907D01*
Y16908D01*
X88954Y16911D01*
X88951Y16916D01*
X88947Y16923D01*
X88941Y16931D01*
X88934Y16938D01*
X88926Y16946D01*
X88916Y16953D01*
X88915Y16954D01*
X88910Y16956D01*
X88905Y16959D01*
X88895Y16963D01*
X88885Y16967D01*
X88872Y16970D01*
X88857Y16971D01*
X88841Y16973D01*
D02*
G37*
G36*
X88454Y14956D02*
X88447D01*
X88438Y14954D01*
X88427Y14953D01*
X88403Y14948D01*
X88392Y14943D01*
X88380Y14937D01*
X88379Y14936D01*
X88376Y14934D01*
X88370Y14930D01*
X88365Y14925D01*
X88359Y14917D01*
X88352Y14909D01*
X88346Y14899D01*
X88342Y14888D01*
Y14886D01*
X88341Y14882D01*
X88339Y14875D01*
X88338Y14864D01*
X88337Y14855D01*
Y14847D01*
X88335Y14836D01*
Y14824D01*
Y14810D01*
X88334Y14795D01*
Y14778D01*
Y14760D01*
Y14637D01*
X88576D01*
Y14753D01*
Y14754D01*
Y14757D01*
Y14762D01*
Y14769D01*
Y14778D01*
Y14788D01*
X88575Y14810D01*
Y14833D01*
X88572Y14855D01*
X88571Y14875D01*
X88569Y14882D01*
X88568Y14889D01*
Y14891D01*
X88566Y14895D01*
X88564Y14899D01*
X88559Y14906D01*
X88554Y14915D01*
X88548Y14922D01*
X88540Y14930D01*
X88530Y14937D01*
X88528Y14939D01*
X88524Y14940D01*
X88518Y14943D01*
X88509Y14947D01*
X88499Y14950D01*
X88485Y14953D01*
X88470Y14954D01*
X88454Y14956D01*
D02*
G37*
G36*
Y35456D02*
X88447D01*
X88438Y35454D01*
X88427Y35453D01*
X88403Y35448D01*
X88392Y35443D01*
X88380Y35437D01*
X88379Y35436D01*
X88376Y35434D01*
X88370Y35430D01*
X88365Y35424D01*
X88359Y35417D01*
X88352Y35409D01*
X88346Y35399D01*
X88342Y35388D01*
Y35386D01*
X88341Y35382D01*
X88339Y35375D01*
X88338Y35364D01*
X88337Y35355D01*
Y35347D01*
X88335Y35336D01*
Y35324D01*
Y35310D01*
X88334Y35295D01*
Y35278D01*
Y35260D01*
Y35137D01*
X88576D01*
Y35253D01*
Y35254D01*
Y35257D01*
Y35262D01*
Y35269D01*
Y35278D01*
Y35288D01*
X88575Y35310D01*
Y35333D01*
X88572Y35355D01*
X88571Y35375D01*
X88569Y35382D01*
X88568Y35389D01*
Y35391D01*
X88566Y35395D01*
X88564Y35399D01*
X88559Y35406D01*
X88554Y35415D01*
X88548Y35422D01*
X88540Y35430D01*
X88530Y35437D01*
X88528Y35439D01*
X88524Y35440D01*
X88518Y35443D01*
X88509Y35447D01*
X88499Y35450D01*
X88485Y35453D01*
X88470Y35454D01*
X88454Y35456D01*
D02*
G37*
G36*
X88767Y23062D02*
X88413Y22954D01*
X88767Y22848D01*
Y23062D01*
D02*
G37*
%LPD*%
D13*
X6250Y3500D02*
G03*
X6250Y3500I-2750J0D01*
G01*
X64250D02*
G03*
X64250Y3500I-2750J0D01*
G01*
Y52500D02*
G03*
X64250Y52500I-2750J0D01*
G01*
X6250D02*
G03*
X6250Y52500I-2750J0D01*
G01*
X72900Y27550D02*
Y42650D01*
X64400Y42650D02*
X72900Y42650D01*
X64400Y27550D02*
Y42650D01*
Y27550D02*
X72900Y27550D01*
X65750Y39500D02*
Y40900D01*
X65050Y40200D02*
X66350D01*
X65200Y15100D02*
X66500Y15100D01*
X65800Y14400D02*
X65800Y15800D01*
X64400Y27250D02*
X72900Y27250D01*
X72900Y12150D01*
X64400Y12150D02*
X72900Y12150D01*
X64400Y12150D02*
X64400Y27250D01*
X36900Y5786D02*
Y50286D01*
X58900D01*
Y5786D02*
Y50286D01*
X36900Y5786D02*
X58900D01*
X36867Y1864D02*
Y5750D01*
Y1864D02*
X36867Y1864D01*
X41167D01*
Y5750D01*
X58867Y1864D02*
Y5750D01*
X54567Y1864D02*
X58867D01*
X54567Y1864D02*
X54567Y1864D01*
X54567Y1864D02*
Y5750D01*
X41167Y50250D02*
Y55150D01*
X36867D02*
X41167D01*
X36867Y50250D02*
Y55150D01*
X54567Y50250D02*
Y55150D01*
Y50250D02*
X54567Y50250D01*
Y55150D02*
X58867D01*
Y50250D02*
Y55150D01*
D63*
X36300Y6300D02*
G03*
X36300Y6300I-6000J0D01*
G01*
X22500Y14025D02*
X22500Y8525D01*
X14500Y14025D02*
X22500Y14025D01*
X14500Y8525D02*
X22500Y8525D01*
X14500Y8525D02*
X14500Y14025D01*
X34245Y5225D02*
X35745D01*
X34995Y4475D02*
Y5919D01*
X1700Y35536D02*
X4100D01*
X1700Y20536D02*
Y35536D01*
Y20536D02*
X4100D01*
Y35536D01*
X8050Y42250D02*
X8050Y51950D01*
X10250Y51950D01*
X8050Y42250D02*
X10250Y42250D01*
Y51950D01*
X11250Y42250D02*
Y50250D01*
Y42250D02*
X32050D01*
X11250Y50250D02*
X32050D01*
Y42250D02*
Y50250D01*
D64*
X9900Y13927D02*
G03*
X9900Y13927I-2500J0D01*
G01*
D65*
X22450Y300D02*
Y6300D01*
X11950D02*
X22450D01*
X11950Y300D02*
Y6300D01*
Y300D02*
X22450D01*
X79176Y43336D02*
X87876Y43336D01*
X79176Y32386D02*
X79176Y43336D01*
X87876Y33886D02*
X87876Y43336D01*
X87876Y33886D02*
X87876Y23486D01*
X79176Y21986D02*
X79176Y32386D01*
X79176Y21986D02*
X79176Y12136D01*
X87876Y12136D01*
X87876Y23486D01*
D66*
X87843Y38264D02*
X89543D01*
X87893Y18064D02*
X89493D01*
X87843Y24064D02*
X89443D01*
X87843Y32964D02*
X89443D01*
X87843Y28064D02*
X89543D01*
X87843Y43300D02*
X89507D01*
X89543Y43264D01*
Y12100D02*
Y43264D01*
X87843Y12100D02*
X89543D01*
X22100Y35425D02*
X29000Y35425D01*
X29000Y26164D02*
X29000Y35425D01*
X22100Y26164D02*
X29000Y26164D01*
X22100Y26164D02*
X22100Y35425D01*
D67*
X3200Y13800D02*
X4600Y13800D01*
X3900Y13100D02*
Y14500D01*
D68*
X800Y34250D02*
D03*
X7200Y50850D02*
D03*
D69*
X16100Y33600D02*
D03*
D70*
X33650Y48750D02*
D03*
M02*
