G04 Layer_Color=16711935*
%FSLAX43Y43*%
%MOMM*%
G71*
G01*
G75*
%ADD74C,2.000*%
%ADD75C,2.103*%
G04:AMPARAMS|DCode=76|XSize=2mm|YSize=1.3mm|CornerRadius=0.41mm|HoleSize=0mm|Usage=FLASHONLY|Rotation=270.000|XOffset=0mm|YOffset=0mm|HoleType=Round|Shape=RoundedRectangle|*
%AMROUNDEDRECTD76*
21,1,2.000,0.480,0,0,270.0*
21,1,1.180,1.300,0,0,270.0*
1,1,0.820,-0.240,-0.590*
1,1,0.820,-0.240,0.590*
1,1,0.820,0.240,0.590*
1,1,0.820,0.240,-0.590*
%
%ADD76ROUNDEDRECTD76*%
%ADD77O,1.150X1.350*%
%ADD78R,1.800X1.800*%
%ADD79C,1.800*%
%ADD80C,1.500*%
%ADD81R,2.000X2.000*%
%ADD82C,0.100*%
%ADD83C,2.300*%
%ADD84R,2.300X2.300*%
%ADD85R,2.000X2.000*%
%ADD86C,1.751*%
%ADD87R,1.751X1.751*%
%ADD88C,0.800*%
G04:AMPARAMS|DCode=89|XSize=1.1mm|YSize=1.5mm|CornerRadius=0.175mm|HoleSize=0mm|Usage=FLASHONLY|Rotation=90.000|XOffset=0mm|YOffset=0mm|HoleType=Round|Shape=RoundedRectangle|*
%AMROUNDEDRECTD89*
21,1,1.100,1.150,0,0,90.0*
21,1,0.750,1.500,0,0,90.0*
1,1,0.350,0.575,0.375*
1,1,0.350,0.575,-0.375*
1,1,0.350,-0.575,-0.375*
1,1,0.350,-0.575,0.375*
%
%ADD89ROUNDEDRECTD89*%
G04:AMPARAMS|DCode=90|XSize=1.7mm|YSize=3.1mm|CornerRadius=0.25mm|HoleSize=0mm|Usage=FLASHONLY|Rotation=90.000|XOffset=0mm|YOffset=0mm|HoleType=Round|Shape=RoundedRectangle|*
%AMROUNDEDRECTD90*
21,1,1.700,2.600,0,0,90.0*
21,1,1.200,3.100,0,0,90.0*
1,1,0.500,1.300,0.600*
1,1,0.500,1.300,-0.600*
1,1,0.500,-1.300,-0.600*
1,1,0.500,-1.300,0.600*
%
%ADD90ROUNDEDRECTD90*%
G04:AMPARAMS|DCode=91|XSize=6.8mm|YSize=6.8mm|CornerRadius=0.887mm|HoleSize=0mm|Usage=FLASHONLY|Rotation=90.000|XOffset=0mm|YOffset=0mm|HoleType=Round|Shape=RoundedRectangle|*
%AMROUNDEDRECTD91*
21,1,6.800,5.025,0,0,90.0*
21,1,5.025,6.800,0,0,90.0*
1,1,1.775,2.513,2.513*
1,1,1.775,2.513,-2.513*
1,1,1.775,-2.513,-2.513*
1,1,1.775,-2.513,2.513*
%
%ADD91ROUNDEDRECTD91*%
%ADD92R,2.780X2.780*%
%ADD93O,0.700X0.300*%
%ADD94O,0.300X0.700*%
G04:AMPARAMS|DCode=95|XSize=5.6mm|YSize=2.1mm|CornerRadius=0.3mm|HoleSize=0mm|Usage=FLASHONLY|Rotation=90.000|XOffset=0mm|YOffset=0mm|HoleType=Round|Shape=RoundedRectangle|*
%AMROUNDEDRECTD95*
21,1,5.600,1.500,0,0,90.0*
21,1,5.000,2.100,0,0,90.0*
1,1,0.600,0.750,2.500*
1,1,0.600,0.750,-2.500*
1,1,0.600,-0.750,-2.500*
1,1,0.600,-0.750,2.500*
%
%ADD95ROUNDEDRECTD95*%
G04:AMPARAMS|DCode=96|XSize=1.04mm|YSize=1.13mm|CornerRadius=0.168mm|HoleSize=0mm|Usage=FLASHONLY|Rotation=180.000|XOffset=0mm|YOffset=0mm|HoleType=Round|Shape=RoundedRectangle|*
%AMROUNDEDRECTD96*
21,1,1.040,0.795,0,0,180.0*
21,1,0.705,1.130,0,0,180.0*
1,1,0.335,-0.352,0.398*
1,1,0.335,0.352,0.398*
1,1,0.335,0.352,-0.398*
1,1,0.335,-0.352,-0.398*
%
%ADD96ROUNDEDRECTD96*%
G04:AMPARAMS|DCode=97|XSize=1.04mm|YSize=1.13mm|CornerRadius=0.168mm|HoleSize=0mm|Usage=FLASHONLY|Rotation=90.000|XOffset=0mm|YOffset=0mm|HoleType=Round|Shape=RoundedRectangle|*
%AMROUNDEDRECTD97*
21,1,1.040,0.795,0,0,90.0*
21,1,0.705,1.130,0,0,90.0*
1,1,0.335,0.398,0.352*
1,1,0.335,0.398,-0.352*
1,1,0.335,-0.398,-0.352*
1,1,0.335,-0.398,0.352*
%
%ADD97ROUNDEDRECTD97*%
G04:AMPARAMS|DCode=98|XSize=0.81mm|YSize=2.29mm|CornerRadius=0.139mm|HoleSize=0mm|Usage=FLASHONLY|Rotation=0.000|XOffset=0mm|YOffset=0mm|HoleType=Round|Shape=RoundedRectangle|*
%AMROUNDEDRECTD98*
21,1,0.810,2.013,0,0,0.0*
21,1,0.532,2.290,0,0,0.0*
1,1,0.278,0.266,-1.006*
1,1,0.278,-0.266,-1.006*
1,1,0.278,-0.266,1.006*
1,1,0.278,0.266,1.006*
%
%ADD98ROUNDEDRECTD98*%
%ADD99R,16.750X6.450*%
G04:AMPARAMS|DCode=100|XSize=1.57mm|YSize=0.51mm|CornerRadius=0.101mm|HoleSize=0mm|Usage=FLASHONLY|Rotation=270.000|XOffset=0mm|YOffset=0mm|HoleType=Round|Shape=RoundedRectangle|*
%AMROUNDEDRECTD100*
21,1,1.570,0.307,0,0,270.0*
21,1,1.367,0.510,0,0,270.0*
1,1,0.203,-0.154,-0.684*
1,1,0.203,-0.154,0.684*
1,1,0.203,0.154,0.684*
1,1,0.203,0.154,-0.684*
%
%ADD100ROUNDEDRECTD100*%
G04:AMPARAMS|DCode=101|XSize=1.86mm|YSize=2.92mm|CornerRadius=0.27mm|HoleSize=0mm|Usage=FLASHONLY|Rotation=0.000|XOffset=0mm|YOffset=0mm|HoleType=Round|Shape=RoundedRectangle|*
%AMROUNDEDRECTD101*
21,1,1.860,2.380,0,0,0.0*
21,1,1.320,2.920,0,0,0.0*
1,1,0.540,0.660,-1.190*
1,1,0.540,-0.660,-1.190*
1,1,0.540,-0.660,1.190*
1,1,0.540,0.660,1.190*
%
%ADD101ROUNDEDRECTD101*%
G04:AMPARAMS|DCode=102|XSize=1.86mm|YSize=2.92mm|CornerRadius=0.27mm|HoleSize=0mm|Usage=FLASHONLY|Rotation=270.000|XOffset=0mm|YOffset=0mm|HoleType=Round|Shape=RoundedRectangle|*
%AMROUNDEDRECTD102*
21,1,1.860,2.380,0,0,270.0*
21,1,1.320,2.920,0,0,270.0*
1,1,0.540,-1.190,-0.660*
1,1,0.540,-1.190,0.660*
1,1,0.540,1.190,0.660*
1,1,0.540,1.190,-0.660*
%
%ADD102ROUNDEDRECTD102*%
G04:AMPARAMS|DCode=103|XSize=1.31mm|YSize=1.56mm|CornerRadius=0.201mm|HoleSize=0mm|Usage=FLASHONLY|Rotation=90.000|XOffset=0mm|YOffset=0mm|HoleType=Round|Shape=RoundedRectangle|*
%AMROUNDEDRECTD103*
21,1,1.310,1.157,0,0,90.0*
21,1,0.907,1.560,0,0,90.0*
1,1,0.403,0.579,0.454*
1,1,0.403,0.579,-0.454*
1,1,0.403,-0.579,-0.454*
1,1,0.403,-0.579,0.454*
%
%ADD103ROUNDEDRECTD103*%
G04:AMPARAMS|DCode=104|XSize=1.84mm|YSize=2.27mm|CornerRadius=0.268mm|HoleSize=0mm|Usage=FLASHONLY|Rotation=0.000|XOffset=0mm|YOffset=0mm|HoleType=Round|Shape=RoundedRectangle|*
%AMROUNDEDRECTD104*
21,1,1.840,1.735,0,0,0.0*
21,1,1.305,2.270,0,0,0.0*
1,1,0.535,0.652,-0.868*
1,1,0.535,-0.652,-0.868*
1,1,0.535,-0.652,0.868*
1,1,0.535,0.652,0.868*
%
%ADD104ROUNDEDRECTD104*%
G04:AMPARAMS|DCode=105|XSize=1.84mm|YSize=2.27mm|CornerRadius=0.268mm|HoleSize=0mm|Usage=FLASHONLY|Rotation=270.000|XOffset=0mm|YOffset=0mm|HoleType=Round|Shape=RoundedRectangle|*
%AMROUNDEDRECTD105*
21,1,1.840,1.735,0,0,270.0*
21,1,1.305,2.270,0,0,270.0*
1,1,0.535,-0.868,-0.652*
1,1,0.535,-0.868,0.652*
1,1,0.535,0.868,0.652*
1,1,0.535,0.868,-0.652*
%
%ADD105ROUNDEDRECTD105*%
G04:AMPARAMS|DCode=106|XSize=1.38mm|YSize=1.97mm|CornerRadius=0.21mm|HoleSize=0mm|Usage=FLASHONLY|Rotation=180.000|XOffset=0mm|YOffset=0mm|HoleType=Round|Shape=RoundedRectangle|*
%AMROUNDEDRECTD106*
21,1,1.380,1.550,0,0,180.0*
21,1,0.960,1.970,0,0,180.0*
1,1,0.420,-0.480,0.775*
1,1,0.420,0.480,0.775*
1,1,0.420,0.480,-0.775*
1,1,0.420,-0.480,-0.775*
%
%ADD106ROUNDEDRECTD106*%
G04:AMPARAMS|DCode=107|XSize=1.15mm|YSize=1.17mm|CornerRadius=0.181mm|HoleSize=0mm|Usage=FLASHONLY|Rotation=180.000|XOffset=0mm|YOffset=0mm|HoleType=Round|Shape=RoundedRectangle|*
%AMROUNDEDRECTD107*
21,1,1.150,0.807,0,0,180.0*
21,1,0.787,1.170,0,0,180.0*
1,1,0.362,-0.394,0.404*
1,1,0.362,0.394,0.404*
1,1,0.362,0.394,-0.404*
1,1,0.362,-0.394,-0.404*
%
%ADD107ROUNDEDRECTD107*%
G04:AMPARAMS|DCode=108|XSize=3.37mm|YSize=1.95mm|CornerRadius=0.281mm|HoleSize=0mm|Usage=FLASHONLY|Rotation=180.000|XOffset=0mm|YOffset=0mm|HoleType=Round|Shape=RoundedRectangle|*
%AMROUNDEDRECTD108*
21,1,3.370,1.387,0,0,180.0*
21,1,2.808,1.950,0,0,180.0*
1,1,0.563,-1.404,0.694*
1,1,0.563,1.404,0.694*
1,1,0.563,1.404,-0.694*
1,1,0.563,-1.404,-0.694*
%
%ADD108ROUNDEDRECTD108*%
G04:AMPARAMS|DCode=109|XSize=1.07mm|YSize=1.95mm|CornerRadius=0.171mm|HoleSize=0mm|Usage=FLASHONLY|Rotation=180.000|XOffset=0mm|YOffset=0mm|HoleType=Round|Shape=RoundedRectangle|*
%AMROUNDEDRECTD109*
21,1,1.070,1.607,0,0,180.0*
21,1,0.728,1.950,0,0,180.0*
1,1,0.343,-0.364,0.804*
1,1,0.343,0.364,0.804*
1,1,0.343,0.364,-0.804*
1,1,0.343,-0.364,-0.804*
%
%ADD109ROUNDEDRECTD109*%
G04:AMPARAMS|DCode=110|XSize=0.71mm|YSize=1.36mm|CornerRadius=0.126mm|HoleSize=0mm|Usage=FLASHONLY|Rotation=0.000|XOffset=0mm|YOffset=0mm|HoleType=Round|Shape=RoundedRectangle|*
%AMROUNDEDRECTD110*
21,1,0.710,1.107,0,0,0.0*
21,1,0.458,1.360,0,0,0.0*
1,1,0.253,0.229,-0.554*
1,1,0.253,-0.229,-0.554*
1,1,0.253,-0.229,0.554*
1,1,0.253,0.229,0.554*
%
%ADD110ROUNDEDRECTD110*%
G04:AMPARAMS|DCode=111|XSize=1.02mm|YSize=1.18mm|CornerRadius=0.165mm|HoleSize=0mm|Usage=FLASHONLY|Rotation=0.000|XOffset=0mm|YOffset=0mm|HoleType=Round|Shape=RoundedRectangle|*
%AMROUNDEDRECTD111*
21,1,1.020,0.850,0,0,0.0*
21,1,0.690,1.180,0,0,0.0*
1,1,0.330,0.345,-0.425*
1,1,0.330,-0.345,-0.425*
1,1,0.330,-0.345,0.425*
1,1,0.330,0.345,0.425*
%
%ADD111ROUNDEDRECTD111*%
G04:AMPARAMS|DCode=112|XSize=1.02mm|YSize=1.18mm|CornerRadius=0.165mm|HoleSize=0mm|Usage=FLASHONLY|Rotation=90.000|XOffset=0mm|YOffset=0mm|HoleType=Round|Shape=RoundedRectangle|*
%AMROUNDEDRECTD112*
21,1,1.020,0.850,0,0,90.0*
21,1,0.690,1.180,0,0,90.0*
1,1,0.330,0.425,0.345*
1,1,0.330,0.425,-0.345*
1,1,0.330,-0.425,-0.345*
1,1,0.330,-0.425,0.345*
%
%ADD112ROUNDEDRECTD112*%
%ADD113O,1.750X0.650*%
%ADD114O,0.650X1.750*%
D74*
X70400Y41400D02*
D03*
X66900Y13400D02*
D03*
X56400Y47786D02*
D03*
X39400D02*
D03*
X56400Y8286D02*
D03*
X39400D02*
D03*
X2900Y34391D02*
D03*
Y26771D02*
D03*
Y24231D02*
D03*
Y31851D02*
D03*
X9150Y45890D02*
D03*
X9150Y48430D02*
D03*
X85976Y29286D02*
D03*
Y26786D02*
D03*
Y19286D02*
D03*
Y16786D02*
D03*
Y39286D02*
D03*
Y36786D02*
D03*
X15290Y43750D02*
D03*
X17830D02*
D03*
X20370Y46290D02*
D03*
X17830D02*
D03*
X15290D02*
D03*
X12750D02*
D03*
Y48830D02*
D03*
X15290D02*
D03*
X17830D02*
D03*
X20370D02*
D03*
X27990D02*
D03*
X30530D02*
D03*
X25450D02*
D03*
X22910D02*
D03*
Y46290D02*
D03*
X25450D02*
D03*
X30530D02*
D03*
X27990D02*
D03*
Y43750D02*
D03*
X30530D02*
D03*
X25450D02*
D03*
X22910D02*
D03*
D75*
X66900Y41400D02*
D03*
X70400Y13400D02*
D03*
X2900Y29311D02*
D03*
X9150Y43350D02*
D03*
X20370Y43750D02*
D03*
D76*
X21375Y2300D02*
D03*
X13025Y2300D02*
D03*
D77*
X14975Y5300D02*
D03*
X19425D02*
D03*
D78*
X21040Y12575D02*
D03*
D79*
X18500D02*
D03*
X15960D02*
D03*
X15960Y10035D02*
D03*
X18500Y10035D02*
D03*
X21040Y10035D02*
D03*
D80*
X34100Y6300D02*
D03*
X26500D02*
D03*
D81*
X2900Y21691D02*
D03*
X9150Y50970D02*
D03*
D82*
X3500Y3500D02*
D03*
Y52500D02*
D03*
X61500D02*
D03*
Y3500D02*
D03*
D83*
X83576Y20536D02*
D03*
X83576Y30536D02*
D03*
X83576Y35536D02*
D03*
X83576Y25536D02*
D03*
Y15536D02*
D03*
D84*
Y40536D02*
D03*
D85*
X12750Y43750D02*
D03*
D86*
X8670Y13800D02*
D03*
D87*
X6130D02*
D03*
D88*
X51467Y28664D02*
D03*
X50767Y28664D02*
D03*
X52167Y28664D02*
D03*
X51467Y27964D02*
D03*
X50767Y27964D02*
D03*
X52167Y27964D02*
D03*
X51467Y27264D02*
D03*
X50767Y27264D02*
D03*
X52167Y27264D02*
D03*
X51467Y26564D02*
D03*
X50767Y26564D02*
D03*
X52167Y26564D02*
D03*
Y25164D02*
D03*
Y25864D02*
D03*
X50767Y25864D02*
D03*
X51467Y25864D02*
D03*
X50767Y25164D02*
D03*
X51467Y25164D02*
D03*
X52167Y29364D02*
D03*
X50767Y29364D02*
D03*
X51467Y29364D02*
D03*
X52167Y30064D02*
D03*
X50767Y30064D02*
D03*
X51467Y30064D02*
D03*
X52167Y30764D02*
D03*
X50767Y30764D02*
D03*
X51467Y30764D02*
D03*
X52867Y30764D02*
D03*
Y30064D02*
D03*
Y29364D02*
D03*
Y25164D02*
D03*
Y25864D02*
D03*
Y26564D02*
D03*
Y27264D02*
D03*
Y27964D02*
D03*
Y28664D02*
D03*
D89*
X29100Y2900D02*
D03*
X31300Y1950D02*
D03*
Y3850D02*
D03*
D90*
X69850Y25700D02*
D03*
Y30300D02*
D03*
D91*
X77852Y28000D02*
D03*
D92*
X10300Y9800D02*
D03*
D93*
X12250Y8550D02*
D03*
Y9050D02*
D03*
Y9550D02*
D03*
Y10050D02*
D03*
Y10550D02*
D03*
Y11050D02*
D03*
X8350D02*
D03*
Y10550D02*
D03*
Y10050D02*
D03*
Y9550D02*
D03*
Y9050D02*
D03*
Y8550D02*
D03*
D94*
X11550Y11750D02*
D03*
X11050D02*
D03*
X10550D02*
D03*
X10050D02*
D03*
X9550D02*
D03*
X9050D02*
D03*
Y7850D02*
D03*
X9550D02*
D03*
X10050D02*
D03*
X10550D02*
D03*
X11050D02*
D03*
X11550D02*
D03*
D95*
X32200Y22250D02*
D03*
Y12750D02*
D03*
D96*
X28500Y20900D02*
D03*
X26900Y20900D02*
D03*
X28500Y19100D02*
D03*
X26900Y19100D02*
D03*
X52650Y37500D02*
D03*
X54250D02*
D03*
X28500Y16000D02*
D03*
X26900Y16000D02*
D03*
X12532Y19275D02*
D03*
X14132Y19275D02*
D03*
X12532Y17503D02*
D03*
X14132D02*
D03*
D97*
X9600Y4665D02*
D03*
X9600Y6265D02*
D03*
X6700Y8300D02*
D03*
X6700Y9900D02*
D03*
X36000Y22750D02*
D03*
X36000Y21150D02*
D03*
X36000Y12250D02*
D03*
Y13850D02*
D03*
D98*
X52985Y34586D02*
D03*
X54255D02*
D03*
X55525D02*
D03*
X56795D02*
D03*
X58065D02*
D03*
X59335D02*
D03*
X60605D02*
D03*
X61875D02*
D03*
X63145D02*
D03*
X64415D02*
D03*
X52985Y21486D02*
D03*
X54255D02*
D03*
X55525D02*
D03*
X56795D02*
D03*
X58065D02*
D03*
X59335D02*
D03*
X60605D02*
D03*
X61875D02*
D03*
X63145D02*
D03*
X64415D02*
D03*
D99*
X58700Y28036D02*
D03*
D100*
X21250Y30230D02*
D03*
X21250Y35850D02*
D03*
X20600D02*
D03*
X17350D02*
D03*
X18000D02*
D03*
X18650D02*
D03*
X20600Y30230D02*
D03*
X17350D02*
D03*
X18000D02*
D03*
X18650D02*
D03*
X19300Y35850D02*
D03*
X19950D02*
D03*
X19300Y30230D02*
D03*
X19950D02*
D03*
X23850Y35850D02*
D03*
X23200D02*
D03*
X22550D02*
D03*
X21900D02*
D03*
X24500D02*
D03*
X25150D02*
D03*
X24500Y30230D02*
D03*
X21900D02*
D03*
X22550D02*
D03*
X23200D02*
D03*
X23850D02*
D03*
X25800Y35850D02*
D03*
Y30230D02*
D03*
X25150D02*
D03*
D101*
X57595Y18300D02*
D03*
X55005D02*
D03*
X45095Y8300D02*
D03*
X42505D02*
D03*
X42555Y20500D02*
D03*
X45145D02*
D03*
D102*
X13750Y31770D02*
D03*
Y34360D02*
D03*
D103*
X7610Y6105D02*
D03*
X7610Y4415D02*
D03*
X4700Y9945D02*
D03*
X4700Y8255D02*
D03*
D104*
X74800Y8620D02*
D03*
Y12380D02*
D03*
Y16020D02*
D03*
Y19780D02*
D03*
X82300Y5120D02*
D03*
Y8880D02*
D03*
X74800Y46680D02*
D03*
Y42920D02*
D03*
X82300Y50080D02*
D03*
Y46320D02*
D03*
X74800Y39330D02*
D03*
Y35570D02*
D03*
D105*
X74820Y4900D02*
D03*
X78580D02*
D03*
X74820Y50400D02*
D03*
X78580D02*
D03*
D106*
X67228Y18876D02*
D03*
X70228D02*
D03*
X66828Y37776D02*
D03*
X69828D02*
D03*
D107*
X12567Y15603D02*
D03*
X14087Y15603D02*
D03*
D108*
X44695Y17474D02*
D03*
D109*
X42384Y11376D02*
D03*
X44695Y11376D02*
D03*
X47006Y11376D02*
D03*
D110*
X26450Y11925D02*
D03*
X25500D02*
D03*
X24550Y11925D02*
D03*
X24550Y14375D02*
D03*
X26450Y14375D02*
D03*
D111*
X30900Y8400D02*
D03*
X32500Y8400D02*
D03*
X27500Y8400D02*
D03*
X29100Y8400D02*
D03*
X20600Y26425D02*
D03*
X22200Y26425D02*
D03*
X18850Y26400D02*
D03*
X17250D02*
D03*
X22200Y28250D02*
D03*
X20600D02*
D03*
X14107Y13650D02*
D03*
X12507Y13650D02*
D03*
X6100Y15703D02*
D03*
X7700Y15703D02*
D03*
D112*
X69950Y22139D02*
D03*
X69950Y23739D02*
D03*
X2675Y9875D02*
D03*
Y8275D02*
D03*
X12750Y41225D02*
D03*
Y39625D02*
D03*
X15290Y41225D02*
D03*
Y39625D02*
D03*
X26500Y2100D02*
D03*
X26500Y3700D02*
D03*
X34100Y2100D02*
D03*
X34100Y3700D02*
D03*
X17830Y41225D02*
D03*
Y39625D02*
D03*
X20370Y41225D02*
D03*
Y39625D02*
D03*
X22910Y41225D02*
D03*
Y39625D02*
D03*
X25450Y41225D02*
D03*
Y39625D02*
D03*
X27990Y41225D02*
D03*
Y39625D02*
D03*
X30530Y41225D02*
D03*
Y39625D02*
D03*
D113*
X24700Y22700D02*
D03*
X24700Y21900D02*
D03*
Y21100D02*
D03*
X24700Y20300D02*
D03*
X24700Y19500D02*
D03*
Y18700D02*
D03*
X24700Y17900D02*
D03*
X24700Y17100D02*
D03*
X16300Y17100D02*
D03*
Y17900D02*
D03*
X16300Y18700D02*
D03*
X16300Y19500D02*
D03*
X16300Y20300D02*
D03*
X16300Y21100D02*
D03*
X16300Y21900D02*
D03*
X16300Y22700D02*
D03*
D114*
X23300Y15700D02*
D03*
X22500Y15700D02*
D03*
X21700Y15700D02*
D03*
X20900Y15700D02*
D03*
X20100Y15700D02*
D03*
X19300Y15700D02*
D03*
X18500Y15700D02*
D03*
X17700Y15700D02*
D03*
X17700Y24100D02*
D03*
X18500Y24100D02*
D03*
X19300Y24100D02*
D03*
X20100Y24100D02*
D03*
X20900D02*
D03*
X21700Y24100D02*
D03*
X22500Y24100D02*
D03*
X23300Y24100D02*
D03*
M02*
