M48
;Layer_Color=9474304
;FILE_FORMAT=4:3
METRIC,LZ
;TYPE=PLATED
T1F00S00C0.300
T2F00S00C0.500
T5F00S00C0.700
T6F00S00C0.850
T7F00S00C0.889
T8F00S00C0.900
T9F00S00C1.100
;TYPE=NON_PLATED
T10F00S00C3.000
%
T01
X00009Y00069
Y00077
X00036Y00073
X00047Y0011195
X00067Y00111
X00075Y00125
X00095Y00106
Y0009
X00103Y00098
X00111Y0009
Y00106
X00131Y0011175
Y00098
X0011282Y0017503
X0011282Y0019275
X00105Y00185
X00097Y00191
X000485Y0015703
X000761Y0003165
X00096Y00034
X00169Y0007
X00179Y00064
X002625Y00084
X00255Y0010675
X00282Y0009525
X00277Y00145
X0028925Y001445
X00298Y0016
X0030977Y0015951
X003215Y0017025
X002975Y00191
X00231Y00195
X00218Y00189
X0022361Y0018
X00225Y0017
X002565Y0016
X003495Y001225
X003405Y00111
X00348Y00097
X00324Y00073
X0045142Y0005364
Y0004639
X0045867
Y0005364
X0046592
Y0004639
X0047317
Y0005364
X0048042
Y0004639
X0048767
Y0005364
X0049492
Y0004639
X0050217
Y0005364
X0048767Y0003864
X0048042
X0047317
X0046592
X0045867
X0045142
X0041145Y00199
Y00212
X003495Y002275
X002845Y002295
X002975Y00209
X0026424Y0019797
X00231Y00211
X00213Y00218
X00215Y00227
X00203Y00212
X00179Y00203
X00164Y00242
X0024Y00253
X0024975
Y0027775
X002345Y002825
X00203Y003173
X00193Y003173
X001965Y003435
X002055
X001865
X001765
X001675
X00258
X00461Y0030275
X0050767Y0030064
Y0029364
Y0028664
Y0027964
Y0027264
Y0026564
Y0025864
Y0025164
X0051467Y0025164
Y0025864
Y0026564
Y0027264
Y0027964
Y0028664
Y0029364
Y0030064
Y0030764
X0052167Y0030764
Y0030064
Y0029364
Y0028664
Y0027964
Y0027264
Y0026564
Y0025864
Y0025164
X0052867Y0025164
Y0025864
Y0026564
Y0027264
Y0027964
Y0028664
Y0029364
Y0030064
Y0030764
X0050767Y0030764
X0045475Y0040225
X001375Y003595
X00098Y00252
Y00241
X00097Y00226
Y00214
X00064
Y00226
T02
X00471Y00172
X00481Y00172
Y00183
X00471Y00183
Y00194
X00481Y00194
X0054667Y0014364
Y0013364
X0055667Y0013364
Y0014364
X0059367Y0015664
Y0016664
Y0017664
Y0018664
Y0019664
X0060767
Y0018664
Y0017664
Y0016664
Y0015664
X0065267Y0015364
Y0014264
Y0013164
Y00165
X0076467Y0016564
Y0015264
Y0013064
Y0011764
X0077867Y0003264
X0079367Y0003284
X0081667Y0003264
X0083067
X0057567Y0005564
X0057067Y0037364
X0059267Y0037336
X0059267Y0036336
X0060667
X0060667Y0037336
X0065067Y0037064
Y0038164
Y0039264
X0073092Y0038764
Y0040064
X0073067Y0042064
Y0043364
X0076467
Y0042064
X0076442Y0040064
Y0038764
X0072175Y00319
X0071067
X0069958
X006885
Y00286
X0069958
X0071067
X0072175
X0072175Y0029675
Y0030775
X0078167Y0048664
X0079467Y0048644
X0080567Y0049664
Y0050864
X0057467Y0051164
Y0050064
X0056367
Y0051164
X0055267
Y0050064
Y0052264
X0056367
X0057467
X0054167
Y0051164
Y0050064
Y0049064
X0053067
Y0050064
X0051967
Y0049064
X0050867
Y0050064
Y0051164
X0051967
X0053067
Y0052264
X0051967
X0050867
Y0047964
Y0046864
X0051967
Y0047964
X0053067
Y0046864
X0054167
Y0047964
X00491Y0045
Y00439
X0048
Y0045
Y00428
X00491
X0054267Y0039064
X0051867Y003555
X0051867Y003455
X0051867Y003355
X0050867Y0033564
X0050867Y0034564
X0050867Y0035564
X0050867Y0022364
X0051867Y0022364
Y0021264
X0050867Y0021264
X00481Y00216
X00471Y00216
Y00205
X00481Y00205
T05
X00265Y00063
X00341
T06
X00669Y00134
X00704Y00134
X00704Y00414
X00669
T07
X000613Y00138
X000867
T08
X001596Y0010035
X001596Y0012575
X00185
X00185Y0010035
X002104Y0010035
X002104Y0012575
X00394Y0008286
X00564
Y0047786
X00394
X000915Y004843
X000915Y005097
X000915Y004589
X000915Y004335
X00029Y0034391
Y0031851
Y0029311
Y0026771
Y0024231
Y0021691
T09
X0083576Y0015536
X0085976Y0016786
Y0019286
X0083576Y0020536
X0083576Y0025536
X0085976Y0026786
Y0029286
X0083576Y0030536
X0083576Y0035536
X0085976Y0036786
Y0039286
X0083576Y0040536
X003053Y004375
Y004629
Y004883
X002799
X002545
X002291
X002037
Y004629
Y004375
X001783
X001529
Y004629
X001783
Y004883
X001529
X002291Y004629
X002545
X002799
Y004375
X002545
X002291
X001275
Y004629
Y004883
T10
X00035Y00035
X00615
Y00525
X00035
M30
