G04 Layer_Color=16711935*
%FSLAX43Y43*%
%MOMM*%
G71*
G01*
G75*
%ADD24C,1.500*%
%ADD63C,2.000*%
%ADD64R,1.500X1.500*%
%ADD65R,2.000X2.000*%
%ADD66C,2.103*%
%ADD67C,1.600*%
%ADD68R,1.500X1.500*%
%ADD69R,2.000X2.000*%
%ADD70C,0.100*%
%ADD71C,2.300*%
%ADD72R,2.300X2.300*%
%ADD73C,0.800*%
G04:AMPARAMS|DCode=74|XSize=1.63mm|YSize=1.12mm|CornerRadius=0.177mm|HoleSize=0mm|Usage=FLASHONLY|Rotation=90.000|XOffset=0mm|YOffset=0mm|HoleType=Round|Shape=RoundedRectangle|*
%AMROUNDEDRECTD74*
21,1,1.630,0.765,0,0,90.0*
21,1,1.275,1.120,0,0,90.0*
1,1,0.355,0.383,0.637*
1,1,0.355,0.383,-0.637*
1,1,0.355,-0.383,-0.637*
1,1,0.355,-0.383,0.637*
%
%ADD74ROUNDEDRECTD74*%
G04:AMPARAMS|DCode=75|XSize=0.71mm|YSize=1.45mm|CornerRadius=0.126mm|HoleSize=0mm|Usage=FLASHONLY|Rotation=90.000|XOffset=0mm|YOffset=0mm|HoleType=Round|Shape=RoundedRectangle|*
%AMROUNDEDRECTD75*
21,1,0.710,1.198,0,0,90.0*
21,1,0.458,1.450,0,0,90.0*
1,1,0.253,0.599,0.229*
1,1,0.253,0.599,-0.229*
1,1,0.253,-0.599,-0.229*
1,1,0.253,-0.599,0.229*
%
%ADD75ROUNDEDRECTD75*%
G04:AMPARAMS|DCode=76|XSize=1.31mm|YSize=1.56mm|CornerRadius=0.201mm|HoleSize=0mm|Usage=FLASHONLY|Rotation=90.000|XOffset=0mm|YOffset=0mm|HoleType=Round|Shape=RoundedRectangle|*
%AMROUNDEDRECTD76*
21,1,1.310,1.157,0,0,90.0*
21,1,0.907,1.560,0,0,90.0*
1,1,0.403,0.579,0.454*
1,1,0.403,0.579,-0.454*
1,1,0.403,-0.579,-0.454*
1,1,0.403,-0.579,0.454*
%
%ADD76ROUNDEDRECTD76*%
G04:AMPARAMS|DCode=77|XSize=0.81mm|YSize=2.29mm|CornerRadius=0.139mm|HoleSize=0mm|Usage=FLASHONLY|Rotation=0.000|XOffset=0mm|YOffset=0mm|HoleType=Round|Shape=RoundedRectangle|*
%AMROUNDEDRECTD77*
21,1,0.810,2.013,0,0,0.0*
21,1,0.532,2.290,0,0,0.0*
1,1,0.278,0.266,-1.006*
1,1,0.278,-0.266,-1.006*
1,1,0.278,-0.266,1.006*
1,1,0.278,0.266,1.006*
%
%ADD77ROUNDEDRECTD77*%
%ADD78R,16.750X6.450*%
G04:AMPARAMS|DCode=79|XSize=1.57mm|YSize=0.51mm|CornerRadius=0.101mm|HoleSize=0mm|Usage=FLASHONLY|Rotation=270.000|XOffset=0mm|YOffset=0mm|HoleType=Round|Shape=RoundedRectangle|*
%AMROUNDEDRECTD79*
21,1,1.570,0.307,0,0,270.0*
21,1,1.367,0.510,0,0,270.0*
1,1,0.203,-0.154,-0.684*
1,1,0.203,-0.154,0.684*
1,1,0.203,0.154,0.684*
1,1,0.203,0.154,-0.684*
%
%ADD79ROUNDEDRECTD79*%
G04:AMPARAMS|DCode=80|XSize=0.71mm|YSize=1.36mm|CornerRadius=0.126mm|HoleSize=0mm|Usage=FLASHONLY|Rotation=180.000|XOffset=0mm|YOffset=0mm|HoleType=Round|Shape=RoundedRectangle|*
%AMROUNDEDRECTD80*
21,1,0.710,1.107,0,0,180.0*
21,1,0.458,1.360,0,0,180.0*
1,1,0.253,-0.229,0.554*
1,1,0.253,0.229,0.554*
1,1,0.253,0.229,-0.554*
1,1,0.253,-0.229,-0.554*
%
%ADD80ROUNDEDRECTD80*%
%ADD81R,1.550X3.530*%
G04:AMPARAMS|DCode=82|XSize=1.63mm|YSize=1.12mm|CornerRadius=0.177mm|HoleSize=0mm|Usage=FLASHONLY|Rotation=180.000|XOffset=0mm|YOffset=0mm|HoleType=Round|Shape=RoundedRectangle|*
%AMROUNDEDRECTD82*
21,1,1.630,0.765,0,0,180.0*
21,1,1.275,1.120,0,0,180.0*
1,1,0.355,-0.637,0.383*
1,1,0.355,0.637,0.383*
1,1,0.355,0.637,-0.383*
1,1,0.355,-0.637,-0.383*
%
%ADD82ROUNDEDRECTD82*%
G04:AMPARAMS|DCode=83|XSize=1.86mm|YSize=2.92mm|CornerRadius=0.27mm|HoleSize=0mm|Usage=FLASHONLY|Rotation=0.000|XOffset=0mm|YOffset=0mm|HoleType=Round|Shape=RoundedRectangle|*
%AMROUNDEDRECTD83*
21,1,1.860,2.380,0,0,0.0*
21,1,1.320,2.920,0,0,0.0*
1,1,0.540,0.660,-1.190*
1,1,0.540,-0.660,-1.190*
1,1,0.540,-0.660,1.190*
1,1,0.540,0.660,1.190*
%
%ADD83ROUNDEDRECTD83*%
G04:AMPARAMS|DCode=84|XSize=1.31mm|YSize=1.56mm|CornerRadius=0.201mm|HoleSize=0mm|Usage=FLASHONLY|Rotation=180.000|XOffset=0mm|YOffset=0mm|HoleType=Round|Shape=RoundedRectangle|*
%AMROUNDEDRECTD84*
21,1,1.310,1.157,0,0,180.0*
21,1,0.907,1.560,0,0,180.0*
1,1,0.403,-0.454,0.579*
1,1,0.403,0.454,0.579*
1,1,0.403,0.454,-0.579*
1,1,0.403,-0.454,-0.579*
%
%ADD84ROUNDEDRECTD84*%
G04:AMPARAMS|DCode=85|XSize=0.78mm|YSize=2.27mm|CornerRadius=0.135mm|HoleSize=0mm|Usage=FLASHONLY|Rotation=180.000|XOffset=0mm|YOffset=0mm|HoleType=Round|Shape=RoundedRectangle|*
%AMROUNDEDRECTD85*
21,1,0.780,2.000,0,0,180.0*
21,1,0.510,2.270,0,0,180.0*
1,1,0.270,-0.255,1.000*
1,1,0.270,0.255,1.000*
1,1,0.270,0.255,-1.000*
1,1,0.270,-0.255,-1.000*
%
%ADD85ROUNDEDRECTD85*%
G04:AMPARAMS|DCode=86|XSize=1.84mm|YSize=2.27mm|CornerRadius=0.268mm|HoleSize=0mm|Usage=FLASHONLY|Rotation=0.000|XOffset=0mm|YOffset=0mm|HoleType=Round|Shape=RoundedRectangle|*
%AMROUNDEDRECTD86*
21,1,1.840,1.735,0,0,0.0*
21,1,1.305,2.270,0,0,0.0*
1,1,0.535,0.652,-0.868*
1,1,0.535,-0.652,-0.868*
1,1,0.535,-0.652,0.868*
1,1,0.535,0.652,0.868*
%
%ADD86ROUNDEDRECTD86*%
G04:AMPARAMS|DCode=87|XSize=1.84mm|YSize=2.27mm|CornerRadius=0.268mm|HoleSize=0mm|Usage=FLASHONLY|Rotation=270.000|XOffset=0mm|YOffset=0mm|HoleType=Round|Shape=RoundedRectangle|*
%AMROUNDEDRECTD87*
21,1,1.840,1.735,0,0,270.0*
21,1,1.305,2.270,0,0,270.0*
1,1,0.535,-0.868,-0.652*
1,1,0.535,-0.868,0.652*
1,1,0.535,0.868,0.652*
1,1,0.535,0.868,-0.652*
%
%ADD87ROUNDEDRECTD87*%
G04:AMPARAMS|DCode=88|XSize=1.38mm|YSize=1.97mm|CornerRadius=0.21mm|HoleSize=0mm|Usage=FLASHONLY|Rotation=180.000|XOffset=0mm|YOffset=0mm|HoleType=Round|Shape=RoundedRectangle|*
%AMROUNDEDRECTD88*
21,1,1.380,1.550,0,0,180.0*
21,1,0.960,1.970,0,0,180.0*
1,1,0.420,-0.480,0.775*
1,1,0.420,0.480,0.775*
1,1,0.420,0.480,-0.775*
1,1,0.420,-0.480,-0.775*
%
%ADD88ROUNDEDRECTD88*%
D24*
X28267Y6264D02*
D03*
X32267D02*
D03*
D63*
X32667Y41124D02*
D03*
Y43664D02*
D03*
Y48744D02*
D03*
Y46204D02*
D03*
X30127D02*
D03*
Y48744D02*
D03*
Y43664D02*
D03*
Y41124D02*
D03*
X27587D02*
D03*
Y43664D02*
D03*
Y48744D02*
D03*
Y46204D02*
D03*
Y38584D02*
D03*
Y36044D02*
D03*
Y33504D02*
D03*
Y30964D02*
D03*
X30127D02*
D03*
Y33504D02*
D03*
Y36044D02*
D03*
Y38584D02*
D03*
X32667Y36044D02*
D03*
X56367Y47750D02*
D03*
X39367D02*
D03*
X56367Y8250D02*
D03*
X39367D02*
D03*
X2867Y34355D02*
D03*
Y26735D02*
D03*
Y24195D02*
D03*
Y31815D02*
D03*
X2867Y40704D02*
D03*
Y43244D02*
D03*
X13907Y53464D02*
D03*
X16447D02*
D03*
X85943Y29250D02*
D03*
Y26750D02*
D03*
Y19250D02*
D03*
Y16750D02*
D03*
Y39250D02*
D03*
Y36750D02*
D03*
D64*
X32667Y33504D02*
D03*
D65*
Y30964D02*
D03*
X2867Y21655D02*
D03*
X2867Y45784D02*
D03*
D66*
X32667Y38584D02*
D03*
X2867Y29275D02*
D03*
X2867Y38164D02*
D03*
X11367Y53464D02*
D03*
D67*
X22582Y13665D02*
D03*
Y16205D02*
D03*
Y18745D02*
D03*
Y21285D02*
D03*
Y28905D02*
D03*
Y26365D02*
D03*
Y23825D02*
D03*
Y36525D02*
D03*
Y33985D02*
D03*
Y31445D02*
D03*
Y44145D02*
D03*
Y41605D02*
D03*
Y39065D02*
D03*
Y46685D02*
D03*
Y11125D02*
D03*
X7342Y46685D02*
D03*
Y39065D02*
D03*
Y41605D02*
D03*
Y44145D02*
D03*
Y31445D02*
D03*
Y33985D02*
D03*
Y36525D02*
D03*
Y23825D02*
D03*
Y26365D02*
D03*
Y28905D02*
D03*
Y21285D02*
D03*
Y18745D02*
D03*
Y16205D02*
D03*
Y13665D02*
D03*
D68*
Y11125D02*
D03*
D69*
X18987Y53464D02*
D03*
D70*
X3500Y3500D02*
D03*
Y52500D02*
D03*
X61500D02*
D03*
Y3500D02*
D03*
D71*
X83543Y20500D02*
D03*
X83543Y30500D02*
D03*
X83543Y35500D02*
D03*
X83543Y25500D02*
D03*
Y15500D02*
D03*
D72*
Y40500D02*
D03*
D73*
X51467Y28664D02*
D03*
X50767Y28664D02*
D03*
X52167Y28664D02*
D03*
X51467Y27964D02*
D03*
X50767Y27964D02*
D03*
X52167Y27964D02*
D03*
X51467Y27264D02*
D03*
X50767Y27264D02*
D03*
X52167Y27264D02*
D03*
X51467Y26564D02*
D03*
X50767Y26564D02*
D03*
X52167Y26564D02*
D03*
Y25164D02*
D03*
Y25864D02*
D03*
X50767Y25864D02*
D03*
X51467Y25864D02*
D03*
X50767Y25164D02*
D03*
X51467Y25164D02*
D03*
X52167Y29364D02*
D03*
X50767Y29364D02*
D03*
X51467Y29364D02*
D03*
X52167Y30064D02*
D03*
X50767Y30064D02*
D03*
X51467Y30064D02*
D03*
X52167Y30764D02*
D03*
X50767Y30764D02*
D03*
X51467Y30764D02*
D03*
X52867Y30764D02*
D03*
Y30064D02*
D03*
Y29364D02*
D03*
Y25164D02*
D03*
Y25864D02*
D03*
Y26564D02*
D03*
Y27264D02*
D03*
Y27964D02*
D03*
Y28664D02*
D03*
D74*
X69441Y32520D02*
D03*
X71456Y32520D02*
D03*
X38549Y34500D02*
D03*
X36534Y34500D02*
D03*
X45449Y41500D02*
D03*
X43434Y41500D02*
D03*
X45449Y39167D02*
D03*
X43434Y39167D02*
D03*
X38549Y41500D02*
D03*
X36534Y41500D02*
D03*
X38624Y39142D02*
D03*
X36609D02*
D03*
X45449Y36833D02*
D03*
X43434Y36833D02*
D03*
X45449Y34500D02*
D03*
X43434Y34500D02*
D03*
X38549Y36833D02*
D03*
X36534Y36833D02*
D03*
X48974Y17364D02*
D03*
X46959D02*
D03*
Y20564D02*
D03*
X48974D02*
D03*
Y14364D02*
D03*
X46959D02*
D03*
X24274Y2864D02*
D03*
X22259D02*
D03*
X33618Y2900D02*
D03*
X35632D02*
D03*
X42474Y22264D02*
D03*
X40459D02*
D03*
D75*
X31067Y3814D02*
D03*
Y1914D02*
D03*
X29067Y2864D02*
D03*
D76*
X20217Y14049D02*
D03*
Y15739D02*
D03*
Y46509D02*
D03*
Y44819D02*
D03*
D77*
X52952Y34550D02*
D03*
X54222D02*
D03*
X55492D02*
D03*
X56762D02*
D03*
X58032D02*
D03*
X59302D02*
D03*
X60572D02*
D03*
X61842D02*
D03*
X63112D02*
D03*
X64382D02*
D03*
X52952Y21450D02*
D03*
X54222D02*
D03*
X55492D02*
D03*
X56762D02*
D03*
X58032D02*
D03*
X59302D02*
D03*
X60572D02*
D03*
X61842D02*
D03*
X63112D02*
D03*
X64382D02*
D03*
D78*
X58667Y28000D02*
D03*
D79*
X41117Y25190D02*
D03*
X41117Y30810D02*
D03*
X40467D02*
D03*
X37217D02*
D03*
X37867D02*
D03*
X38517D02*
D03*
X40467Y25190D02*
D03*
X37217D02*
D03*
X37867D02*
D03*
X38517D02*
D03*
X39167Y30810D02*
D03*
X39817D02*
D03*
X39167Y25190D02*
D03*
X39817D02*
D03*
X43717Y30810D02*
D03*
X43067D02*
D03*
X42417D02*
D03*
X41767D02*
D03*
X44367D02*
D03*
X45017D02*
D03*
X44367Y25190D02*
D03*
X41767D02*
D03*
X42417D02*
D03*
X43067D02*
D03*
X43717D02*
D03*
X45667Y30810D02*
D03*
Y25190D02*
D03*
X45017D02*
D03*
D80*
X47017Y9339D02*
D03*
X48917D02*
D03*
Y11789D02*
D03*
X47967D02*
D03*
X47017D02*
D03*
D81*
X57252Y13864D02*
D03*
X63482D02*
D03*
D82*
X35725Y8233D02*
D03*
Y6218D02*
D03*
X18367Y33372D02*
D03*
Y31357D02*
D03*
Y26957D02*
D03*
Y28972D02*
D03*
D83*
X57562Y18264D02*
D03*
X54972D02*
D03*
X34162Y25164D02*
D03*
X31572D02*
D03*
D84*
X29522Y12164D02*
D03*
X31212D02*
D03*
X47122Y6764D02*
D03*
X48812D02*
D03*
X54112Y37464D02*
D03*
X52422D02*
D03*
D85*
X33072Y15034D02*
D03*
X31802D02*
D03*
X30532D02*
D03*
X29262D02*
D03*
X33072Y19894D02*
D03*
X31802D02*
D03*
X30532D02*
D03*
X29262D02*
D03*
D86*
X73267Y8584D02*
D03*
Y12344D02*
D03*
Y15984D02*
D03*
Y19744D02*
D03*
X80767Y5084D02*
D03*
Y8844D02*
D03*
X73267Y46644D02*
D03*
Y42884D02*
D03*
X80767Y50044D02*
D03*
Y46284D02*
D03*
X73267Y39294D02*
D03*
Y35534D02*
D03*
D87*
X73287Y4864D02*
D03*
X77047D02*
D03*
X73287Y50364D02*
D03*
X77047D02*
D03*
D88*
X66795Y18040D02*
D03*
X69795D02*
D03*
X66795Y37740D02*
D03*
X69795D02*
D03*
M02*
