G04 Layer_Color=8388736*
%FSLAX43Y43*%
%MOMM*%
G71*
G01*
G75*
%ADD24C,1.500*%
G04:AMPARAMS|DCode=60|XSize=2.22mm|YSize=3.96mm|CornerRadius=0.315mm|HoleSize=0mm|Usage=FLASHONLY|Rotation=0.000|XOffset=0mm|YOffset=0mm|HoleType=Round|Shape=RoundedRectangle|*
%AMROUNDEDRECTD60*
21,1,2.220,3.330,0,0,0.0*
21,1,1.590,3.960,0,0,0.0*
1,1,0.630,0.795,-1.665*
1,1,0.630,-0.795,-1.665*
1,1,0.630,-0.795,1.665*
1,1,0.630,0.795,1.665*
%
%ADD60ROUNDEDRECTD60*%
G04:AMPARAMS|DCode=61|XSize=6.704mm|YSize=7.415mm|CornerRadius=0.875mm|HoleSize=0mm|Usage=FLASHONLY|Rotation=270.000|XOffset=0mm|YOffset=0mm|HoleType=Round|Shape=RoundedRectangle|*
%AMROUNDEDRECTD61*
21,1,6.704,5.664,0,0,270.0*
21,1,4.953,7.415,0,0,270.0*
1,1,1.751,-2.832,-2.477*
1,1,1.751,-2.832,2.477*
1,1,1.751,2.832,2.477*
1,1,1.751,2.832,-2.477*
%
%ADD61ROUNDEDRECTD61*%
G04:AMPARAMS|DCode=62|XSize=1.04mm|YSize=1.421mm|CornerRadius=0.167mm|HoleSize=0mm|Usage=FLASHONLY|Rotation=270.000|XOffset=0mm|YOffset=0mm|HoleType=Round|Shape=RoundedRectangle|*
%AMROUNDEDRECTD62*
21,1,1.040,1.086,0,0,270.0*
21,1,0.705,1.421,0,0,270.0*
1,1,0.335,-0.543,-0.352*
1,1,0.335,-0.543,0.352*
1,1,0.335,0.543,0.352*
1,1,0.335,0.543,-0.352*
%
%ADD62ROUNDEDRECTD62*%
%ADD63C,2.000*%
%ADD64R,1.500X1.500*%
%ADD65R,2.000X2.000*%
%ADD66C,2.103*%
%ADD67C,1.600*%
%ADD68R,1.500X1.500*%
%ADD69R,2.000X2.000*%
%ADD70C,0.100*%
%ADD71C,2.300*%
%ADD72R,2.300X2.300*%
%ADD73C,0.800*%
D24*
X28267Y6264D02*
D03*
X32267D02*
D03*
D60*
X67611Y8909D02*
D03*
Y16869D02*
D03*
X67511Y46119D02*
D03*
Y38159D02*
D03*
D61*
X72500Y28900D02*
D03*
D62*
X66048Y26639D02*
D03*
Y31161D02*
D03*
D63*
X32667Y41124D02*
D03*
Y43664D02*
D03*
Y48744D02*
D03*
Y46204D02*
D03*
X30127D02*
D03*
Y48744D02*
D03*
Y43664D02*
D03*
Y41124D02*
D03*
X27587D02*
D03*
Y43664D02*
D03*
Y48744D02*
D03*
Y46204D02*
D03*
Y38584D02*
D03*
Y36044D02*
D03*
Y33504D02*
D03*
Y30964D02*
D03*
X30127D02*
D03*
Y33504D02*
D03*
Y36044D02*
D03*
Y38584D02*
D03*
X32667Y36044D02*
D03*
X56367Y47750D02*
D03*
X39367D02*
D03*
X56367Y8250D02*
D03*
X39367D02*
D03*
X2867Y34355D02*
D03*
Y26735D02*
D03*
Y24195D02*
D03*
Y31815D02*
D03*
X2867Y40704D02*
D03*
Y43244D02*
D03*
X13907Y53464D02*
D03*
X16447D02*
D03*
X85943Y29250D02*
D03*
Y26750D02*
D03*
Y19250D02*
D03*
Y16750D02*
D03*
Y39250D02*
D03*
Y36750D02*
D03*
D64*
X32667Y33504D02*
D03*
D65*
Y30964D02*
D03*
X2867Y21655D02*
D03*
X2867Y45784D02*
D03*
D66*
X32667Y38584D02*
D03*
X2867Y29275D02*
D03*
X2867Y38164D02*
D03*
X11367Y53464D02*
D03*
D67*
X22582Y13665D02*
D03*
Y16205D02*
D03*
Y18745D02*
D03*
Y21285D02*
D03*
Y28905D02*
D03*
Y26365D02*
D03*
Y23825D02*
D03*
Y36525D02*
D03*
Y33985D02*
D03*
Y31445D02*
D03*
Y44145D02*
D03*
Y41605D02*
D03*
Y39065D02*
D03*
Y46685D02*
D03*
Y11125D02*
D03*
X7342Y46685D02*
D03*
Y39065D02*
D03*
Y41605D02*
D03*
Y44145D02*
D03*
Y31445D02*
D03*
Y33985D02*
D03*
Y36525D02*
D03*
Y23825D02*
D03*
Y26365D02*
D03*
Y28905D02*
D03*
Y21285D02*
D03*
Y18745D02*
D03*
Y16205D02*
D03*
Y13665D02*
D03*
D68*
Y11125D02*
D03*
D69*
X18987Y53464D02*
D03*
D70*
X3500Y3500D02*
D03*
Y52500D02*
D03*
X61500D02*
D03*
Y3500D02*
D03*
D71*
X83543Y20500D02*
D03*
X83543Y30500D02*
D03*
X83543Y35500D02*
D03*
X83543Y25500D02*
D03*
Y15500D02*
D03*
D72*
Y40500D02*
D03*
D73*
X51467Y28664D02*
D03*
X50767Y28664D02*
D03*
X52167Y28664D02*
D03*
X51467Y27964D02*
D03*
X50767Y27964D02*
D03*
X52167Y27964D02*
D03*
X51467Y27264D02*
D03*
X50767Y27264D02*
D03*
X52167Y27264D02*
D03*
X51467Y26564D02*
D03*
X50767Y26564D02*
D03*
X52167Y26564D02*
D03*
Y25164D02*
D03*
Y25864D02*
D03*
X50767Y25864D02*
D03*
X51467Y25864D02*
D03*
X50767Y25164D02*
D03*
X51467Y25164D02*
D03*
X52167Y29364D02*
D03*
X50767Y29364D02*
D03*
X51467Y29364D02*
D03*
X52167Y30064D02*
D03*
X50767Y30064D02*
D03*
X51467Y30064D02*
D03*
X52167Y30764D02*
D03*
X50767Y30764D02*
D03*
X51467Y30764D02*
D03*
X52867Y30764D02*
D03*
Y30064D02*
D03*
Y29364D02*
D03*
Y25164D02*
D03*
Y25864D02*
D03*
Y26564D02*
D03*
Y27264D02*
D03*
Y27964D02*
D03*
Y28664D02*
D03*
M02*
