G04 Layer_Color=8388736*
%FSLAX43Y43*%
%MOMM*%
G71*
G01*
G75*
%ADD24C,1.500*%
%ADD26C,0.800*%
%ADD67C,2.000*%
%ADD68C,0.100*%
%ADD69R,2.000X2.000*%
%ADD70C,2.103*%
%ADD71C,2.300*%
%ADD72R,2.300X2.300*%
%ADD73R,2.000X2.000*%
%ADD74C,1.800*%
%ADD75R,1.800X1.800*%
%ADD76C,1.050*%
G04:AMPARAMS|DCode=77|XSize=2.3mm|YSize=1.3mm|CornerRadius=0.35mm|HoleSize=0mm|Usage=FLASHONLY|Rotation=90.000|XOffset=0mm|YOffset=0mm|HoleType=Round|Shape=RoundedRectangle|*
%AMROUNDEDRECTD77*
21,1,2.300,0.600,0,0,90.0*
21,1,1.600,1.300,0,0,90.0*
1,1,0.700,0.300,0.800*
1,1,0.700,0.300,-0.800*
1,1,0.700,-0.300,-0.800*
1,1,0.700,-0.300,0.800*
%
%ADD77ROUNDEDRECTD77*%
D24*
X26500Y6300D02*
D03*
X34100D02*
D03*
D26*
X52867Y28664D02*
D03*
Y27964D02*
D03*
Y27264D02*
D03*
Y26564D02*
D03*
Y25864D02*
D03*
Y25164D02*
D03*
Y29364D02*
D03*
Y30064D02*
D03*
Y30764D02*
D03*
X51467Y30764D02*
D03*
X50767Y30764D02*
D03*
X52167Y30764D02*
D03*
X51467Y30064D02*
D03*
X50767Y30064D02*
D03*
X52167Y30064D02*
D03*
X51467Y29364D02*
D03*
X50767Y29364D02*
D03*
X52167Y29364D02*
D03*
X51467Y25164D02*
D03*
X50767Y25164D02*
D03*
X51467Y25864D02*
D03*
X50767Y25864D02*
D03*
X52167Y25864D02*
D03*
Y25164D02*
D03*
Y26564D02*
D03*
X50767Y26564D02*
D03*
X51467Y26564D02*
D03*
X52167Y27264D02*
D03*
X50767Y27264D02*
D03*
X51467Y27264D02*
D03*
X52167Y27964D02*
D03*
X50767Y27964D02*
D03*
X51467Y27964D02*
D03*
X52167Y28664D02*
D03*
X50767Y28664D02*
D03*
X51467Y28664D02*
D03*
D67*
X85976Y39286D02*
D03*
Y36786D02*
D03*
Y16786D02*
D03*
Y19286D02*
D03*
Y29286D02*
D03*
Y26786D02*
D03*
X22910Y43750D02*
D03*
X25450D02*
D03*
X30530D02*
D03*
X27990D02*
D03*
Y46290D02*
D03*
X30530D02*
D03*
X25450D02*
D03*
X22910D02*
D03*
Y48830D02*
D03*
X25450D02*
D03*
X30530D02*
D03*
X27990D02*
D03*
X20370D02*
D03*
X17830D02*
D03*
X15290D02*
D03*
X12750D02*
D03*
Y46290D02*
D03*
X15290D02*
D03*
X17830D02*
D03*
X20370D02*
D03*
X17830Y43750D02*
D03*
X15290D02*
D03*
X9150Y48430D02*
D03*
X9150Y45890D02*
D03*
X2900Y31851D02*
D03*
Y24231D02*
D03*
Y26771D02*
D03*
Y34391D02*
D03*
X39400Y8286D02*
D03*
X56400D02*
D03*
X39400Y47786D02*
D03*
X56400D02*
D03*
X66900Y13400D02*
D03*
X70400Y41400D02*
D03*
D68*
X86500Y3500D02*
D03*
X86500Y52500D02*
D03*
X3500D02*
D03*
Y3500D02*
D03*
D69*
X12750Y43750D02*
D03*
D70*
X20370D02*
D03*
X9150Y43350D02*
D03*
X2900Y29311D02*
D03*
X70400Y13400D02*
D03*
X66900Y41400D02*
D03*
D71*
X83576Y15536D02*
D03*
Y25536D02*
D03*
X83576Y35536D02*
D03*
X83576Y30536D02*
D03*
X83576Y20536D02*
D03*
D72*
X83576Y40536D02*
D03*
D73*
X9150Y50970D02*
D03*
X2900Y21691D02*
D03*
D74*
X21040Y10035D02*
D03*
X18500Y10035D02*
D03*
X15960Y10035D02*
D03*
X15960Y12575D02*
D03*
X18500D02*
D03*
D75*
X21040D02*
D03*
D76*
X19599Y2800D02*
D03*
X18299D02*
D03*
X20899D02*
D03*
X18949Y3800D02*
D03*
X20249D02*
D03*
D77*
X23174Y3020D02*
D03*
X16024D02*
D03*
M02*
