M48
;Layer_Color=9474304
;FILE_FORMAT=4:3
METRIC,LZ
;TYPE=PLATED
T1F00S00C0.300
T2F00S00C0.400
T3F00S00C0.450
T5F00S00C0.500
T6F00S00C0.700
T7F00S00C0.800
T8F00S00C0.850
T9F00S00C0.900
T10F00S00C1.100
;TYPE=NON_PLATED
T11F00S00C3.200
%
T01
X00082Y00013
X0007625Y0005475
X0006853Y0007861
X0009525Y000785
Y000985
X0011525
Y000785
X0010525Y000885
X00138Y0011675
X0014575Y0011175
X00139Y00041
X0013925Y00023
X0011282Y0017503
X0011282Y0019275
X00218Y00189
X0022361Y0018
X00225Y0017
X00231Y00195
X002975Y00189
X00298Y0016
X0030977Y0015951
X003215Y0017025
X0028925Y001445
X00277Y00145
X00282Y0009525
X002625Y00084
X00255Y0010675
X00238Y00094
Y00073
X00198Y00085
X002535Y000305
X00342Y00008
X00324Y00073
X00348Y00097
X003405Y00111
X003475Y001225
X00409Y00196
X0045142Y0005364
Y0004639
X0045867
Y0005364
X0046592
Y0004639
X0047317
Y0005364
X0048042
Y0004639
X0048767
Y0005364
X0049492
Y0004639
X0050217
Y0005364
X0048767Y0003864
X0048042
X0047317
X0046592
X0045867
X0045142
X00409Y00208
X003475Y002275
X002845Y002295
X00284Y00242
X002595Y00232
X0024Y00253
X002345Y002825
X00203Y003173
X00193Y003173
X001965Y003435
X002055
X001865
X001765
X001675
X00258
X0022275Y0022426
X002135Y0021575
X00203Y00212
X00231Y00211
X00179Y00203
X00164Y00242
X002975Y00212
X0050767Y0025164
Y0025864
Y0026564
Y0027264
Y0027964
Y0028664
Y0029364
Y0030064
Y0030764
X0051467Y0030764
Y0030064
Y0029364
Y0028664
Y0027964
Y0027264
Y0026564
Y0025864
Y0025164
X0052167Y0025164
Y0025864
Y0026564
Y0027264
Y0027964
Y0028664
Y0029364
Y0030064
Y0030764
X0052867Y0030764
Y0030064
Y0029364
Y0028664
Y0027964
Y0027264
Y0026564
Y0025864
Y0025164
X00098Y00252
Y00241
X00097Y00226
Y00214
X00064
Y00226
X001375Y003595
T02
X002555Y001345
Y0016
X0026424Y0020047
T03
X0018299Y00028
X0019599
X0020899
X0020249Y00038
X0018949
T05
X00471Y00172
X00481Y00172
Y00183
X00471Y00183
Y00194
X00481Y00194
X0054667Y0014364
Y0013364
X0055667Y0013364
Y0014364
X0059367Y0015664
Y0016664
Y0017664
Y0018664
Y0019664
X0060767
Y0018664
Y0017664
Y0016664
Y0015664
X0065267Y0015364
Y0014264
Y0013164
Y00165
X0076467Y0016564
Y0015264
Y0013064
Y0011764
X0077867Y0003164
X0079292Y0003184
X0080717Y0003164
X0082142
X0072175Y00286
X0072175Y0029675
Y0030775
X0072175Y00319
X0071067
X0069958
X006885
Y00286
X0069958
X0071067
X0073092Y0038764
Y0040064
X0073067Y0042064
Y0043364
X0076467
Y0042064
X0076442Y0040064
Y0038764
X0078167Y0048664
X0079467Y0048644
X0079492Y0052141
X0078067Y0052161
X0080917Y0052161
X0082342
X0057467Y0052264
X0056367
X0055267
Y0051164
Y0050064
X0056367
Y0051164
X0057467
Y0050064
X0059267Y0037336
X0059267Y0036336
X0060667
X0060667Y0037336
X0065067Y0037064
Y0038164
Y0039264
X0054267Y0039064
X0051867Y003555
X0051867Y003455
X0051867Y003355
X0050867Y0033564
X0050867Y0034564
X0050867Y0035564
X00491Y00428
X0048
Y00439
Y0045
X00491
Y00439
X0050867Y0046864
X0051967
X0053067
X0054167
Y0047964
Y0049064
Y0050064
X0053067
Y0049064
Y0047964
X0051967
Y0049064
Y0050064
Y0051164
Y0052264
X0050867
Y0051164
Y0050064
Y0049064
Y0047964
X0053067Y0051164
Y0052264
X0054167
Y0051164
X0051867Y0022364
X0050867Y0022364
Y0021264
X0051867Y0021264
X00481Y00216
X00471Y00216
Y00205
X00481Y00205
T06
X00265Y00063
X00341
T07
X0058175Y0004864
X0056903Y00372
T08
X00669Y00134
X00704Y00134
X00704Y00414
X00669
T09
X001596Y0010035
X00185Y0010035
X00185Y0012575
X001596
X002104
X002104Y0010035
X00394Y0008286
X00564
Y0047786
X00394
X000915Y004843
X000915Y005097
X000915Y004589
X000915Y004335
X00029Y0034391
Y0031851
Y0029311
Y0026771
Y0024231
Y0021691
T10
X0083576Y0015536
X0085976Y0016786
Y0019286
X0083576Y0020536
X0083576Y0025536
X0085976Y0026786
Y0029286
X0083576Y0030536
X0083576Y0035536
X0085976Y0036786
Y0039286
X0083576Y0040536
X003053Y004375
X002799
X002545
X002291
Y004629
X002545
X002799
X003053
Y004883
X002799
X002545
X002291
X002037
X001783
X001529
Y004629
X001783
X002037
Y004375
X001783
X001529
X001275
Y004629
Y004883
T11
X00035Y00035
X00865Y00035
X00865Y00525
X00035
M30
