G04 Layer_Physical_Order=1*
G04 Layer_Color=16776960*
%FSLAX43Y43*%
%MOMM*%
G71*
G01*
G75*
%ADD10C,0.200*%
%ADD11C,0.400*%
%ADD12C,2.100*%
%ADD13C,1.900*%
%ADD14R,1.900X1.900*%
%ADD15C,2.200*%
%ADD16R,2.200X2.200*%
%ADD17R,1.900X1.900*%
%ADD18C,1.400*%
%ADD19C,1.700*%
%ADD20R,1.700X1.700*%
%ADD21C,0.950*%
G04:AMPARAMS|DCode=22|XSize=2.2mm|YSize=1.2mm|CornerRadius=0.3mm|HoleSize=0mm|Usage=FLASHONLY|Rotation=90.000|XOffset=0mm|YOffset=0mm|HoleType=Round|Shape=RoundedRectangle|*
%AMROUNDEDRECTD22*
21,1,2.200,0.600,0,0,90.0*
21,1,1.600,1.200,0,0,90.0*
1,1,0.600,0.300,0.800*
1,1,0.600,0.300,-0.800*
1,1,0.600,-0.300,-0.800*
1,1,0.600,-0.300,0.800*
%
%ADD22ROUNDEDRECTD22*%
%ADD23C,0.700*%
%ADD24C,1.500*%
%ADD25C,1.000*%
%ADD26C,0.800*%
G36*
X47800Y45700D02*
X49576Y45700D01*
X49576Y45700D01*
Y45700D01*
X49796Y45700D01*
X50227Y45614D01*
X50633Y45446D01*
X50998Y45202D01*
X51153Y45046D01*
X54517Y41683D01*
X54517Y41683D01*
X54649Y41543D01*
X54812Y41298D01*
X54937Y40998D01*
X55000Y40680D01*
X55000Y40517D01*
X55000Y38900D01*
X55000Y38900D01*
X55000Y38810D01*
X54931Y38645D01*
X54805Y38519D01*
X54640Y38450D01*
X54550Y38450D01*
X52404Y38450D01*
X52404Y38450D01*
X52249Y38442D01*
X51946Y38382D01*
X51660Y38264D01*
X51403Y38092D01*
X51288Y37988D01*
X50212Y36912D01*
Y36912D01*
X50119Y36810D01*
X49966Y36580D01*
X49861Y36326D01*
X49807Y36055D01*
X49800Y35917D01*
X49800Y33900D01*
X49800Y21600D01*
X49800Y17100D01*
X49800Y17100D01*
X49800Y16981D01*
X49708Y16760D01*
X49540Y16591D01*
X49319Y16500D01*
X49200Y16500D01*
X44631Y16500D01*
X44496Y16527D01*
X44368Y16580D01*
X44254Y16656D01*
X44156Y16754D01*
X44080Y16868D01*
X44027Y16996D01*
X44000Y17131D01*
Y20000D01*
X44000Y22517D01*
X44000Y22517D01*
X44007Y22714D01*
X44063Y22998D01*
X44188Y23298D01*
X44368Y23568D01*
X44483Y23683D01*
X46717Y25917D01*
X46717Y25917D01*
X46717Y25917D01*
X46848Y26062D01*
X47065Y26386D01*
X47214Y26747D01*
X47290Y27129D01*
X47300Y27324D01*
X47300Y45200D01*
X47335Y45385D01*
X47376Y45483D01*
X47517Y45624D01*
X47701Y45700D01*
X47800Y45700D01*
D02*
G37*
G36*
X53325Y36079D02*
X53482Y35922D01*
X53567Y35717D01*
X53567Y35605D01*
X53567D01*
X53567Y35605D01*
X53567Y21064D01*
X53567Y20985D01*
X53506Y20838D01*
X53394Y20725D01*
X53287Y20681D01*
X53167Y20664D01*
X50617Y20664D01*
X50527Y20664D01*
X50362Y20733D01*
X50235Y20859D01*
X50167Y21025D01*
X50167Y21114D01*
X50167Y35667D01*
X50167Y35766D01*
X50243Y35949D01*
X50383Y36089D01*
X50565Y36164D01*
X50664Y36164D01*
X50664Y36164D01*
X53008Y36164D01*
X53119Y36164D01*
X53325Y36079D01*
D02*
G37*
G36*
X59767Y20264D02*
X59803Y20264D01*
X59869Y20237D01*
X59910Y20196D01*
X59947Y20084D01*
Y20084D01*
X59947Y19965D01*
X59947Y11469D01*
X59952Y11370D01*
X59990Y11177D01*
X60066Y10995D01*
X60161Y10852D01*
X60175Y10832D01*
X60241Y10758D01*
X60241Y10759D01*
X61659Y9341D01*
X61743Y9265D01*
X61933Y9138D01*
X62144Y9050D01*
X62369Y9006D01*
X62483Y9000D01*
X62681D01*
X62681Y9000D01*
X62701D01*
X62720Y8996D01*
X62883Y8996D01*
X78400D01*
X78473Y8996D01*
X78493Y9000D01*
X78943D01*
X79015Y9003D01*
X79155Y9031D01*
X79288Y9086D01*
X79407Y9166D01*
X79509Y9268D01*
X79588Y9387D01*
X79643Y9520D01*
X79671Y9660D01*
X79675Y9732D01*
X79675Y9732D01*
Y16675D01*
Y16782D01*
X79717Y16993D01*
X79799Y17191D01*
X79918Y17369D01*
X80070Y17521D01*
X80248Y17640D01*
X80446Y17722D01*
X80657Y17764D01*
X80764Y17764D01*
X80764Y17764D01*
X85164Y17764D01*
X85205Y17644D01*
X85156Y17606D01*
X84971Y17366D01*
X84856Y17086D01*
X84856Y17086D01*
X85976D01*
X87096D01*
X87096Y17086D01*
X86981Y17366D01*
X86796Y17606D01*
X86747Y17644D01*
X86788Y17764D01*
X88436D01*
X88540Y17764D01*
X88745Y17723D01*
X88937Y17644D01*
X89111Y17528D01*
X89258Y17380D01*
X89374Y17207D01*
X89454Y17014D01*
X89491Y16825D01*
X89494Y16709D01*
Y16705D01*
X89494Y16705D01*
X89495Y16705D01*
X89495Y7695D01*
Y7606D01*
X89460Y7434D01*
X89393Y7271D01*
X89295Y7124D01*
X89170Y7000D01*
X89024Y6902D01*
X88861Y6834D01*
X88718Y6806D01*
X88600Y6800D01*
X88600Y6800D01*
X88600Y6800D01*
X84000Y6800D01*
X83922Y6796D01*
X83768Y6766D01*
X83623Y6706D01*
X83492Y6618D01*
X83382Y6508D01*
X83294Y6377D01*
X83234Y6232D01*
X83212Y6122D01*
X83204Y6078D01*
X83200Y6000D01*
X83200Y6000D01*
X83200Y6000D01*
X83200Y3300D01*
X83200Y3213D01*
X83166Y3042D01*
X83099Y2881D01*
X83002Y2736D01*
X82879Y2612D01*
X82734Y2516D01*
X82573Y2449D01*
X82439Y2422D01*
X82315Y2415D01*
X77200Y2415D01*
X64065Y2415D01*
X63909Y2415D01*
X63598Y2445D01*
X63291Y2506D01*
X62991Y2597D01*
X62703Y2717D01*
X62427Y2864D01*
X62167Y3038D01*
X61925Y3237D01*
X61814Y3347D01*
X61814Y3347D01*
X59339Y5822D01*
X59199Y5963D01*
X58977Y6294D01*
X58825Y6662D01*
X58747Y7053D01*
X58747Y7252D01*
X58747Y10184D01*
X58747Y20045D01*
X58747Y20088D01*
X58781Y20169D01*
X58842Y20231D01*
X58923Y20264D01*
X58967Y20264D01*
X58967Y20264D01*
X59767Y20264D01*
D02*
G37*
G36*
X68293Y42068D02*
X68471Y41891D01*
X68567Y41659D01*
X68567Y41533D01*
X68567Y41533D01*
X68567Y41533D01*
X68567Y34900D01*
X68567Y33733D01*
X68571Y33651D01*
X68603Y33491D01*
X68665Y33340D01*
X68756Y33205D01*
X68871Y33089D01*
X69007Y32998D01*
X69158Y32936D01*
X69318Y32904D01*
X69400Y32900D01*
X72276Y32900D01*
X72424Y32870D01*
X72563Y32813D01*
X72689Y32729D01*
X72796Y32622D01*
X72880Y32496D01*
X72937Y32357D01*
X72958Y32251D01*
X72967Y32133D01*
Y32133D01*
X72967Y32133D01*
X72967Y32133D01*
X72967Y13467D01*
X72967Y13388D01*
X72936Y13233D01*
X72876Y13087D01*
X72788Y12955D01*
X72676Y12843D01*
X72544Y12755D01*
X72398Y12695D01*
X72288Y12673D01*
X72164Y12664D01*
X72037Y12664D01*
X71552D01*
X71501Y12791D01*
X71618Y13074D01*
X71661Y13400D01*
X71618Y13726D01*
X71492Y14030D01*
X71292Y14292D01*
X71030Y14492D01*
X70726Y14618D01*
X70400Y14661D01*
X70074Y14618D01*
X69770Y14492D01*
X69508Y14292D01*
X69308Y14030D01*
X69182Y13726D01*
X69139Y13400D01*
X69182Y13074D01*
X69299Y12791D01*
X69248Y12664D01*
X67929D01*
X67872Y12778D01*
X67905Y12820D01*
X67979Y13000D01*
X66900D01*
X65821D01*
X65895Y12820D01*
X65928Y12778D01*
X65871Y12664D01*
X62042Y12664D01*
X61928Y12664D01*
X61716Y12751D01*
X61554Y12913D01*
X61467Y13125D01*
X61467Y13239D01*
X61467Y13239D01*
X61467Y15618D01*
X61473Y15664D01*
X61467Y15710D01*
Y16618D01*
X61473Y16664D01*
X61467Y16710D01*
X61467Y17618D01*
X61473Y17664D01*
X61467Y17710D01*
X61467Y18618D01*
X61473Y18664D01*
X61467Y18710D01*
X61467Y19618D01*
X61473Y19664D01*
X61467Y19710D01*
Y20327D01*
X61458Y20419D01*
X61387Y20590D01*
X61257Y20720D01*
X61110Y20781D01*
X61086Y20791D01*
X60998Y20799D01*
X60994Y20800D01*
X60994Y20800D01*
X60994Y20800D01*
X59000Y20800D01*
X58907Y20791D01*
X58735Y20720D01*
X58604Y20588D01*
X58543Y20442D01*
X58533Y20416D01*
X58524Y20324D01*
X58524Y20324D01*
X58524D01*
X58524Y20199D01*
X58524Y20197D01*
X58524Y11024D01*
X58524Y10923D01*
X58484Y10725D01*
X58407Y10539D01*
X58295Y10371D01*
X58152Y10228D01*
X57985Y10116D01*
X57799Y10039D01*
X57625Y10005D01*
X57523Y10001D01*
X57500Y10000D01*
X57500Y10000D01*
X55900Y10000D01*
X55812Y9996D01*
X55639Y9961D01*
X55476Y9894D01*
X55329Y9796D01*
X55204Y9671D01*
X55106Y9524D01*
X55039Y9361D01*
X55011Y9221D01*
X55004Y9188D01*
X55000Y9100D01*
X55000Y9100D01*
X55000D01*
X55000Y9100D01*
X55000Y7983D01*
X55006Y7869D01*
X55050Y7644D01*
X55138Y7433D01*
X55262Y7247D01*
X55265Y7243D01*
X55341Y7159D01*
X55341Y7159D01*
X56359Y6141D01*
X56447Y6061D01*
X56645Y5929D01*
X56864Y5838D01*
X57098Y5792D01*
X57217Y5786D01*
X58414Y5786D01*
X58482Y5786D01*
X58614Y5760D01*
X58739Y5708D01*
X58851Y5633D01*
X58947Y5537D01*
X59022Y5425D01*
X59074Y5300D01*
X59090Y5217D01*
X59100Y5100D01*
Y5100D01*
X59100Y5100D01*
X59100Y5100D01*
X59100Y3700D01*
X59100Y3631D01*
X59073Y3496D01*
X59020Y3368D01*
X58944Y3254D01*
X58846Y3156D01*
X58732Y3080D01*
X58604Y3027D01*
X58523Y3011D01*
X58400Y3000D01*
X55000Y3000D01*
X53411D01*
X53237Y3035D01*
X53074Y3102D01*
X52926Y3201D01*
X52801Y3326D01*
X52702Y3474D01*
X52635Y3637D01*
X52600Y3811D01*
Y3900D01*
X52600D01*
X52600Y4700D01*
X52588Y4945D01*
X52492Y5426D01*
X52305Y5878D01*
X52033Y6286D01*
X51686Y6632D01*
X51278Y6905D01*
X50826Y7092D01*
X50345Y7188D01*
X50100Y7200D01*
X50100Y7200D01*
X50100Y7200D01*
X44100Y7200D01*
X44100Y9200D01*
X48979Y11372D01*
X49109Y11435D01*
X49352Y11589D01*
X49571Y11776D01*
X49761Y11993D01*
X49918Y12234D01*
X50039Y12496D01*
X50120Y12772D01*
X50162Y13057D01*
X50167Y13201D01*
X50167Y13201D01*
X50167Y19167D01*
Y19249D01*
X50199Y19410D01*
X50262Y19561D01*
X50353Y19698D01*
X50469Y19814D01*
X50606Y19905D01*
X50757Y19968D01*
X50918Y20000D01*
X51000D01*
X51000Y20000D01*
X53100Y20000D01*
X53178Y20004D01*
X53332Y20034D01*
X53477Y20094D01*
X53607Y20182D01*
X53718Y20292D01*
X53806Y20423D01*
X53866Y20568D01*
X53896Y20722D01*
X53900Y20800D01*
X53900Y20800D01*
Y31164D01*
X53900Y37300D01*
X53900Y37379D01*
X53931Y37533D01*
X53991Y37679D01*
X54079Y37810D01*
X54190Y37921D01*
X54321Y38009D01*
X54467Y38069D01*
X54621Y38100D01*
X54700D01*
X54700Y38100D01*
X57700Y38100D01*
X57781Y38100D01*
X57940Y38068D01*
X58090Y38006D01*
X58225Y37916D01*
X58340Y37801D01*
X58430Y37667D01*
X58492Y37517D01*
X58516Y37395D01*
X58524Y37277D01*
Y37276D01*
X58524Y37276D01*
X58524Y37276D01*
X58524Y35843D01*
X58532Y35757D01*
X58598Y35597D01*
X58720Y35475D01*
X58880Y35408D01*
X58967Y35400D01*
X60973Y35400D01*
X61070Y35409D01*
X61248Y35483D01*
X61384Y35619D01*
X61457Y35797D01*
X61467Y35894D01*
X61467Y35894D01*
Y41567D01*
X61467Y41686D01*
X61558Y41905D01*
X61726Y42073D01*
X61945Y42164D01*
X62064Y42164D01*
X62064Y42164D01*
X65893Y42164D01*
X65950Y42050D01*
X65895Y41980D01*
X65821Y41800D01*
X66900D01*
X67979D01*
X67905Y41980D01*
X67850Y42050D01*
X67907Y42164D01*
X67936D01*
X68061Y42164D01*
X68293Y42068D01*
D02*
G37*
G36*
X12164Y55664D02*
X57636Y55664D01*
X57636Y55664D01*
X57636Y55664D01*
X57636D01*
X57756Y55663D01*
X57968Y55620D01*
X58176Y55535D01*
X58362Y55410D01*
X58521Y55251D01*
X58646Y55064D01*
X58732Y54857D01*
X58775Y54637D01*
X58775Y54525D01*
X58775Y47575D01*
X58775Y47575D01*
Y47436D01*
X58721Y47164D01*
X58615Y46907D01*
X58460Y46676D01*
X58264Y46479D01*
X58033Y46325D01*
X57776Y46219D01*
X57503Y46164D01*
X57364D01*
X41836Y46164D01*
X41753D01*
X41592Y46196D01*
X41440Y46259D01*
X41303Y46351D01*
X41187Y46467D01*
X41095Y46604D01*
X41032Y46756D01*
X41000Y46918D01*
X41000Y49200D01*
X41000Y49200D01*
X41000Y49200D01*
X41000Y49200D01*
X40996Y49275D01*
X40988Y49317D01*
X40967Y49422D01*
X40910Y49560D01*
X40827Y49685D01*
X40721Y49791D01*
X40596Y49874D01*
X40458Y49931D01*
X40311Y49961D01*
X40236Y49964D01*
X39497Y49964D01*
X39497Y49964D01*
X39394Y49959D01*
X39194Y49919D01*
X39005Y49841D01*
X38834Y49727D01*
X38759Y49659D01*
X37295Y48195D01*
X37295Y48195D01*
X37204Y48104D01*
X37004Y47940D01*
X36789Y47796D01*
X36561Y47674D01*
X36322Y47575D01*
X36074Y47500D01*
X35821Y47450D01*
X35564Y47424D01*
X35434D01*
X31269Y47424D01*
X31211Y47469D01*
X30896Y47600D01*
X30884Y47644D01*
X30886Y47733D01*
X31110Y47825D01*
X31350Y48010D01*
X31535Y48250D01*
X31650Y48530D01*
X31650Y48530D01*
X29410D01*
X29410Y48530D01*
X29525Y48250D01*
X29710Y48010D01*
X29950Y47825D01*
X30174Y47733D01*
X30176Y47644D01*
X30164Y47600D01*
X29849Y47469D01*
X29791Y47424D01*
X28729Y47424D01*
X28671Y47469D01*
X28356Y47600D01*
X28344Y47644D01*
X28346Y47733D01*
X28570Y47825D01*
X28810Y48010D01*
X28995Y48250D01*
X29110Y48530D01*
X29110Y48530D01*
X26870D01*
X26870Y48530D01*
X26985Y48250D01*
X27170Y48010D01*
X27410Y47825D01*
X27634Y47733D01*
X27636Y47644D01*
X27624Y47600D01*
X27309Y47469D01*
X27251Y47424D01*
X26189D01*
X26131Y47469D01*
X25816Y47600D01*
X25804Y47644D01*
X25806Y47733D01*
X26030Y47825D01*
X26270Y48010D01*
X26455Y48250D01*
X26570Y48530D01*
X26570Y48530D01*
X24330D01*
X24330Y48530D01*
X24445Y48250D01*
X24630Y48010D01*
X24870Y47825D01*
X25094Y47733D01*
X25096Y47644D01*
X25084Y47600D01*
X24769Y47469D01*
X24711Y47424D01*
X23649Y47424D01*
X23591Y47469D01*
X23276Y47600D01*
X23264Y47644D01*
X23266Y47733D01*
X23490Y47825D01*
X23730Y48010D01*
X23915Y48250D01*
X24030Y48530D01*
X24030Y48530D01*
X21790D01*
X21790Y48530D01*
X21905Y48250D01*
X22090Y48010D01*
X22330Y47825D01*
X22554Y47733D01*
X22556Y47644D01*
X22544Y47600D01*
X22229Y47469D01*
X22171Y47424D01*
X21109Y47424D01*
X21051Y47469D01*
X20736Y47600D01*
X20724Y47644D01*
X20726Y47733D01*
X20950Y47825D01*
X21190Y48010D01*
X21375Y48250D01*
X21490Y48530D01*
X21490Y48530D01*
X19250D01*
X19250Y48530D01*
X19365Y48250D01*
X19550Y48010D01*
X19790Y47825D01*
X20014Y47733D01*
X20016Y47644D01*
X20004Y47600D01*
X19689Y47469D01*
X19631Y47424D01*
X18569D01*
X18511Y47469D01*
X18196Y47600D01*
X18184Y47644D01*
X18186Y47733D01*
X18410Y47825D01*
X18650Y48010D01*
X18835Y48250D01*
X18950Y48530D01*
X18950Y48530D01*
X16710D01*
X16710Y48530D01*
X16825Y48250D01*
X17010Y48010D01*
X17250Y47825D01*
X17474Y47733D01*
X17476Y47644D01*
X17464Y47600D01*
X17149Y47469D01*
X17091Y47424D01*
X16029Y47424D01*
X15971Y47469D01*
X15656Y47600D01*
X15644Y47644D01*
X15646Y47733D01*
X15870Y47825D01*
X16110Y48010D01*
X16295Y48250D01*
X16410Y48530D01*
X16410Y48530D01*
X14170D01*
X14170Y48530D01*
X14285Y48250D01*
X14470Y48010D01*
X14710Y47825D01*
X14934Y47733D01*
X14936Y47644D01*
X14924Y47600D01*
X14609Y47469D01*
X14551Y47424D01*
X13489Y47424D01*
X13431Y47469D01*
X13116Y47600D01*
X13104Y47644D01*
X13106Y47733D01*
X13330Y47825D01*
X13570Y48010D01*
X13755Y48250D01*
X13870Y48530D01*
X13870Y48530D01*
X12750D01*
Y48830D01*
X12450D01*
Y49950D01*
X12450Y49950D01*
X12170Y49835D01*
X11930Y49650D01*
X11920Y49638D01*
X11800Y49679D01*
Y55300D01*
X11800Y55372D01*
X11855Y55506D01*
X11958Y55609D01*
X12092Y55664D01*
X12164Y55664D01*
D02*
G37*
G36*
X88536Y23664D02*
X88630Y23664D01*
X88815Y23627D01*
X88990Y23555D01*
X89147Y23450D01*
X89281Y23317D01*
X89385Y23160D01*
X89458Y22985D01*
X89490Y22824D01*
X89495Y22706D01*
Y22705D01*
X89495Y22705D01*
X89495Y22705D01*
X89495Y18995D01*
X89495Y18903D01*
X89459Y18723D01*
X89389Y18554D01*
X89287Y18402D01*
X89157Y18272D01*
X89005Y18170D01*
X88836Y18100D01*
X88689Y18071D01*
X88564Y18064D01*
Y18064D01*
X86418Y18064D01*
X86391Y18076D01*
Y18213D01*
X86556Y18281D01*
X86796Y18466D01*
X86981Y18706D01*
X87096Y18986D01*
X87096Y18986D01*
X85976D01*
X84856D01*
X84856Y18986D01*
X84971Y18706D01*
X85156Y18466D01*
X85396Y18281D01*
X85561Y18213D01*
Y18076D01*
X85534Y18064D01*
X79864Y18064D01*
X79794Y18061D01*
X79655Y18033D01*
X79524Y17979D01*
X79407Y17900D01*
X79307Y17800D01*
X79228Y17683D01*
X79174Y17552D01*
X79156Y17464D01*
X79146Y17413D01*
X79143Y17343D01*
X79143D01*
X79143Y9943D01*
X79143Y9870D01*
X79114Y9726D01*
X79058Y9591D01*
X78977Y9469D01*
X78873Y9366D01*
X78752Y9285D01*
X78617Y9229D01*
X78473Y9200D01*
X78400Y9200D01*
X62883D01*
X62720Y9200D01*
X62402Y9263D01*
X62102Y9388D01*
X61832Y9568D01*
X61717Y9683D01*
X61717Y9683D01*
X61717D01*
X60541Y10859D01*
X60452Y10948D01*
X60312Y11157D01*
X60216Y11390D01*
X60167Y11637D01*
X60167Y12264D01*
X60167Y20104D01*
X60197Y20177D01*
X60254Y20234D01*
X60327Y20264D01*
X60367D01*
X60367Y20264D01*
X61067Y20264D01*
X61107Y20264D01*
X61180Y20234D01*
X61236Y20177D01*
X61263Y20113D01*
Y19710D01*
X61266Y19697D01*
X61265Y19684D01*
X61267Y19667D01*
Y19662D01*
X61265Y19645D01*
X61266Y19632D01*
X61263Y19618D01*
X61263Y18710D01*
X61266Y18697D01*
X61265Y18684D01*
X61267Y18667D01*
Y18662D01*
X61265Y18645D01*
X61266Y18632D01*
X61263Y18618D01*
X61263Y17710D01*
X61266Y17697D01*
X61265Y17684D01*
X61267Y17667D01*
Y17662D01*
X61265Y17645D01*
X61266Y17632D01*
X61263Y17618D01*
X61263Y16710D01*
X61266Y16697D01*
X61265Y16684D01*
X61267Y16667D01*
Y16662D01*
X61265Y16645D01*
X61266Y16632D01*
X61263Y16618D01*
Y15710D01*
X61266Y15697D01*
X61265Y15684D01*
X61267Y15667D01*
Y15662D01*
X61265Y15645D01*
X61266Y15632D01*
X61263Y15618D01*
X61263Y13239D01*
X61263Y13239D01*
X61263Y13125D01*
X61263Y13125D01*
X61263Y13125D01*
X61267Y13104D01*
Y13033D01*
X61278Y12922D01*
X61363Y12717D01*
X61519Y12560D01*
X61725Y12475D01*
X61836Y12464D01*
X61836Y12464D01*
X61907D01*
X61928Y12460D01*
X61928Y12460D01*
X61928Y12460D01*
X62043Y12460D01*
X65251Y12460D01*
X65267Y12458D01*
X65283Y12460D01*
X65871D01*
X65891Y12464D01*
X65916D01*
X65937Y12437D01*
X66219Y12221D01*
X66548Y12085D01*
X66900Y12038D01*
X67252Y12085D01*
X67581Y12221D01*
X67863Y12437D01*
X67884Y12464D01*
X67909D01*
X67929Y12460D01*
X69248D01*
X69248Y12460D01*
X69249Y12460D01*
X69268Y12464D01*
X69416D01*
X69437Y12437D01*
X69719Y12221D01*
X70048Y12085D01*
X70400Y12038D01*
X70752Y12085D01*
X71081Y12221D01*
X71363Y12437D01*
X71384Y12464D01*
X71532D01*
X71551Y12460D01*
X71552Y12460D01*
X71552Y12460D01*
X72037D01*
X72164Y12460D01*
X72171Y12462D01*
X72179Y12461D01*
X72227Y12464D01*
X72464D01*
X72533Y12468D01*
X72668Y12495D01*
X72796Y12547D01*
X72910Y12624D01*
X73007Y12721D01*
X73084Y12836D01*
X73137Y12963D01*
X73164Y13098D01*
X73167Y13167D01*
X73167Y13167D01*
Y13348D01*
X73167Y13348D01*
X73167Y13368D01*
X73171Y13388D01*
X73171Y13467D01*
X73171Y22514D01*
X73217Y22745D01*
X73315Y22981D01*
X73457Y23194D01*
X73637Y23375D01*
X73850Y23517D01*
X74086Y23614D01*
X74337Y23664D01*
X74464D01*
X74464Y23664D01*
X79143D01*
X88536Y23664D01*
D02*
G37*
G36*
X60467Y43964D02*
X78036Y43964D01*
X78036Y43964D01*
X78036Y43964D01*
X78037D01*
X78154Y43962D01*
X78359Y43922D01*
X78560Y43838D01*
X78741Y43717D01*
X78896Y43563D01*
X79017Y43382D01*
X79100Y43180D01*
X79143Y42966D01*
Y42857D01*
X79143Y38957D01*
X79143Y38957D01*
X79148Y38860D01*
X79185Y38669D01*
X79260Y38489D01*
X79368Y38327D01*
X79506Y38190D01*
X79668Y38082D01*
X79847Y38007D01*
X80038Y37969D01*
X80136Y37964D01*
X85484Y37964D01*
X85509Y37837D01*
X85396Y37791D01*
X85156Y37606D01*
X84971Y37366D01*
X84856Y37086D01*
X84856Y37086D01*
X85976D01*
X87096D01*
X87096Y37086D01*
X86981Y37366D01*
X86796Y37606D01*
X86556Y37791D01*
X86443Y37837D01*
X86468Y37964D01*
X88636Y37964D01*
X88636Y37964D01*
X88636Y37964D01*
X88636D01*
X88753Y37958D01*
X88886Y37931D01*
X89043Y37867D01*
X89183Y37773D01*
X89303Y37653D01*
X89397Y37512D01*
X89462Y37356D01*
X89495Y37190D01*
X89495Y34295D01*
X89495Y34295D01*
Y34216D01*
X89464Y34063D01*
X89404Y33918D01*
X89317Y33788D01*
X89206Y33677D01*
X89076Y33590D01*
X88932Y33531D01*
X88778Y33500D01*
X88700D01*
X69831Y33500D01*
X69831Y33500D01*
X69736Y33500D01*
X69550Y33537D01*
X69374Y33610D01*
X69217Y33715D01*
X69082Y33850D01*
X68977Y34008D01*
X68904Y34183D01*
X68867Y34369D01*
X68867Y34464D01*
X68867Y41942D01*
X68867Y42064D01*
X68867Y42064D01*
X68867Y42065D01*
X68861Y42123D01*
X68816Y42231D01*
X68734Y42314D01*
X68625Y42359D01*
X68567Y42364D01*
X68081D01*
X68061Y42368D01*
X68061Y42368D01*
X68061Y42368D01*
X67936Y42368D01*
X67907D01*
X67887Y42364D01*
X67861Y42364D01*
X67581Y42579D01*
X67252Y42715D01*
X66900Y42762D01*
X66548Y42715D01*
X66219Y42579D01*
X65939Y42364D01*
X65913D01*
X65893Y42368D01*
X62064Y42368D01*
X62064Y42368D01*
X61945Y42368D01*
X61926Y42364D01*
X61567D01*
Y42364D01*
X61508Y42359D01*
X61400Y42314D01*
X61318Y42231D01*
X61273Y42123D01*
X61267Y42064D01*
Y41706D01*
X61263Y41686D01*
X61263Y41567D01*
Y35915D01*
X61236Y35851D01*
X61180Y35795D01*
X61107Y35764D01*
X60267Y35764D01*
X60227Y35764D01*
X60154Y35795D01*
X60097Y35851D01*
X60067Y35925D01*
X60067Y35964D01*
Y43564D01*
X60067Y43644D01*
X60128Y43791D01*
X60240Y43903D01*
X60387Y43964D01*
X60467Y43964D01*
D02*
G37*
G36*
X82600Y53000D02*
X82600Y53000D01*
X82600D01*
X82717Y52992D01*
X82833Y52969D01*
X82979Y52909D01*
X83110Y52821D01*
X83221Y52710D01*
X83309Y52579D01*
X83369Y52433D01*
X83400Y52279D01*
X83400Y52200D01*
X83400Y50300D01*
X83400Y50300D01*
X83404Y50212D01*
X83439Y50039D01*
X83506Y49876D01*
X83604Y49729D01*
X83729Y49604D01*
X83876Y49506D01*
X84039Y49439D01*
X84212Y49404D01*
X84300Y49400D01*
X88500Y49400D01*
X88500Y49400D01*
X88500Y49400D01*
X88500D01*
X88617Y49396D01*
X88790Y49362D01*
X88971Y49287D01*
X89134Y49178D01*
X89273Y49039D01*
X89381Y48876D01*
X89456Y48695D01*
X89495Y48503D01*
X89495Y48405D01*
X89495Y39095D01*
X89494Y39094D01*
X89494Y39003D01*
X89459Y38823D01*
X89389Y38654D01*
X89287Y38502D01*
X89157Y38372D01*
X89005Y38270D01*
X88836Y38200D01*
X88668Y38167D01*
X88647Y38168D01*
X88641Y38167D01*
X88636Y38168D01*
X88636D01*
X88636Y38168D01*
X86609Y38168D01*
X86581Y38229D01*
X86574Y38295D01*
X86796Y38466D01*
X86981Y38706D01*
X87096Y38986D01*
X87096Y38986D01*
X85976D01*
Y39286D01*
X85676D01*
Y40406D01*
X85676Y40406D01*
X85396Y40291D01*
X85156Y40106D01*
X85007Y39912D01*
X84880Y39955D01*
Y40236D01*
X83876D01*
Y39232D01*
X84676D01*
X84695Y39235D01*
X84820Y39166D01*
X84834Y39148D01*
X84856Y38986D01*
X84971Y38706D01*
X85156Y38466D01*
X85378Y38295D01*
X85372Y38229D01*
X85343Y38168D01*
X80566Y38168D01*
X80391Y38203D01*
X80207Y38279D01*
X80041Y38390D01*
X79901Y38531D01*
X79790Y38696D01*
X79714Y38880D01*
X79675Y39075D01*
X79675Y43134D01*
X79675Y43259D01*
X79675D01*
X79675Y43262D01*
X79675Y43262D01*
X79671Y43347D01*
X79665Y43376D01*
Y43376D01*
X79662Y43388D01*
X79636Y43521D01*
X79568Y43686D01*
X79469Y43833D01*
X79344Y43959D01*
X79196Y44057D01*
X79032Y44125D01*
X78858Y44160D01*
X78769Y44164D01*
X78166Y44164D01*
X78157Y44166D01*
X78040Y44168D01*
X78039Y44168D01*
X78037Y44168D01*
X78036D01*
X78036Y44168D01*
X60467Y44168D01*
X60388Y44168D01*
X60387Y44168D01*
X60387Y44168D01*
X60367Y44164D01*
X60167D01*
X60167Y44164D01*
X60108Y44158D01*
X60000Y44113D01*
X59917Y44031D01*
X59873Y43923D01*
X59867Y43864D01*
X59867Y43664D01*
X59863Y43644D01*
X59863Y43644D01*
X59863Y43644D01*
X59863Y43564D01*
Y35964D01*
X59863Y35925D01*
X59863Y35925D01*
X59863Y35925D01*
X59864Y35918D01*
X59836Y35851D01*
X59780Y35795D01*
X59707Y35764D01*
X58967Y35764D01*
X58927Y35764D01*
X58854Y35795D01*
X58797Y35851D01*
X58767Y35924D01*
X58767Y35964D01*
X58767Y44883D01*
X58767Y45002D01*
X58767Y45002D01*
X58767Y45002D01*
X58767Y45240D01*
X58851Y45707D01*
X59016Y46153D01*
X59258Y46562D01*
X59412Y46742D01*
X63462Y51449D01*
X63462Y51449D01*
X63462Y51449D01*
X63619Y51631D01*
X63969Y51959D01*
X64353Y52248D01*
X64765Y52494D01*
X65202Y52694D01*
X65657Y52846D01*
X66126Y52948D01*
X66604Y53000D01*
X66844Y53000D01*
X79100Y53000D01*
X82600D01*
X82600Y53000D01*
D02*
G37*
G36*
X10628Y55772D02*
X10704Y55772D01*
X10854Y55742D01*
X10994Y55684D01*
X11120Y55599D01*
X11228Y55492D01*
X11312Y55365D01*
X11370Y55225D01*
X11378Y55185D01*
X11400Y55000D01*
Y55000D01*
X11400Y55000D01*
X11400Y55000D01*
X11400Y48918D01*
X11388Y48830D01*
X11400Y48742D01*
X11400Y46378D01*
X11388Y46290D01*
X11400Y46202D01*
Y44739D01*
X11392Y44700D01*
Y42800D01*
X11423Y42644D01*
X11512Y42512D01*
X11644Y42423D01*
X11800Y42392D01*
X13700D01*
X13739Y42400D01*
X15202D01*
X15290Y42388D01*
X15378Y42400D01*
X17742D01*
X17830Y42388D01*
X17918Y42400D01*
X20282D01*
X20370Y42388D01*
X20458Y42400D01*
X22822D01*
X22910Y42388D01*
X22998Y42400D01*
X25362D01*
X25450Y42388D01*
X25538Y42400D01*
X27902D01*
X27990Y42388D01*
X28078Y42400D01*
X30442D01*
X30530Y42388D01*
X30618Y42400D01*
X42400D01*
X42508Y42400D01*
X42721Y42358D01*
X42921Y42275D01*
X43101Y42154D01*
X43254Y42001D01*
X43375Y41821D01*
X43458Y41621D01*
X43485Y41485D01*
X43500Y41300D01*
Y41300D01*
X43500Y41300D01*
X43500Y41300D01*
X43500Y24100D01*
X43500Y18500D01*
X43500Y17500D01*
X43500Y9511D01*
X39970D01*
X39752Y9601D01*
X39400Y9648D01*
X39048Y9601D01*
X38719Y9465D01*
X38437Y9249D01*
X38221Y8967D01*
X38085Y8638D01*
X38038Y8286D01*
X38085Y7934D01*
X38221Y7605D01*
X38437Y7323D01*
X38719Y7107D01*
X39048Y6971D01*
X39400Y6924D01*
X39752Y6971D01*
X39798Y6990D01*
X43500D01*
Y6700D01*
X43505Y6607D01*
X43541Y6424D01*
X43612Y6252D01*
X43716Y6097D01*
X43847Y5966D01*
X44002Y5862D01*
X44174Y5791D01*
X44357Y5755D01*
X44450Y5750D01*
X46167Y5750D01*
X50281D01*
X50349Y5750D01*
X50481Y5724D01*
X50606Y5672D01*
X50718Y5597D01*
X50814Y5501D01*
X50889Y5389D01*
X50940Y5264D01*
X50943Y5248D01*
X50966Y5064D01*
Y5064D01*
X50966Y5064D01*
X50966Y5064D01*
X50967Y767D01*
X50967Y654D01*
X50881Y446D01*
X50721Y286D01*
X50535Y209D01*
X12528D01*
X12451Y394D01*
X13818Y1760D01*
X13925Y1739D01*
X14140Y1782D01*
X14321Y1903D01*
X14443Y2085D01*
X14486Y2300D01*
X14443Y2515D01*
X14321Y2697D01*
X14140Y2818D01*
X13925Y2861D01*
X13710Y2818D01*
X13528Y2697D01*
X13407Y2515D01*
X13364Y2300D01*
X13385Y2193D01*
X11803Y611D01*
X7622D01*
X7163Y1070D01*
Y7406D01*
X7250Y7464D01*
X7371Y7646D01*
X7414Y7861D01*
X7371Y8075D01*
X7250Y8257D01*
X7068Y8379D01*
X6853Y8422D01*
X6639Y8379D01*
X6457Y8257D01*
X6335Y8075D01*
X6293Y7861D01*
X6335Y7646D01*
X6457Y7464D01*
X6551Y7401D01*
Y7000D01*
X1400Y7000D01*
X1285D01*
X1058Y7045D01*
X845Y7133D01*
X653Y7262D01*
X490Y7425D01*
X362Y7617D01*
X273Y7830D01*
X228Y8056D01*
Y8172D01*
X241Y48443D01*
X241Y48528D01*
X274Y48693D01*
X339Y48849D01*
X433Y48989D01*
X552Y49109D01*
X692Y49203D01*
X848Y49267D01*
X1014Y49300D01*
X1098Y49300D01*
X1098Y49300D01*
X5700Y49300D01*
X5798Y49305D01*
X5990Y49343D01*
X6171Y49418D01*
X6334Y49527D01*
X6473Y49666D01*
X6582Y49829D01*
X6657Y50010D01*
X6695Y50202D01*
X6700Y50300D01*
X6700Y50300D01*
Y54900D01*
X6700Y54986D01*
X6733Y55154D01*
X6799Y55313D01*
X6895Y55456D01*
X7016Y55577D01*
X7159Y55672D01*
X7317Y55738D01*
X7486Y55772D01*
X7572Y55772D01*
X7572Y55772D01*
X10628Y55772D01*
D02*
G37*
%LPC*%
G36*
X85676Y16486D02*
X84856D01*
X84856Y16486D01*
X84971Y16206D01*
X85156Y15966D01*
X85396Y15781D01*
X85676Y15666D01*
X85676Y15666D01*
Y16486D01*
D02*
G37*
G36*
X83876Y16807D02*
Y15836D01*
X84848D01*
X84843Y15875D01*
X84712Y16191D01*
X84503Y16463D01*
X84232Y16671D01*
X83915Y16802D01*
X83876Y16807D01*
D02*
G37*
G36*
X83276Y16807D02*
X83237Y16802D01*
X82920Y16671D01*
X82649Y16463D01*
X82440Y16191D01*
X82310Y15875D01*
X82304Y15836D01*
X83276D01*
Y16807D01*
D02*
G37*
G36*
Y15236D02*
X82304D01*
X82310Y15196D01*
X82440Y14880D01*
X82649Y14609D01*
X82920Y14400D01*
X83237Y14269D01*
X83276Y14264D01*
Y15236D01*
D02*
G37*
G36*
X84848D02*
X83876D01*
Y14264D01*
X83915Y14269D01*
X84232Y14400D01*
X84503Y14609D01*
X84712Y14880D01*
X84843Y15196D01*
X84848Y15236D01*
D02*
G37*
G36*
X87096Y16486D02*
X86276D01*
Y15666D01*
X86276Y15666D01*
X86556Y15781D01*
X86796Y15966D01*
X86981Y16206D01*
X87096Y16486D01*
X87096Y16486D01*
D02*
G37*
G36*
X67300Y14479D02*
Y13800D01*
X67979D01*
X67905Y13980D01*
X67720Y14220D01*
X67480Y14405D01*
X67300Y14479D01*
D02*
G37*
G36*
X66500Y14479D02*
X66320Y14405D01*
X66080Y14220D01*
X65895Y13980D01*
X65821Y13800D01*
X66500D01*
Y14479D01*
D02*
G37*
G36*
X67979Y41000D02*
X67300D01*
Y40321D01*
X67480Y40395D01*
X67720Y40580D01*
X67905Y40820D01*
X67979Y41000D01*
D02*
G37*
G36*
X66500D02*
X65821D01*
X65895Y40820D01*
X66080Y40580D01*
X66320Y40395D01*
X66500Y40321D01*
Y41000D01*
D02*
G37*
G36*
X18130Y49950D02*
Y49130D01*
X18950D01*
X18950Y49130D01*
X18835Y49410D01*
X18650Y49650D01*
X18410Y49835D01*
X18130Y49950D01*
X18130Y49950D01*
D02*
G37*
G36*
X17530D02*
X17530Y49950D01*
X17250Y49835D01*
X17010Y49650D01*
X16825Y49410D01*
X16710Y49130D01*
X16710Y49130D01*
X17530D01*
Y49950D01*
D02*
G37*
G36*
X20670D02*
Y49130D01*
X21490D01*
X21490Y49130D01*
X21375Y49410D01*
X21190Y49650D01*
X20950Y49835D01*
X20670Y49950D01*
X20670Y49950D01*
D02*
G37*
G36*
X20070D02*
X20070Y49950D01*
X19790Y49835D01*
X19550Y49650D01*
X19365Y49410D01*
X19250Y49130D01*
X19250Y49130D01*
X20070D01*
Y49950D01*
D02*
G37*
G36*
X15590D02*
Y49130D01*
X16410D01*
X16410Y49130D01*
X16295Y49410D01*
X16110Y49650D01*
X15870Y49835D01*
X15590Y49950D01*
X15590Y49950D01*
D02*
G37*
G36*
X56700Y48906D02*
Y48086D01*
X57520D01*
X57520Y48086D01*
X57405Y48366D01*
X57220Y48606D01*
X56980Y48791D01*
X56700Y48906D01*
X56700Y48906D01*
D02*
G37*
G36*
X56100D02*
X56100Y48906D01*
X55820Y48791D01*
X55580Y48606D01*
X55395Y48366D01*
X55280Y48086D01*
X55280Y48086D01*
X56100D01*
Y48906D01*
D02*
G37*
G36*
X14990Y49950D02*
X14990Y49950D01*
X14710Y49835D01*
X14470Y49650D01*
X14285Y49410D01*
X14170Y49130D01*
X14170Y49130D01*
X14990D01*
Y49950D01*
D02*
G37*
G36*
X13050D02*
Y49130D01*
X13870D01*
X13870Y49130D01*
X13755Y49410D01*
X13570Y49650D01*
X13330Y49835D01*
X13050Y49950D01*
X13050Y49950D01*
D02*
G37*
G36*
X22610D02*
X22610Y49950D01*
X22330Y49835D01*
X22090Y49650D01*
X21905Y49410D01*
X21790Y49130D01*
X21790Y49130D01*
X22610D01*
Y49950D01*
D02*
G37*
G36*
X30830D02*
Y49130D01*
X31650D01*
X31650Y49130D01*
X31535Y49410D01*
X31350Y49650D01*
X31110Y49835D01*
X30830Y49950D01*
X30830Y49950D01*
D02*
G37*
G36*
X30230D02*
X30230Y49950D01*
X29950Y49835D01*
X29710Y49650D01*
X29525Y49410D01*
X29410Y49130D01*
X29410Y49130D01*
X30230D01*
Y49950D01*
D02*
G37*
G36*
X28290D02*
Y49130D01*
X29110D01*
X29110Y49130D01*
X28995Y49410D01*
X28810Y49650D01*
X28570Y49835D01*
X28290Y49950D01*
X28290Y49950D01*
D02*
G37*
G36*
X25150D02*
X25150Y49950D01*
X24870Y49835D01*
X24630Y49650D01*
X24445Y49410D01*
X24330Y49130D01*
X24330Y49130D01*
X25150D01*
Y49950D01*
D02*
G37*
G36*
X23210D02*
Y49130D01*
X24030D01*
X24030Y49130D01*
X23915Y49410D01*
X23730Y49650D01*
X23490Y49835D01*
X23210Y49950D01*
X23210Y49950D01*
D02*
G37*
G36*
X27690D02*
X27690Y49950D01*
X27410Y49835D01*
X27170Y49650D01*
X26985Y49410D01*
X26870Y49130D01*
X26870Y49130D01*
X27690D01*
Y49950D01*
D02*
G37*
G36*
X25750D02*
Y49130D01*
X26570D01*
X26570Y49130D01*
X26455Y49410D01*
X26270Y49650D01*
X26030Y49835D01*
X25750Y49950D01*
X25750Y49950D01*
D02*
G37*
G36*
X56100Y47486D02*
X55280D01*
X55280Y47486D01*
X55395Y47206D01*
X55580Y46966D01*
X55820Y46781D01*
X56100Y46666D01*
X56100Y46666D01*
Y47486D01*
D02*
G37*
G36*
X57520D02*
X56700D01*
Y46666D01*
X56700Y46666D01*
X56980Y46781D01*
X57220Y46966D01*
X57405Y47206D01*
X57520Y47486D01*
X57520Y47486D01*
D02*
G37*
G36*
X86276Y20406D02*
Y19586D01*
X87096D01*
X87096Y19586D01*
X86981Y19866D01*
X86796Y20106D01*
X86556Y20291D01*
X86276Y20406D01*
X86276Y20406D01*
D02*
G37*
G36*
X83876Y21807D02*
Y20836D01*
X84848D01*
X84843Y20875D01*
X84712Y21191D01*
X84503Y21463D01*
X84232Y21671D01*
X83915Y21802D01*
X83876Y21807D01*
D02*
G37*
G36*
X83276Y21807D02*
X83237Y21802D01*
X82920Y21671D01*
X82649Y21463D01*
X82440Y21191D01*
X82310Y20875D01*
X82304Y20836D01*
X83276D01*
Y21807D01*
D02*
G37*
G36*
X85676Y20406D02*
X85676Y20406D01*
X85396Y20291D01*
X85156Y20106D01*
X84971Y19866D01*
X84856Y19586D01*
X84856Y19586D01*
X85676D01*
Y20406D01*
D02*
G37*
G36*
X83276Y20236D02*
X82304D01*
X82310Y20196D01*
X82440Y19880D01*
X82649Y19609D01*
X82920Y19400D01*
X83237Y19269D01*
X83276Y19264D01*
Y20236D01*
D02*
G37*
G36*
X84848D02*
X83876D01*
Y19264D01*
X83915Y19269D01*
X84232Y19400D01*
X84503Y19609D01*
X84712Y19880D01*
X84843Y20196D01*
X84848Y20236D01*
D02*
G37*
G36*
X85676Y36486D02*
X84856D01*
X84856Y36486D01*
X84971Y36206D01*
X85156Y35966D01*
X85396Y35781D01*
X85676Y35666D01*
X85676Y35666D01*
Y36486D01*
D02*
G37*
G36*
X87096D02*
X86276D01*
Y35666D01*
X86276Y35666D01*
X86556Y35781D01*
X86796Y35966D01*
X86981Y36206D01*
X87096Y36486D01*
X87096Y36486D01*
D02*
G37*
G36*
X83876Y36807D02*
Y35836D01*
X84848D01*
X84843Y35875D01*
X84712Y36191D01*
X84503Y36463D01*
X84232Y36671D01*
X83915Y36802D01*
X83876Y36807D01*
D02*
G37*
G36*
X83276Y36807D02*
X83237Y36802D01*
X82920Y36671D01*
X82649Y36463D01*
X82440Y36191D01*
X82310Y35875D01*
X82304Y35836D01*
X83276D01*
Y36807D01*
D02*
G37*
G36*
X84848Y35236D02*
X83876D01*
Y34264D01*
X83915Y34269D01*
X84232Y34400D01*
X84503Y34609D01*
X84712Y34880D01*
X84843Y35196D01*
X84848Y35236D01*
D02*
G37*
G36*
X83276D02*
X82304D01*
X82310Y35196D01*
X82440Y34880D01*
X82649Y34609D01*
X82920Y34400D01*
X83237Y34269D01*
X83276Y34264D01*
Y35236D01*
D02*
G37*
G36*
X70400Y42762D02*
X70048Y42715D01*
X69719Y42579D01*
X69437Y42363D01*
X69221Y42081D01*
X69085Y41752D01*
X69038Y41400D01*
X69085Y41048D01*
X69221Y40719D01*
X69437Y40437D01*
X69719Y40221D01*
X70048Y40085D01*
X70400Y40038D01*
X70752Y40085D01*
X71081Y40221D01*
X71363Y40437D01*
X71579Y40719D01*
X71715Y41048D01*
X71762Y41400D01*
X71715Y41752D01*
X71579Y42081D01*
X71363Y42363D01*
X71081Y42579D01*
X70752Y42715D01*
X70400Y42762D01*
D02*
G37*
G36*
X83276Y40236D02*
X82272D01*
Y39436D01*
X82288Y39358D01*
X82332Y39292D01*
X82398Y39247D01*
X82476Y39232D01*
X83276D01*
Y40236D01*
D02*
G37*
G36*
X84676Y41840D02*
X83876D01*
Y40836D01*
X84880D01*
Y41636D01*
X84864Y41714D01*
X84820Y41780D01*
X84754Y41824D01*
X84676Y41840D01*
D02*
G37*
G36*
X83276D02*
X82476D01*
X82398Y41824D01*
X82332Y41780D01*
X82288Y41714D01*
X82272Y41636D01*
Y40836D01*
X83276D01*
Y41840D01*
D02*
G37*
G36*
X86276Y40406D02*
Y39586D01*
X87096D01*
X87096Y39586D01*
X86981Y39866D01*
X86796Y40106D01*
X86556Y40291D01*
X86276Y40406D01*
X86276Y40406D01*
D02*
G37*
G36*
X2900Y34391D02*
D01*
Y34091D01*
X1780D01*
X1780Y34091D01*
X1895Y33811D01*
X2080Y33571D01*
X2320Y33386D01*
X2438Y33337D01*
Y33121D01*
X2219Y33030D01*
X1937Y32814D01*
X1721Y32532D01*
X1585Y32203D01*
X1538Y31851D01*
X1585Y31499D01*
X1721Y31170D01*
X1937Y30888D01*
X2190Y30694D01*
X2206Y30581D01*
X2190Y30468D01*
X1937Y30274D01*
X1721Y29992D01*
X1585Y29663D01*
X1538Y29311D01*
X1585Y28959D01*
X1721Y28630D01*
X1937Y28348D01*
X2190Y28154D01*
X2206Y28041D01*
X2190Y27928D01*
X1937Y27734D01*
X1721Y27452D01*
X1585Y27123D01*
X1538Y26771D01*
X1585Y26419D01*
X1721Y26090D01*
X1937Y25808D01*
X2190Y25614D01*
X2206Y25501D01*
X2190Y25388D01*
X1937Y25194D01*
X1721Y24912D01*
X1585Y24583D01*
X1538Y24231D01*
X1585Y23879D01*
X1721Y23550D01*
X1937Y23268D01*
X1962Y23249D01*
X1957Y23159D01*
X1906Y23040D01*
X1794Y23018D01*
X1662Y22929D01*
X1573Y22797D01*
X1542Y22641D01*
Y20741D01*
X1573Y20585D01*
X1662Y20453D01*
X1794Y20364D01*
X1950Y20333D01*
X3850D01*
X4006Y20364D01*
X4138Y20453D01*
X4227Y20585D01*
X4258Y20741D01*
Y22641D01*
X4227Y22797D01*
X4138Y22929D01*
X4006Y23018D01*
X3894Y23040D01*
X3843Y23159D01*
X3838Y23249D01*
X3863Y23268D01*
X4079Y23550D01*
X4215Y23879D01*
X4262Y24231D01*
X4215Y24583D01*
X4079Y24912D01*
X3863Y25194D01*
X3610Y25388D01*
X3594Y25501D01*
X3610Y25614D01*
X3863Y25808D01*
X4079Y26090D01*
X4215Y26419D01*
X4221Y26465D01*
X7002D01*
X9260Y24207D01*
X9239Y24100D01*
X9282Y23885D01*
X9403Y23703D01*
X9585Y23582D01*
X9800Y23539D01*
X10015Y23582D01*
X10197Y23703D01*
X10318Y23885D01*
X10361Y24100D01*
X10318Y24315D01*
X10197Y24497D01*
X10147Y24530D01*
Y24770D01*
X10197Y24803D01*
X10318Y24985D01*
X10361Y25200D01*
X10318Y25415D01*
X10197Y25597D01*
X10015Y25718D01*
X9800Y25761D01*
X9693Y25740D01*
X5905Y29527D01*
X5806Y29594D01*
X5689Y29617D01*
X5689Y29617D01*
X4221D01*
X4215Y29663D01*
X4079Y29992D01*
X3863Y30274D01*
X3610Y30468D01*
X3594Y30581D01*
X3610Y30694D01*
X3863Y30888D01*
X4079Y31170D01*
X4215Y31499D01*
X4262Y31851D01*
X4215Y32203D01*
X4079Y32532D01*
X3863Y32814D01*
X3581Y33030D01*
X3362Y33121D01*
Y33337D01*
X3480Y33386D01*
X3720Y33571D01*
X3905Y33811D01*
X4020Y34091D01*
X4020Y34091D01*
X2900D01*
Y34391D01*
D02*
G37*
G36*
X9700Y23161D02*
X9485Y23118D01*
X9303Y22997D01*
X9243Y22906D01*
X6857D01*
X6797Y22997D01*
X6615Y23118D01*
X6400Y23161D01*
X6185Y23118D01*
X6003Y22997D01*
X5882Y22815D01*
X5839Y22600D01*
X5882Y22385D01*
X6003Y22203D01*
X6142Y22111D01*
X6157Y22043D01*
Y21957D01*
X6142Y21889D01*
X6003Y21797D01*
X5882Y21615D01*
X5839Y21400D01*
X5882Y21185D01*
X6003Y21003D01*
X6185Y20882D01*
X6400Y20839D01*
X6615Y20882D01*
X6797Y21003D01*
X6857Y21094D01*
X9243D01*
X9303Y21003D01*
X9485Y20882D01*
X9700Y20839D01*
X9915Y20882D01*
X10097Y21003D01*
X10218Y21185D01*
X10261Y21400D01*
X10218Y21615D01*
X10097Y21797D01*
X9958Y21889D01*
X9943Y21957D01*
Y22043D01*
X9958Y22111D01*
X10097Y22203D01*
X10218Y22385D01*
X10261Y22600D01*
X10218Y22815D01*
X10097Y22997D01*
X9915Y23118D01*
X9700Y23161D01*
D02*
G37*
G36*
X32150Y17586D02*
X31935Y17543D01*
X31753Y17422D01*
X31632Y17240D01*
X31589Y17025D01*
X31594Y17001D01*
X31083Y16490D01*
X30977Y16512D01*
X30762Y16469D01*
X30580Y16347D01*
X30458Y16165D01*
X30416Y15951D01*
X30458Y15736D01*
X30580Y15554D01*
X30762Y15433D01*
X30977Y15390D01*
X31191Y15433D01*
X31373Y15554D01*
X31495Y15736D01*
X31537Y15951D01*
X31516Y16058D01*
X31960Y16502D01*
X32150Y16464D01*
X32365Y16507D01*
X32547Y16628D01*
X32668Y16810D01*
X32711Y17025D01*
X32668Y17240D01*
X32547Y17422D01*
X32365Y17543D01*
X32150Y17586D01*
D02*
G37*
G36*
X28400Y24761D02*
X28185Y24718D01*
X28003Y24597D01*
X27882Y24415D01*
X27839Y24200D01*
X27860Y24093D01*
X27273Y23506D01*
X26407D01*
X26347Y23597D01*
X26165Y23718D01*
X25950Y23761D01*
X25735Y23718D01*
X25553Y23597D01*
X25432Y23415D01*
X25389Y23200D01*
X25432Y22985D01*
X25553Y22803D01*
X25735Y22682D01*
X25950Y22639D01*
X26165Y22682D01*
X26347Y22803D01*
X26407Y22894D01*
X27100D01*
X27177Y22709D01*
X22854Y18387D01*
X22757Y18397D01*
X22575Y18518D01*
X22462Y18541D01*
X22347Y18657D01*
X22332Y18755D01*
X22361Y18900D01*
X22318Y19115D01*
X22197Y19297D01*
X22015Y19418D01*
X21800Y19461D01*
X21585Y19418D01*
X21403Y19297D01*
X21282Y19115D01*
X21259Y19000D01*
X20606D01*
Y20743D01*
X20697Y20803D01*
X20818Y20985D01*
X20828Y21034D01*
X21048Y21115D01*
X21135Y21057D01*
X21350Y21014D01*
X21565Y21057D01*
X21747Y21178D01*
X21868Y21360D01*
X21911Y21575D01*
X21868Y21790D01*
X21860Y21801D01*
X22005Y21945D01*
X22060Y21908D01*
X22275Y21865D01*
X22490Y21908D01*
X22672Y22030D01*
X22793Y22211D01*
X22836Y22426D01*
X22793Y22641D01*
X22672Y22823D01*
X22490Y22944D01*
X22275Y22987D01*
X22060Y22944D01*
X21878Y22823D01*
X21818Y22732D01*
X19910D01*
X19793Y22709D01*
X19694Y22642D01*
X19694Y22642D01*
X18734Y21682D01*
X18667Y21583D01*
X18644Y21466D01*
X18644Y21466D01*
Y18302D01*
X13584Y13241D01*
X13517Y13142D01*
X13494Y13025D01*
X13494Y13025D01*
Y12132D01*
X13403Y12072D01*
X13282Y11890D01*
X13239Y11675D01*
X13282Y11460D01*
X13403Y11278D01*
X13585Y11157D01*
X13800Y11114D01*
X14015Y11157D01*
X14018Y11155D01*
X14057Y10960D01*
X14178Y10778D01*
X14360Y10657D01*
X14575Y10614D01*
X14790Y10657D01*
X14937Y10756D01*
X14959Y10733D01*
X15076Y10608D01*
X15043Y10565D01*
X14948Y10335D01*
X15660D01*
Y11047D01*
X15430Y10952D01*
X15211Y10784D01*
X15075Y10896D01*
X15093Y10960D01*
X15136Y11175D01*
X15093Y11390D01*
X15062Y11437D01*
X15210Y11575D01*
X15330Y11483D01*
X15634Y11357D01*
X15960Y11314D01*
X16286Y11357D01*
X16590Y11483D01*
X16852Y11683D01*
X17052Y11945D01*
X17122Y12113D01*
X17338D01*
X17408Y11945D01*
X17608Y11683D01*
X17870Y11483D01*
X18038Y11413D01*
Y11197D01*
X17870Y11127D01*
X17608Y10927D01*
X17408Y10665D01*
X17282Y10361D01*
X17239Y10035D01*
X17282Y9709D01*
X17408Y9405D01*
X17608Y9143D01*
X17870Y8943D01*
X18174Y8817D01*
X18500Y8774D01*
X18826Y8817D01*
X19130Y8943D01*
X19345Y8856D01*
X19351Y8818D01*
X19282Y8715D01*
X19239Y8500D01*
X19282Y8285D01*
X19403Y8103D01*
X19585Y7982D01*
X19800Y7939D01*
X20015Y7982D01*
X20197Y8103D01*
X20318Y8285D01*
X20361Y8500D01*
X20318Y8715D01*
X20254Y8810D01*
X20402Y8949D01*
X20410Y8943D01*
X20714Y8817D01*
X21040Y8774D01*
X21366Y8817D01*
X21670Y8943D01*
X21931Y9143D01*
X22132Y9405D01*
X22214Y9603D01*
X22443Y9657D01*
X22550Y9550D01*
X26200Y13200D01*
X26200Y14194D01*
X27243D01*
X27303Y14103D01*
X27485Y13982D01*
X27700Y13939D01*
X27915Y13982D01*
X28097Y14103D01*
X28199Y14257D01*
X28316Y14259D01*
X28407Y14235D01*
X28407Y14235D01*
X28528Y14053D01*
X28710Y13932D01*
X28925Y13889D01*
X29140Y13932D01*
X29322Y14053D01*
X29443Y14235D01*
X29486Y14450D01*
X29443Y14665D01*
X29322Y14847D01*
X29140Y14968D01*
X28925Y15011D01*
X28818Y14990D01*
X28416Y15391D01*
X28317Y15458D01*
X28200Y15481D01*
X28200Y15481D01*
X27075D01*
Y21742D01*
X27842Y22510D01*
X28053Y22553D01*
X28235Y22432D01*
X28450Y22389D01*
X28665Y22432D01*
X28847Y22553D01*
X28968Y22735D01*
X29011Y22950D01*
X28968Y23165D01*
X28847Y23347D01*
X28665Y23468D01*
X28615Y23478D01*
X28615Y23682D01*
X28615Y23682D01*
X28797Y23803D01*
X28918Y23985D01*
X28961Y24200D01*
X28918Y24415D01*
X28797Y24597D01*
X28615Y24718D01*
X28400Y24761D01*
D02*
G37*
G36*
X15724Y4330D02*
X15724D01*
X15529Y4291D01*
X15363Y4180D01*
X15253Y4015D01*
X15214Y3820D01*
Y3320D01*
X15724D01*
Y4330D01*
D02*
G37*
G36*
X21505Y2500D02*
X21199D01*
Y2194D01*
X21239Y2210D01*
X21380Y2319D01*
X21488Y2460D01*
X21505Y2500D01*
D02*
G37*
G36*
X22874Y4330D02*
X22874D01*
X22679Y4291D01*
X22513Y4180D01*
X22403Y4015D01*
X22364Y3820D01*
Y3320D01*
X22874D01*
Y4330D01*
D02*
G37*
G36*
X23474D02*
Y3320D01*
X23984D01*
Y3820D01*
X23945Y4015D01*
X23834Y4180D01*
X23669Y4291D01*
X23474Y4330D01*
D02*
G37*
G36*
X16324D02*
Y3320D01*
X16834D01*
Y3820D01*
X16795Y4015D01*
X16684Y4180D01*
X16519Y4291D01*
X16324Y4330D01*
D02*
G37*
G36*
X22874Y2720D02*
X22364D01*
Y2220D01*
X22403Y2025D01*
X22513Y1860D01*
X22679Y1749D01*
X22874Y1710D01*
X22874D01*
Y2720D01*
D02*
G37*
G36*
X15724D02*
X15214D01*
Y2220D01*
X15253Y2025D01*
X15363Y1860D01*
X15529Y1749D01*
X15724Y1710D01*
X15724D01*
Y2720D01*
D02*
G37*
G36*
X16834D02*
X16324D01*
Y1710D01*
X16519Y1749D01*
X16684Y1860D01*
X16795Y2025D01*
X16834Y2220D01*
Y2720D01*
D02*
G37*
G36*
X17400Y4683D02*
X17400Y1900D01*
X20288Y1900D01*
Y2174D01*
X20485Y2267D01*
X20512Y2246D01*
X20558Y2210D01*
X20599Y2194D01*
Y2800D01*
X20899D01*
Y3100D01*
X21505D01*
X21488Y3140D01*
X21380Y3281D01*
X21239Y3390D01*
X21129Y3435D01*
X21129Y3780D01*
X21131Y3800D01*
X21129Y3820D01*
X21129Y4683D01*
X20249Y4683D01*
X20249Y4683D01*
X20249Y4683D01*
X18949Y4683D01*
X18949Y4683D01*
X18949Y4683D01*
X17400Y4683D01*
D02*
G37*
G36*
X23984Y2720D02*
X23474D01*
Y1710D01*
X23669Y1749D01*
X23834Y1860D01*
X23945Y2025D01*
X23984Y2220D01*
Y2720D01*
D02*
G37*
G36*
X16260Y11047D02*
Y10335D01*
X16972D01*
X16877Y10565D01*
X16709Y10784D01*
X16490Y10952D01*
X16260Y11047D01*
D02*
G37*
G36*
X34800Y10261D02*
X34585Y10218D01*
X34403Y10097D01*
X34282Y9915D01*
X34239Y9700D01*
X34261Y9593D01*
X32507Y7839D01*
X32400Y7861D01*
X32185Y7818D01*
X32003Y7697D01*
X31882Y7515D01*
X31839Y7300D01*
X31882Y7085D01*
X32003Y6903D01*
X32185Y6782D01*
X32400Y6739D01*
X32615Y6782D01*
X32797Y6903D01*
X32918Y7085D01*
X32961Y7300D01*
X32940Y7407D01*
X34693Y9160D01*
X34800Y9139D01*
X35015Y9182D01*
X35197Y9303D01*
X35318Y9485D01*
X35361Y9700D01*
X35318Y9915D01*
X35197Y10097D01*
X35015Y10218D01*
X34800Y10261D01*
D02*
G37*
G36*
X34050Y11661D02*
X33835Y11618D01*
X33653Y11497D01*
X33532Y11315D01*
X33489Y11100D01*
X33511Y10993D01*
X32348Y9831D01*
X28657D01*
X28597Y9922D01*
X28415Y10043D01*
X28200Y10086D01*
X27985Y10043D01*
X27803Y9922D01*
X27682Y9740D01*
X27639Y9525D01*
X27682Y9310D01*
X27803Y9128D01*
X27985Y9007D01*
X28200Y8964D01*
X28415Y9007D01*
X28597Y9128D01*
X28657Y9219D01*
X32475D01*
X32475Y9219D01*
X32592Y9242D01*
X32691Y9309D01*
X33943Y10561D01*
X34050Y10539D01*
X34265Y10582D01*
X34447Y10703D01*
X34568Y10885D01*
X34611Y11100D01*
X34568Y11315D01*
X34447Y11497D01*
X34265Y11618D01*
X34050Y11661D01*
D02*
G37*
G36*
X34100Y7409D02*
X33813Y7372D01*
X33545Y7261D01*
X33315Y7085D01*
X33139Y6855D01*
X33028Y6587D01*
X32991Y6300D01*
X33028Y6013D01*
X33139Y5745D01*
X33315Y5515D01*
X33545Y5339D01*
X33813Y5228D01*
X34100Y5191D01*
X34387Y5228D01*
X34655Y5339D01*
X34885Y5515D01*
X35061Y5745D01*
X35172Y6013D01*
X35209Y6300D01*
X35172Y6587D01*
X35061Y6855D01*
X34885Y7085D01*
X34655Y7261D01*
X34387Y7372D01*
X34100Y7409D01*
D02*
G37*
G36*
X26500D02*
X26213Y7372D01*
X25945Y7261D01*
X25715Y7085D01*
X25539Y6855D01*
X25428Y6587D01*
X25391Y6300D01*
X25428Y6013D01*
X25539Y5745D01*
X25715Y5515D01*
X25945Y5339D01*
X26213Y5228D01*
X26500Y5191D01*
X26787Y5228D01*
X27055Y5339D01*
X27285Y5515D01*
X27461Y5745D01*
X27572Y6013D01*
X27609Y6300D01*
X27572Y6587D01*
X27461Y6855D01*
X27285Y7085D01*
X27055Y7261D01*
X26787Y7372D01*
X26500Y7409D01*
D02*
G37*
G36*
X23800Y9961D02*
X23585Y9918D01*
X23403Y9797D01*
X23282Y9615D01*
X23239Y9400D01*
X23282Y9185D01*
X23403Y9003D01*
X23494Y8943D01*
Y7757D01*
X23403Y7697D01*
X23282Y7515D01*
X23239Y7300D01*
X23282Y7085D01*
X23403Y6903D01*
X23585Y6782D01*
X23800Y6739D01*
X24015Y6782D01*
X24197Y6903D01*
X24318Y7085D01*
X24361Y7300D01*
X24318Y7515D01*
X24197Y7697D01*
X24106Y7757D01*
Y8943D01*
X24197Y9003D01*
X24318Y9185D01*
X24361Y9400D01*
X24318Y9615D01*
X24197Y9797D01*
X24015Y9918D01*
X23800Y9961D01*
D02*
G37*
G36*
X16972Y9735D02*
X16260D01*
Y9023D01*
X16490Y9118D01*
X16709Y9286D01*
X16877Y9505D01*
X16972Y9735D01*
D02*
G37*
G36*
X15660D02*
X14948D01*
X15043Y9505D01*
X15211Y9286D01*
X15430Y9118D01*
X15660Y9023D01*
Y9735D01*
D02*
G37*
G36*
X10100Y52124D02*
X9450D01*
Y51270D01*
X10304D01*
Y51920D01*
X10288Y51998D01*
X10244Y52064D01*
X10178Y52108D01*
X10100Y52124D01*
D02*
G37*
G36*
X8850D02*
X8200D01*
X8122Y52108D01*
X8056Y52064D01*
X8012Y51998D01*
X7996Y51920D01*
Y51270D01*
X8850D01*
Y52124D01*
D02*
G37*
G36*
X3200Y35511D02*
Y34691D01*
X4020D01*
X4020Y34691D01*
X3905Y34971D01*
X3720Y35211D01*
X3480Y35396D01*
X3200Y35511D01*
X3200Y35511D01*
D02*
G37*
G36*
X24000Y25861D02*
X23785Y25818D01*
X23603Y25697D01*
X23543Y25606D01*
X17500D01*
X17500Y25606D01*
X17383Y25583D01*
X17284Y25516D01*
X16507Y24740D01*
X16400Y24761D01*
X16185Y24718D01*
X16003Y24597D01*
X15882Y24415D01*
X15839Y24200D01*
X15882Y23985D01*
X16003Y23803D01*
X16185Y23682D01*
X16400Y23639D01*
X16615Y23682D01*
X16797Y23803D01*
X16918Y23985D01*
X16961Y24200D01*
X16940Y24307D01*
X17627Y24994D01*
X23543D01*
X23603Y24903D01*
X23785Y24782D01*
X24000Y24739D01*
X24215Y24782D01*
X24397Y24903D01*
X24518Y25085D01*
X24561Y25300D01*
X24518Y25515D01*
X24397Y25697D01*
X24215Y25818D01*
X24000Y25861D01*
D02*
G37*
G36*
X2600Y35511D02*
X2600Y35511D01*
X2320Y35396D01*
X2080Y35211D01*
X1895Y34971D01*
X1780Y34691D01*
X1780Y34691D01*
X2600D01*
Y35511D01*
D02*
G37*
G36*
X10304Y50670D02*
X9150D01*
X7996D01*
Y50020D01*
X8012Y49942D01*
X8056Y49876D01*
X8122Y49832D01*
X8200Y49816D01*
X8446D01*
X8486Y49616D01*
X8469Y49609D01*
X8187Y49393D01*
X7971Y49111D01*
X7835Y48782D01*
X7788Y48430D01*
X7835Y48078D01*
X7971Y47749D01*
X8187Y47467D01*
X8440Y47273D01*
X8456Y47160D01*
X8440Y47047D01*
X8187Y46853D01*
X7971Y46571D01*
X7835Y46242D01*
X7788Y45890D01*
X7835Y45538D01*
X7971Y45209D01*
X8187Y44927D01*
X8440Y44733D01*
X8456Y44620D01*
X8440Y44507D01*
X8187Y44313D01*
X7971Y44031D01*
X7835Y43702D01*
X7788Y43350D01*
X7835Y42998D01*
X7971Y42669D01*
X8187Y42387D01*
X8469Y42171D01*
X8798Y42035D01*
X9150Y41988D01*
X9502Y42035D01*
X9831Y42171D01*
X10113Y42387D01*
X10329Y42669D01*
X10465Y42998D01*
X10512Y43350D01*
X10465Y43702D01*
X10329Y44031D01*
X10113Y44313D01*
X9860Y44507D01*
X9844Y44620D01*
X9860Y44733D01*
X10113Y44927D01*
X10329Y45209D01*
X10465Y45538D01*
X10512Y45890D01*
X10465Y46242D01*
X10329Y46571D01*
X10113Y46853D01*
X9860Y47047D01*
X9844Y47160D01*
X9860Y47273D01*
X10113Y47467D01*
X10329Y47749D01*
X10465Y48078D01*
X10512Y48430D01*
X10465Y48782D01*
X10329Y49111D01*
X10113Y49393D01*
X9831Y49609D01*
X9814Y49616D01*
X9854Y49816D01*
X10100D01*
X10178Y49832D01*
X10244Y49876D01*
X10288Y49942D01*
X10304Y50020D01*
Y50670D01*
D02*
G37*
%LPD*%
D10*
X6857Y943D02*
Y7857D01*
Y943D02*
X7495Y305D01*
X27400Y23200D02*
X28400Y24200D01*
X25950Y23200D02*
X27400D01*
X20300Y18269D02*
Y21200D01*
X15960Y13929D02*
X20300Y18269D01*
X32400Y7300D02*
X32400D01*
X34800Y9700D01*
X15960Y12575D02*
Y13929D01*
X28200Y15175D02*
X28925Y14450D01*
X24325Y15175D02*
X28200D01*
X22500Y17000D02*
X24325Y15175D01*
X23900Y14500D02*
X27700D01*
X21711Y16689D02*
X23900Y14500D01*
X21711Y16689D02*
Y18811D01*
X32475Y9525D02*
X34050Y11100D01*
X28200Y9525D02*
X32475D01*
X17500Y25300D02*
X23900D01*
X16400Y24200D02*
X17500Y25300D01*
X6400Y22600D02*
X9700D01*
X6400Y21400D02*
X9700D01*
X2900Y26771D02*
X7129D01*
X9800Y24100D01*
X2900Y29311D02*
X5689D01*
X9800Y25200D01*
X21711Y18811D02*
X21800Y18900D01*
X30977Y15951D02*
X31076D01*
X30977D02*
X32051Y17025D01*
X32150D01*
X22325Y22475D02*
X22375D01*
X14575Y11175D02*
Y13175D01*
X19350Y17950D01*
X20975Y21950D02*
X21350Y21575D01*
X20000Y21950D02*
X20975D01*
X19350Y21300D02*
X20000Y21950D01*
X19350Y17950D02*
Y21300D01*
X13800Y11675D02*
Y13025D01*
X18950Y18175D01*
Y21466D01*
X19910Y22426D01*
X22275D01*
X18500Y12575D02*
X19800Y11275D01*
Y8500D02*
Y11275D01*
X23800Y7300D02*
Y9400D01*
X22361Y18000D02*
X22900D01*
X27850Y22950D01*
X28425D01*
X7495Y305D02*
X11930D01*
X13925Y2300D01*
D11*
X24455Y13450D02*
X25550D01*
X21040Y10035D02*
X24455Y13450D01*
X25550Y16000D02*
Y19150D01*
X26435Y20035D01*
D12*
X39367Y8250D02*
X48819D01*
D13*
X22910Y43750D02*
D03*
X25450D02*
D03*
X30530D02*
D03*
X27990D02*
D03*
Y46290D02*
D03*
X30530D02*
D03*
X25450D02*
D03*
X22910D02*
D03*
Y48830D02*
D03*
X25450D02*
D03*
X30530D02*
D03*
X27990D02*
D03*
X20370D02*
D03*
X17830D02*
D03*
X15290D02*
D03*
X12750D02*
D03*
Y46290D02*
D03*
X15290D02*
D03*
X17830D02*
D03*
X20370D02*
D03*
X17830Y43750D02*
D03*
X15290D02*
D03*
X20370D02*
D03*
X85976Y39286D02*
D03*
Y36786D02*
D03*
Y16786D02*
D03*
Y19286D02*
D03*
Y29286D02*
D03*
Y26786D02*
D03*
X9150Y43350D02*
D03*
X9150Y48430D02*
D03*
X9150Y45890D02*
D03*
X2900Y31851D02*
D03*
Y29311D02*
D03*
Y24231D02*
D03*
Y26771D02*
D03*
Y34391D02*
D03*
X39400Y8286D02*
D03*
X56400D02*
D03*
X39400Y47786D02*
D03*
X56400D02*
D03*
X66900Y13400D02*
D03*
X70400Y13400D02*
D03*
X66900Y41400D02*
D03*
X70400D02*
D03*
D14*
X12750Y43750D02*
D03*
D15*
X83576Y15536D02*
D03*
Y25536D02*
D03*
X83576Y35536D02*
D03*
X83576Y30536D02*
D03*
X83576Y20536D02*
D03*
D16*
X83576Y40536D02*
D03*
D17*
X9150Y50970D02*
D03*
X2900Y21691D02*
D03*
D18*
X26500Y6300D02*
D03*
X34100D02*
D03*
D19*
X21040Y10035D02*
D03*
X18500Y10035D02*
D03*
X15960Y10035D02*
D03*
X15960Y12575D02*
D03*
X18500D02*
D03*
D20*
X21040D02*
D03*
D21*
X19599Y2800D02*
D03*
X18299D02*
D03*
X20899D02*
D03*
X18949Y3800D02*
D03*
X20249D02*
D03*
D22*
X23174Y3020D02*
D03*
X16024D02*
D03*
D23*
X25350Y3050D02*
D03*
X34200Y800D02*
D03*
X8200Y1300D02*
D03*
X23100Y19500D02*
D03*
X9525Y9850D02*
D03*
X11525D02*
D03*
X9525Y7850D02*
D03*
X10525Y8850D02*
D03*
X32400Y7300D02*
D03*
X23100Y21100D02*
D03*
X20300Y21200D02*
D03*
X32150Y17025D02*
D03*
X28925Y14450D02*
D03*
X22500Y17000D02*
D03*
X34050Y11100D02*
D03*
X34800Y9700D02*
D03*
X28200Y9525D02*
D03*
X28450Y22950D02*
D03*
X21800Y18900D02*
D03*
X24000Y25300D02*
D03*
X16400Y24200D02*
D03*
X9700Y22600D02*
D03*
X6400D02*
D03*
Y21400D02*
D03*
X9700D02*
D03*
X9800Y25200D02*
D03*
Y24100D02*
D03*
X13750Y35950D02*
D03*
X20300Y31730D02*
D03*
X23450Y28250D02*
D03*
X25800Y34350D02*
D03*
X20550D02*
D03*
X19650D02*
D03*
X18650D02*
D03*
X17650D02*
D03*
X16750D02*
D03*
X48042Y3864D02*
D03*
X47317D02*
D03*
X46592D02*
D03*
X45867D02*
D03*
X45142D02*
D03*
Y4639D02*
D03*
Y5364D02*
D03*
X45867Y4639D02*
D03*
Y5364D02*
D03*
X46592D02*
D03*
Y4639D02*
D03*
X47317Y5364D02*
D03*
Y4639D02*
D03*
X48042Y5364D02*
D03*
Y4639D02*
D03*
X52867Y28664D02*
D03*
Y27964D02*
D03*
Y27264D02*
D03*
Y26564D02*
D03*
Y25864D02*
D03*
Y25164D02*
D03*
Y29364D02*
D03*
Y30064D02*
D03*
Y30764D02*
D03*
X51467Y30764D02*
D03*
X50767Y30764D02*
D03*
X52167Y30764D02*
D03*
X51467Y30064D02*
D03*
X50767Y30064D02*
D03*
X52167Y30064D02*
D03*
X51467Y29364D02*
D03*
X50767Y29364D02*
D03*
X52167Y29364D02*
D03*
X51467Y25164D02*
D03*
X50767Y25164D02*
D03*
X51467Y25864D02*
D03*
X50767Y25864D02*
D03*
X52167Y25864D02*
D03*
Y25164D02*
D03*
X48767Y3864D02*
D03*
Y4639D02*
D03*
X49492D02*
D03*
X52167Y26564D02*
D03*
X50767Y26564D02*
D03*
X51467Y26564D02*
D03*
X52167Y27264D02*
D03*
X50767Y27264D02*
D03*
X51467Y27264D02*
D03*
X52167Y27964D02*
D03*
X50767Y27964D02*
D03*
X51467Y27964D02*
D03*
X52167Y28664D02*
D03*
X50767Y28664D02*
D03*
X51467Y28664D02*
D03*
X48767Y5364D02*
D03*
X49492D02*
D03*
X50217D02*
D03*
Y4639D02*
D03*
X29750Y18900D02*
D03*
Y21200D02*
D03*
X17900Y20300D02*
D03*
X11282Y17503D02*
D03*
X11282Y19275D02*
D03*
X19300Y31730D02*
D03*
X29800Y16000D02*
D03*
X25500Y10675D02*
D03*
X26250Y8400D02*
D03*
X27700Y14500D02*
D03*
X22361Y18000D02*
D03*
X30977Y15951D02*
D03*
X11525Y7850D02*
D03*
X6853Y7861D02*
D03*
X14575Y11175D02*
D03*
X13800Y11675D02*
D03*
X22275Y22426D02*
D03*
X21350Y21575D02*
D03*
X19800Y8500D02*
D03*
X23800Y9400D02*
D03*
Y7300D02*
D03*
X28400Y24200D02*
D03*
X25950Y23200D02*
D03*
X13900Y4100D02*
D03*
X13925Y2300D02*
D03*
X7625Y5475D02*
D03*
X34750Y22750D02*
D03*
Y12250D02*
D03*
X40900Y20800D02*
D03*
Y19600D02*
D03*
D24*
X56903Y37200D02*
D03*
X58175Y4864D02*
D03*
D25*
X78067Y52161D02*
D03*
X79492Y52141D02*
D03*
X80917Y52161D02*
D03*
X82342D02*
D03*
X48100Y17200D02*
D03*
X47100Y17200D02*
D03*
X48100Y18300D02*
D03*
X47100Y18300D02*
D03*
X48100Y19400D02*
D03*
X47100Y19400D02*
D03*
Y21600D02*
D03*
X48100Y21600D02*
D03*
X47100Y20500D02*
D03*
X48100Y20500D02*
D03*
X72175Y31900D02*
D03*
X71067D02*
D03*
X72175Y28600D02*
D03*
X71067D02*
D03*
X68850Y31900D02*
D03*
Y28600D02*
D03*
X69958D02*
D03*
Y31900D02*
D03*
X49100Y42800D02*
D03*
X48000D02*
D03*
Y45000D02*
D03*
Y43900D02*
D03*
X49100Y45000D02*
D03*
Y43900D02*
D03*
X65267Y16500D02*
D03*
X57467Y52264D02*
D03*
X56367D02*
D03*
X55267D02*
D03*
X54167D02*
D03*
X50867D02*
D03*
X51967D02*
D03*
X53067D02*
D03*
Y51164D02*
D03*
Y50064D02*
D03*
X51967D02*
D03*
Y51164D02*
D03*
X50867Y50064D02*
D03*
Y51164D02*
D03*
X54167D02*
D03*
Y50064D02*
D03*
X55267Y51164D02*
D03*
Y50064D02*
D03*
X56367D02*
D03*
Y51164D02*
D03*
X57467Y50064D02*
D03*
Y51164D02*
D03*
X65067Y37064D02*
D03*
Y38164D02*
D03*
Y39264D02*
D03*
X82142Y3164D02*
D03*
X80717D02*
D03*
X59367Y19664D02*
D03*
X51867Y21264D02*
D03*
X50867Y21264D02*
D03*
X51867Y22364D02*
D03*
X50867Y22364D02*
D03*
X54267Y39064D02*
D03*
X78167Y48664D02*
D03*
X79467Y48644D02*
D03*
X73067Y43364D02*
D03*
Y42064D02*
D03*
X73092Y40064D02*
D03*
Y38764D02*
D03*
X79292Y3184D02*
D03*
X77867Y3164D02*
D03*
X76467Y11764D02*
D03*
Y13064D02*
D03*
Y15264D02*
D03*
Y16564D02*
D03*
X60767Y16664D02*
D03*
Y15664D02*
D03*
X59367Y16664D02*
D03*
Y15664D02*
D03*
X59267Y36336D02*
D03*
X60667D02*
D03*
X59267Y37336D02*
D03*
X60667Y37336D02*
D03*
X60767Y17664D02*
D03*
Y18664D02*
D03*
X59367Y17664D02*
D03*
Y18664D02*
D03*
X60767Y19664D02*
D03*
X65267Y15364D02*
D03*
Y14264D02*
D03*
Y13164D02*
D03*
X54167Y49064D02*
D03*
Y47964D02*
D03*
Y46864D02*
D03*
X53067Y49064D02*
D03*
Y47964D02*
D03*
Y46864D02*
D03*
X51967D02*
D03*
Y47964D02*
D03*
Y49064D02*
D03*
X50867Y46864D02*
D03*
Y47964D02*
D03*
Y49064D02*
D03*
X55667Y14364D02*
D03*
Y13364D02*
D03*
X54667Y13364D02*
D03*
Y14364D02*
D03*
X76442Y38764D02*
D03*
Y40064D02*
D03*
X76467Y42064D02*
D03*
Y43364D02*
D03*
X50867Y35564D02*
D03*
X50867Y33564D02*
D03*
X50867Y34564D02*
D03*
X51867Y35550D02*
D03*
X51867Y33550D02*
D03*
X51867Y34550D02*
D03*
X72175Y30775D02*
D03*
Y29675D02*
D03*
D26*
X25550Y13450D02*
D03*
X26424Y20047D02*
D03*
X25550Y16000D02*
D03*
M02*
