G04 Layer_Physical_Order=2*
G04 Layer_Color=16711680*
%FSLAX43Y43*%
%MOMM*%
G71*
G01*
G75*
%ADD10C,0.200*%
%ADD11C,0.400*%
%ADD13C,1.900*%
%ADD14R,1.900X1.900*%
%ADD15C,2.200*%
%ADD16R,2.200X2.200*%
%ADD17R,1.900X1.900*%
%ADD18C,1.400*%
%ADD19C,1.700*%
%ADD20R,1.700X1.700*%
%ADD21C,0.950*%
G04:AMPARAMS|DCode=22|XSize=2.2mm|YSize=1.2mm|CornerRadius=0.3mm|HoleSize=0mm|Usage=FLASHONLY|Rotation=90.000|XOffset=0mm|YOffset=0mm|HoleType=Round|Shape=RoundedRectangle|*
%AMROUNDEDRECTD22*
21,1,2.200,0.600,0,0,90.0*
21,1,1.600,1.200,0,0,90.0*
1,1,0.600,0.300,0.800*
1,1,0.600,0.300,-0.800*
1,1,0.600,-0.300,-0.800*
1,1,0.600,-0.300,0.800*
%
%ADD22ROUNDEDRECTD22*%
%ADD23C,0.700*%
%ADD24C,1.500*%
%ADD25C,1.000*%
%ADD26C,0.800*%
G04:AMPARAMS|DCode=27|XSize=0.91mm|YSize=1.46mm|CornerRadius=0.114mm|HoleSize=0mm|Usage=FLASHONLY|Rotation=90.000|XOffset=0mm|YOffset=0mm|HoleType=Round|Shape=RoundedRectangle|*
%AMROUNDEDRECTD27*
21,1,0.910,1.232,0,0,90.0*
21,1,0.682,1.460,0,0,90.0*
1,1,0.228,0.616,0.341*
1,1,0.228,0.616,-0.341*
1,1,0.228,-0.616,-0.341*
1,1,0.228,-0.616,0.341*
%
%ADD27ROUNDEDRECTD27*%
G04:AMPARAMS|DCode=28|XSize=0.92mm|YSize=1.08mm|CornerRadius=0.115mm|HoleSize=0mm|Usage=FLASHONLY|Rotation=270.000|XOffset=0mm|YOffset=0mm|HoleType=Round|Shape=RoundedRectangle|*
%AMROUNDEDRECTD28*
21,1,0.920,0.850,0,0,270.0*
21,1,0.690,1.080,0,0,270.0*
1,1,0.230,-0.425,-0.345*
1,1,0.230,-0.425,0.345*
1,1,0.230,0.425,0.345*
1,1,0.230,0.425,-0.345*
%
%ADD28ROUNDEDRECTD28*%
G04:AMPARAMS|DCode=29|XSize=1.74mm|YSize=2.17mm|CornerRadius=0.217mm|HoleSize=0mm|Usage=FLASHONLY|Rotation=180.000|XOffset=0mm|YOffset=0mm|HoleType=Round|Shape=RoundedRectangle|*
%AMROUNDEDRECTD29*
21,1,1.740,1.735,0,0,180.0*
21,1,1.305,2.170,0,0,180.0*
1,1,0.435,-0.652,0.868*
1,1,0.435,0.652,0.868*
1,1,0.435,0.652,-0.868*
1,1,0.435,-0.652,-0.868*
%
%ADD29ROUNDEDRECTD29*%
G04:AMPARAMS|DCode=30|XSize=0.94mm|YSize=1.03mm|CornerRadius=0.117mm|HoleSize=0mm|Usage=FLASHONLY|Rotation=180.000|XOffset=0mm|YOffset=0mm|HoleType=Round|Shape=RoundedRectangle|*
%AMROUNDEDRECTD30*
21,1,0.940,0.795,0,0,180.0*
21,1,0.705,1.030,0,0,180.0*
1,1,0.235,-0.352,0.398*
1,1,0.235,0.352,0.398*
1,1,0.235,0.352,-0.398*
1,1,0.235,-0.352,-0.398*
%
%ADD30ROUNDEDRECTD30*%
G04:AMPARAMS|DCode=31|XSize=0.26mm|YSize=0.99mm|CornerRadius=0.033mm|HoleSize=0mm|Usage=FLASHONLY|Rotation=0.000|XOffset=0mm|YOffset=0mm|HoleType=Round|Shape=RoundedRectangle|*
%AMROUNDEDRECTD31*
21,1,0.260,0.925,0,0,0.0*
21,1,0.195,0.990,0,0,0.0*
1,1,0.065,0.098,-0.463*
1,1,0.065,-0.098,-0.463*
1,1,0.065,-0.098,0.463*
1,1,0.065,0.098,0.463*
%
%ADD31ROUNDEDRECTD31*%
G04:AMPARAMS|DCode=32|XSize=0.26mm|YSize=0.99mm|CornerRadius=0.033mm|HoleSize=0mm|Usage=FLASHONLY|Rotation=90.000|XOffset=0mm|YOffset=0mm|HoleType=Round|Shape=RoundedRectangle|*
%AMROUNDEDRECTD32*
21,1,0.260,0.925,0,0,90.0*
21,1,0.195,0.990,0,0,90.0*
1,1,0.065,0.463,0.098*
1,1,0.065,0.463,-0.098*
1,1,0.065,-0.463,-0.098*
1,1,0.065,-0.463,0.098*
%
%ADD32ROUNDEDRECTD32*%
%ADD33R,3.130X3.130*%
%ADD34O,0.550X1.650*%
%ADD35O,1.650X0.550*%
G04:AMPARAMS|DCode=36|XSize=0.92mm|YSize=1.08mm|CornerRadius=0.115mm|HoleSize=0mm|Usage=FLASHONLY|Rotation=180.000|XOffset=0mm|YOffset=0mm|HoleType=Round|Shape=RoundedRectangle|*
%AMROUNDEDRECTD36*
21,1,0.920,0.850,0,0,180.0*
21,1,0.690,1.080,0,0,180.0*
1,1,0.230,-0.345,0.425*
1,1,0.230,0.345,0.425*
1,1,0.230,0.345,-0.425*
1,1,0.230,-0.345,-0.425*
%
%ADD36ROUNDEDRECTD36*%
G04:AMPARAMS|DCode=37|XSize=0.94mm|YSize=1.03mm|CornerRadius=0.117mm|HoleSize=0mm|Usage=FLASHONLY|Rotation=90.000|XOffset=0mm|YOffset=0mm|HoleType=Round|Shape=RoundedRectangle|*
%AMROUNDEDRECTD37*
21,1,0.940,0.795,0,0,90.0*
21,1,0.705,1.030,0,0,90.0*
1,1,0.235,0.398,0.352*
1,1,0.235,0.398,-0.352*
1,1,0.235,-0.398,-0.352*
1,1,0.235,-0.398,0.352*
%
%ADD37ROUNDEDRECTD37*%
G04:AMPARAMS|DCode=38|XSize=0.61mm|YSize=1.26mm|CornerRadius=0.076mm|HoleSize=0mm|Usage=FLASHONLY|Rotation=0.000|XOffset=0mm|YOffset=0mm|HoleType=Round|Shape=RoundedRectangle|*
%AMROUNDEDRECTD38*
21,1,0.610,1.107,0,0,0.0*
21,1,0.458,1.260,0,0,0.0*
1,1,0.152,0.229,-0.554*
1,1,0.152,-0.229,-0.554*
1,1,0.152,-0.229,0.554*
1,1,0.152,0.229,0.554*
%
%ADD38ROUNDEDRECTD38*%
G04:AMPARAMS|DCode=39|XSize=0.97mm|YSize=1.85mm|CornerRadius=0.121mm|HoleSize=0mm|Usage=FLASHONLY|Rotation=180.000|XOffset=0mm|YOffset=0mm|HoleType=Round|Shape=RoundedRectangle|*
%AMROUNDEDRECTD39*
21,1,0.970,1.607,0,0,180.0*
21,1,0.728,1.850,0,0,180.0*
1,1,0.242,-0.364,0.804*
1,1,0.242,0.364,0.804*
1,1,0.242,0.364,-0.804*
1,1,0.242,-0.364,-0.804*
%
%ADD39ROUNDEDRECTD39*%
G04:AMPARAMS|DCode=40|XSize=3.27mm|YSize=1.85mm|CornerRadius=0.231mm|HoleSize=0mm|Usage=FLASHONLY|Rotation=180.000|XOffset=0mm|YOffset=0mm|HoleType=Round|Shape=RoundedRectangle|*
%AMROUNDEDRECTD40*
21,1,3.270,1.387,0,0,180.0*
21,1,2.808,1.850,0,0,180.0*
1,1,0.463,-1.404,0.694*
1,1,0.463,1.404,0.694*
1,1,0.463,1.404,-0.694*
1,1,0.463,-1.404,-0.694*
%
%ADD40ROUNDEDRECTD40*%
G04:AMPARAMS|DCode=41|XSize=1.76mm|YSize=2.82mm|CornerRadius=0.22mm|HoleSize=0mm|Usage=FLASHONLY|Rotation=180.000|XOffset=0mm|YOffset=0mm|HoleType=Round|Shape=RoundedRectangle|*
%AMROUNDEDRECTD41*
21,1,1.760,2.380,0,0,180.0*
21,1,1.320,2.820,0,0,180.0*
1,1,0.440,-0.660,1.190*
1,1,0.440,0.660,1.190*
1,1,0.440,0.660,-1.190*
1,1,0.440,-0.660,-1.190*
%
%ADD41ROUNDEDRECTD41*%
G04:AMPARAMS|DCode=42|XSize=1.05mm|YSize=1.07mm|CornerRadius=0.131mm|HoleSize=0mm|Usage=FLASHONLY|Rotation=180.000|XOffset=0mm|YOffset=0mm|HoleType=Round|Shape=RoundedRectangle|*
%AMROUNDEDRECTD42*
21,1,1.050,0.807,0,0,180.0*
21,1,0.787,1.070,0,0,180.0*
1,1,0.263,-0.394,0.404*
1,1,0.263,0.394,0.404*
1,1,0.263,0.394,-0.404*
1,1,0.263,-0.394,-0.404*
%
%ADD42ROUNDEDRECTD42*%
G04:AMPARAMS|DCode=43|XSize=1.28mm|YSize=1.87mm|CornerRadius=0.16mm|HoleSize=0mm|Usage=FLASHONLY|Rotation=180.000|XOffset=0mm|YOffset=0mm|HoleType=Round|Shape=RoundedRectangle|*
%AMROUNDEDRECTD43*
21,1,1.280,1.550,0,0,180.0*
21,1,0.960,1.870,0,0,180.0*
1,1,0.320,-0.480,0.775*
1,1,0.320,0.480,0.775*
1,1,0.320,0.480,-0.775*
1,1,0.320,-0.480,-0.775*
%
%ADD43ROUNDEDRECTD43*%
G04:AMPARAMS|DCode=44|XSize=1.74mm|YSize=2.17mm|CornerRadius=0.217mm|HoleSize=0mm|Usage=FLASHONLY|Rotation=270.000|XOffset=0mm|YOffset=0mm|HoleType=Round|Shape=RoundedRectangle|*
%AMROUNDEDRECTD44*
21,1,1.740,1.735,0,0,270.0*
21,1,1.305,2.170,0,0,270.0*
1,1,0.435,-0.868,-0.652*
1,1,0.435,-0.868,0.652*
1,1,0.435,0.868,0.652*
1,1,0.435,0.868,-0.652*
%
%ADD44ROUNDEDRECTD44*%
G04:AMPARAMS|DCode=45|XSize=1.76mm|YSize=2.82mm|CornerRadius=0.22mm|HoleSize=0mm|Usage=FLASHONLY|Rotation=270.000|XOffset=0mm|YOffset=0mm|HoleType=Round|Shape=RoundedRectangle|*
%AMROUNDEDRECTD45*
21,1,1.760,2.380,0,0,270.0*
21,1,1.320,2.820,0,0,270.0*
1,1,0.440,-1.190,-0.660*
1,1,0.440,-1.190,0.660*
1,1,0.440,1.190,0.660*
1,1,0.440,1.190,-0.660*
%
%ADD45ROUNDEDRECTD45*%
G04:AMPARAMS|DCode=46|XSize=1.47mm|YSize=0.41mm|CornerRadius=0.051mm|HoleSize=0mm|Usage=FLASHONLY|Rotation=270.000|XOffset=0mm|YOffset=0mm|HoleType=Round|Shape=RoundedRectangle|*
%AMROUNDEDRECTD46*
21,1,1.470,0.307,0,0,270.0*
21,1,1.367,0.410,0,0,270.0*
1,1,0.102,-0.154,-0.684*
1,1,0.102,-0.154,0.684*
1,1,0.102,0.154,0.684*
1,1,0.102,0.154,-0.684*
%
%ADD46ROUNDEDRECTD46*%
%ADD47R,16.650X6.350*%
G04:AMPARAMS|DCode=48|XSize=0.71mm|YSize=2.19mm|CornerRadius=0.089mm|HoleSize=0mm|Usage=FLASHONLY|Rotation=0.000|XOffset=0mm|YOffset=0mm|HoleType=Round|Shape=RoundedRectangle|*
%AMROUNDEDRECTD48*
21,1,0.710,2.013,0,0,0.0*
21,1,0.532,2.190,0,0,0.0*
1,1,0.177,0.266,-1.006*
1,1,0.177,-0.266,-1.006*
1,1,0.177,-0.266,1.006*
1,1,0.177,0.266,1.006*
%
%ADD48ROUNDEDRECTD48*%
G04:AMPARAMS|DCode=49|XSize=5.5mm|YSize=2mm|CornerRadius=0.25mm|HoleSize=0mm|Usage=FLASHONLY|Rotation=90.000|XOffset=0mm|YOffset=0mm|HoleType=Round|Shape=RoundedRectangle|*
%AMROUNDEDRECTD49*
21,1,5.500,1.500,0,0,90.0*
21,1,5.000,2.000,0,0,90.0*
1,1,0.500,0.750,2.500*
1,1,0.500,0.750,-2.500*
1,1,0.500,-0.750,-2.500*
1,1,0.500,-0.750,2.500*
%
%ADD49ROUNDEDRECTD49*%
G04:AMPARAMS|DCode=50|XSize=6.7mm|YSize=6.7mm|CornerRadius=0.838mm|HoleSize=0mm|Usage=FLASHONLY|Rotation=90.000|XOffset=0mm|YOffset=0mm|HoleType=Round|Shape=RoundedRectangle|*
%AMROUNDEDRECTD50*
21,1,6.700,5.025,0,0,90.0*
21,1,5.025,6.700,0,0,90.0*
1,1,1.675,2.513,2.513*
1,1,1.675,2.513,-2.513*
1,1,1.675,-2.513,-2.513*
1,1,1.675,-2.513,2.513*
%
%ADD50ROUNDEDRECTD50*%
G04:AMPARAMS|DCode=51|XSize=1.6mm|YSize=3mm|CornerRadius=0.2mm|HoleSize=0mm|Usage=FLASHONLY|Rotation=90.000|XOffset=0mm|YOffset=0mm|HoleType=Round|Shape=RoundedRectangle|*
%AMROUNDEDRECTD51*
21,1,1.600,2.600,0,0,90.0*
21,1,1.200,3.000,0,0,90.0*
1,1,0.400,1.300,0.600*
1,1,0.400,1.300,-0.600*
1,1,0.400,-1.300,-0.600*
1,1,0.400,-1.300,0.600*
%
%ADD51ROUNDEDRECTD51*%
G04:AMPARAMS|DCode=52|XSize=1mm|YSize=1.4mm|CornerRadius=0.125mm|HoleSize=0mm|Usage=FLASHONLY|Rotation=90.000|XOffset=0mm|YOffset=0mm|HoleType=Round|Shape=RoundedRectangle|*
%AMROUNDEDRECTD52*
21,1,1.000,1.150,0,0,90.0*
21,1,0.750,1.400,0,0,90.0*
1,1,0.250,0.575,0.375*
1,1,0.250,0.575,-0.375*
1,1,0.250,-0.575,-0.375*
1,1,0.250,-0.575,0.375*
%
%ADD52ROUNDEDRECTD52*%
%ADD53C,0.300*%
%ADD54C,1.000*%
%ADD55C,0.750*%
%ADD56C,0.500*%
%ADD57C,1.500*%
%ADD58R,0.600X1.600*%
%ADD59R,1.600X0.600*%
G36*
X76636Y17464D02*
X76636Y17464D01*
X76636D01*
X76752Y17451D01*
X76880Y17399D01*
X77001Y17277D01*
X77067Y17119D01*
X77067Y17033D01*
X77067Y11267D01*
X77067Y11267D01*
X77067Y11187D01*
X77006Y11039D01*
X76892Y10926D01*
X76744Y10864D01*
X76664Y10864D01*
X73936Y10864D01*
X73862Y10864D01*
X73727Y10920D01*
X73623Y11024D01*
X73567Y11160D01*
Y11233D01*
Y17067D01*
X73567Y17067D01*
X73567Y17067D01*
X73582Y17183D01*
X73627Y17292D01*
X73739Y17404D01*
X73885Y17464D01*
X73964Y17464D01*
X76636Y17464D01*
X76636Y17464D01*
D02*
G37*
G36*
X52600Y22773D02*
X52597Y22758D01*
X52511Y22700D01*
X52447Y22605D01*
X52424Y22492D01*
Y21786D01*
X52985D01*
Y21486D01*
X53285D01*
Y20192D01*
X53364Y20208D01*
X53459Y20272D01*
X53515Y20355D01*
X53611Y20367D01*
X53629D01*
X53725Y20355D01*
X53781Y20272D01*
X53876Y20208D01*
X53989Y20185D01*
X54521D01*
X54634Y20208D01*
X54729Y20272D01*
X54785Y20355D01*
X54881Y20367D01*
X54899D01*
X54995Y20355D01*
X55051Y20272D01*
X55146Y20208D01*
X55259Y20185D01*
X55672D01*
X55702Y20103D01*
X55564Y19918D01*
X55305D01*
Y18300D01*
Y16682D01*
X55665D01*
X55861Y16517D01*
Y15300D01*
X51100D01*
X51028Y15300D01*
X50886Y15328D01*
X50753Y15383D01*
X50633Y15464D01*
X50531Y15566D01*
X50450Y15686D01*
X50395Y15819D01*
X50367Y15961D01*
X50367Y16033D01*
Y22958D01*
X52538D01*
X52600Y22773D01*
D02*
G37*
G36*
X48200Y22500D02*
X48200Y22500D01*
X48200D01*
X48382Y22466D01*
X48483Y22424D01*
X48624Y22283D01*
X48700Y22099D01*
X48700Y22000D01*
Y17083D01*
X48700Y17083D01*
X48700Y16968D01*
X48655Y16743D01*
X48567Y16531D01*
X48440Y16340D01*
X46083Y13983D01*
Y13983D01*
X45952Y13838D01*
X45735Y13514D01*
X45586Y13153D01*
X45510Y12771D01*
X45500Y12576D01*
Y12458D01*
X45300Y12397D01*
X45290Y12411D01*
X45184Y12482D01*
X45059Y12507D01*
X44995D01*
Y11376D01*
X44395D01*
Y12507D01*
X44331D01*
X44206Y12482D01*
X44200Y12478D01*
X44000Y12585D01*
X44000Y16100D01*
Y16341D01*
X44395D01*
Y17474D01*
Y18608D01*
X44000D01*
Y18920D01*
X44115Y18975D01*
X44200Y18995D01*
X44321Y18914D01*
X44485Y18882D01*
X44845D01*
Y20500D01*
Y22118D01*
X44485D01*
X44321Y22086D01*
X44200Y22005D01*
X44115Y22025D01*
X44000Y22080D01*
X44000Y22180D01*
X44061Y22327D01*
X44173Y22439D01*
X44320Y22500D01*
X44400Y22500D01*
X48200Y22500D01*
X48200Y22500D01*
D02*
G37*
G36*
X43000Y13000D02*
X43000Y13000D01*
X43000D01*
X43182Y12966D01*
X43283Y12924D01*
X43424Y12783D01*
X43500Y12599D01*
X43500Y12500D01*
X43500Y10012D01*
X43381Y9924D01*
X43300Y9891D01*
X43165Y9918D01*
X42905D01*
Y8300D01*
Y6682D01*
X43165D01*
X43300Y6709D01*
X43381Y6676D01*
X43401Y6661D01*
X43500Y6500D01*
X43500Y6400D01*
X43424Y6217D01*
X43283Y6076D01*
X43100Y6000D01*
X43000Y6000D01*
X41000D01*
X38000Y6000D01*
X38000Y9076D01*
X38000Y9076D01*
X38000Y9076D01*
X38000Y9295D01*
X38086Y9727D01*
X38254Y10133D01*
X38498Y10498D01*
X38654Y10654D01*
X40588Y12588D01*
X40588Y12588D01*
X40588Y12588D01*
X40588Y12588D01*
X40725Y12712D01*
X40916Y12840D01*
X41172Y12946D01*
X41444Y13000D01*
X41583Y13000D01*
X43000Y13000D01*
X43000Y13000D01*
D02*
G37*
G36*
X58300Y23164D02*
Y22787D01*
X57799D01*
X57686Y22764D01*
X57591Y22700D01*
X57527Y22605D01*
X57504Y22492D01*
Y21886D01*
X58065D01*
Y21086D01*
X57504D01*
Y20480D01*
X57527Y20367D01*
X57591Y20272D01*
X57686Y20208D01*
X57799Y20185D01*
X58300D01*
Y19955D01*
X58255Y19918D01*
X57995D01*
Y18300D01*
Y16682D01*
X58173D01*
X58300Y16573D01*
Y12700D01*
X58300D01*
X58300Y12593D01*
X58218Y12397D01*
X58068Y12246D01*
X57871Y12164D01*
X56167Y12164D01*
X54436Y12164D01*
X54436Y12164D01*
X54349Y12164D01*
X54189Y12231D01*
X54066Y12353D01*
X54000Y12513D01*
X54000Y12600D01*
Y14500D01*
X54000Y14580D01*
X54061Y14727D01*
X54173Y14839D01*
X54320Y14900D01*
X54400Y14900D01*
X55800D01*
X55800Y14900D01*
Y14900D01*
X55872Y14907D01*
X55915Y14925D01*
X56004Y14962D01*
X56105Y15063D01*
X56160Y15195D01*
X56167Y15267D01*
Y16968D01*
X56195Y17110D01*
Y19490D01*
X56167Y19632D01*
Y20273D01*
X56294Y20311D01*
X56321Y20272D01*
X56416Y20208D01*
X56529Y20185D01*
X57061D01*
X57174Y20208D01*
X57269Y20272D01*
X57333Y20367D01*
X57356Y20480D01*
Y22492D01*
X57333Y22605D01*
X57269Y22700D01*
X57174Y22764D01*
X57068Y22785D01*
Y23055D01*
X57239Y23131D01*
X57367Y23164D01*
X58300Y23164D01*
D02*
G37*
G36*
X51064Y52864D02*
X59036Y52864D01*
X59036Y52864D01*
X59036Y52864D01*
X59036D01*
X59159Y52854D01*
X59249Y52836D01*
X59382Y52781D01*
X59502Y52701D01*
X59604Y52599D01*
X59684Y52479D01*
X59739Y52346D01*
X59767Y52205D01*
X59767Y52133D01*
X59767Y49680D01*
X59767Y48290D01*
X59358D01*
X59280Y48274D01*
X59214Y48230D01*
X59170Y48164D01*
X59154Y48086D01*
Y47486D01*
X59170Y47408D01*
X59214Y47342D01*
X59280Y47297D01*
X59358Y47282D01*
X59677D01*
X59767Y47192D01*
X59767Y46467D01*
X59767Y46467D01*
X59767Y46342D01*
X59671Y46111D01*
X59495Y45935D01*
X59264Y45839D01*
X59139Y45839D01*
X50861Y45839D01*
X50762Y45839D01*
X50581Y45914D01*
X50442Y46053D01*
X50367Y46235D01*
X50367Y46333D01*
X50367Y52167D01*
X50367Y52167D01*
X50378Y52290D01*
X50394Y52370D01*
X50446Y52497D01*
X50523Y52612D01*
X50620Y52709D01*
X50734Y52785D01*
X50861Y52838D01*
X50996Y52864D01*
X51064Y52864D01*
D02*
G37*
G36*
X7300Y55700D02*
X48699Y55700D01*
X48700Y55700D01*
X48700Y55700D01*
X48706Y55700D01*
X48886Y55684D01*
X49021Y55657D01*
X49221Y55575D01*
X49401Y55454D01*
X49554Y55301D01*
X49675Y55121D01*
X49758Y54921D01*
X49800Y54708D01*
X49800Y54600D01*
X49800Y37700D01*
X49800D01*
X49800Y37631D01*
X49773Y37496D01*
X49720Y37368D01*
X49644Y37254D01*
X49546Y37156D01*
X49432Y37080D01*
X49304Y37027D01*
X49169Y37000D01*
X47300D01*
X41559Y37000D01*
X41559Y37000D01*
X41413Y36996D01*
X41122Y36968D01*
X40835Y36911D01*
X40555Y36826D01*
X40285Y36714D01*
X40027Y36576D01*
X39784Y36414D01*
X39558Y36228D01*
X39452Y36127D01*
X28065Y24740D01*
X27961Y24625D01*
X27788Y24366D01*
X27668Y24078D01*
X27608Y23773D01*
X27600Y23617D01*
X27600Y21982D01*
X27400Y21881D01*
X27376Y21897D01*
X27253Y21921D01*
X27200D01*
Y21200D01*
Y20479D01*
X27253D01*
X27376Y20503D01*
X27400Y20519D01*
X27600Y20418D01*
Y19681D01*
X27400Y19581D01*
X27376Y19597D01*
X27252Y19621D01*
X27200D01*
Y18900D01*
X26900D01*
Y18600D01*
X26224D01*
Y18502D01*
X26051Y18360D01*
X26000Y18377D01*
X26000Y21792D01*
X26166Y21959D01*
X26233Y22058D01*
X26256Y22175D01*
Y22743D01*
X26347Y22803D01*
X26468Y22985D01*
X26511Y23200D01*
X26468Y23415D01*
X26347Y23597D01*
X26165Y23718D01*
X26000Y23751D01*
X26000Y24659D01*
X26000D01*
X26000Y24659D01*
X26000Y24659D01*
X25996Y24739D01*
X25965Y24898D01*
X25903Y25047D01*
X25813Y25182D01*
X25759Y25241D01*
X25383Y25617D01*
X25383Y25617D01*
X25313Y25681D01*
X25155Y25786D01*
X24980Y25859D01*
X24794Y25895D01*
X24700Y25900D01*
X22948Y25900D01*
X22866Y26000D01*
Y26125D01*
X22200D01*
Y26725D01*
X22866D01*
Y26850D01*
X22842Y26973D01*
X22824Y27000D01*
X22921Y27200D01*
X25441Y27200D01*
X25609Y27208D01*
X25635Y27213D01*
X25938Y27274D01*
X26248Y27402D01*
X26527Y27589D01*
X26652Y27702D01*
X37690Y38740D01*
X37690Y38740D01*
X37834Y38877D01*
X38015Y39025D01*
X38255Y39186D01*
X38509Y39322D01*
X38776Y39432D01*
X39052Y39516D01*
X39334Y39572D01*
X39621Y39600D01*
X39766Y39600D01*
X45600Y39600D01*
X45600Y39600D01*
X45600Y39600D01*
X45669Y39603D01*
X45803Y39630D01*
X45930Y39682D01*
X46044Y39758D01*
X46141Y39856D01*
X46218Y39970D01*
X46270Y40097D01*
X46297Y40231D01*
X46300Y40300D01*
X46300Y46876D01*
X46300Y46876D01*
X46300Y46876D01*
X46288Y47118D01*
X46194Y47594D01*
X46008Y48042D01*
X45739Y48445D01*
X45576Y48624D01*
X41854Y52346D01*
X41854Y52346D01*
X41691Y52494D01*
X41328Y52737D01*
X40924Y52904D01*
X40494Y52989D01*
X40276Y53000D01*
X9283Y53000D01*
X9283Y53000D01*
X9174Y52995D01*
X8962Y52953D01*
X8762Y52870D01*
X8582Y52749D01*
X8501Y52676D01*
X8141Y52316D01*
X8044Y52297D01*
X7912Y52208D01*
X7823Y52076D01*
X7792Y51920D01*
Y50020D01*
X7823Y49864D01*
X7912Y49732D01*
X7985Y49683D01*
X8067Y49601D01*
X8283Y49511D01*
X8335Y49506D01*
X8397Y49334D01*
X8397Y49301D01*
X8330Y49250D01*
X8145Y49010D01*
X8030Y48730D01*
X8030Y48730D01*
X9150D01*
Y48130D01*
X8030D01*
X8030Y48130D01*
X8145Y47850D01*
X8330Y47610D01*
X8348Y47596D01*
X8289Y47389D01*
X8283Y47388D01*
X8067Y47299D01*
X7901Y47133D01*
X7812Y46917D01*
X7800Y46800D01*
Y45978D01*
X7788Y45890D01*
X7800Y45802D01*
Y43438D01*
X7788Y43350D01*
X7800Y43262D01*
X7800Y37056D01*
X7809Y36877D01*
X7879Y36526D01*
X8016Y36196D01*
X8215Y35898D01*
X8335Y35765D01*
X10765Y33335D01*
X10765Y33335D01*
X10873Y33237D01*
X10913Y33210D01*
X11115Y33075D01*
X11384Y32964D01*
X11669Y32907D01*
X11815Y32900D01*
X12147D01*
X12198Y32823D01*
X12235Y32700D01*
X12164Y32594D01*
X12132Y32430D01*
Y32070D01*
X13750D01*
Y31770D01*
X14050D01*
Y30682D01*
X14805D01*
X14806Y30669D01*
X14850Y30444D01*
X14938Y30233D01*
X15065Y30043D01*
X15141Y29959D01*
X17451Y27649D01*
X17451Y27649D01*
X17558Y27542D01*
X17700Y27329D01*
X17654Y27224D01*
X17569Y27146D01*
X17550D01*
Y26400D01*
X17250D01*
Y26100D01*
X16584D01*
Y25975D01*
X16599Y25900D01*
X16516Y25751D01*
X16469Y25700D01*
X10042Y25700D01*
X10015Y25718D01*
X9800Y25761D01*
X9585Y25718D01*
X9551Y25695D01*
X9483Y25688D01*
X9267Y25599D01*
X9101Y25433D01*
X9012Y25217D01*
X9000Y25100D01*
X9000Y19313D01*
X9006Y19192D01*
X9053Y18953D01*
X9146Y18729D01*
X9281Y18527D01*
X9363Y18437D01*
X11088Y16712D01*
Y16712D01*
X11190Y16619D01*
X11237Y16588D01*
X11420Y16466D01*
X11674Y16361D01*
X11759Y16344D01*
X11858Y16142D01*
X11858Y16120D01*
X11835Y16007D01*
Y15903D01*
X12567D01*
Y15603D01*
X12867D01*
Y14862D01*
X12961D01*
X13000Y14869D01*
X13179Y14752D01*
X13200Y14721D01*
Y14454D01*
X13000Y14355D01*
X12975Y14372D01*
X12852Y14396D01*
X12807D01*
Y13650D01*
Y12904D01*
X12852D01*
X12975Y12928D01*
X13000Y12945D01*
X13200Y12846D01*
Y12800D01*
X13200Y12500D01*
X10800Y12500D01*
X8546Y12500D01*
X6478Y12500D01*
Y12980D01*
X5400D01*
X4322D01*
Y12500D01*
X2800Y12500D01*
X2800Y15287D01*
X2800Y15476D01*
X2800Y15476D01*
Y15476D01*
X2800Y15476D01*
X2800Y15672D01*
X2876Y16056D01*
X3026Y16418D01*
X3244Y16744D01*
X3383Y16883D01*
X5500Y19000D01*
X6588Y20088D01*
X6588Y20088D01*
X6588Y20088D01*
X6593Y20094D01*
X6680Y20190D01*
X6708Y20231D01*
X6834Y20419D01*
X6940Y20674D01*
X6993Y20945D01*
X7000Y21083D01*
X7000Y22833D01*
X7000Y22833D01*
X7000Y22833D01*
X6998Y22855D01*
X6992Y22985D01*
X6986Y23018D01*
X6933Y23283D01*
X6817Y23564D01*
X6648Y23816D01*
X6546Y23929D01*
X4896Y25579D01*
Y25579D01*
X4779Y25722D01*
X4730Y25795D01*
X4660Y25963D01*
X4625Y26142D01*
X4625Y26234D01*
X4625Y29875D01*
X4625D01*
X4621Y29966D01*
X4585Y30144D01*
X4516Y30311D01*
X4415Y30462D01*
X4287Y30590D01*
X4136Y30691D01*
X3969Y30760D01*
X3791Y30796D01*
X3745Y30798D01*
X3689Y30909D01*
X3680Y31000D01*
X3720Y31031D01*
X3905Y31271D01*
X4020Y31551D01*
X4020Y31551D01*
X2900D01*
Y32151D01*
X4020D01*
X4020Y32151D01*
X3905Y32431D01*
X3720Y32671D01*
X3660Y32717D01*
X3710Y32931D01*
X3842Y32985D01*
X3960Y33064D01*
X4060Y33165D01*
X4140Y33283D01*
X4194Y33414D01*
X4222Y33554D01*
X4225Y33625D01*
Y34113D01*
X4262Y34391D01*
X4225Y34669D01*
X4225Y48132D01*
X4225D01*
X4225Y48132D01*
X4228Y48330D01*
X4290Y48672D01*
X4417Y49013D01*
X4603Y49326D01*
X4723Y49463D01*
X5933Y50854D01*
X5933Y50854D01*
X5933Y50854D01*
X5946Y50871D01*
X6039Y50987D01*
X6051Y51008D01*
X6213Y51279D01*
X6332Y51597D01*
X6392Y51932D01*
X6400Y52102D01*
X6400Y54799D01*
X6400D01*
X6400Y54800D01*
X6420Y54991D01*
X6434Y55062D01*
X6502Y55226D01*
X6601Y55374D01*
X6726Y55499D01*
X6873Y55598D01*
X7037Y55666D01*
X7211Y55700D01*
X7300Y55700D01*
D02*
G37*
G36*
X61127Y37964D02*
X61237Y37919D01*
X61321Y37834D01*
X61344Y37780D01*
X61367Y37664D01*
Y37664D01*
X61367Y37664D01*
X61367Y37664D01*
X61367Y35750D01*
X61337Y35705D01*
X61314Y35592D01*
Y33580D01*
X61337Y33467D01*
X61367Y33422D01*
Y32926D01*
X61277Y32836D01*
X60171Y32836D01*
X60171Y32836D01*
Y33204D01*
X60298Y33293D01*
X60305Y33292D01*
Y34586D01*
Y35880D01*
X60298Y35879D01*
X60171Y35968D01*
X60171Y36290D01*
X60168Y36304D01*
X60169Y36317D01*
X60167Y36336D01*
X60169Y36356D01*
X60168Y36369D01*
X60171Y36382D01*
Y37290D01*
X60168Y37304D01*
X60169Y37317D01*
X60167Y37336D01*
X60169Y37355D01*
X60168Y37369D01*
X60171Y37382D01*
Y37858D01*
X60237Y37932D01*
X60289Y37964D01*
X61127Y37964D01*
D02*
G37*
G36*
X76136Y10264D02*
X76136Y10264D01*
X76136D01*
X76253Y10243D01*
X76323Y10214D01*
X76417Y10121D01*
X76467Y9999D01*
X76467Y9933D01*
X76467Y4167D01*
X76467Y4167D01*
X76467Y4067D01*
X76390Y3882D01*
X76249Y3741D01*
X76064Y3664D01*
X73636Y3664D01*
X73636Y3664D01*
X73542Y3664D01*
X73370Y3736D01*
X73238Y3868D01*
X73167Y4040D01*
X73167Y4133D01*
X73167Y9867D01*
X73167Y9867D01*
X73167Y9867D01*
X73182Y9983D01*
X73227Y10092D01*
X73339Y10204D01*
X73485Y10264D01*
X73564Y10264D01*
X76136Y10264D01*
X76136Y10264D01*
D02*
G37*
G36*
X61167Y23164D02*
X61167D01*
X61281Y23133D01*
X61336Y23078D01*
X61367Y23004D01*
Y22650D01*
X61337Y22605D01*
X61314Y22492D01*
Y20480D01*
X61337Y20367D01*
X61367Y20322D01*
Y15364D01*
X61367Y15364D01*
Y15325D01*
X61336Y15251D01*
X61280Y15195D01*
X61207Y15164D01*
X60367Y15164D01*
X60271Y15279D01*
Y15618D01*
X60268Y15632D01*
X60269Y15645D01*
X60267Y15664D01*
X60269Y15683D01*
X60268Y15697D01*
X60271Y15710D01*
X60271Y16618D01*
X60268Y16632D01*
X60269Y16645D01*
X60267Y16664D01*
X60269Y16683D01*
X60268Y16697D01*
X60271Y16710D01*
Y17618D01*
X60268Y17632D01*
X60269Y17645D01*
X60267Y17664D01*
X60269Y17684D01*
X60268Y17697D01*
X60271Y17710D01*
Y18618D01*
X60268Y18632D01*
X60269Y18645D01*
X60267Y18664D01*
X60269Y18684D01*
X60268Y18697D01*
X60271Y18710D01*
X60271Y19618D01*
X60268Y19632D01*
X60269Y19645D01*
X60267Y19664D01*
X60269Y19684D01*
X60268Y19697D01*
X60271Y19710D01*
Y20130D01*
X60305Y20158D01*
Y21486D01*
Y22814D01*
X60271Y22842D01*
Y23164D01*
X60271Y23164D01*
X61049Y23164D01*
X61167Y23164D01*
D02*
G37*
G36*
X33824Y49400D02*
X41300Y49400D01*
X41300Y49400D01*
X41300Y49400D01*
X41300D01*
X41418Y49390D01*
X41504Y49373D01*
X41632Y49320D01*
X41746Y49244D01*
X41844Y49146D01*
X41920Y49032D01*
X41973Y48904D01*
X42000Y48769D01*
X42000Y45700D01*
X42000Y45700D01*
Y45631D01*
X41973Y45496D01*
X41920Y45368D01*
X41844Y45254D01*
X41746Y45156D01*
X41632Y45080D01*
X41504Y45027D01*
X41369Y45000D01*
X41300D01*
X31040Y45000D01*
X30896Y45060D01*
X30884Y45104D01*
X30886Y45193D01*
X31110Y45285D01*
X31350Y45470D01*
X31442Y45590D01*
X29618D01*
X29710Y45470D01*
X29950Y45285D01*
X30174Y45193D01*
X30176Y45104D01*
X30164Y45060D01*
X30020Y45000D01*
X28500Y45000D01*
X28356Y45060D01*
X28344Y45104D01*
X28346Y45193D01*
X28570Y45285D01*
X28810Y45470D01*
X28902Y45590D01*
X27078D01*
X27170Y45470D01*
X27410Y45285D01*
X27634Y45193D01*
X27636Y45104D01*
X27624Y45060D01*
X27480Y45000D01*
X25960Y45000D01*
X25816Y45060D01*
X25804Y45104D01*
X25806Y45193D01*
X26030Y45285D01*
X26270Y45470D01*
X26362Y45590D01*
X24538D01*
X24630Y45470D01*
X24870Y45285D01*
X25094Y45193D01*
X25096Y45104D01*
X25084Y45060D01*
X24940Y45000D01*
X23420Y45000D01*
X23276Y45060D01*
X23264Y45104D01*
X23266Y45193D01*
X23490Y45285D01*
X23730Y45470D01*
X23822Y45590D01*
X21998D01*
X22090Y45470D01*
X22330Y45285D01*
X22554Y45193D01*
X22556Y45104D01*
X22544Y45060D01*
X22400Y45000D01*
X20880Y45000D01*
X20736Y45060D01*
X20724Y45104D01*
X20726Y45193D01*
X20950Y45285D01*
X21190Y45470D01*
X21282Y45590D01*
X19458D01*
X19550Y45470D01*
X19790Y45285D01*
X20014Y45193D01*
X20016Y45104D01*
X20004Y45060D01*
X19860Y45000D01*
X18340Y45000D01*
X18196Y45060D01*
X18184Y45104D01*
X18186Y45193D01*
X18410Y45285D01*
X18650Y45470D01*
X18742Y45590D01*
X16918D01*
X17010Y45470D01*
X17250Y45285D01*
X17474Y45193D01*
X17476Y45104D01*
X17464Y45060D01*
X17320Y45000D01*
X15800Y45000D01*
X15656Y45060D01*
X15644Y45104D01*
X15646Y45193D01*
X15870Y45285D01*
X16110Y45470D01*
X16202Y45590D01*
X14378D01*
X14470Y45470D01*
X14710Y45285D01*
X14934Y45193D01*
X14936Y45104D01*
X14924Y45060D01*
X14780Y45000D01*
X13971Y45000D01*
X13856Y45077D01*
X13700Y45108D01*
X13233D01*
X13208Y45235D01*
X13330Y45285D01*
X13570Y45470D01*
X13662Y45590D01*
X11838D01*
X11930Y45470D01*
X12170Y45285D01*
X12292Y45235D01*
X12267Y45108D01*
X11800D01*
X11644Y45077D01*
X11529Y45000D01*
X11400D01*
X11400Y45000D01*
X11320D01*
X11173Y45061D01*
X11061Y45173D01*
X11000Y45320D01*
X11000Y47000D01*
X11000D01*
X11000Y47099D01*
X11076Y47283D01*
X11217Y47424D01*
X11401Y47500D01*
X11500Y47500D01*
X12334D01*
X12359Y47373D01*
X12170Y47295D01*
X11930Y47110D01*
X11838Y46990D01*
X13662D01*
X13570Y47110D01*
X13330Y47295D01*
X13141Y47373D01*
X13166Y47500D01*
X14874D01*
X14899Y47373D01*
X14710Y47295D01*
X14470Y47110D01*
X14378Y46990D01*
X16202D01*
X16110Y47110D01*
X15870Y47295D01*
X15681Y47373D01*
X15706Y47500D01*
X17414D01*
X17439Y47373D01*
X17250Y47295D01*
X17010Y47110D01*
X16918Y46990D01*
X18742D01*
X18650Y47110D01*
X18410Y47295D01*
X18221Y47373D01*
X18246Y47500D01*
X19954D01*
X19979Y47373D01*
X19790Y47295D01*
X19550Y47110D01*
X19458Y46990D01*
X21282D01*
X21190Y47110D01*
X20950Y47295D01*
X20761Y47373D01*
X20786Y47500D01*
X22494Y47500D01*
X22519Y47373D01*
X22330Y47295D01*
X22090Y47110D01*
X21998Y46990D01*
X23822D01*
X23730Y47110D01*
X23490Y47295D01*
X23301Y47373D01*
X23326Y47500D01*
X25034D01*
X25059Y47373D01*
X24870Y47295D01*
X24630Y47110D01*
X24538Y46990D01*
X26362D01*
X26270Y47110D01*
X26030Y47295D01*
X25841Y47373D01*
X25866Y47500D01*
X27574D01*
X27599Y47373D01*
X27410Y47295D01*
X27170Y47110D01*
X27078Y46990D01*
X28902D01*
X28810Y47110D01*
X28570Y47295D01*
X28381Y47373D01*
X28406Y47500D01*
X30114D01*
X30139Y47373D01*
X29950Y47295D01*
X29710Y47110D01*
X29618Y46990D01*
X31442D01*
X31350Y47110D01*
X31110Y47295D01*
X30886Y47387D01*
X30884Y47476D01*
X30896Y47521D01*
X31211Y47651D01*
X31493Y47867D01*
X31709Y48149D01*
X31752Y48252D01*
X32246Y48746D01*
X32246Y48746D01*
X32246Y48746D01*
X32402Y48902D01*
X32767Y49146D01*
X33173Y49314D01*
X33604Y49400D01*
X33824Y49400D01*
D02*
G37*
G36*
X83136Y6564D02*
X83231Y6564D01*
X83408Y6491D01*
X83544Y6356D01*
X83608Y6200D01*
X83617Y6083D01*
Y6083D01*
X83617Y6083D01*
X83617Y6083D01*
X83617Y3117D01*
X83617Y2991D01*
X83520Y2757D01*
X83341Y2578D01*
X83108Y2481D01*
X82981Y2481D01*
X82981Y2481D01*
Y2481D01*
X77719Y2481D01*
X77655Y2481D01*
X77529Y2506D01*
X77410Y2555D01*
X77303Y2627D01*
X77212Y2717D01*
X77141Y2824D01*
X77092Y2943D01*
X77067Y3069D01*
X77067Y3133D01*
X77067Y6166D01*
X77143Y6349D01*
X77283Y6489D01*
X77465Y6564D01*
X77564D01*
X77564Y6564D01*
X83136Y6564D01*
D02*
G37*
G36*
X83075Y52875D02*
X83075Y52875D01*
X83075D01*
X83192Y52871D01*
X83382Y52792D01*
X83534Y52640D01*
X83617Y52441D01*
Y48617D01*
X83617Y48617D01*
X83617Y48507D01*
X83533Y48304D01*
X83377Y48148D01*
X83174Y48064D01*
X83064Y48064D01*
X77936Y48064D01*
X77936Y48064D01*
X77842Y48064D01*
X77670Y48136D01*
X77538Y48268D01*
X77467Y48440D01*
X77467Y48533D01*
X77467Y49268D01*
X77594Y49345D01*
X77713Y49322D01*
X78280D01*
Y50400D01*
Y51478D01*
X77713D01*
X77594Y51455D01*
X77467Y51532D01*
X77467Y52317D01*
X77467Y52428D01*
X77552Y52633D01*
X77709Y52790D01*
X77914Y52875D01*
X78025Y52875D01*
X83075Y52875D01*
X83075Y52875D01*
D02*
G37*
G36*
X59967Y37964D02*
Y37382D01*
X59961Y37336D01*
X59967Y37290D01*
Y36382D01*
X59961Y36336D01*
X59967Y36290D01*
X59967Y35793D01*
X59840Y35755D01*
X59809Y35800D01*
X59714Y35864D01*
X59635Y35880D01*
Y34586D01*
Y33292D01*
X59714Y33308D01*
X59809Y33372D01*
X59840Y33417D01*
X59967Y33379D01*
Y32836D01*
X58657Y32836D01*
X58567Y32926D01*
Y33413D01*
X58603Y33467D01*
X58626Y33580D01*
Y35592D01*
X58603Y35705D01*
X58567Y35759D01*
Y37866D01*
X58665Y37964D01*
X59967Y37964D01*
D02*
G37*
G36*
X83642Y53096D02*
X83570Y53034D01*
X83442Y52988D01*
X83270Y53059D01*
X83235Y53067D01*
X83199Y53075D01*
X83082Y53079D01*
X83079Y53078D01*
X83075Y53079D01*
X83075D01*
X83075Y53079D01*
X78025Y53079D01*
X77914Y53079D01*
X77836Y53063D01*
X77631Y52978D01*
X77565Y52934D01*
X77565Y52934D01*
X77408Y52777D01*
X77363Y52711D01*
X77279Y52506D01*
X77279Y52506D01*
X77263Y52428D01*
X77263Y52317D01*
X77263Y51532D01*
X77268Y51508D01*
X77269Y51483D01*
X77275Y51469D01*
X77279Y51454D01*
X77292Y51433D01*
X77302Y51411D01*
X77314Y51400D01*
X77323Y51387D01*
X77319Y51215D01*
X77287Y51053D01*
Y49748D01*
X77319Y49585D01*
X77374Y49502D01*
X77361Y49443D01*
X77343Y49426D01*
X77323Y49413D01*
X77314Y49399D01*
X77302Y49389D01*
X77292Y49367D01*
X77279Y49346D01*
X77275Y49331D01*
X77269Y49317D01*
X77268Y49292D01*
X77263Y49268D01*
X77263Y48533D01*
X77263Y48440D01*
X77279Y48362D01*
X77279Y48362D01*
X77350Y48189D01*
X77394Y48123D01*
X77526Y47991D01*
X77526Y47991D01*
X77592Y47947D01*
X77764Y47876D01*
X77764Y47876D01*
X77842Y47860D01*
X77936Y47860D01*
X77936Y47860D01*
X77936Y47860D01*
X83064Y47860D01*
X83174Y47860D01*
X83252Y47876D01*
X83455Y47960D01*
X83522Y48004D01*
X83522Y48004D01*
X83677Y48160D01*
X83721Y48226D01*
X83805Y48429D01*
X83821Y48507D01*
X83821Y48617D01*
X83821Y48617D01*
Y49665D01*
X86570Y49665D01*
X86587Y49664D01*
X86601Y49665D01*
X89791Y49665D01*
Y6750D01*
X83642Y6750D01*
Y6750D01*
X83442Y6698D01*
X83309Y6753D01*
X83309Y6753D01*
X83231Y6768D01*
X83136Y6768D01*
X77564Y6768D01*
X77564Y6768D01*
X77465D01*
X77387Y6753D01*
X77205Y6677D01*
X77138Y6633D01*
X77138Y6633D01*
X76998Y6493D01*
X76973Y6454D01*
X76884Y6458D01*
X76773Y6507D01*
X76773Y9933D01*
X76773Y9999D01*
X76762Y10052D01*
X76750Y10116D01*
X76750Y10116D01*
X76699Y10238D01*
X76633Y10337D01*
X76540Y10430D01*
X76494Y10460D01*
X76555Y10660D01*
X76664D01*
X76744Y10660D01*
X76822Y10676D01*
X76970Y10737D01*
X76970Y10737D01*
X77037Y10781D01*
X77150Y10895D01*
X77150Y10895D01*
X77172Y10928D01*
X77194Y10961D01*
X77194Y10961D01*
X77255Y11109D01*
X77255Y11109D01*
X77271Y11187D01*
X77271Y11267D01*
X77271Y11267D01*
X77271Y17033D01*
X77271Y17119D01*
X77255Y17197D01*
X77190Y17355D01*
X77145Y17422D01*
X77024Y17543D01*
X76958Y17587D01*
X76830Y17640D01*
X76802Y17646D01*
X76775Y17654D01*
X76658Y17667D01*
X76647Y17666D01*
X76636Y17668D01*
X76636D01*
X76636Y17668D01*
X73964Y17668D01*
X73885Y17668D01*
X73807Y17653D01*
X73661Y17592D01*
X73595Y17548D01*
X73483Y17436D01*
X73439Y17370D01*
X73394Y17262D01*
X73389Y17236D01*
X73380Y17210D01*
X73365Y17094D01*
X73366Y17080D01*
X73363Y17067D01*
Y11233D01*
Y11160D01*
X73379Y11082D01*
X73435Y10946D01*
X73479Y10880D01*
X73479Y10880D01*
X73583Y10776D01*
X73596Y10767D01*
X73576Y10642D01*
X73531Y10570D01*
X73485Y10570D01*
X73368Y10547D01*
X73222Y10486D01*
X73123Y10420D01*
X73011Y10308D01*
X73011Y10308D01*
X72945Y10209D01*
X72900Y10100D01*
X72892Y10061D01*
X72879Y10024D01*
X72864Y9907D01*
X72865Y9887D01*
X72861Y9867D01*
X72861Y5671D01*
X58848D01*
X58705Y5781D01*
X58449Y5887D01*
X58175Y5923D01*
X57901Y5887D01*
X57645Y5781D01*
X57426Y5613D01*
X57258Y5394D01*
X57152Y5138D01*
X57116Y4864D01*
X57152Y4590D01*
X57258Y4335D01*
X57426Y4115D01*
X57645Y3947D01*
X57901Y3841D01*
X58175Y3805D01*
X58449Y3841D01*
X58705Y3947D01*
X58848Y4057D01*
X72669D01*
X72861Y4040D01*
X72884Y3923D01*
X72956Y3750D01*
X73022Y3651D01*
X73154Y3519D01*
X73253Y3453D01*
X73425Y3382D01*
X73542Y3358D01*
X73636Y3358D01*
X73636Y3358D01*
X76064Y3358D01*
X76181Y3382D01*
X76366Y3458D01*
X76465Y3525D01*
X76607Y3666D01*
X76663Y3750D01*
X76684Y3753D01*
X76863Y3640D01*
Y3133D01*
X76863Y3069D01*
X76867Y3049D01*
Y3029D01*
X76892Y2903D01*
X76900Y2885D01*
X76904Y2865D01*
X76953Y2746D01*
X76964Y2730D01*
X76972Y2711D01*
X77043Y2604D01*
X77057Y2590D01*
X77068Y2573D01*
X77159Y2482D01*
X77176Y2471D01*
X77190Y2457D01*
X77297Y2386D01*
X77315Y2378D01*
X77332Y2367D01*
X77451Y2318D01*
X77470Y2314D01*
X77489Y2306D01*
X77615Y2281D01*
X77635D01*
X77655Y2277D01*
X77719Y2277D01*
X82981Y2277D01*
X82981Y2277D01*
X83108Y2277D01*
X83186Y2293D01*
X83419Y2390D01*
X83442Y2405D01*
X83642Y2335D01*
Y228D01*
X43500Y228D01*
X39541Y228D01*
X39400Y370D01*
Y723D01*
X39425Y744D01*
X39700D01*
Y1450D01*
X40000D01*
Y1750D01*
X40906D01*
Y1825D01*
X41071Y2000D01*
X41309D01*
X41354Y1945D01*
Y1900D01*
X42100D01*
X42846D01*
Y1945D01*
X42891Y2000D01*
X43500D01*
Y2764D01*
X46300Y2764D01*
X49904Y2764D01*
Y2336D01*
X49920Y2258D01*
X49964Y2192D01*
X50030Y2147D01*
X50108Y2132D01*
X50708D01*
X50786Y2147D01*
X50852Y2192D01*
X50896Y2258D01*
X50912Y2336D01*
Y2787D01*
X50967Y2798D01*
X51109Y2857D01*
X51237Y2942D01*
X51294Y2994D01*
X51700Y3400D01*
X52059Y3759D01*
X52116Y3816D01*
X52251Y3906D01*
X52401Y3968D01*
X52560Y4000D01*
X52641Y4000D01*
X52641Y4000D01*
X54000Y4000D01*
X54076Y4007D01*
X54215Y4065D01*
X54322Y4172D01*
X54379Y4312D01*
X54386Y4388D01*
X54386Y4388D01*
X54367Y9064D01*
Y9133D01*
X54394Y9268D01*
X54447Y9396D01*
X54523Y9511D01*
X54621Y9608D01*
X54735Y9685D01*
X54863Y9737D01*
X54998Y9764D01*
X55067D01*
X55067Y9764D01*
X57739D01*
X57833Y9769D01*
X58018Y9806D01*
X58192Y9878D01*
X58349Y9982D01*
X58482Y10116D01*
X58587Y10272D01*
X58659Y10446D01*
X58695Y10631D01*
X58700Y10725D01*
X58700Y10725D01*
X58700Y14803D01*
X58703Y14809D01*
X58857Y14960D01*
X58857Y14960D01*
X59351Y14960D01*
X59367Y14958D01*
X59383Y14960D01*
X60067Y14960D01*
X60145Y14976D01*
X60217Y15017D01*
X60273Y14983D01*
X60279Y14982D01*
X60289Y14976D01*
X60319Y14970D01*
X60349Y14961D01*
X60358Y14962D01*
X60367Y14960D01*
X60751D01*
X60767Y14958D01*
X60783Y14960D01*
X61207Y14960D01*
X61285Y14976D01*
X61358Y15006D01*
X61424Y15051D01*
X61424Y15051D01*
X61481Y15107D01*
X61525Y15173D01*
X61555Y15246D01*
X61571Y15325D01*
Y15364D01*
X61571Y15364D01*
Y20154D01*
X61609Y20185D01*
X62141D01*
X62254Y20208D01*
X62349Y20272D01*
X62405Y20355D01*
X62501Y20367D01*
X62519D01*
X62615Y20355D01*
X62671Y20272D01*
X62766Y20208D01*
X62845Y20192D01*
Y21486D01*
Y22780D01*
X62766Y22764D01*
X62671Y22700D01*
X62615Y22617D01*
X62519Y22605D01*
X62501D01*
X62405Y22617D01*
X62349Y22700D01*
X62254Y22764D01*
X62141Y22787D01*
X61609D01*
X61571Y22818D01*
Y23004D01*
X61555Y23082D01*
X61555Y23082D01*
X61525Y23156D01*
X61481Y23222D01*
X61481Y23222D01*
X61425Y23278D01*
X61414Y23285D01*
X61405Y23295D01*
X61381Y23307D01*
X61359Y23322D01*
X61346Y23324D01*
X61334Y23330D01*
X61220Y23361D01*
X61193Y23363D01*
X61167Y23368D01*
X61049Y23368D01*
X61049Y23368D01*
X61049Y23368D01*
X60271Y23368D01*
X60239Y23362D01*
X60206Y23358D01*
X60200Y23354D01*
X60193Y23353D01*
X60169Y23337D01*
X60145Y23353D01*
X60067Y23368D01*
X58767Y23368D01*
X58689Y23353D01*
X58516Y23381D01*
X58417Y23447D01*
X58300Y23470D01*
X57367Y23470D01*
X57329Y23463D01*
X57291Y23460D01*
X57163Y23427D01*
X57140Y23417D01*
X57115Y23411D01*
X56944Y23335D01*
X56935Y23329D01*
X55807Y24457D01*
X55823Y24553D01*
X55879Y24657D01*
X58400D01*
Y28036D01*
Y31415D01*
X57338D01*
X57255Y31615D01*
X58183Y32543D01*
X58183Y32543D01*
X58250Y32643D01*
X58255Y32672D01*
X58302Y32702D01*
X58465Y32739D01*
X58513Y32692D01*
X58513Y32692D01*
X58579Y32648D01*
X58657Y32632D01*
X59967Y32632D01*
X60045Y32648D01*
X60067Y32662D01*
X60073Y32658D01*
X60083Y32654D01*
X60093Y32648D01*
X60121Y32642D01*
X60148Y32634D01*
X60160Y32635D01*
X60171Y32632D01*
X61277Y32632D01*
X61277Y32632D01*
X61355Y32648D01*
X61421Y32692D01*
X61511Y32782D01*
X61555Y32848D01*
X61571Y32926D01*
Y33254D01*
X61609Y33285D01*
X62141D01*
X62254Y33308D01*
X62349Y33372D01*
X62405Y33455D01*
X62501Y33467D01*
X62519D01*
X62615Y33455D01*
X62671Y33372D01*
X62766Y33308D01*
X62845Y33292D01*
Y34586D01*
Y35880D01*
X62766Y35864D01*
X62671Y35800D01*
X62615Y35717D01*
X62519Y35705D01*
X62501D01*
X62405Y35717D01*
X62349Y35800D01*
X62254Y35864D01*
X62141Y35887D01*
X61609D01*
X61571Y35918D01*
X61571Y37664D01*
X61571Y37664D01*
Y37664D01*
X61567Y37684D01*
X61567Y37705D01*
X61544Y37820D01*
X61536Y37839D01*
X61532Y37858D01*
X61510Y37912D01*
X61465Y37978D01*
X61381Y38063D01*
X61381Y38063D01*
X61348Y38085D01*
X61315Y38107D01*
X61315Y38107D01*
X61205Y38153D01*
X61205Y38153D01*
X61127Y38168D01*
X60289Y38168D01*
X60272Y38165D01*
X60255Y38165D01*
X60234Y38157D01*
X60211Y38153D01*
X60111Y38108D01*
X60045Y38153D01*
X59967Y38168D01*
X59273Y38168D01*
X59197Y38353D01*
X70401Y49557D01*
X73109D01*
X73127Y49549D01*
X73176Y49504D01*
X73261Y49362D01*
X73261Y49357D01*
X73261Y45333D01*
X73261Y45260D01*
X73284Y45143D01*
X73284Y45143D01*
X73284Y45143D01*
X73340Y45007D01*
X73407Y44908D01*
X73511Y44804D01*
X73610Y44738D01*
X73745Y44682D01*
X73862Y44658D01*
X73936Y44658D01*
X76164Y44658D01*
X76194Y44664D01*
X76225Y44664D01*
X76342Y44688D01*
X76369Y44700D01*
X76399Y44705D01*
X76453Y44728D01*
X76552Y44794D01*
X76637Y44879D01*
X76703Y44978D01*
X76703Y44978D01*
X76750Y45090D01*
X76750Y45090D01*
X76750Y45090D01*
X76773Y45207D01*
X76773Y45267D01*
X76773Y51133D01*
X76773Y51133D01*
X76773Y51219D01*
X76750Y51336D01*
X76684Y51494D01*
X76618Y51594D01*
X76496Y51715D01*
X76397Y51781D01*
X76239Y51847D01*
X76121Y51870D01*
X75951D01*
X75930Y51866D01*
X75908Y51867D01*
X75872Y51854D01*
X75834Y51847D01*
X75816Y51835D01*
X75795Y51827D01*
X75767Y51802D01*
X75735Y51781D01*
X75723Y51762D01*
X75706Y51748D01*
X75690Y51726D01*
X75688Y51722D01*
X75685Y51719D01*
X75662Y51668D01*
X75638Y51618D01*
X75638Y51614D01*
X75636Y51610D01*
X75636Y51580D01*
X73952D01*
X73751Y51540D01*
X73579Y51426D01*
X73465Y51254D01*
X73448Y51171D01*
X70067D01*
X69858Y51144D01*
X69663Y51063D01*
X69496Y50935D01*
X56808Y38247D01*
X56629Y38223D01*
X56373Y38117D01*
X56154Y37949D01*
X55985Y37730D01*
X55880Y37474D01*
X55844Y37200D01*
X55880Y36926D01*
X55985Y36670D01*
X56154Y36451D01*
X56373Y36283D01*
X56629Y36177D01*
X56903Y36141D01*
X57177Y36177D01*
X57432Y36283D01*
X57652Y36451D01*
X57820Y36670D01*
X57926Y36926D01*
X57949Y37105D01*
X58178Y37334D01*
X58363Y37258D01*
Y35913D01*
X58331Y35887D01*
X57799D01*
X57686Y35864D01*
X57591Y35800D01*
X57535Y35717D01*
X57439Y35705D01*
X57421D01*
X57325Y35717D01*
X57269Y35800D01*
X57174Y35864D01*
X57061Y35887D01*
X56529D01*
X56416Y35864D01*
X56321Y35800D01*
X56265Y35717D01*
X56169Y35705D01*
X56151D01*
X56055Y35717D01*
X55999Y35800D01*
X55904Y35864D01*
X55791Y35887D01*
X55259D01*
X55067Y36034D01*
Y39864D01*
X53467D01*
Y38134D01*
X53267Y38073D01*
X53231Y38126D01*
X53126Y38197D01*
X53002Y38221D01*
X52950D01*
Y37500D01*
Y36779D01*
X53002D01*
X53126Y36803D01*
X53231Y36874D01*
X53267Y36927D01*
X53467Y36866D01*
Y36032D01*
X53452Y36007D01*
X53285Y35896D01*
Y34586D01*
Y33258D01*
X53406Y33159D01*
X53396Y33047D01*
X53367Y32984D01*
X53279Y32970D01*
X50367D01*
X50367Y45067D01*
X50367Y45181D01*
X50454Y45391D01*
X50615Y45552D01*
X50816Y45635D01*
X50861Y45635D01*
X59139Y45635D01*
X59264Y45635D01*
X59284Y45639D01*
X59739D01*
X59811Y45643D01*
X59953Y45671D01*
X60086Y45726D01*
X60206Y45806D01*
X60308Y45908D01*
X60388Y46028D01*
X60443Y46161D01*
X60471Y46303D01*
X60475Y46375D01*
X60475Y46375D01*
Y47282D01*
X60958D01*
X61036Y47297D01*
X61102Y47342D01*
X61146Y47408D01*
X61162Y47486D01*
Y48086D01*
X61146Y48164D01*
X61102Y48230D01*
X61036Y48274D01*
X60958Y48290D01*
X60475D01*
X60475Y55791D01*
X83642D01*
Y53096D01*
D02*
G37*
G36*
X60067Y23164D02*
Y22605D01*
X60067Y22605D01*
X60044Y22492D01*
Y20480D01*
X60067Y20367D01*
X60067Y20367D01*
Y19710D01*
X60061Y19664D01*
X60067Y19618D01*
X60067Y18710D01*
X60061Y18664D01*
X60067Y18618D01*
Y17710D01*
X60061Y17664D01*
X60067Y17618D01*
Y16710D01*
X60061Y16664D01*
X60067Y16618D01*
X60067Y15710D01*
X60061Y15664D01*
X60067Y15618D01*
Y15164D01*
X58857Y15164D01*
X58767Y15254D01*
X58767Y20193D01*
X58783Y20207D01*
X58894Y20249D01*
X58956Y20208D01*
X59035Y20192D01*
Y21486D01*
Y22780D01*
X58956Y22764D01*
X58894Y22723D01*
X58783Y22765D01*
X58767Y22779D01*
Y23164D01*
X60067Y23164D01*
D02*
G37*
G36*
X50700Y13000D02*
X50700Y13000D01*
X50701D01*
X50818Y12998D01*
X51021Y12914D01*
X51181Y12754D01*
X51267Y12546D01*
X51267Y12433D01*
X51267Y10000D01*
X51267Y3767D01*
X51267Y3767D01*
X51267Y3707D01*
X51221Y3595D01*
X51136Y3510D01*
X51039Y3470D01*
X50912Y3518D01*
Y3936D01*
X50896Y4014D01*
X50852Y4080D01*
X50786Y4124D01*
X50708Y4140D01*
X50108D01*
X50030Y4124D01*
X49964Y4080D01*
X49920Y4014D01*
X49904Y3936D01*
Y3464D01*
X44536Y3464D01*
X44429Y3464D01*
X44232Y3546D01*
X44082Y3697D01*
X44000Y3893D01*
X44000Y4000D01*
X44000Y6776D01*
X44127Y6815D01*
X44132Y6807D01*
X44271Y6714D01*
X44435Y6682D01*
X44795D01*
Y8300D01*
X45095D01*
Y8600D01*
X46183D01*
Y9490D01*
X46151Y9654D01*
X46058Y9793D01*
X45938Y9873D01*
X45943Y9953D01*
X45959Y10000D01*
X46000D01*
X46000Y12400D01*
X46000Y12519D01*
X46091Y12740D01*
X46260Y12909D01*
X46481Y13000D01*
X46600Y13000D01*
X50700Y13000D01*
X50700Y13000D01*
D02*
G37*
G36*
X76121Y51564D02*
X76280Y51499D01*
X76401Y51377D01*
X76467Y51219D01*
X76467Y51133D01*
X76467D01*
X76467Y45267D01*
X76467Y45207D01*
X76421Y45096D01*
X76336Y45010D01*
X76282Y44988D01*
X76164Y44964D01*
X73936Y44964D01*
X73862Y44964D01*
X73727Y45020D01*
X73623Y45124D01*
X73567Y45260D01*
X73567Y45333D01*
X73567Y49362D01*
X73694Y49418D01*
X73790Y49354D01*
X73952Y49322D01*
X74420D01*
Y50400D01*
X74820D01*
Y50800D01*
X76113D01*
Y51053D01*
X76081Y51215D01*
X75989Y51354D01*
X75964Y51370D01*
X75935Y51542D01*
X75951Y51564D01*
X76121D01*
D02*
G37*
%LPC*%
G36*
X75878Y15720D02*
X75100D01*
Y14727D01*
X75452D01*
X75615Y14759D01*
X75754Y14852D01*
X75846Y14990D01*
X75878Y15153D01*
Y15720D01*
D02*
G37*
G36*
X74500Y17313D02*
X74147D01*
X73985Y17281D01*
X73846Y17189D01*
X73754Y17050D01*
X73722Y16888D01*
Y16320D01*
X74500D01*
Y17313D01*
D02*
G37*
G36*
X75452D02*
X75100D01*
Y16320D01*
X75878D01*
Y16888D01*
X75846Y17050D01*
X75754Y17189D01*
X75615Y17281D01*
X75452Y17313D01*
D02*
G37*
G36*
X74500Y13673D02*
X74147D01*
X73985Y13641D01*
X73846Y13549D01*
X73754Y13410D01*
X73722Y13248D01*
Y12680D01*
X74500D01*
Y13673D01*
D02*
G37*
G36*
X75452D02*
X75100D01*
Y12680D01*
X75878D01*
Y13248D01*
X75846Y13410D01*
X75754Y13549D01*
X75615Y13641D01*
X75452Y13673D01*
D02*
G37*
G36*
X74500Y15720D02*
X73722D01*
Y15153D01*
X73754Y14990D01*
X73846Y14852D01*
X73985Y14759D01*
X74147Y14727D01*
X74500D01*
Y15720D01*
D02*
G37*
G36*
Y12080D02*
X73722D01*
Y11512D01*
X73754Y11350D01*
X73846Y11212D01*
X73985Y11119D01*
X74147Y11087D01*
X74500D01*
Y12080D01*
D02*
G37*
G36*
X75878D02*
X75100D01*
Y11087D01*
X75452D01*
X75615Y11119D01*
X75754Y11212D01*
X75846Y11350D01*
X75878Y11512D01*
Y12080D01*
D02*
G37*
G36*
X52685Y21186D02*
X52424D01*
Y20480D01*
X52447Y20367D01*
X52511Y20272D01*
X52606Y20208D01*
X52685Y20192D01*
Y21186D01*
D02*
G37*
G36*
X54705Y18000D02*
X53917D01*
Y17110D01*
X53949Y16946D01*
X54042Y16807D01*
X54181Y16714D01*
X54345Y16682D01*
X54705D01*
Y18000D01*
D02*
G37*
G36*
Y19918D02*
X54345D01*
X54181Y19886D01*
X54042Y19793D01*
X53949Y19654D01*
X53917Y19490D01*
Y18600D01*
X54705D01*
Y19918D01*
D02*
G37*
G36*
X46538Y17174D02*
X44995D01*
Y16341D01*
X46099D01*
X46267Y16374D01*
X46410Y16470D01*
X46505Y16612D01*
X46538Y16780D01*
Y17174D01*
D02*
G37*
G36*
X46099Y18608D02*
X44995D01*
Y17774D01*
X46538D01*
Y18168D01*
X46505Y18336D01*
X46410Y18479D01*
X46267Y18574D01*
X46099Y18608D01*
D02*
G37*
G36*
X46233Y20200D02*
X45445D01*
Y18882D01*
X45805D01*
X45969Y18914D01*
X46108Y19007D01*
X46201Y19146D01*
X46233Y19310D01*
Y20200D01*
D02*
G37*
G36*
X45805Y22118D02*
X45445D01*
Y20800D01*
X46233D01*
Y21690D01*
X46201Y21854D01*
X46108Y21993D01*
X45969Y22086D01*
X45805Y22118D01*
D02*
G37*
G36*
X42105Y7900D02*
X41417D01*
Y7110D01*
X41449Y6946D01*
X41542Y6807D01*
X41681Y6714D01*
X41845Y6682D01*
X42105D01*
Y7900D01*
D02*
G37*
G36*
X40479Y7886D02*
X39800D01*
Y7207D01*
X39980Y7281D01*
X40220Y7466D01*
X40404Y7706D01*
X40479Y7886D01*
D02*
G37*
G36*
X39000D02*
X38321D01*
X38395Y7706D01*
X38580Y7466D01*
X38820Y7281D01*
X39000Y7207D01*
Y7886D01*
D02*
G37*
G36*
X43075Y10976D02*
X42784D01*
Y10252D01*
X42873Y10270D01*
X42979Y10341D01*
X43050Y10447D01*
X43075Y10572D01*
Y10976D01*
D02*
G37*
G36*
X41984D02*
X41692D01*
Y10572D01*
X41717Y10447D01*
X41788Y10341D01*
X41895Y10270D01*
X41984Y10252D01*
Y10976D01*
D02*
G37*
G36*
X42784Y12500D02*
Y11776D01*
X43075D01*
Y12180D01*
X43050Y12305D01*
X42979Y12411D01*
X42873Y12482D01*
X42784Y12500D01*
D02*
G37*
G36*
X41984Y12500D02*
X41895Y12482D01*
X41788Y12411D01*
X41717Y12305D01*
X41692Y12180D01*
Y11776D01*
X41984D01*
Y12500D01*
D02*
G37*
G36*
X39000Y9365D02*
X38820Y9291D01*
X38580Y9106D01*
X38395Y8866D01*
X38321Y8686D01*
X39000D01*
Y9365D01*
D02*
G37*
G36*
X39800Y9365D02*
Y8686D01*
X40479D01*
X40404Y8866D01*
X40220Y9106D01*
X39980Y9291D01*
X39800Y9365D01*
D02*
G37*
G36*
X42105Y9918D02*
X41845D01*
X41681Y9886D01*
X41542Y9793D01*
X41449Y9654D01*
X41417Y9490D01*
Y8700D01*
X42105D01*
Y9918D01*
D02*
G37*
G36*
X57195Y17900D02*
X56507D01*
Y17110D01*
X56539Y16946D01*
X56632Y16807D01*
X56771Y16714D01*
X56935Y16682D01*
X57195D01*
Y17900D01*
D02*
G37*
G36*
Y19918D02*
X56935D01*
X56771Y19886D01*
X56632Y19793D01*
X56539Y19654D01*
X56507Y19490D01*
Y18700D01*
X57195D01*
Y19918D01*
D02*
G37*
G36*
X56700Y48906D02*
Y48086D01*
X57520D01*
X57520Y48086D01*
X57405Y48366D01*
X57220Y48606D01*
X56980Y48791D01*
X56700Y48906D01*
X56700Y48906D01*
D02*
G37*
G36*
X56100D02*
X56100Y48906D01*
X55820Y48791D01*
X55580Y48606D01*
X55395Y48366D01*
X55280Y48086D01*
X55280Y48086D01*
X56100D01*
Y48906D01*
D02*
G37*
G36*
X57520Y47486D02*
X56700D01*
Y46666D01*
X56700Y46666D01*
X56980Y46781D01*
X57220Y46966D01*
X57405Y47206D01*
X57520Y47486D01*
X57520Y47486D01*
D02*
G37*
G36*
X56100D02*
X55280D01*
X55280Y47486D01*
X55395Y47206D01*
X55580Y46966D01*
X55820Y46781D01*
X56100Y46666D01*
X56100Y46666D01*
Y47486D01*
D02*
G37*
G36*
X12267Y15303D02*
X11835D01*
Y15199D01*
X11861Y15070D01*
X11934Y14960D01*
X12044Y14887D01*
X12173Y14862D01*
X12267D01*
Y15303D01*
D02*
G37*
G36*
X12207Y13350D02*
X11841D01*
Y13225D01*
X11865Y13102D01*
X11935Y12998D01*
X12039Y12928D01*
X12162Y12904D01*
X12207D01*
Y13350D01*
D02*
G37*
G36*
X5100Y14573D02*
X4747D01*
X4585Y14541D01*
X4446Y14448D01*
X4354Y14310D01*
X4322Y14148D01*
Y13580D01*
X5100D01*
Y14573D01*
D02*
G37*
G36*
X6052D02*
X5700D01*
Y13580D01*
X6478D01*
Y14148D01*
X6446Y14310D01*
X6353Y14448D01*
X6215Y14541D01*
X6052Y14573D01*
D02*
G37*
G36*
X12207Y14396D02*
X12162D01*
X12039Y14372D01*
X11935Y14302D01*
X11865Y14198D01*
X11841Y14075D01*
Y13950D01*
X12207D01*
Y14396D01*
D02*
G37*
G36*
X26600Y19621D02*
X26548D01*
X26424Y19597D01*
X26319Y19526D01*
X26248Y19421D01*
X26224Y19297D01*
Y19200D01*
X26600D01*
Y19621D01*
D02*
G37*
G36*
X26600Y20900D02*
X26224D01*
Y20802D01*
X26248Y20679D01*
X26319Y20574D01*
X26424Y20503D01*
X26548Y20479D01*
X26600D01*
Y20900D01*
D02*
G37*
G36*
X13450Y31470D02*
X12132D01*
Y31110D01*
X12164Y30946D01*
X12257Y30807D01*
X12396Y30714D01*
X12560Y30682D01*
X13450D01*
Y31470D01*
D02*
G37*
G36*
X16950Y27146D02*
X16905D01*
X16782Y27122D01*
X16678Y27052D01*
X16608Y26948D01*
X16584Y26825D01*
Y26700D01*
X16950D01*
Y27146D01*
D02*
G37*
G36*
X26600Y21921D02*
X26548D01*
X26424Y21897D01*
X26319Y21826D01*
X26248Y21721D01*
X26224Y21597D01*
Y21500D01*
X26600D01*
Y21921D01*
D02*
G37*
G36*
X60905Y35880D02*
Y34886D01*
X61166D01*
Y35592D01*
X61143Y35705D01*
X61079Y35800D01*
X60984Y35864D01*
X60905Y35880D01*
D02*
G37*
G36*
X61166Y34286D02*
X60905D01*
Y33292D01*
X60984Y33308D01*
X61079Y33372D01*
X61143Y33467D01*
X61166Y33580D01*
Y34286D01*
D02*
G37*
G36*
X75688Y5978D02*
X75220D01*
Y5300D01*
X76113D01*
Y5552D01*
X76081Y5715D01*
X75989Y5853D01*
X75850Y5946D01*
X75688Y5978D01*
D02*
G37*
G36*
X74400Y8220D02*
X73722D01*
Y7753D01*
X73754Y7590D01*
X73846Y7451D01*
X73985Y7359D01*
X74147Y7327D01*
X74400D01*
Y8220D01*
D02*
G37*
G36*
X75878D02*
X75200D01*
Y7327D01*
X75452D01*
X75615Y7359D01*
X75754Y7451D01*
X75846Y7590D01*
X75878Y7753D01*
Y8220D01*
D02*
G37*
G36*
X74420Y5978D02*
X73952D01*
X73790Y5946D01*
X73651Y5853D01*
X73559Y5715D01*
X73527Y5552D01*
Y5300D01*
X74420D01*
Y5978D01*
D02*
G37*
G36*
Y4500D02*
X73527D01*
Y4247D01*
X73559Y4085D01*
X73651Y3947D01*
X73790Y3854D01*
X73952Y3822D01*
X74420D01*
Y4500D01*
D02*
G37*
G36*
X76113D02*
X75220D01*
Y3822D01*
X75688D01*
X75850Y3854D01*
X75989Y3947D01*
X76081Y4085D01*
X76113Y4247D01*
Y4500D01*
D02*
G37*
G36*
X75452Y9913D02*
X75200D01*
Y9020D01*
X75878D01*
Y9488D01*
X75846Y9650D01*
X75754Y9788D01*
X75615Y9881D01*
X75452Y9913D01*
D02*
G37*
G36*
X74400D02*
X74147D01*
X73985Y9881D01*
X73846Y9788D01*
X73754Y9650D01*
X73722Y9488D01*
Y9020D01*
X74400D01*
Y9913D01*
D02*
G37*
G36*
X61166Y21186D02*
X60905D01*
Y20192D01*
X60984Y20208D01*
X61079Y20272D01*
X61143Y20367D01*
X61166Y20480D01*
Y21186D01*
D02*
G37*
G36*
X60905Y22780D02*
Y21786D01*
X61166D01*
Y22492D01*
X61143Y22605D01*
X61079Y22700D01*
X60984Y22764D01*
X60905Y22780D01*
D02*
G37*
G36*
X39700Y48906D02*
Y48086D01*
X40520D01*
X40520Y48086D01*
X40404Y48366D01*
X40220Y48606D01*
X39980Y48791D01*
X39700Y48906D01*
X39700Y48906D01*
D02*
G37*
G36*
X39100D02*
X39100Y48906D01*
X38820Y48791D01*
X38580Y48606D01*
X38395Y48366D01*
X38280Y48086D01*
X38280Y48086D01*
X39100D01*
Y48906D01*
D02*
G37*
G36*
X40520Y47486D02*
X39700D01*
Y46666D01*
X39700Y46666D01*
X39980Y46781D01*
X40220Y46966D01*
X40404Y47206D01*
X40520Y47486D01*
X40520Y47486D01*
D02*
G37*
G36*
X39100D02*
X38280D01*
X38280Y47486D01*
X38395Y47206D01*
X38580Y46966D01*
X38820Y46781D01*
X39100Y46666D01*
X39100Y46666D01*
Y47486D01*
D02*
G37*
G36*
X82402Y6413D02*
X82050D01*
Y5420D01*
X82828D01*
Y5988D01*
X82796Y6150D01*
X82703Y6288D01*
X82565Y6381D01*
X82402Y6413D01*
D02*
G37*
G36*
X81450D02*
X81097D01*
X80935Y6381D01*
X80796Y6288D01*
X80704Y6150D01*
X80672Y5988D01*
Y5420D01*
X81450D01*
Y6413D01*
D02*
G37*
G36*
X78280Y4600D02*
X77287D01*
Y4247D01*
X77319Y4085D01*
X77411Y3947D01*
X77550Y3854D01*
X77713Y3822D01*
X78280D01*
Y4600D01*
D02*
G37*
G36*
Y5978D02*
X77713D01*
X77550Y5946D01*
X77411Y5853D01*
X77319Y5715D01*
X77287Y5552D01*
Y5200D01*
X78280D01*
Y5978D01*
D02*
G37*
G36*
X79448D02*
X78880D01*
Y5200D01*
X79873D01*
Y5552D01*
X79841Y5715D01*
X79748Y5853D01*
X79610Y5946D01*
X79448Y5978D01*
D02*
G37*
G36*
X82828Y4820D02*
X82050D01*
Y3827D01*
X82402D01*
X82565Y3859D01*
X82703Y3951D01*
X82796Y4090D01*
X82828Y4253D01*
Y4820D01*
D02*
G37*
G36*
X79873Y4600D02*
X78880D01*
Y3822D01*
X79448D01*
X79610Y3854D01*
X79748Y3947D01*
X79841Y4085D01*
X79873Y4247D01*
Y4600D01*
D02*
G37*
G36*
X81450Y4820D02*
X80672D01*
Y4253D01*
X80704Y4090D01*
X80796Y3951D01*
X80935Y3859D01*
X81097Y3827D01*
X81450D01*
Y4820D01*
D02*
G37*
G36*
Y49780D02*
X80672D01*
Y49213D01*
X80704Y49050D01*
X80796Y48911D01*
X80935Y48819D01*
X81097Y48787D01*
X81450D01*
Y49780D01*
D02*
G37*
G36*
X82828D02*
X82050D01*
Y48787D01*
X82402D01*
X82565Y48819D01*
X82703Y48911D01*
X82796Y49050D01*
X82828Y49213D01*
Y49780D01*
D02*
G37*
G36*
X82402Y51373D02*
X82050D01*
Y50380D01*
X82828D01*
Y50947D01*
X82796Y51110D01*
X82703Y51249D01*
X82565Y51341D01*
X82402Y51373D01*
D02*
G37*
G36*
X79448Y51478D02*
X78880D01*
Y50700D01*
X79873D01*
Y51053D01*
X79841Y51215D01*
X79748Y51354D01*
X79610Y51446D01*
X79448Y51478D01*
D02*
G37*
G36*
X81450Y51373D02*
X81097D01*
X80935Y51341D01*
X80796Y51249D01*
X80704Y51110D01*
X80672Y50947D01*
Y50380D01*
X81450D01*
Y51373D01*
D02*
G37*
G36*
X79873Y50100D02*
X78880D01*
Y49322D01*
X79448D01*
X79610Y49354D01*
X79748Y49446D01*
X79841Y49585D01*
X79873Y49748D01*
Y50100D01*
D02*
G37*
G36*
X59035Y35880D02*
X58956Y35864D01*
X58861Y35800D01*
X58797Y35705D01*
X58774Y35592D01*
Y34886D01*
X59035D01*
Y35880D01*
D02*
G37*
G36*
Y34286D02*
X58774D01*
Y33580D01*
X58797Y33467D01*
X58861Y33372D01*
X58956Y33308D01*
X59035Y33292D01*
Y34286D01*
D02*
G37*
G36*
X70100Y14520D02*
X70100Y14520D01*
X69820Y14405D01*
X69580Y14220D01*
X69395Y13980D01*
X69280Y13700D01*
X69280Y13700D01*
X70100D01*
Y14520D01*
D02*
G37*
G36*
X70700D02*
Y13700D01*
X71520D01*
X71520Y13700D01*
X71405Y13980D01*
X71220Y14220D01*
X70980Y14405D01*
X70700Y14520D01*
X70700Y14520D01*
D02*
G37*
G36*
X74500Y21073D02*
X74147D01*
X73985Y21041D01*
X73846Y20949D01*
X73754Y20810D01*
X73722Y20648D01*
Y20080D01*
X74500D01*
Y21073D01*
D02*
G37*
G36*
X75452D02*
X75100D01*
Y20080D01*
X75878D01*
Y20648D01*
X75846Y20810D01*
X75754Y20949D01*
X75615Y21041D01*
X75452Y21073D01*
D02*
G37*
G36*
X69928Y20018D02*
X69748D01*
X69608Y19990D01*
X69488Y19911D01*
X69409Y19791D01*
X69381Y19651D01*
Y19176D01*
X69928D01*
Y20018D01*
D02*
G37*
G36*
X70708D02*
X70528D01*
Y19176D01*
X71075D01*
Y19651D01*
X71047Y19791D01*
X70968Y19911D01*
X70848Y19990D01*
X70708Y20018D01*
D02*
G37*
G36*
X65764Y20570D02*
X65764Y20570D01*
X65712Y20570D01*
X65712Y20570D01*
X65712Y20570D01*
X65648Y20558D01*
X65595Y20547D01*
X65595Y20547D01*
X65595Y20547D01*
X65498Y20507D01*
X65398Y20440D01*
X65324Y20366D01*
X65258Y20267D01*
X65217Y20170D01*
X65194Y20053D01*
X65194Y18115D01*
X65192Y18090D01*
X65167Y18031D01*
X65133Y17997D01*
X65074Y17973D01*
X65049Y17970D01*
X63164Y17970D01*
X63164Y17970D01*
X63070Y17970D01*
X62953Y17947D01*
X62780Y17875D01*
X62680Y17809D01*
X62548Y17676D01*
X62481Y17577D01*
X62409Y17403D01*
X62386Y17286D01*
Y17192D01*
X62386Y12208D01*
X62386Y12208D01*
X62386Y12120D01*
X62409Y12003D01*
X62477Y11840D01*
X62543Y11740D01*
X62668Y11616D01*
X62767Y11549D01*
X62930Y11482D01*
X63047Y11458D01*
X63136Y11458D01*
X68064Y11458D01*
X68074Y11460D01*
X68084Y11459D01*
X68202Y11467D01*
X68250Y11479D01*
X68299Y11489D01*
X68466Y11558D01*
X68565Y11625D01*
X68707Y11766D01*
X68773Y11865D01*
X68850Y12050D01*
X68873Y12167D01*
X68873Y12267D01*
X68873Y19964D01*
X68873Y19964D01*
Y19964D01*
X68867Y19994D01*
X68867Y20024D01*
X68844Y20139D01*
X68832Y20167D01*
X68827Y20196D01*
X68804Y20251D01*
X68804Y20251D01*
X68804Y20251D01*
X68771Y20301D01*
X68738Y20350D01*
X68738Y20350D01*
X68738Y20350D01*
X68653Y20435D01*
X68653Y20435D01*
X68653Y20435D01*
X68609Y20464D01*
X68554Y20501D01*
X68554Y20501D01*
X68554Y20501D01*
X68444Y20547D01*
X68444Y20547D01*
X68444Y20547D01*
X68389Y20558D01*
X68327Y20570D01*
X68327Y20570D01*
X68327Y20570D01*
X65764Y20570D01*
D02*
G37*
G36*
X64976Y21186D02*
X64715D01*
Y20192D01*
X64794Y20208D01*
X64889Y20272D01*
X64953Y20367D01*
X64976Y20480D01*
Y21186D01*
D02*
G37*
G36*
X69928Y18576D02*
X69381D01*
Y18101D01*
X69409Y17961D01*
X69488Y17841D01*
X69608Y17762D01*
X69748Y17734D01*
X69928D01*
Y18576D01*
D02*
G37*
G36*
X71075D02*
X70528D01*
Y17734D01*
X70708D01*
X70848Y17762D01*
X70968Y17841D01*
X71047Y17961D01*
X71075Y18101D01*
Y18576D01*
D02*
G37*
G36*
X83576Y22043D02*
X83282Y22014D01*
X82999Y21928D01*
X82739Y21789D01*
X82510Y21601D01*
X82323Y21373D01*
X82184Y21113D01*
X82098Y20830D01*
X82069Y20536D01*
X82098Y20242D01*
X82184Y19959D01*
X82323Y19698D01*
X82510Y19470D01*
X82739Y19282D01*
X82999Y19143D01*
X83282Y19057D01*
X83576Y19028D01*
X83870Y19057D01*
X84153Y19143D01*
X84413Y19282D01*
X84425Y19292D01*
X84626Y19198D01*
X84661Y18934D01*
X84797Y18605D01*
X85013Y18323D01*
X85232Y18155D01*
X85247Y18109D01*
Y17963D01*
X85232Y17917D01*
X85013Y17749D01*
X84797Y17467D01*
X84661Y17138D01*
X84626Y16873D01*
X84425Y16780D01*
X84413Y16789D01*
X84153Y16928D01*
X83870Y17014D01*
X83576Y17043D01*
X83282Y17014D01*
X82999Y16928D01*
X82739Y16789D01*
X82510Y16601D01*
X82323Y16373D01*
X82184Y16113D01*
X82098Y15830D01*
X82069Y15536D01*
X82098Y15242D01*
X82184Y14959D01*
X82323Y14698D01*
X82510Y14470D01*
X82739Y14282D01*
X82999Y14143D01*
X83282Y14057D01*
X83576Y14028D01*
X83870Y14057D01*
X84153Y14143D01*
X84413Y14282D01*
X84642Y14470D01*
X84829Y14698D01*
X84969Y14959D01*
X85054Y15242D01*
X85082Y15519D01*
X85159Y15581D01*
X85258Y15635D01*
X85295Y15607D01*
X85624Y15471D01*
X85976Y15424D01*
X86328Y15471D01*
X86657Y15607D01*
X86939Y15823D01*
X87155Y16105D01*
X87291Y16434D01*
X87338Y16786D01*
X87291Y17138D01*
X87155Y17467D01*
X86939Y17749D01*
X86720Y17917D01*
X86705Y17963D01*
Y18109D01*
X86720Y18155D01*
X86939Y18323D01*
X87155Y18605D01*
X87291Y18934D01*
X87338Y19286D01*
X87291Y19638D01*
X87155Y19967D01*
X86939Y20249D01*
X86657Y20465D01*
X86328Y20601D01*
X85976Y20648D01*
X85624Y20601D01*
X85295Y20465D01*
X85258Y20437D01*
X85160Y20491D01*
X85082Y20553D01*
X85054Y20830D01*
X84969Y21113D01*
X84829Y21373D01*
X84642Y21601D01*
X84413Y21789D01*
X84153Y21928D01*
X83870Y22014D01*
X83576Y22043D01*
D02*
G37*
G36*
X74500Y19480D02*
X73722D01*
Y18913D01*
X73754Y18750D01*
X73846Y18612D01*
X73985Y18519D01*
X74147Y18487D01*
X74500D01*
Y19480D01*
D02*
G37*
G36*
X75878D02*
X75100D01*
Y18487D01*
X75452D01*
X75615Y18519D01*
X75754Y18612D01*
X75846Y18750D01*
X75878Y18913D01*
Y19480D01*
D02*
G37*
G36*
X56100Y7986D02*
X55280D01*
X55280Y7986D01*
X55395Y7706D01*
X55580Y7466D01*
X55820Y7281D01*
X56100Y7166D01*
X56100Y7166D01*
Y7986D01*
D02*
G37*
G36*
X57520D02*
X56700D01*
Y7166D01*
X56700Y7166D01*
X56980Y7281D01*
X57220Y7466D01*
X57405Y7706D01*
X57520Y7986D01*
X57520Y7986D01*
D02*
G37*
G36*
X42846Y1300D02*
X42400D01*
Y934D01*
X42525D01*
X42648Y958D01*
X42752Y1028D01*
X42822Y1132D01*
X42846Y1255D01*
Y1300D01*
D02*
G37*
G36*
X40906Y1150D02*
X40300D01*
Y744D01*
X40575D01*
X40702Y769D01*
X40809Y841D01*
X40881Y948D01*
X40906Y1075D01*
Y1150D01*
D02*
G37*
G36*
X41800Y1300D02*
X41354D01*
Y1255D01*
X41378Y1132D01*
X41448Y1028D01*
X41552Y958D01*
X41675Y934D01*
X41800D01*
Y1300D01*
D02*
G37*
G36*
X71520Y13100D02*
X70700D01*
Y12280D01*
X70700Y12280D01*
X70980Y12396D01*
X71220Y12580D01*
X71405Y12820D01*
X71520Y13100D01*
X71520Y13100D01*
D02*
G37*
G36*
X70100D02*
X69280D01*
X69280Y13100D01*
X69395Y12820D01*
X69580Y12580D01*
X69820Y12396D01*
X70100Y12280D01*
X70100Y12280D01*
Y13100D01*
D02*
G37*
G36*
X56700Y9406D02*
Y8586D01*
X57520D01*
X57520Y8586D01*
X57405Y8866D01*
X57220Y9106D01*
X56980Y9291D01*
X56700Y9406D01*
X56700Y9406D01*
D02*
G37*
G36*
X56100D02*
X56100Y9406D01*
X55820Y9291D01*
X55580Y9106D01*
X55395Y8866D01*
X55280Y8586D01*
X55280Y8586D01*
X56100D01*
Y9406D01*
D02*
G37*
G36*
X81450Y8580D02*
X80672D01*
Y8012D01*
X80704Y7850D01*
X80796Y7712D01*
X80935Y7619D01*
X81097Y7587D01*
X81450D01*
Y8580D01*
D02*
G37*
G36*
X82828D02*
X82050D01*
Y7587D01*
X82402D01*
X82565Y7619D01*
X82703Y7712D01*
X82796Y7850D01*
X82828Y8012D01*
Y8580D01*
D02*
G37*
G36*
X81450Y10173D02*
X81097D01*
X80935Y10141D01*
X80796Y10049D01*
X80704Y9910D01*
X80672Y9748D01*
Y9180D01*
X81450D01*
Y10173D01*
D02*
G37*
G36*
X82402D02*
X82050D01*
Y9180D01*
X82828D01*
Y9748D01*
X82796Y9910D01*
X82703Y10049D01*
X82565Y10141D01*
X82402Y10173D01*
D02*
G37*
G36*
X70100Y41100D02*
X69280D01*
X69280Y41100D01*
X69395Y40820D01*
X69580Y40580D01*
X69820Y40395D01*
X70100Y40280D01*
X70100Y40280D01*
Y41100D01*
D02*
G37*
G36*
X71520D02*
X70700D01*
Y40280D01*
X70700Y40280D01*
X70980Y40395D01*
X71220Y40580D01*
X71405Y40820D01*
X71520Y41100D01*
X71520Y41100D01*
D02*
G37*
G36*
X70308Y38918D02*
X70128D01*
Y38076D01*
X70675D01*
Y38551D01*
X70647Y38691D01*
X70568Y38811D01*
X70448Y38890D01*
X70308Y38918D01*
D02*
G37*
G36*
X52350Y38221D02*
X52298D01*
X52174Y38197D01*
X52069Y38126D01*
X51998Y38021D01*
X51974Y37897D01*
Y37800D01*
X52350D01*
Y38221D01*
D02*
G37*
G36*
X69528Y38918D02*
X69348D01*
X69208Y38890D01*
X69088Y38811D01*
X69009Y38691D01*
X68981Y38551D01*
Y38076D01*
X69528D01*
Y38918D01*
D02*
G37*
G36*
X75452Y44213D02*
X74147D01*
X73985Y44181D01*
X73954Y44160D01*
X73791Y44114D01*
X73724Y44144D01*
X73714Y44147D01*
X73706Y44153D01*
X73676Y44159D01*
X73647Y44167D01*
X73637Y44166D01*
X73628Y44168D01*
X72864Y44168D01*
X72864Y44168D01*
X72795D01*
X72717Y44153D01*
X72590Y44100D01*
X72523Y44056D01*
X72426Y43958D01*
X72381Y43892D01*
X72329Y43764D01*
X72313Y43686D01*
Y38583D01*
X72313Y38500D01*
X72329Y38422D01*
X72392Y38268D01*
X72437Y38202D01*
X72437Y38202D01*
X72554Y38084D01*
X72620Y38040D01*
X72774Y37976D01*
X72852Y37960D01*
X73710D01*
X73739Y37966D01*
X73769Y37969D01*
X73778Y37974D01*
X73788Y37976D01*
X73813Y37993D01*
X73839Y38007D01*
X73846Y38014D01*
X73854Y38020D01*
X73985Y38069D01*
X74147Y38037D01*
X75452D01*
X75615Y38069D01*
X75746Y38020D01*
X75754Y38014D01*
X75761Y38007D01*
X75787Y37993D01*
X75812Y37976D01*
X75822Y37974D01*
X75831Y37969D01*
X75861Y37966D01*
X75890Y37960D01*
X76764D01*
X76844Y37960D01*
X76922Y37976D01*
X76922Y37976D01*
X77070Y38037D01*
X77070Y38037D01*
X77137Y38081D01*
X77250Y38195D01*
X77294Y38261D01*
X77294Y38261D01*
X77355Y38409D01*
X77371Y38487D01*
X77371Y38567D01*
X77371Y43533D01*
X77371Y43533D01*
Y43619D01*
X77355Y43697D01*
X77290Y43855D01*
X77245Y43922D01*
X77124Y44043D01*
X77058Y44087D01*
X77058Y44087D01*
X76900Y44153D01*
X76821Y44168D01*
X76736Y44168D01*
X75973Y44168D01*
X75963Y44166D01*
X75953Y44167D01*
X75924Y44159D01*
X75894Y44153D01*
X75886Y44147D01*
X75876Y44144D01*
X75809Y44114D01*
X75646Y44160D01*
X75615Y44181D01*
X75452Y44213D01*
D02*
G37*
G36*
X81450Y46020D02*
X80672D01*
Y45452D01*
X80704Y45290D01*
X80796Y45152D01*
X80935Y45059D01*
X81097Y45027D01*
X81450D01*
Y46020D01*
D02*
G37*
G36*
X66403Y42900D02*
X66349Y42898D01*
X66296Y42898D01*
X66083Y42855D01*
X66055Y42844D01*
X66026Y42838D01*
X65814Y42750D01*
X65789Y42733D01*
X65761Y42722D01*
X65570Y42594D01*
X65549Y42573D01*
X65523Y42556D01*
X64596Y41628D01*
X64596Y41628D01*
X64596Y41628D01*
X64514Y41546D01*
X64497Y41521D01*
X64476Y41500D01*
X64347Y41307D01*
X64335Y41279D01*
X64318Y41254D01*
X64230Y41040D01*
X64224Y41010D01*
X64212Y40982D01*
X64167Y40755D01*
Y40724D01*
X64161Y40695D01*
X64161Y40579D01*
X64161Y36733D01*
X64161Y36733D01*
Y36660D01*
X64184Y36543D01*
X64241Y36407D01*
X64307Y36308D01*
X64411Y36204D01*
X64510Y36138D01*
X64637Y36085D01*
X64645Y36082D01*
X64623Y35975D01*
X64623D01*
X64612Y35920D01*
X64612D01*
X64607Y35899D01*
X64412Y35887D01*
X64149D01*
X64036Y35864D01*
X63941Y35800D01*
X63885Y35717D01*
X63789Y35705D01*
X63771D01*
X63675Y35717D01*
X63619Y35800D01*
X63524Y35864D01*
X63445Y35880D01*
Y34586D01*
Y33292D01*
X63524Y33308D01*
X63619Y33372D01*
X63675Y33455D01*
X63771Y33467D01*
X63789D01*
X63885Y33455D01*
X63941Y33372D01*
X64036Y33308D01*
X64115Y33292D01*
Y34586D01*
X64415D01*
Y34886D01*
X64976D01*
Y35592D01*
X64953Y35705D01*
X64889Y35800D01*
X64803Y35858D01*
X64800Y35873D01*
X64816Y35922D01*
X64816D01*
X64862Y36058D01*
X67688Y36058D01*
X67713Y36063D01*
X67739Y36063D01*
X67746Y36065D01*
X67753Y36065D01*
X67870Y36091D01*
X67895Y36102D01*
X67922Y36107D01*
X67963Y36124D01*
X67963Y36124D01*
X67963Y36124D01*
X68013Y36157D01*
X68062Y36190D01*
X68062Y36190D01*
X68062Y36190D01*
X68141Y36269D01*
X68141Y36269D01*
X68141Y36269D01*
X68172Y36316D01*
X68207Y36368D01*
X68207Y36368D01*
X68207Y36368D01*
X68250Y36470D01*
X68250Y36470D01*
X68250Y36470D01*
X68261Y36528D01*
X68273Y36587D01*
X68273Y36587D01*
X68273Y36587D01*
X68273Y36643D01*
X68273Y40693D01*
X68271Y40703D01*
X68272Y40713D01*
X68259Y40761D01*
X68250Y40810D01*
X68244Y40818D01*
X68241Y40828D01*
X68211Y40868D01*
X68183Y40909D01*
X68175Y40915D01*
X68169Y40923D01*
X68125Y40948D01*
X68084Y40975D01*
X68080Y40983D01*
X68118Y41074D01*
X68161Y41400D01*
X68118Y41726D01*
X67992Y42030D01*
X67792Y42292D01*
X67530Y42492D01*
X67226Y42618D01*
X66900Y42661D01*
X66725Y42659D01*
X66707Y42697D01*
X66694Y42737D01*
X66682Y42751D01*
X66674Y42767D01*
X66644Y42796D01*
X66616Y42827D01*
X66600Y42836D01*
X66586Y42848D01*
X66547Y42862D01*
X66510Y42881D01*
X66492Y42883D01*
X66474Y42889D01*
X66403Y42900D01*
D02*
G37*
G36*
X70100Y42520D02*
X70100Y42520D01*
X69820Y42405D01*
X69580Y42220D01*
X69395Y41980D01*
X69280Y41700D01*
X69280Y41700D01*
X70100D01*
Y42520D01*
D02*
G37*
G36*
X70700Y42520D02*
Y41700D01*
X71520D01*
X71520Y41700D01*
X71405Y41980D01*
X71220Y42220D01*
X70980Y42405D01*
X70700Y42520D01*
X70700Y42520D01*
D02*
G37*
G36*
X84676Y42044D02*
X82476D01*
X82320Y42013D01*
X82188Y41924D01*
X82099Y41792D01*
X82068Y41636D01*
Y39436D01*
X82099Y39280D01*
X82188Y39147D01*
X82320Y39059D01*
X82476Y39028D01*
X84648D01*
X84661Y38934D01*
X84797Y38605D01*
X85013Y38323D01*
X85232Y38155D01*
X85247Y38109D01*
Y37963D01*
X85232Y37917D01*
X85013Y37749D01*
X84797Y37467D01*
X84661Y37138D01*
X84626Y36873D01*
X84425Y36780D01*
X84413Y36789D01*
X84153Y36928D01*
X83870Y37014D01*
X83576Y37043D01*
X83282Y37014D01*
X82999Y36928D01*
X82739Y36789D01*
X82510Y36602D01*
X82323Y36373D01*
X82184Y36113D01*
X82098Y35830D01*
X82069Y35536D01*
X82098Y35242D01*
X82184Y34959D01*
X82323Y34698D01*
X82510Y34470D01*
X82739Y34282D01*
X82999Y34143D01*
X83282Y34057D01*
X83576Y34028D01*
X83870Y34057D01*
X84153Y34143D01*
X84413Y34282D01*
X84642Y34470D01*
X84829Y34698D01*
X84969Y34959D01*
X85054Y35242D01*
X85082Y35519D01*
X85159Y35581D01*
X85258Y35635D01*
X85295Y35607D01*
X85624Y35471D01*
X85976Y35424D01*
X86328Y35471D01*
X86657Y35607D01*
X86939Y35823D01*
X87155Y36105D01*
X87291Y36434D01*
X87338Y36786D01*
X87291Y37138D01*
X87155Y37467D01*
X86939Y37749D01*
X86720Y37917D01*
X86705Y37963D01*
Y38109D01*
X86720Y38155D01*
X86939Y38323D01*
X87155Y38605D01*
X87291Y38934D01*
X87338Y39286D01*
X87291Y39638D01*
X87155Y39967D01*
X86939Y40249D01*
X86657Y40465D01*
X86328Y40601D01*
X85976Y40648D01*
X85624Y40601D01*
X85295Y40465D01*
X85263Y40441D01*
X85084Y40529D01*
Y41636D01*
X85053Y41792D01*
X84964Y41924D01*
X84832Y42013D01*
X84676Y42044D01*
D02*
G37*
G36*
X52685Y35880D02*
X52606Y35864D01*
X52511Y35800D01*
X52447Y35705D01*
X52424Y35592D01*
Y34886D01*
X52685D01*
Y35880D01*
D02*
G37*
G36*
X74500Y35270D02*
X73722D01*
Y34703D01*
X73754Y34540D01*
X73846Y34402D01*
X73985Y34309D01*
X74147Y34277D01*
X74500D01*
Y35270D01*
D02*
G37*
G36*
X75878D02*
X75100D01*
Y34277D01*
X75452D01*
X75615Y34309D01*
X75754Y34402D01*
X75846Y34540D01*
X75878Y34703D01*
Y35270D01*
D02*
G37*
G36*
X70675Y37476D02*
X70128D01*
Y36634D01*
X70308D01*
X70448Y36662D01*
X70568Y36741D01*
X70647Y36861D01*
X70675Y37001D01*
Y37476D01*
D02*
G37*
G36*
X52350Y37200D02*
X51974D01*
Y37103D01*
X51998Y36979D01*
X52069Y36874D01*
X52174Y36803D01*
X52298Y36779D01*
X52350D01*
Y37200D01*
D02*
G37*
G36*
X69528Y37476D02*
X68981D01*
Y37001D01*
X69009Y36861D01*
X69088Y36741D01*
X69208Y36662D01*
X69348Y36634D01*
X69528D01*
Y37476D01*
D02*
G37*
G36*
X74500Y36863D02*
X74147D01*
X73985Y36831D01*
X73846Y36739D01*
X73754Y36600D01*
X73722Y36438D01*
Y35870D01*
X74500D01*
Y36863D01*
D02*
G37*
G36*
X75452D02*
X75100D01*
Y35870D01*
X75878D01*
Y36438D01*
X75846Y36600D01*
X75754Y36739D01*
X75615Y36831D01*
X75452Y36863D01*
D02*
G37*
G36*
X82828Y46020D02*
X82050D01*
Y45027D01*
X82402D01*
X82565Y45059D01*
X82703Y45152D01*
X82796Y45290D01*
X82828Y45452D01*
Y46020D01*
D02*
G37*
G36*
X82402Y47613D02*
X82050D01*
Y46620D01*
X82828D01*
Y47188D01*
X82796Y47350D01*
X82703Y47488D01*
X82565Y47581D01*
X82402Y47613D01*
D02*
G37*
G36*
X81450D02*
X81097D01*
X80935Y47581D01*
X80796Y47488D01*
X80704Y47350D01*
X80672Y47188D01*
Y46620D01*
X81450D01*
Y47613D01*
D02*
G37*
G36*
X64976Y34286D02*
X64715D01*
Y33292D01*
X64794Y33308D01*
X64889Y33372D01*
X64953Y33467D01*
X64976Y33580D01*
Y34286D01*
D02*
G37*
G36*
X70375Y22805D02*
X70250D01*
Y22439D01*
X70696D01*
Y22484D01*
X70672Y22607D01*
X70602Y22711D01*
X70498Y22781D01*
X70375Y22805D01*
D02*
G37*
G36*
X64115Y22780D02*
X64036Y22764D01*
X63941Y22700D01*
X63885Y22617D01*
X63789Y22605D01*
X63771D01*
X63675Y22617D01*
X63619Y22700D01*
X63524Y22764D01*
X63445Y22780D01*
Y21486D01*
Y20192D01*
X63524Y20208D01*
X63619Y20272D01*
X63675Y20355D01*
X63771Y20367D01*
X63789D01*
X63885Y20355D01*
X63941Y20272D01*
X64036Y20208D01*
X64115Y20192D01*
Y21486D01*
Y22780D01*
D02*
G37*
G36*
X86415Y32304D02*
X86415Y32304D01*
X86415Y32304D01*
X74300Y32304D01*
X74181Y32304D01*
X74103Y32288D01*
X73882Y32197D01*
X73816Y32153D01*
X73647Y31984D01*
X73603Y31918D01*
X73540Y31765D01*
X73535Y31741D01*
X73526Y31718D01*
X73498Y31530D01*
X73499Y31515D01*
X73496Y31500D01*
X73496Y24700D01*
X73496Y24581D01*
X73512Y24503D01*
X73603Y24282D01*
X73647Y24216D01*
X73647Y24216D01*
X73816Y24047D01*
X73882Y24003D01*
X74103Y23912D01*
X74181Y23896D01*
X74300Y23896D01*
X81300Y23896D01*
X81369D01*
X81389Y23900D01*
X81409D01*
X81544Y23927D01*
X81563Y23935D01*
X81582Y23938D01*
X81710Y23991D01*
X81726Y24002D01*
X81745Y24010D01*
X81859Y24087D01*
X81874Y24101D01*
X81890Y24112D01*
X81988Y24210D01*
X81999Y24226D01*
X82013Y24240D01*
X82090Y24355D01*
X82098Y24374D01*
X82109Y24390D01*
X82161Y24518D01*
X82165Y24537D01*
X82173Y24556D01*
X82200Y24691D01*
Y24711D01*
X82204Y24731D01*
Y24800D01*
X82204Y24800D01*
Y24929D01*
X82404Y24968D01*
X82440Y24880D01*
X82649Y24609D01*
X82920Y24400D01*
X83237Y24269D01*
X83276Y24264D01*
Y25536D01*
Y26807D01*
X83237Y26802D01*
X82920Y26671D01*
X82649Y26463D01*
X82491Y26257D01*
X82294Y26251D01*
X82255Y26267D01*
X82226Y26317D01*
X82256Y26468D01*
X82345Y26683D01*
X82477Y26881D01*
X82556Y26967D01*
X83033Y27444D01*
X83119Y27523D01*
X83317Y27655D01*
X83532Y27744D01*
X83765Y27790D01*
X83883Y27796D01*
X85075Y27796D01*
X85141Y27642D01*
X85148Y27596D01*
X84971Y27366D01*
X84856Y27086D01*
X84856Y27086D01*
X85976D01*
X87096D01*
X87096Y27086D01*
X86981Y27366D01*
X86796Y27606D01*
X86556Y27791D01*
X86486Y27820D01*
Y28036D01*
X86657Y28107D01*
X86939Y28323D01*
X87155Y28605D01*
X87291Y28934D01*
X87338Y29286D01*
X87291Y29638D01*
X87198Y29864D01*
X87206Y29869D01*
X87234Y29885D01*
X87239Y29891D01*
X87244Y29895D01*
X87263Y29922D01*
X87283Y29949D01*
X87285Y29955D01*
X87288Y29961D01*
X87295Y29993D01*
X87303Y30025D01*
X87303Y30032D01*
X87304Y30039D01*
X87304Y31699D01*
X87288Y31777D01*
X87288Y31778D01*
X87212Y31961D01*
X87168Y32027D01*
X87027Y32168D01*
X87027Y32168D01*
X86961Y32212D01*
X86864Y32252D01*
X86844Y32256D01*
X86825Y32264D01*
X86639Y32300D01*
X86619Y32300D01*
X86600Y32304D01*
X86415Y32304D01*
D02*
G37*
G36*
X64715Y22780D02*
Y21786D01*
X64976D01*
Y22492D01*
X64953Y22605D01*
X64889Y22700D01*
X64794Y22764D01*
X64715Y22780D01*
D02*
G37*
G36*
X69650Y22805D02*
X69525D01*
X69402Y22781D01*
X69298Y22711D01*
X69228Y22607D01*
X69204Y22484D01*
Y22439D01*
X69650D01*
Y22805D01*
D02*
G37*
G36*
X85676Y26486D02*
X84856D01*
X84856Y26486D01*
X84971Y26206D01*
X85156Y25966D01*
X85396Y25781D01*
X85676Y25666D01*
X85676Y25666D01*
Y26486D01*
D02*
G37*
G36*
X83876Y26807D02*
Y25836D01*
X84848D01*
X84843Y25875D01*
X84712Y26191D01*
X84503Y26463D01*
X84232Y26671D01*
X83915Y26802D01*
X83876Y26807D01*
D02*
G37*
G36*
X71150Y26708D02*
X68550D01*
X68394Y26677D01*
X68262Y26588D01*
X68173Y26456D01*
X68142Y26300D01*
Y25100D01*
X68173Y24944D01*
X68262Y24812D01*
X68300Y24786D01*
X68300Y23410D01*
X68368Y23245D01*
X68495Y23119D01*
X68660Y23050D01*
X68750Y23050D01*
X70950Y23050D01*
X71039Y23050D01*
X71205Y23118D01*
X71331Y23245D01*
X71400Y23410D01*
X71400Y23500D01*
X71400Y23500D01*
Y24786D01*
X71438Y24812D01*
X71527Y24944D01*
X71558Y25100D01*
Y26300D01*
X71527Y26456D01*
X71438Y26588D01*
X71306Y26677D01*
X71150Y26708D01*
D02*
G37*
G36*
X84848Y25236D02*
X83876D01*
Y24264D01*
X83915Y24269D01*
X84232Y24400D01*
X84503Y24609D01*
X84712Y24880D01*
X84843Y25196D01*
X84848Y25236D01*
D02*
G37*
G36*
X87096Y26486D02*
X86276D01*
Y25666D01*
X86276Y25666D01*
X86556Y25781D01*
X86796Y25966D01*
X86981Y26206D01*
X87096Y26486D01*
X87096Y26486D01*
D02*
G37*
G36*
X52685Y34286D02*
X52424D01*
Y33580D01*
X52447Y33467D01*
X52511Y33372D01*
X52606Y33308D01*
X52685Y33292D01*
Y34286D01*
D02*
G37*
G36*
X72400Y32906D02*
X68224Y32906D01*
X68120Y32906D01*
X68003Y32883D01*
X67810Y32803D01*
X67711Y32736D01*
X67563Y32589D01*
X67497Y32490D01*
X67452Y32381D01*
X67446Y32349D01*
X67434Y32319D01*
X67399Y32131D01*
X67400Y32104D01*
X67394Y32076D01*
X67394Y31351D01*
X67314Y31324D01*
X67194Y31318D01*
X67169Y31355D01*
X67103Y31399D01*
X67025Y31415D01*
X59000D01*
Y28036D01*
Y24657D01*
X67025D01*
X67103Y24673D01*
X67169Y24717D01*
X67213Y24783D01*
X67229Y24861D01*
Y28033D01*
X67417Y28083D01*
X67494Y27900D01*
X67494Y27900D01*
X67560Y27800D01*
X67701Y27660D01*
X67800Y27594D01*
X67984Y27517D01*
X68101Y27494D01*
X68200Y27494D01*
X68200Y27494D01*
X68200Y27494D01*
X72480Y27494D01*
X72597Y27517D01*
X72744Y27578D01*
X72793Y27611D01*
X72843Y27645D01*
X72955Y27757D01*
X73022Y27856D01*
X73083Y28003D01*
X73106Y28120D01*
Y28200D01*
X73106Y28200D01*
X73106Y28200D01*
Y32200D01*
X73106Y32280D01*
X73106Y32280D01*
X73106Y32280D01*
X73090Y32357D01*
X73083Y32397D01*
X73083Y32397D01*
X73083Y32397D01*
X73022Y32544D01*
X73022Y32544D01*
X73022Y32544D01*
X72988Y32594D01*
X72955Y32643D01*
X72955Y32643D01*
X72955Y32643D01*
X72843Y32755D01*
X72843Y32755D01*
X72843Y32755D01*
X72793Y32788D01*
X72744Y32822D01*
X72744Y32822D01*
X72744Y32822D01*
X72697Y32841D01*
X72672Y32846D01*
X72649Y32856D01*
X72469Y32898D01*
X72434Y32899D01*
X72400Y32906D01*
X72400D01*
X72400Y32906D01*
D02*
G37*
G36*
X69650Y21839D02*
X69204D01*
Y21794D01*
X69228Y21671D01*
X69298Y21567D01*
X69402Y21498D01*
X69525Y21473D01*
X69650D01*
Y21839D01*
D02*
G37*
G36*
X70696D02*
X70250D01*
Y21473D01*
X70375D01*
X70498Y21498D01*
X70602Y21567D01*
X70672Y21671D01*
X70696Y21794D01*
Y21839D01*
D02*
G37*
%LPD*%
G36*
X68327Y20264D02*
X68437Y20219D01*
X68521Y20134D01*
X68544Y20079D01*
X68567Y19964D01*
Y19964D01*
X68567Y19964D01*
X68567Y19964D01*
X68567Y12267D01*
X68567Y12167D01*
X68490Y11982D01*
X68349Y11841D01*
X68182Y11772D01*
X68064Y11764D01*
X68064Y11764D01*
Y11764D01*
X63136Y11764D01*
X63047Y11764D01*
X62884Y11832D01*
X62760Y11957D01*
X62692Y12120D01*
X62692Y12208D01*
X62692Y12208D01*
X62692Y17192D01*
Y17286D01*
X62764Y17459D01*
X62897Y17592D01*
X63070Y17664D01*
X63164Y17664D01*
Y17664D01*
X65064Y17664D01*
X65149Y17673D01*
X65306Y17738D01*
X65427Y17858D01*
X65492Y18015D01*
X65500Y18100D01*
X65500Y18100D01*
X65500Y20053D01*
X65540Y20150D01*
X65615Y20224D01*
X65712Y20264D01*
X65764Y20264D01*
Y20264D01*
X68327Y20264D01*
D02*
G37*
%LPC*%
G36*
X66828Y20018D02*
X66748D01*
X66608Y19990D01*
X66488Y19911D01*
X66409Y19791D01*
X66381Y19651D01*
Y19276D01*
X66828D01*
Y20018D01*
D02*
G37*
G36*
X67708D02*
X67628D01*
Y19276D01*
X68075D01*
Y19651D01*
X68047Y19791D01*
X67968Y19911D01*
X67848Y19990D01*
X67708Y20018D01*
D02*
G37*
G36*
X67300Y14479D02*
Y13800D01*
X67979D01*
X67905Y13980D01*
X67720Y14220D01*
X67480Y14405D01*
X67300Y14479D01*
D02*
G37*
G36*
X66500Y14479D02*
X66320Y14405D01*
X66080Y14220D01*
X65895Y13980D01*
X65821Y13800D01*
X66500D01*
Y14479D01*
D02*
G37*
G36*
X67979Y13000D02*
X67300D01*
Y12321D01*
X67480Y12396D01*
X67720Y12580D01*
X67905Y12820D01*
X67979Y13000D01*
D02*
G37*
G36*
X66500D02*
X65821D01*
X65895Y12820D01*
X66080Y12580D01*
X66320Y12396D01*
X66500Y12321D01*
Y13000D01*
D02*
G37*
G36*
X66828Y18476D02*
X66381D01*
Y18101D01*
X66409Y17961D01*
X66488Y17841D01*
X66608Y17762D01*
X66748Y17734D01*
X66828D01*
Y18476D01*
D02*
G37*
G36*
X68075D02*
X67628D01*
Y17734D01*
X67708D01*
X67848Y17762D01*
X67968Y17841D01*
X68047Y17961D01*
X68075Y18101D01*
Y18476D01*
D02*
G37*
%LPD*%
G36*
X73628Y43964D02*
X73732Y43837D01*
X73722Y43787D01*
Y43220D01*
X74800D01*
X75878D01*
Y43787D01*
X75868Y43837D01*
X75973Y43964D01*
X76736Y43964D01*
X76821Y43964D01*
X76980Y43899D01*
X77101Y43777D01*
X77167Y43619D01*
Y43533D01*
X77167D01*
X77167Y38567D01*
X77167Y38487D01*
X77106Y38339D01*
X76992Y38226D01*
X76844Y38164D01*
X76764Y38164D01*
X75890D01*
X75830Y38276D01*
X75846Y38300D01*
X75878Y38463D01*
Y39030D01*
X74800D01*
X73722D01*
Y38463D01*
X73754Y38300D01*
X73770Y38276D01*
X73710Y38164D01*
X72852D01*
X72699Y38228D01*
X72581Y38346D01*
X72517Y38500D01*
X72517Y38583D01*
Y43686D01*
X72570Y43814D01*
X72668Y43911D01*
X72795Y43964D01*
X72864D01*
X72864Y43964D01*
X73628Y43964D01*
D02*
G37*
%LPC*%
G36*
X75878Y42620D02*
X75100D01*
Y41627D01*
X75452D01*
X75615Y41659D01*
X75754Y41752D01*
X75846Y41890D01*
X75878Y42053D01*
Y42620D01*
D02*
G37*
G36*
X74500D02*
X73722D01*
Y42053D01*
X73754Y41890D01*
X73846Y41752D01*
X73985Y41659D01*
X74147Y41627D01*
X74500D01*
Y42620D01*
D02*
G37*
G36*
X75452Y40623D02*
X75100D01*
Y39630D01*
X75878D01*
Y40198D01*
X75846Y40360D01*
X75754Y40499D01*
X75615Y40591D01*
X75452Y40623D01*
D02*
G37*
G36*
X74500D02*
X74147D01*
X73985Y40591D01*
X73846Y40499D01*
X73754Y40360D01*
X73722Y40198D01*
Y39630D01*
X74500D01*
Y40623D01*
D02*
G37*
%LPD*%
G36*
X66428Y42587D02*
X66443Y42456D01*
X66320Y42405D01*
X66080Y42220D01*
X65895Y41980D01*
X65821Y41800D01*
X66900D01*
Y41400D01*
X67300D01*
Y40321D01*
X67480Y40395D01*
X67720Y40580D01*
X67840Y40736D01*
X67967Y40693D01*
X67967Y36643D01*
X67967Y36587D01*
X67925Y36485D01*
X67846Y36407D01*
X67805Y36390D01*
X67688Y36364D01*
X67688Y36364D01*
X64836Y36364D01*
X64762Y36364D01*
X64627Y36420D01*
X64523Y36524D01*
X64467Y36660D01*
Y36733D01*
X64467Y36733D01*
X64467Y40579D01*
X64467Y40695D01*
X64512Y40923D01*
X64601Y41137D01*
X64730Y41330D01*
X64812Y41412D01*
Y41412D01*
X65740Y42340D01*
X65931Y42467D01*
X66143Y42555D01*
X66356Y42598D01*
X66428Y42587D01*
D02*
G37*
%LPC*%
G36*
X66428Y38918D02*
X66348D01*
X66208Y38890D01*
X66088Y38811D01*
X66009Y38691D01*
X65981Y38551D01*
Y38176D01*
X66428D01*
Y38918D01*
D02*
G37*
G36*
X67675Y37376D02*
X67228D01*
Y36634D01*
X67308D01*
X67448Y36662D01*
X67568Y36741D01*
X67647Y36861D01*
X67675Y37001D01*
Y37376D01*
D02*
G37*
G36*
X66428D02*
X65981D01*
Y37001D01*
X66009Y36861D01*
X66088Y36741D01*
X66208Y36662D01*
X66348Y36634D01*
X66428D01*
Y37376D01*
D02*
G37*
G36*
X67308Y38918D02*
X67228D01*
Y38176D01*
X67675D01*
Y38551D01*
X67647Y38691D01*
X67568Y38811D01*
X67448Y38890D01*
X67308Y38918D01*
D02*
G37*
G36*
X66500Y41000D02*
X65821D01*
X65895Y40820D01*
X66080Y40580D01*
X66320Y40395D01*
X66500Y40321D01*
Y41000D01*
D02*
G37*
%LPD*%
G36*
X86600Y32100D02*
D01*
X86786Y32064D01*
X86883Y32024D01*
X87024Y31883D01*
X87100Y31699D01*
X87100Y30039D01*
X86900Y29971D01*
X86796Y30106D01*
X86556Y30291D01*
X86276Y30406D01*
X86276Y30406D01*
Y29286D01*
X85976D01*
Y28986D01*
X84856D01*
X84856Y28986D01*
X84971Y28706D01*
X85156Y28466D01*
X85396Y28281D01*
X85466Y28252D01*
Y28036D01*
X85379Y28000D01*
X83877Y28000D01*
X83877Y28000D01*
X83740Y27993D01*
X83473Y27940D01*
X83220Y27836D01*
X82993Y27684D01*
X82892Y27592D01*
X82408Y27108D01*
X82408Y27108D01*
X82316Y27007D01*
X82164Y26780D01*
X82060Y26527D01*
X82007Y26260D01*
X82000Y26123D01*
X82000Y24800D01*
X82000Y24800D01*
Y24731D01*
X81973Y24596D01*
X81920Y24468D01*
X81844Y24354D01*
X81746Y24256D01*
X81632Y24180D01*
X81504Y24127D01*
X81369Y24100D01*
X81300D01*
X74300Y24100D01*
X74181Y24100D01*
X73960Y24191D01*
X73791Y24360D01*
X73700Y24581D01*
X73700Y24700D01*
X73700Y31500D01*
X73700Y31500D01*
X73700Y31500D01*
X73728Y31687D01*
X73791Y31840D01*
X73960Y32009D01*
X74181Y32100D01*
X74300Y32100D01*
X86415Y32100D01*
X86600Y32100D01*
D02*
G37*
%LPC*%
G36*
X84848Y30236D02*
X83876D01*
Y29264D01*
X83915Y29269D01*
X84232Y29400D01*
X84503Y29609D01*
X84712Y29880D01*
X84843Y30196D01*
X84848Y30236D01*
D02*
G37*
G36*
X76852Y31559D02*
X75340D01*
X75069Y31523D01*
X74817Y31419D01*
X74600Y31252D01*
X74434Y31036D01*
X74329Y30783D01*
X74293Y30513D01*
Y29000D01*
X76852D01*
Y31559D01*
D02*
G37*
G36*
X80365D02*
X78852D01*
Y29000D01*
X81411D01*
Y30513D01*
X81376Y30783D01*
X81271Y31036D01*
X81105Y31252D01*
X80888Y31419D01*
X80636Y31523D01*
X80365Y31559D01*
D02*
G37*
G36*
X81411Y27000D02*
X78852D01*
Y24441D01*
X80365D01*
X80636Y24477D01*
X80888Y24581D01*
X81105Y24748D01*
X81271Y24964D01*
X81376Y25217D01*
X81411Y25487D01*
Y27000D01*
D02*
G37*
G36*
X76852D02*
X74293D01*
Y25487D01*
X74329Y25217D01*
X74434Y24964D01*
X74600Y24748D01*
X74817Y24581D01*
X75069Y24477D01*
X75340Y24441D01*
X76852D01*
Y27000D01*
D02*
G37*
G36*
X83276Y31807D02*
X83237Y31802D01*
X82920Y31671D01*
X82649Y31463D01*
X82440Y31191D01*
X82310Y30875D01*
X82304Y30836D01*
X83276D01*
Y31807D01*
D02*
G37*
G36*
X83876Y31807D02*
Y30836D01*
X84848D01*
X84843Y30875D01*
X84712Y31191D01*
X84503Y31463D01*
X84232Y31671D01*
X83915Y31802D01*
X83876Y31807D01*
D02*
G37*
G36*
X83276Y30236D02*
X82304D01*
X82310Y30196D01*
X82440Y29880D01*
X82649Y29609D01*
X82920Y29400D01*
X83237Y29269D01*
X83276Y29264D01*
Y30236D01*
D02*
G37*
G36*
X85676Y30406D02*
X85676Y30406D01*
X85396Y30291D01*
X85156Y30106D01*
X84971Y29866D01*
X84856Y29586D01*
X84856Y29586D01*
X85676D01*
Y30406D01*
D02*
G37*
%LPD*%
G36*
X72400Y32600D02*
X72400Y32600D01*
X72400D01*
X72580Y32558D01*
X72627Y32539D01*
X72739Y32427D01*
X72800Y32280D01*
X72800Y32200D01*
Y28200D01*
X72800Y28200D01*
Y28120D01*
X72739Y27973D01*
X72627Y27861D01*
X72480Y27800D01*
X68200Y27800D01*
X68200Y27800D01*
X68101Y27800D01*
X67917Y27876D01*
X67776Y28017D01*
X67700Y28201D01*
X67700Y32076D01*
X67700Y32076D01*
X67700Y32076D01*
X67735Y32264D01*
X67780Y32373D01*
X67927Y32520D01*
X68120Y32600D01*
X68224Y32600D01*
X72400Y32600D01*
X72400Y32600D01*
D02*
G37*
%LPC*%
G36*
X71150Y31308D02*
X70250D01*
Y30700D01*
X71558D01*
Y30900D01*
X71527Y31056D01*
X71438Y31188D01*
X71306Y31277D01*
X71150Y31308D01*
D02*
G37*
G36*
X69450D02*
X68550D01*
X68394Y31277D01*
X68262Y31188D01*
X68173Y31056D01*
X68142Y30900D01*
Y30700D01*
X69450D01*
Y31308D01*
D02*
G37*
G36*
Y29900D02*
X68142D01*
Y29700D01*
X68173Y29544D01*
X68262Y29412D01*
X68394Y29323D01*
X68550Y29292D01*
X69450D01*
Y29900D01*
D02*
G37*
G36*
X71558D02*
X70250D01*
Y29292D01*
X71150D01*
X71306Y29323D01*
X71438Y29412D01*
X71527Y29544D01*
X71558Y29700D01*
Y29900D01*
D02*
G37*
G36*
X59896Y21186D02*
X59635D01*
Y20192D01*
X59714Y20208D01*
X59809Y20272D01*
X59873Y20367D01*
X59896Y20480D01*
Y21186D01*
D02*
G37*
G36*
X59635Y22780D02*
Y21786D01*
X59896D01*
Y22492D01*
X59873Y22605D01*
X59809Y22700D01*
X59714Y22764D01*
X59635Y22780D01*
D02*
G37*
G36*
X46183Y8000D02*
X45395D01*
Y6682D01*
X45755D01*
X45919Y6714D01*
X46058Y6807D01*
X46151Y6946D01*
X46183Y7110D01*
Y8000D01*
D02*
G37*
G36*
X47697Y11076D02*
X47306D01*
Y10245D01*
X47370D01*
X47495Y10270D01*
X47601Y10341D01*
X47672Y10447D01*
X47697Y10572D01*
Y11076D01*
D02*
G37*
G36*
X46706Y12507D02*
X46642D01*
X46517Y12482D01*
X46411Y12411D01*
X46340Y12305D01*
X46315Y12180D01*
Y11676D01*
X46706D01*
Y12507D01*
D02*
G37*
G36*
X47370D02*
X47306D01*
Y11676D01*
X47697D01*
Y12180D01*
X47672Y12305D01*
X47601Y12411D01*
X47495Y12482D01*
X47370Y12507D01*
D02*
G37*
G36*
X46706Y11076D02*
X46315D01*
Y10572D01*
X46340Y10447D01*
X46411Y10341D01*
X46517Y10270D01*
X46642Y10245D01*
X46706D01*
Y11076D01*
D02*
G37*
G36*
X76113Y50000D02*
X75220D01*
Y49322D01*
X75688D01*
X75850Y49354D01*
X75989Y49446D01*
X76081Y49585D01*
X76113Y49748D01*
Y50000D01*
D02*
G37*
G36*
X74400Y46280D02*
X73722D01*
Y45812D01*
X73754Y45650D01*
X73846Y45512D01*
X73985Y45419D01*
X74147Y45387D01*
X74400D01*
Y46280D01*
D02*
G37*
G36*
X75878D02*
X75200D01*
Y45387D01*
X75452D01*
X75615Y45419D01*
X75754Y45512D01*
X75846Y45650D01*
X75878Y45812D01*
Y46280D01*
D02*
G37*
G36*
X74400Y47973D02*
X74147D01*
X73985Y47941D01*
X73846Y47848D01*
X73754Y47710D01*
X73722Y47548D01*
Y47080D01*
X74400D01*
Y47973D01*
D02*
G37*
G36*
X75452D02*
X75200D01*
Y47080D01*
X75878D01*
Y47548D01*
X75846Y47710D01*
X75754Y47848D01*
X75615Y47941D01*
X75452Y47973D01*
D02*
G37*
%LPD*%
D10*
X34200Y2000D02*
X34600Y1600D01*
X35700D01*
X34475Y30275D02*
X46100D01*
X39150Y3350D02*
X40000D01*
X38900Y3100D02*
X39150Y3350D01*
X38900Y1700D02*
Y3100D01*
X37100Y1200D02*
X38400D01*
X36700Y1600D02*
Y2900D01*
X38400Y1200D02*
X38900Y1700D01*
X36400Y3200D02*
X36700Y2900D01*
X35700Y3200D02*
X36400D01*
X8550Y6450D02*
X9025D01*
X8125Y6875D02*
X8550Y6450D01*
X8125Y6875D02*
Y7350D01*
X40100Y13200D02*
Y21400D01*
X36600Y9700D02*
X40100Y13200D01*
X34800Y9700D02*
X36600D01*
X36641Y10375D02*
X39600Y13334D01*
X34500Y10375D02*
X36641D01*
X39600Y13334D02*
Y21564D01*
X39200Y13500D02*
Y21730D01*
X36800Y11100D02*
X39200Y13500D01*
X34050Y11100D02*
X36800D01*
X20900Y14700D02*
X21500Y14100D01*
X20900Y14700D02*
Y15700D01*
X23600Y25300D02*
X24000D01*
X24550Y14375D02*
Y15887D01*
X21040Y12575D02*
Y13560D01*
X20200Y14400D02*
X21040Y13560D01*
X18000Y14400D02*
X20200D01*
X16900Y23500D02*
X19900Y20500D01*
X11800Y23500D02*
X16900D01*
X23500Y22700D02*
X24700D01*
X32150Y17025D02*
X34675D01*
X37825Y20175D01*
X28925Y14450D02*
X29486D01*
X33625Y9500D02*
X34500Y10375D01*
X22081Y19600D02*
X23475Y18206D01*
Y16962D02*
Y18206D01*
Y16962D02*
X24550Y15887D01*
X22500Y15700D02*
Y17000D01*
X37825Y20175D02*
Y26025D01*
X40400Y28600D01*
X29100Y8400D02*
Y9850D01*
X28625Y10325D02*
X29100Y9850D01*
X26975Y10325D02*
X28625D01*
X26450Y10850D02*
X26975Y10325D01*
X46100Y30275D02*
X47371D01*
X25950Y22175D02*
Y23200D01*
X25675Y21900D02*
X25950Y22175D01*
X24700Y21900D02*
X25675D01*
X28450Y22950D02*
X34500Y29000D01*
X19700Y19600D02*
X22081D01*
X18200Y21100D02*
X19700Y19600D01*
X23300Y25000D02*
X23600Y25300D01*
X39200Y21730D02*
X41734Y24264D01*
X20100Y17300D02*
X20800Y18000D01*
X20100Y15700D02*
Y17300D01*
X20800Y18900D02*
X21800D01*
X19300Y17400D02*
X20800Y18900D01*
X19300Y15700D02*
Y17400D01*
X18500Y10035D02*
X19700Y11235D01*
Y13100D01*
X19000Y13800D02*
X19700Y13100D01*
X17900Y13800D02*
X19000D01*
X17000Y14700D02*
X17900Y13800D01*
X17000Y14700D02*
Y16400D01*
X17600Y17000D01*
X18200D01*
X18500Y16700D01*
Y15700D02*
Y16700D01*
X17700Y14700D02*
X18000Y14400D01*
X17700Y14700D02*
Y15700D01*
X23300Y24100D02*
Y25000D01*
X11300Y24200D02*
X16400D01*
X9700Y22600D02*
X11300Y24200D01*
X4769Y24231D02*
X6400Y22600D01*
X2900Y24231D02*
X4769D01*
X16900Y24900D02*
X17700Y24100D01*
X10600Y24900D02*
X16900D01*
X9800Y24100D02*
X10600Y24900D01*
X3191Y21400D02*
X6400D01*
X2900Y21691D02*
X3191Y21400D01*
X9700D02*
X11800Y23500D01*
X16300Y21100D02*
X18200D01*
X9900Y25300D02*
X18200D01*
X9800Y25200D02*
X9900Y25300D01*
X18200D02*
X18500Y25000D01*
Y24100D02*
Y25000D01*
X40400Y28600D02*
X47110D01*
X34500Y29000D02*
X46803D01*
X26450Y14375D02*
Y15050D01*
X26900Y15500D01*
Y16000D01*
X16300Y14775D02*
X18500Y12575D01*
X16300Y14775D02*
Y17100D01*
X14885Y13650D02*
X15960Y12575D01*
X14107Y13650D02*
X14885D01*
X11900Y36800D02*
X14234D01*
X9150Y39550D02*
X11900Y36800D01*
X9150Y39550D02*
Y43350D01*
X12100Y37200D02*
X14400D01*
X10800Y38500D02*
X12100Y37200D01*
X10800Y38500D02*
Y44240D01*
X9150Y45890D02*
X10800Y44240D01*
X19950Y31380D02*
X20300Y31730D01*
X19950Y30230D02*
X19950Y31380D01*
X22200Y28250D02*
X23450Y28250D01*
X20600Y28250D02*
Y30230D01*
X25800Y34350D02*
Y35850D01*
X19950Y34950D02*
Y35850D01*
Y34950D02*
X20550Y34350D01*
X19300Y34700D02*
Y35850D01*
Y34700D02*
X19650Y34350D01*
X18650Y34350D02*
X18650Y34350D01*
X18650Y34350D02*
Y35850D01*
X17650Y34350D02*
X18000Y34700D01*
Y35850D01*
X16750Y34350D02*
X17350Y34950D01*
Y35850D01*
X30530Y38530D02*
Y39625D01*
X25150Y35850D02*
Y36950D01*
X27990Y38790D02*
Y39625D01*
X24500Y35850D02*
Y36900D01*
X25450Y38850D02*
Y39625D01*
X23850Y37250D02*
X25450Y38850D01*
X23850Y35850D02*
Y37250D01*
X22910Y39625D02*
X23200Y39335D01*
Y35850D02*
Y39335D01*
X20370Y39130D02*
Y39625D01*
Y39130D02*
X22550Y36950D01*
Y35850D02*
Y36950D01*
X17830Y38670D02*
Y39625D01*
X21900Y35850D02*
Y36900D01*
X15290Y38510D02*
Y39625D01*
X21250Y35850D02*
Y36950D01*
X12750Y38050D02*
Y39625D01*
X20600Y35850D02*
Y36800D01*
X30530Y41225D02*
Y43750D01*
X27990Y41225D02*
Y43750D01*
X25450Y41225D02*
Y43750D01*
X22910Y41225D02*
Y43750D01*
X20370Y41225D02*
Y43750D01*
X17830Y41225D02*
Y43750D01*
X15290Y41225D02*
Y43750D01*
X12750Y41225D02*
Y43750D01*
X46803Y29000D02*
X49967Y32164D01*
X47371Y30275D02*
X49760Y32664D01*
X47110Y28600D02*
X50174Y31664D01*
X41734Y24264D02*
X55567D01*
X41800Y23764D02*
X54667D01*
X41964Y23264D02*
X53967D01*
X55492Y33189D02*
Y34550D01*
X54967Y32664D02*
X55492Y33189D01*
X49760Y32664D02*
X54967D01*
X50174Y31664D02*
X56872D01*
X49967Y32164D02*
X56267D01*
X56762Y32659D02*
Y34550D01*
X56267Y32164D02*
X56762Y32659D01*
X56872Y31664D02*
X57967Y32760D01*
Y34485D01*
X53967Y23264D02*
X54222Y23009D01*
X54667Y23764D02*
X55492Y22939D01*
X55567Y24264D02*
X56762Y23069D01*
Y21450D02*
Y23069D01*
X54222Y21450D02*
Y23009D01*
X55492Y21450D02*
Y22939D01*
X18000Y28200D02*
Y30230D01*
Y28200D02*
X18850Y27350D01*
Y26400D02*
Y27350D01*
X33300Y13850D02*
X36000D01*
X32200Y12750D02*
X33300Y13850D01*
Y21150D02*
X36000D01*
X32200Y22250D02*
X33300Y21150D01*
X31000Y17900D02*
X32200Y19100D01*
Y22250D01*
X32200Y12750D02*
X32200Y15900D01*
X31000Y17100D02*
X32200Y15900D01*
X28500Y18900D02*
X29750Y18900D01*
X24700Y17900D02*
X31000D01*
X24700Y17100D02*
X31000D01*
X24700Y20300D02*
X25575D01*
X26175Y20900D01*
X26900D01*
X28500Y21200D02*
X29750Y21200D01*
X15300Y17900D02*
X16300D01*
X14903Y17503D02*
X15300Y17900D01*
X14132Y17503D02*
X14903D01*
X14132Y15648D02*
Y17503D01*
X14087Y15603D02*
X14132Y15648D01*
X11282Y17503D02*
X12532Y17503D01*
X11282Y19275D02*
X12532Y19275D01*
X14132Y19275D02*
X14975D01*
X15200Y19500D01*
X16300D01*
X18850Y25650D02*
Y26400D01*
Y25650D02*
X19300Y25200D01*
Y24100D02*
Y25200D01*
X20600Y25800D02*
Y26425D01*
X20100Y25300D02*
X20600Y25800D01*
X20100Y24100D02*
Y25300D01*
X19300Y30230D02*
Y31730D01*
X17830Y38670D02*
X18100Y38400D01*
X20400D01*
X21900Y36900D01*
X15290Y38510D02*
X15800Y38000D01*
X20200D01*
X21250Y36950D01*
X12750Y38050D02*
X13200Y37600D01*
X19800D01*
X20600Y36800D01*
X14400Y37200D02*
X16100Y35500D01*
X24500Y36900D02*
X26000Y38400D01*
X27600D01*
X27990Y38790D01*
X25150Y36950D02*
X26200Y38000D01*
X30000D01*
X30530Y38530D01*
X16100Y34000D02*
Y35500D01*
Y34000D02*
X18650Y31450D01*
Y30230D02*
Y31450D01*
X18000Y30230D02*
Y31534D01*
X15700Y33834D02*
X18000Y31534D01*
X14234Y36800D02*
X15700Y35334D01*
Y33834D02*
Y35334D01*
X18650Y28700D02*
Y30230D01*
Y28700D02*
X20600Y26750D01*
Y26425D02*
Y26750D01*
X28550Y16000D02*
X29800Y16000D01*
X25500Y10675D02*
X25500Y11925D01*
X29100Y8400D02*
X30900D01*
X29100Y8400D02*
X29100Y8400D01*
X26450Y10850D02*
Y11925D01*
X26250Y8400D02*
X27500Y8400D01*
X40100Y21400D02*
X41964Y23264D01*
X39600Y21564D02*
X41800Y23764D01*
X27700Y12400D02*
Y14500D01*
X20800Y18000D02*
X22361D01*
X24175Y11925D02*
X24550D01*
X23900Y12200D02*
X24175Y11925D01*
X23900Y12200D02*
Y14100D01*
X24175Y14375D01*
X24550D01*
X27700Y12400D02*
X30600Y9500D01*
X33625D01*
X32500Y8400D02*
X33475D01*
X34100Y7775D01*
Y6300D02*
Y7775D01*
X29486Y14450D02*
X30977Y15941D01*
Y15951D01*
X10525Y5775D02*
Y6450D01*
Y5775D02*
X10700Y5600D01*
X10025Y5675D02*
Y6450D01*
Y5675D02*
X10500Y5200D01*
X11025Y6450D02*
Y7750D01*
X11325Y8050D01*
X9525Y5500D02*
Y6450D01*
Y5500D02*
X10925Y4100D01*
X9025Y4300D02*
Y6450D01*
Y4300D02*
X9225Y4100D01*
X10950Y2300D02*
Y4075D01*
X10925Y4100D02*
X10950Y4075D01*
X6850Y7850D02*
X8125D01*
X12925Y8850D02*
X13550D01*
X12925Y8350D02*
X13750D01*
X14575Y9175D02*
Y11175D01*
X13750Y8350D02*
X14575Y9175D01*
X13550Y8850D02*
X13800Y9100D01*
Y11675D01*
X20900Y23119D02*
Y24100D01*
X20832Y23076D02*
X20857D01*
X20900Y23119D01*
X20300Y21200D02*
Y22544D01*
X23025Y22206D02*
Y22225D01*
X23500Y22700D01*
X21319Y20500D02*
X23025Y22206D01*
X19900Y20500D02*
X21319D01*
X22500Y22651D02*
Y24100D01*
X22275Y22426D02*
X22500Y22651D01*
X20300Y22544D02*
X20832Y23076D01*
X21700Y22875D02*
Y24100D01*
X21350Y22525D02*
X21700Y22875D01*
X21350Y21575D02*
Y22525D01*
X21500Y14100D02*
X22000D01*
X22500Y13600D01*
X21700Y14800D02*
Y15700D01*
Y14800D02*
X21925Y14575D01*
X22325D01*
X23300Y11700D02*
Y15700D01*
Y11700D02*
X25475Y9525D01*
X28200D01*
X22325Y14575D02*
X22900Y14000D01*
Y10300D02*
Y14000D01*
X22500Y9700D02*
Y13600D01*
Y9700D02*
X24900Y7300D01*
X32400D01*
X22900Y10300D02*
X23800Y9400D01*
X28400Y24200D02*
X34475Y30275D01*
X23800Y7300D02*
X25900Y5200D01*
X10500D02*
X17549D01*
X18949Y3800D01*
X10700Y5600D02*
X20000D01*
X22000Y3600D01*
Y2300D02*
Y3600D01*
X21400Y1700D02*
X22000Y2300D01*
X19599Y2201D02*
Y2800D01*
Y2201D02*
X20100Y1700D01*
X21400D01*
X19800Y8500D02*
X20500D01*
X33693Y4200D02*
X33700D01*
X34200Y3700D01*
Y2000D02*
Y3700D01*
X32693Y5200D02*
X33693Y4200D01*
X20500Y8500D02*
X24800Y4200D01*
X25900Y5200D02*
X32693D01*
X24800Y4200D02*
X28600D01*
X28800Y4000D01*
Y3275D02*
Y4000D01*
X31700Y2972D02*
X31953Y3225D01*
X32778D01*
X30701Y1500D02*
X31400D01*
X31700Y1800D01*
Y2972D01*
X24700Y18700D02*
X26500D01*
X26900Y19100D01*
X36700Y1600D02*
X37100Y1200D01*
X40000Y3350D02*
X41950D01*
X42100Y3200D01*
X12525Y4100D02*
X12525Y4100D01*
X12925Y7350D02*
X15275D01*
X15960Y12575D02*
X17200Y11335D01*
Y7675D02*
Y11335D01*
X16875Y7350D02*
X17200Y7675D01*
D11*
X25550Y13450D02*
Y16000D01*
X21040Y8860D02*
Y10035D01*
Y8860D02*
X25200Y4700D01*
X30701Y3100D02*
Y4199D01*
X26500Y6300D02*
X32300D01*
X33900Y4700D01*
X36700D01*
X30200D02*
X30701Y4199D01*
X25200Y4700D02*
X30200D01*
X36700D02*
X37800Y3600D01*
Y2400D02*
Y3600D01*
D13*
X85976Y39286D02*
D03*
Y36786D02*
D03*
Y16786D02*
D03*
Y19286D02*
D03*
Y29286D02*
D03*
Y26786D02*
D03*
X22910Y43750D02*
D03*
X25450D02*
D03*
X30530D02*
D03*
X27990D02*
D03*
Y46290D02*
D03*
X30530D02*
D03*
X25450D02*
D03*
X22910D02*
D03*
Y48830D02*
D03*
X25450D02*
D03*
X30530D02*
D03*
X27990D02*
D03*
X20370D02*
D03*
X17830D02*
D03*
X15290D02*
D03*
X12750D02*
D03*
Y46290D02*
D03*
X15290D02*
D03*
X17830D02*
D03*
X20370D02*
D03*
X17830Y43750D02*
D03*
X15290D02*
D03*
X20370D02*
D03*
X9150Y43350D02*
D03*
X9150Y48430D02*
D03*
X9150Y45890D02*
D03*
X2900Y31851D02*
D03*
Y29311D02*
D03*
Y24231D02*
D03*
Y26771D02*
D03*
Y34391D02*
D03*
X39400Y8286D02*
D03*
X56400D02*
D03*
X39400Y47786D02*
D03*
X56400D02*
D03*
X66900Y13400D02*
D03*
X70400Y13400D02*
D03*
X66900Y41400D02*
D03*
X70400D02*
D03*
D14*
X12750Y43750D02*
D03*
D15*
X83576Y15536D02*
D03*
Y25536D02*
D03*
X83576Y35536D02*
D03*
X83576Y30536D02*
D03*
X83576Y20536D02*
D03*
D16*
X83576Y40536D02*
D03*
D17*
X9150Y50970D02*
D03*
X2900Y21691D02*
D03*
D18*
X26500Y6300D02*
D03*
X34100D02*
D03*
D19*
X21040Y10035D02*
D03*
X18500Y10035D02*
D03*
X15960Y10035D02*
D03*
X15960Y12575D02*
D03*
X18500D02*
D03*
D20*
X21040D02*
D03*
D21*
X19599Y2800D02*
D03*
X18299D02*
D03*
X20899D02*
D03*
X18949Y3800D02*
D03*
X20249D02*
D03*
D22*
X23174Y3020D02*
D03*
X16024D02*
D03*
D23*
X25350Y3050D02*
D03*
X34200Y800D02*
D03*
X8200Y1300D02*
D03*
X23100Y19500D02*
D03*
X9525Y9850D02*
D03*
X11525D02*
D03*
X9525Y7850D02*
D03*
X10525Y8850D02*
D03*
X32400Y7300D02*
D03*
X23100Y21100D02*
D03*
X20300Y21200D02*
D03*
X32150Y17025D02*
D03*
X28925Y14450D02*
D03*
X22500Y17000D02*
D03*
X34050Y11100D02*
D03*
X34800Y9700D02*
D03*
X28200Y9525D02*
D03*
X28450Y22950D02*
D03*
X21800Y18900D02*
D03*
X24000Y25300D02*
D03*
X16400Y24200D02*
D03*
X9700Y22600D02*
D03*
X6400D02*
D03*
Y21400D02*
D03*
X9700D02*
D03*
X9800Y25200D02*
D03*
Y24100D02*
D03*
X13750Y35950D02*
D03*
X20300Y31730D02*
D03*
X23450Y28250D02*
D03*
X25800Y34350D02*
D03*
X20550D02*
D03*
X19650D02*
D03*
X18650D02*
D03*
X17650D02*
D03*
X16750D02*
D03*
X48042Y3864D02*
D03*
X47317D02*
D03*
X46592D02*
D03*
X45867D02*
D03*
X45142D02*
D03*
Y4639D02*
D03*
Y5364D02*
D03*
X45867Y4639D02*
D03*
Y5364D02*
D03*
X46592D02*
D03*
Y4639D02*
D03*
X47317Y5364D02*
D03*
Y4639D02*
D03*
X48042Y5364D02*
D03*
Y4639D02*
D03*
X52867Y28664D02*
D03*
Y27964D02*
D03*
Y27264D02*
D03*
Y26564D02*
D03*
Y25864D02*
D03*
Y25164D02*
D03*
Y29364D02*
D03*
Y30064D02*
D03*
Y30764D02*
D03*
X51467Y30764D02*
D03*
X50767Y30764D02*
D03*
X52167Y30764D02*
D03*
X51467Y30064D02*
D03*
X50767Y30064D02*
D03*
X52167Y30064D02*
D03*
X51467Y29364D02*
D03*
X50767Y29364D02*
D03*
X52167Y29364D02*
D03*
X51467Y25164D02*
D03*
X50767Y25164D02*
D03*
X51467Y25864D02*
D03*
X50767Y25864D02*
D03*
X52167Y25864D02*
D03*
Y25164D02*
D03*
X48767Y3864D02*
D03*
Y4639D02*
D03*
X49492D02*
D03*
X52167Y26564D02*
D03*
X50767Y26564D02*
D03*
X51467Y26564D02*
D03*
X52167Y27264D02*
D03*
X50767Y27264D02*
D03*
X51467Y27264D02*
D03*
X52167Y27964D02*
D03*
X50767Y27964D02*
D03*
X51467Y27964D02*
D03*
X52167Y28664D02*
D03*
X50767Y28664D02*
D03*
X51467Y28664D02*
D03*
X48767Y5364D02*
D03*
X49492D02*
D03*
X50217D02*
D03*
Y4639D02*
D03*
X29750Y18900D02*
D03*
Y21200D02*
D03*
X17900Y20300D02*
D03*
X11282Y17503D02*
D03*
X11282Y19275D02*
D03*
X19300Y31730D02*
D03*
X29800Y16000D02*
D03*
X25500Y10675D02*
D03*
X26250Y8400D02*
D03*
X27700Y14500D02*
D03*
X22361Y18000D02*
D03*
X30977Y15951D02*
D03*
X11525Y7850D02*
D03*
X6853Y7861D02*
D03*
X14575Y11175D02*
D03*
X13800Y11675D02*
D03*
X22275Y22426D02*
D03*
X21350Y21575D02*
D03*
X19800Y8500D02*
D03*
X23800Y9400D02*
D03*
Y7300D02*
D03*
X28400Y24200D02*
D03*
X25950Y23200D02*
D03*
X13900Y4100D02*
D03*
X13925Y2300D02*
D03*
X7625Y5475D02*
D03*
X34750Y22750D02*
D03*
Y12250D02*
D03*
X40900Y20800D02*
D03*
Y19600D02*
D03*
D24*
X56903Y37200D02*
D03*
X58175Y4864D02*
D03*
D25*
X78067Y52161D02*
D03*
X79492Y52141D02*
D03*
X80917Y52161D02*
D03*
X82342D02*
D03*
X48100Y17200D02*
D03*
X47100Y17200D02*
D03*
X48100Y18300D02*
D03*
X47100Y18300D02*
D03*
X48100Y19400D02*
D03*
X47100Y19400D02*
D03*
Y21600D02*
D03*
X48100Y21600D02*
D03*
X47100Y20500D02*
D03*
X48100Y20500D02*
D03*
X72175Y31900D02*
D03*
X71067D02*
D03*
X72175Y28600D02*
D03*
X71067D02*
D03*
X68850Y31900D02*
D03*
Y28600D02*
D03*
X69958D02*
D03*
Y31900D02*
D03*
X49100Y42800D02*
D03*
X48000D02*
D03*
Y45000D02*
D03*
Y43900D02*
D03*
X49100Y45000D02*
D03*
Y43900D02*
D03*
X65267Y16500D02*
D03*
X57467Y52264D02*
D03*
X56367D02*
D03*
X55267D02*
D03*
X54167D02*
D03*
X50867D02*
D03*
X51967D02*
D03*
X53067D02*
D03*
Y51164D02*
D03*
Y50064D02*
D03*
X51967D02*
D03*
Y51164D02*
D03*
X50867Y50064D02*
D03*
Y51164D02*
D03*
X54167D02*
D03*
Y50064D02*
D03*
X55267Y51164D02*
D03*
Y50064D02*
D03*
X56367D02*
D03*
Y51164D02*
D03*
X57467Y50064D02*
D03*
Y51164D02*
D03*
X65067Y37064D02*
D03*
Y38164D02*
D03*
Y39264D02*
D03*
X82142Y3164D02*
D03*
X80717D02*
D03*
X59367Y19664D02*
D03*
X51867Y21264D02*
D03*
X50867Y21264D02*
D03*
X51867Y22364D02*
D03*
X50867Y22364D02*
D03*
X54267Y39064D02*
D03*
X78167Y48664D02*
D03*
X79467Y48644D02*
D03*
X73067Y43364D02*
D03*
Y42064D02*
D03*
X73092Y40064D02*
D03*
Y38764D02*
D03*
X79292Y3184D02*
D03*
X77867Y3164D02*
D03*
X76467Y11764D02*
D03*
Y13064D02*
D03*
Y15264D02*
D03*
Y16564D02*
D03*
X60767Y16664D02*
D03*
Y15664D02*
D03*
X59367Y16664D02*
D03*
Y15664D02*
D03*
X59267Y36336D02*
D03*
X60667D02*
D03*
X59267Y37336D02*
D03*
X60667Y37336D02*
D03*
X60767Y17664D02*
D03*
Y18664D02*
D03*
X59367Y17664D02*
D03*
Y18664D02*
D03*
X60767Y19664D02*
D03*
X65267Y15364D02*
D03*
Y14264D02*
D03*
Y13164D02*
D03*
X54167Y49064D02*
D03*
Y47964D02*
D03*
Y46864D02*
D03*
X53067Y49064D02*
D03*
Y47964D02*
D03*
Y46864D02*
D03*
X51967D02*
D03*
Y47964D02*
D03*
Y49064D02*
D03*
X50867Y46864D02*
D03*
Y47964D02*
D03*
Y49064D02*
D03*
X55667Y14364D02*
D03*
Y13364D02*
D03*
X54667Y13364D02*
D03*
Y14364D02*
D03*
X76442Y38764D02*
D03*
Y40064D02*
D03*
X76467Y42064D02*
D03*
Y43364D02*
D03*
X50867Y35564D02*
D03*
X50867Y33564D02*
D03*
X50867Y34564D02*
D03*
X51867Y35550D02*
D03*
X51867Y33550D02*
D03*
X51867Y34550D02*
D03*
X72175Y30775D02*
D03*
Y29675D02*
D03*
D26*
X25550Y13450D02*
D03*
X26424Y20047D02*
D03*
X25550Y16000D02*
D03*
D27*
X28800Y1325D02*
D03*
Y3275D02*
D03*
X32778Y1275D02*
D03*
Y3225D02*
D03*
D28*
X26700Y3050D02*
D03*
X26700Y1450D02*
D03*
X30701Y3100D02*
D03*
X30701Y1500D02*
D03*
X30530Y39625D02*
D03*
Y41225D02*
D03*
X27990Y39625D02*
D03*
Y41225D02*
D03*
X25450Y39625D02*
D03*
Y41225D02*
D03*
X22910Y39625D02*
D03*
Y41225D02*
D03*
X20370Y39625D02*
D03*
Y41225D02*
D03*
X17830Y39625D02*
D03*
Y41225D02*
D03*
X42100Y3200D02*
D03*
X42100Y1600D02*
D03*
X35700Y3200D02*
D03*
X35700Y1600D02*
D03*
X15290Y39625D02*
D03*
Y41225D02*
D03*
X12750Y39625D02*
D03*
Y41225D02*
D03*
X69950Y23739D02*
D03*
X69950Y22139D02*
D03*
X50408Y2336D02*
D03*
Y3936D02*
D03*
D29*
X5400Y13280D02*
D03*
Y9520D02*
D03*
X74800Y35570D02*
D03*
Y39330D02*
D03*
X81750Y46320D02*
D03*
Y50080D02*
D03*
X74800Y42920D02*
D03*
Y46680D02*
D03*
X81750Y8880D02*
D03*
Y5120D02*
D03*
X74800Y19780D02*
D03*
Y16020D02*
D03*
Y12380D02*
D03*
Y8620D02*
D03*
D30*
X15275Y7350D02*
D03*
X16875Y7350D02*
D03*
X7625Y4100D02*
D03*
X9225Y4100D02*
D03*
X14132Y17503D02*
D03*
X12532D02*
D03*
X14132Y19275D02*
D03*
X12532Y19275D02*
D03*
X7625Y2325D02*
D03*
X9225Y2325D02*
D03*
X26900Y16000D02*
D03*
X28500Y16000D02*
D03*
X10925Y4100D02*
D03*
X12525Y4100D02*
D03*
X54250Y37500D02*
D03*
X52650D02*
D03*
X26900Y18900D02*
D03*
X28500Y18900D02*
D03*
X26900Y21200D02*
D03*
X28500Y21200D02*
D03*
D31*
X12025Y6450D02*
D03*
X11525D02*
D03*
X11025D02*
D03*
X10525D02*
D03*
X10025D02*
D03*
X9525D02*
D03*
X9025D02*
D03*
Y11250D02*
D03*
X9525D02*
D03*
X10025D02*
D03*
X10525D02*
D03*
X11025D02*
D03*
X11525D02*
D03*
X12025D02*
D03*
D32*
X8125Y7350D02*
D03*
Y7850D02*
D03*
Y8350D02*
D03*
Y8850D02*
D03*
Y9350D02*
D03*
Y9850D02*
D03*
Y10350D02*
D03*
X12925Y10350D02*
D03*
Y9850D02*
D03*
Y9350D02*
D03*
Y8850D02*
D03*
Y8350D02*
D03*
Y7850D02*
D03*
Y7350D02*
D03*
D33*
X10525Y8850D02*
D03*
D34*
X23300Y24100D02*
D03*
X22500Y24100D02*
D03*
X21700Y24100D02*
D03*
X20900Y24100D02*
D03*
X20100D02*
D03*
X19300Y24100D02*
D03*
X18500Y24100D02*
D03*
X17700Y24100D02*
D03*
X17700Y15700D02*
D03*
X18500Y15700D02*
D03*
X19300Y15700D02*
D03*
X20100Y15700D02*
D03*
X20900Y15700D02*
D03*
X21700Y15700D02*
D03*
X22500Y15700D02*
D03*
X23300Y15700D02*
D03*
D35*
X16300Y22700D02*
D03*
X16300Y21900D02*
D03*
X16300Y21100D02*
D03*
X16300Y20300D02*
D03*
X16300Y19500D02*
D03*
X16300Y18700D02*
D03*
X16300Y17900D02*
D03*
Y17100D02*
D03*
X24700Y17100D02*
D03*
X24700Y17900D02*
D03*
X24700Y18700D02*
D03*
Y19500D02*
D03*
X24700Y20300D02*
D03*
X24700Y21100D02*
D03*
Y21900D02*
D03*
X24700Y22700D02*
D03*
D36*
X12507Y13650D02*
D03*
X14107Y13650D02*
D03*
X20600Y28250D02*
D03*
X22200D02*
D03*
X17250Y26400D02*
D03*
X18850D02*
D03*
X22200Y26425D02*
D03*
X20600Y26425D02*
D03*
X10950Y2300D02*
D03*
X12550Y2300D02*
D03*
X29100Y8400D02*
D03*
X27500Y8400D02*
D03*
X32500Y8400D02*
D03*
X30900Y8400D02*
D03*
X60958Y47786D02*
D03*
X59358D02*
D03*
D37*
X36000Y13850D02*
D03*
Y12250D02*
D03*
X36000Y21150D02*
D03*
X36000Y22750D02*
D03*
D38*
X26450Y14375D02*
D03*
X24550Y14375D02*
D03*
X24550Y11925D02*
D03*
X25500Y11925D02*
D03*
X26450D02*
D03*
D39*
X47006Y11376D02*
D03*
X44695Y11376D02*
D03*
X42384Y11376D02*
D03*
D40*
X44695Y17474D02*
D03*
D41*
X45145Y20500D02*
D03*
X42555D02*
D03*
X42505Y8300D02*
D03*
X45095D02*
D03*
X55005Y18300D02*
D03*
X57595D02*
D03*
D42*
X14087Y15603D02*
D03*
X12567Y15603D02*
D03*
D43*
X69828Y37776D02*
D03*
X66828D02*
D03*
X70228Y18876D02*
D03*
X67228D02*
D03*
D44*
X78580Y50400D02*
D03*
X74820D02*
D03*
X78580Y4900D02*
D03*
X74820D02*
D03*
D45*
X13750Y34360D02*
D03*
Y31770D02*
D03*
D46*
X25150Y30230D02*
D03*
X25800D02*
D03*
Y35850D02*
D03*
X23850Y30230D02*
D03*
X23200D02*
D03*
X22550D02*
D03*
X21900D02*
D03*
X24500D02*
D03*
X25150Y35850D02*
D03*
X24500D02*
D03*
X21900D02*
D03*
X22550D02*
D03*
X23200D02*
D03*
X23850D02*
D03*
X19950Y30230D02*
D03*
X19300D02*
D03*
X19950Y35850D02*
D03*
X19300D02*
D03*
X18650Y30230D02*
D03*
X18000D02*
D03*
X17350D02*
D03*
X20600D02*
D03*
X18650Y35850D02*
D03*
X18000D02*
D03*
X17350D02*
D03*
X20600D02*
D03*
X21250D02*
D03*
X21250Y30230D02*
D03*
D47*
X58700Y28036D02*
D03*
D48*
X64415Y21486D02*
D03*
X63145D02*
D03*
X61875D02*
D03*
X60605D02*
D03*
X59335D02*
D03*
X58065D02*
D03*
X56795D02*
D03*
X55525D02*
D03*
X54255D02*
D03*
X52985D02*
D03*
X64415Y34586D02*
D03*
X63145D02*
D03*
X61875D02*
D03*
X60605D02*
D03*
X59335D02*
D03*
X58065D02*
D03*
X56795D02*
D03*
X55525D02*
D03*
X54255D02*
D03*
X52985D02*
D03*
D49*
X32200Y12750D02*
D03*
Y22250D02*
D03*
D50*
X77852Y28000D02*
D03*
D51*
X69850Y30300D02*
D03*
Y25700D02*
D03*
D52*
X40000Y3350D02*
D03*
Y1450D02*
D03*
X37800Y2400D02*
D03*
D53*
X25350Y3050D02*
X26700D01*
X28675Y1450D02*
X28800Y1325D01*
X26700Y1450D02*
X28675D01*
X33725Y1275D02*
X34200Y800D01*
X32778Y1275D02*
X33725D01*
X5400Y6800D02*
Y9520D01*
X7625Y1875D02*
X8200Y1300D01*
X7625Y1875D02*
Y2325D01*
X6600Y1100D02*
X7100Y600D01*
X9800D01*
X25550Y16000D02*
Y16000D01*
Y16000D02*
X26900Y16000D01*
X13750Y34360D02*
Y35950D01*
X57967Y34485D02*
X58032Y34550D01*
X23100Y19500D02*
X24700D01*
X23100Y21100D02*
X24700D01*
X16300Y20300D02*
X17900D01*
X13750Y31770D02*
X16730D01*
X17350Y31150D01*
Y30230D02*
Y31150D01*
X9225Y2325D02*
Y4100D01*
Y1175D02*
Y2325D01*
Y1175D02*
X9800Y600D01*
X7600Y2300D02*
X7625Y2325D01*
X6600Y1100D02*
Y5600D01*
X5400Y6800D02*
X6600Y5600D01*
X9800Y600D02*
X16099D01*
X18299Y2800D01*
X12525Y4100D02*
X13900D01*
X12550Y2300D02*
X13925D01*
X7625Y4100D02*
Y5475D01*
X35950Y22700D02*
X36000Y22750D01*
X34750D02*
X36000D01*
X34750Y12250D02*
X36000D01*
X40900Y20800D02*
X42255D01*
X42555Y20500D01*
X41655Y19600D02*
X42555Y20500D01*
X40900Y19600D02*
X41655D01*
D54*
X56903Y37200D02*
X70067Y50364D01*
X58175Y4864D02*
X74820D01*
X56540Y24760D02*
X67067D01*
Y27367D01*
X57867Y31164D02*
X66500D01*
X70067Y50364D02*
X74784D01*
X42324Y8453D02*
X42491Y8286D01*
X57720Y31311D02*
X57867Y31164D01*
X39217Y8400D02*
X39367Y8250D01*
X74784Y50364D02*
X74820Y50400D01*
D55*
X26900Y19100D02*
Y19197D01*
D56*
X59302Y36499D02*
X59367Y36564D01*
X54267Y37464D02*
Y39064D01*
X54222Y34550D02*
Y37419D01*
X69950Y23739D02*
Y25639D01*
X69850Y25739D02*
X69950Y25639D01*
D57*
X37381Y6264D02*
X39367Y8250D01*
X34067Y6264D02*
X37381D01*
D58*
X50408Y3136D02*
D03*
D59*
X60158Y47786D02*
D03*
M02*
