G04 Layer_Color=8388736*
%FSLAX43Y43*%
%MOMM*%
G71*
G01*
G75*
%ADD29C,0.800*%
%ADD30C,1.500*%
G04:AMPARAMS|DCode=70|XSize=2mm|YSize=1.6mm|CornerRadius=0.237mm|HoleSize=0mm|Usage=FLASHONLY|Rotation=90.000|XOffset=0mm|YOffset=0mm|HoleType=Round|Shape=RoundedRectangle|*
%AMROUNDEDRECTD70*
21,1,2.000,1.125,0,0,90.0*
21,1,1.525,1.600,0,0,90.0*
1,1,0.475,0.563,0.762*
1,1,0.475,0.563,-0.762*
1,1,0.475,-0.563,-0.762*
1,1,0.475,-0.563,0.762*
%
%ADD70ROUNDEDRECTD70*%
G04:AMPARAMS|DCode=71|XSize=2mm|YSize=1.8mm|CornerRadius=0.56mm|HoleSize=0mm|Usage=FLASHONLY|Rotation=270.000|XOffset=0mm|YOffset=0mm|HoleType=Round|Shape=RoundedRectangle|*
%AMROUNDEDRECTD71*
21,1,2.000,0.680,0,0,270.0*
21,1,0.880,1.800,0,0,270.0*
1,1,1.120,-0.340,-0.440*
1,1,1.120,-0.340,0.440*
1,1,1.120,0.340,0.440*
1,1,1.120,0.340,-0.440*
%
%ADD71ROUNDEDRECTD71*%
G04:AMPARAMS|DCode=72|XSize=1.45mm|YSize=0.5mm|CornerRadius=0.1mm|HoleSize=0mm|Usage=FLASHONLY|Rotation=90.000|XOffset=0mm|YOffset=0mm|HoleType=Round|Shape=RoundedRectangle|*
%AMROUNDEDRECTD72*
21,1,1.450,0.300,0,0,90.0*
21,1,1.250,0.500,0,0,90.0*
1,1,0.200,0.150,0.625*
1,1,0.200,0.150,-0.625*
1,1,0.200,-0.150,-0.625*
1,1,0.200,-0.150,0.625*
%
%ADD72ROUNDEDRECTD72*%
%ADD73C,1.550*%
G04:AMPARAMS|DCode=74|XSize=2mm|YSize=1.3mm|CornerRadius=0.41mm|HoleSize=0mm|Usage=FLASHONLY|Rotation=270.000|XOffset=0mm|YOffset=0mm|HoleType=Round|Shape=RoundedRectangle|*
%AMROUNDEDRECTD74*
21,1,2.000,0.480,0,0,270.0*
21,1,1.180,1.300,0,0,270.0*
1,1,0.820,-0.240,-0.590*
1,1,0.820,-0.240,0.590*
1,1,0.820,0.240,0.590*
1,1,0.820,0.240,-0.590*
%
%ADD74ROUNDEDRECTD74*%
%ADD75C,2.000*%
%ADD76C,2.103*%
%ADD77R,1.800X1.800*%
%ADD78C,1.800*%
%ADD79R,2.000X2.000*%
%ADD80C,0.100*%
%ADD81C,2.300*%
%ADD82R,2.300X2.300*%
%ADD83R,2.000X2.000*%
D29*
X51467Y28664D02*
D03*
X50767Y28664D02*
D03*
X52167Y28664D02*
D03*
X51467Y27964D02*
D03*
X50767Y27964D02*
D03*
X52167Y27964D02*
D03*
X51467Y27264D02*
D03*
X50767Y27264D02*
D03*
X52167Y27264D02*
D03*
X51467Y26564D02*
D03*
X50767Y26564D02*
D03*
X52167Y26564D02*
D03*
Y25164D02*
D03*
Y25864D02*
D03*
X50767Y25864D02*
D03*
X51467Y25864D02*
D03*
X50767Y25164D02*
D03*
X51467Y25164D02*
D03*
X52167Y29364D02*
D03*
X50767Y29364D02*
D03*
X51467Y29364D02*
D03*
X52167Y30064D02*
D03*
X50767Y30064D02*
D03*
X51467Y30064D02*
D03*
X52167Y30764D02*
D03*
X50767Y30764D02*
D03*
X51467Y30764D02*
D03*
X52867Y30764D02*
D03*
Y30064D02*
D03*
Y29364D02*
D03*
Y25164D02*
D03*
Y25864D02*
D03*
Y26564D02*
D03*
Y27264D02*
D03*
Y27964D02*
D03*
Y28664D02*
D03*
D30*
X34100Y6300D02*
D03*
X26500D02*
D03*
D70*
X18948Y2050D02*
D03*
X16948D02*
D03*
D71*
X21073D02*
D03*
X14823Y2050D02*
D03*
D72*
X19248Y4750D02*
D03*
X18598D02*
D03*
X17948D02*
D03*
X17298D02*
D03*
X16648D02*
D03*
D73*
X20448D02*
D03*
X15448D02*
D03*
D74*
X21448Y2050D02*
D03*
X14448Y2050D02*
D03*
D75*
X70400Y41400D02*
D03*
X66900Y13400D02*
D03*
X56400Y47786D02*
D03*
X39400D02*
D03*
X56400Y8286D02*
D03*
X39400D02*
D03*
X2900Y34391D02*
D03*
Y26771D02*
D03*
Y24231D02*
D03*
Y31851D02*
D03*
X9150Y45890D02*
D03*
X9150Y48430D02*
D03*
X15290Y43750D02*
D03*
X17830D02*
D03*
X20370Y46290D02*
D03*
X17830D02*
D03*
X15290D02*
D03*
X12750D02*
D03*
Y48830D02*
D03*
X15290D02*
D03*
X17830D02*
D03*
X20370D02*
D03*
X27990D02*
D03*
X30530D02*
D03*
X25450D02*
D03*
X22910D02*
D03*
Y46290D02*
D03*
X25450D02*
D03*
X30530D02*
D03*
X27990D02*
D03*
Y43750D02*
D03*
X30530D02*
D03*
X25450D02*
D03*
X22910D02*
D03*
X85976Y26786D02*
D03*
Y29286D02*
D03*
Y19286D02*
D03*
Y16786D02*
D03*
Y36786D02*
D03*
Y39286D02*
D03*
D76*
X66900Y41400D02*
D03*
X70400Y13400D02*
D03*
X2900Y29311D02*
D03*
X9150Y43350D02*
D03*
X20370Y43750D02*
D03*
D77*
X21040Y12575D02*
D03*
D78*
X18500D02*
D03*
X15960D02*
D03*
X15960Y10035D02*
D03*
X18500Y10035D02*
D03*
X21040Y10035D02*
D03*
D79*
X2900Y21691D02*
D03*
X9150Y50970D02*
D03*
D80*
X3500Y3500D02*
D03*
Y52500D02*
D03*
X86500D02*
D03*
X86500Y3500D02*
D03*
D81*
X83576Y20536D02*
D03*
X83576Y30536D02*
D03*
X83576Y35536D02*
D03*
X83576Y25536D02*
D03*
Y15536D02*
D03*
D82*
Y40536D02*
D03*
D83*
X12750Y43750D02*
D03*
M02*
